<?xml version="1.0" encoding="utf-8" standalone="no"?>
<!DOCTYPE svg PUBLIC "-//W3C//DTD SVG 1.1//EN"
  "http://www.w3.org/Graphics/SVG/1.1/DTD/svg11.dtd">
<svg xmlns:xlink="http://www.w3.org/1999/xlink" width="525.218281pt" height="406.552969pt" viewBox="0 0 525.218281 406.552969" xmlns="http://www.w3.org/2000/svg" version="1.1">
 <metadata>
  <rdf:RDF xmlns:dc="http://purl.org/dc/elements/1.1/" xmlns:cc="http://creativecommons.org/ns#" xmlns:rdf="http://www.w3.org/1999/02/22-rdf-syntax-ns#">
   <cc:Work>
    <dc:type rdf:resource="http://purl.org/dc/dcmitype/StillImage"/>
    <dc:date>2026-01-12T16:05:45.447661</dc:date>
    <dc:format>image/svg+xml</dc:format>
    <dc:creator>
     <cc:Agent>
      <dc:title>Matplotlib v3.10.7, https://matplotlib.org/</dc:title>
     </cc:Agent>
    </dc:creator>
   </cc:Work>
  </rdf:RDF>
 </metadata>
 <defs>
  <style type="text/css">*{stroke-linejoin: round; stroke-linecap: butt}</style>
 </defs>
 <g id="figure_1">
  <g id="patch_1">
   <path d="M 0 406.552969 
L 525.218281 406.552969 
L 525.218281 0 
L 0 0 
z
" style="fill: #ffffff"/>
  </g>
  <g id="axes_1">
   <g id="patch_2">
    <path d="M 67.298281 173.518125 
L 264.418281 173.518125 
L 264.418281 29.518125 
L 67.298281 29.518125 
z
" style="fill: #ffffff"/>
   </g>
   <g id="FillBetweenPolyCollection_1">
    <path d="M 76.258281 76.823412 
L 76.258281 162.05961 
L 78.068382 161.338295 
L 79.878483 160.616979 
L 81.688584 159.895664 
L 83.498685 159.174348 
L 85.308786 158.453033 
L 87.118887 157.731717 
L 88.928988 157.010402 
L 90.739089 156.289086 
L 92.54919 155.567771 
L 94.359291 154.846456 
L 96.169392 154.12514 
L 97.979493 153.403825 
L 99.789594 152.682509 
L 101.599695 151.961194 
L 103.409796 151.239878 
L 105.219897 150.591521 
L 107.029998 149.8057 
L 108.840099 149.190715 
L 110.6502 148.448356 
L 112.460301 147.789509 
L 114.270402 147.130662 
L 116.080503 146.471815 
L 117.890604 145.812968 
L 119.700705 145.150174 
L 121.510807 144.620935 
L 123.320908 143.828263 
L 125.131009 143.171961 
L 126.94111 142.515659 
L 128.751211 141.859357 
L 130.561312 141.195627 
L 132.371413 140.524449 
L 134.181514 139.862043 
L 135.991615 139.207982 
L 137.801716 138.699345 
L 139.611817 138.089329 
L 141.421918 137.572519 
L 143.232019 137.102065 
L 145.04212 136.620062 
L 146.852221 136.063696 
L 148.662322 135.60672 
L 150.472423 134.880538 
L 152.282524 134.407723 
L 154.092625 134.149789 
L 155.902726 133.481399 
L 157.712827 133.182534 
L 159.522928 132.589769 
L 161.333029 132.127476 
L 163.14313 131.678792 
L 164.953231 131.087492 
L 166.763332 130.618183 
L 168.573433 130.12612 
L 170.383534 129.876008 
L 172.193635 129.757576 
L 174.003736 130.210281 
L 175.813837 130.285721 
L 177.623938 130.343403 
L 179.434039 130.427078 
L 181.24414 130.479985 
L 183.054241 131.048314 
L 184.864342 131.506088 
L 186.674443 131.826913 
L 188.484544 132.372747 
L 190.294645 132.751295 
L 192.104746 133.337172 
L 193.914847 134.020862 
L 195.724948 134.704758 
L 197.535049 135.536181 
L 199.34515 136.197286 
L 201.155251 136.936991 
L 202.965352 137.715993 
L 204.775453 138.471382 
L 206.585554 139.042752 
L 208.395655 139.587881 
L 210.205756 140.169575 
L 212.015857 140.769833 
L 213.825958 141.366402 
L 215.636059 142.222219 
L 217.44616 142.910273 
L 219.256261 143.594066 
L 221.066362 144.411743 
L 222.876463 145.257982 
L 224.686564 146.061217 
L 226.496665 146.737459 
L 228.306766 147.396835 
L 230.116867 148.051336 
L 231.926968 148.744253 
L 233.737069 149.504572 
L 235.54717 150.272636 
L 237.357271 150.976463 
L 239.167372 151.680289 
L 240.977473 152.384116 
L 242.787574 153.087943 
L 244.597675 153.791769 
L 246.407776 154.533868 
L 248.217877 155.376458 
L 250.027978 156.217931 
L 251.838079 156.863203 
L 253.64818 157.69044 
L 255.458281 158.693662 
L 255.458281 86.05929 
L 255.458281 86.05929 
L 253.64818 86.888022 
L 251.838079 87.431921 
L 250.027978 87.681059 
L 248.217877 87.934221 
L 246.407776 88.291791 
L 244.597675 88.5864 
L 242.787574 89.154252 
L 240.977473 89.723533 
L 239.167372 90.313529 
L 237.357271 91.173868 
L 235.54717 91.996759 
L 233.737069 92.439668 
L 231.926968 92.950588 
L 230.116867 93.286427 
L 228.306766 93.807633 
L 226.496665 94.438063 
L 224.686564 94.922805 
L 222.876463 95.401096 
L 221.066362 95.891743 
L 219.256261 96.381924 
L 217.44616 96.963524 
L 215.636059 97.431134 
L 213.825958 98.387809 
L 212.015857 98.954318 
L 210.205756 99.588427 
L 208.395655 100.119944 
L 206.585554 100.731329 
L 204.775453 101.182847 
L 202.965352 101.453194 
L 201.155251 101.571706 
L 199.34515 101.72758 
L 197.535049 102.202845 
L 195.724948 102.58439 
L 193.914847 102.831373 
L 192.104746 103.105526 
L 190.294645 103.269831 
L 188.484544 103.194746 
L 186.674443 103.119661 
L 184.864342 102.996827 
L 183.054241 103.096265 
L 181.24414 103.200144 
L 179.434039 103.076469 
L 177.623938 103.030433 
L 175.813837 103.262046 
L 174.003736 103.116117 
L 172.193635 103.119954 
L 170.383534 103.223177 
L 168.573433 103.205728 
L 166.763332 102.967146 
L 164.953231 102.736188 
L 163.14313 102.497932 
L 161.333029 102.240048 
L 159.522928 102.009246 
L 157.712827 101.778016 
L 155.902726 101.565163 
L 154.092625 101.330731 
L 152.282524 101.069975 
L 150.472423 100.860003 
L 148.662322 100.719585 
L 146.852221 100.358436 
L 145.04212 100.413849 
L 143.232019 100.159309 
L 141.421918 99.905328 
L 139.611817 99.647049 
L 137.801716 99.168837 
L 135.991615 98.643522 
L 134.181514 98.136879 
L 132.371413 97.584341 
L 130.561312 97.260306 
L 128.751211 96.621909 
L 126.94111 96.226759 
L 125.131009 95.540897 
L 123.320908 95.14051 
L 121.510807 94.595311 
L 119.700705 94.060632 
L 117.890604 93.465743 
L 116.080503 92.698227 
L 114.270402 92.126712 
L 112.460301 91.389994 
L 110.6502 90.653276 
L 108.840099 89.914772 
L 107.029998 89.179614 
L 105.219897 88.431911 
L 103.409796 87.588513 
L 101.599695 86.909547 
L 99.789594 86.236447 
L 97.979493 85.500001 
L 96.169392 84.772017 
L 94.359291 84.289814 
L 92.54919 83.860388 
L 90.739089 83.1659 
L 88.928988 82.259333 
L 87.118887 81.352765 
L 85.308786 80.44651 
L 83.498685 79.809889 
L 81.688584 79.138759 
L 79.878483 78.328986 
L 78.068382 77.621776 
L 76.258281 76.823412 
z
" clip-path="url(#p479452fd15)" style="fill: #ffa500; fill-opacity: 0.15"/>
   </g>
   <g id="PathCollection_1">
    <defs>
     <path id="mb82c5101b8" d="M -2.645751 2.645751 
L 2.645751 2.645751 
L 2.645751 -2.645751 
L -2.645751 -2.645751 
z
" style="stroke: #808080; stroke-opacity: 0.85"/>
    </defs>
    <g clip-path="url(#p479452fd15)">
     <use xlink:href="#mb82c5101b8" x="179.434039" y="120.521706" style="fill: #808080; fill-opacity: 0.85; stroke: #808080; stroke-opacity: 0.85"/>
     <use xlink:href="#mb82c5101b8" x="190.294645" y="135.923348" style="fill: #808080; fill-opacity: 0.85; stroke: #808080; stroke-opacity: 0.85"/>
     <use xlink:href="#mb82c5101b8" x="184.864342" y="115.872201" style="fill: #808080; fill-opacity: 0.85; stroke: #808080; stroke-opacity: 0.85"/>
     <use xlink:href="#mb82c5101b8" x="255.458281" y="102.946582" style="fill: #808080; fill-opacity: 0.85; stroke: #808080; stroke-opacity: 0.85"/>
     <use xlink:href="#mb82c5101b8" x="130.561312" y="127.431444" style="fill: #808080; fill-opacity: 0.85; stroke: #808080; stroke-opacity: 0.85"/>
     <use xlink:href="#mb82c5101b8" x="174.003736" y="109.026791" style="fill: #808080; fill-opacity: 0.85; stroke: #808080; stroke-opacity: 0.85"/>
     <use xlink:href="#mb82c5101b8" x="152.282524" y="115.678155" style="fill: #808080; fill-opacity: 0.85; stroke: #808080; stroke-opacity: 0.85"/>
     <use xlink:href="#mb82c5101b8" x="201.155251" y="128.53715" style="fill: #808080; fill-opacity: 0.85; stroke: #808080; stroke-opacity: 0.85"/>
    </g>
   </g>
   <g id="PathCollection_2">
    <defs>
     <path id="m1283d46d95" d="M 0 -2.645751 
L -2.645751 2.645751 
L 2.645751 2.645751 
z
" style="stroke: #808080; stroke-opacity: 0.85"/>
    </defs>
    <g clip-path="url(#p479452fd15)">
     <use xlink:href="#m1283d46d95" x="195.724948" y="134.63634" style="fill: #808080; fill-opacity: 0.85; stroke: #808080; stroke-opacity: 0.85"/>
     <use xlink:href="#m1283d46d95" x="168.573433" y="136.783824" style="fill: #808080; fill-opacity: 0.85; stroke: #808080; stroke-opacity: 0.85"/>
     <use xlink:href="#m1283d46d95" x="141.421918" y="126.73464" style="fill: #808080; fill-opacity: 0.85; stroke: #808080; stroke-opacity: 0.85"/>
     <use xlink:href="#m1283d46d95" x="195.724948" y="135.701307" style="fill: #808080; fill-opacity: 0.85; stroke: #808080; stroke-opacity: 0.85"/>
     <use xlink:href="#m1283d46d95" x="168.573433" y="151.795635" style="fill: #808080; fill-opacity: 0.85; stroke: #808080; stroke-opacity: 0.85"/>
     <use xlink:href="#m1283d46d95" x="108.840099" y="65.53028" style="fill: #808080; fill-opacity: 0.85; stroke: #808080; stroke-opacity: 0.85"/>
     <use xlink:href="#m1283d46d95" x="239.167372" y="135.389037" style="fill: #808080; fill-opacity: 0.85; stroke: #808080; stroke-opacity: 0.85"/>
     <use xlink:href="#m1283d46d95" x="228.306766" y="36.06358" style="fill: #808080; fill-opacity: 0.85; stroke: #808080; stroke-opacity: 0.85"/>
     <use xlink:href="#m1283d46d95" x="222.876463" y="137.689658" style="fill: #808080; fill-opacity: 0.85; stroke: #808080; stroke-opacity: 0.85"/>
     <use xlink:href="#m1283d46d95" x="76.258281" y="85.60472" style="fill: #808080; fill-opacity: 0.85; stroke: #808080; stroke-opacity: 0.85"/>
    </g>
   </g>
   <g id="matplotlib.axis_1">
    <g id="xtick_1">
     <g id="line2d_1">
      <defs>
       <path id="m38253255a3" d="M 0 0 
L 0 3.5 
" style="stroke: #000000; stroke-width: 0.8"/>
      </defs>
      <g>
       <use xlink:href="#m38253255a3" x="81.688584" y="173.518125" style="stroke: #000000; stroke-width: 0.8"/>
      </g>
     </g>
     <g id="text_1">
      <!-- 50 -->
      <g transform="translate(74.689834 188.876406) scale(0.11 -0.11)">
       <defs>
        <path id="DejaVuSans-35" d="M 691 4666 
L 3169 4666 
L 3169 4134 
L 1269 4134 
L 1269 2991 
Q 1406 3038 1543 3061 
Q 1681 3084 1819 3084 
Q 2600 3084 3056 2656 
Q 3513 2228 3513 1497 
Q 3513 744 3044 326 
Q 2575 -91 1722 -91 
Q 1428 -91 1123 -41 
Q 819 9 494 109 
L 494 744 
Q 775 591 1075 516 
Q 1375 441 1709 441 
Q 2250 441 2565 725 
Q 2881 1009 2881 1497 
Q 2881 1984 2565 2268 
Q 2250 2553 1709 2553 
Q 1456 2553 1204 2497 
Q 953 2441 691 2322 
L 691 4666 
z
" transform="scale(0.015625)"/>
        <path id="DejaVuSans-30" d="M 2034 4250 
Q 1547 4250 1301 3770 
Q 1056 3291 1056 2328 
Q 1056 1369 1301 889 
Q 1547 409 2034 409 
Q 2525 409 2770 889 
Q 3016 1369 3016 2328 
Q 3016 3291 2770 3770 
Q 2525 4250 2034 4250 
z
M 2034 4750 
Q 2819 4750 3233 4129 
Q 3647 3509 3647 2328 
Q 3647 1150 3233 529 
Q 2819 -91 2034 -91 
Q 1250 -91 836 529 
Q 422 1150 422 2328 
Q 422 3509 836 4129 
Q 1250 4750 2034 4750 
z
" transform="scale(0.015625)"/>
       </defs>
       <use xlink:href="#DejaVuSans-35"/>
       <use xlink:href="#DejaVuSans-30" transform="translate(63.623047 0)"/>
      </g>
     </g>
    </g>
    <g id="xtick_2">
     <g id="line2d_2">
      <g>
       <use xlink:href="#m38253255a3" x="135.991615" y="173.518125" style="stroke: #000000; stroke-width: 0.8"/>
      </g>
     </g>
     <g id="text_2">
      <!-- 60 -->
      <g transform="translate(128.992865 188.876406) scale(0.11 -0.11)">
       <defs>
        <path id="DejaVuSans-36" d="M 2113 2584 
Q 1688 2584 1439 2293 
Q 1191 2003 1191 1497 
Q 1191 994 1439 701 
Q 1688 409 2113 409 
Q 2538 409 2786 701 
Q 3034 994 3034 1497 
Q 3034 2003 2786 2293 
Q 2538 2584 2113 2584 
z
M 3366 4563 
L 3366 3988 
Q 3128 4100 2886 4159 
Q 2644 4219 2406 4219 
Q 1781 4219 1451 3797 
Q 1122 3375 1075 2522 
Q 1259 2794 1537 2939 
Q 1816 3084 2150 3084 
Q 2853 3084 3261 2657 
Q 3669 2231 3669 1497 
Q 3669 778 3244 343 
Q 2819 -91 2113 -91 
Q 1303 -91 875 529 
Q 447 1150 447 2328 
Q 447 3434 972 4092 
Q 1497 4750 2381 4750 
Q 2619 4750 2861 4703 
Q 3103 4656 3366 4563 
z
" transform="scale(0.015625)"/>
       </defs>
       <use xlink:href="#DejaVuSans-36"/>
       <use xlink:href="#DejaVuSans-30" transform="translate(63.623047 0)"/>
      </g>
     </g>
    </g>
    <g id="xtick_3">
     <g id="line2d_3">
      <g>
       <use xlink:href="#m38253255a3" x="190.294645" y="173.518125" style="stroke: #000000; stroke-width: 0.8"/>
      </g>
     </g>
     <g id="text_3">
      <!-- 70 -->
      <g transform="translate(183.295895 188.876406) scale(0.11 -0.11)">
       <defs>
        <path id="DejaVuSans-37" d="M 525 4666 
L 3525 4666 
L 3525 4397 
L 1831 0 
L 1172 0 
L 2766 4134 
L 525 4134 
L 525 4666 
z
" transform="scale(0.015625)"/>
       </defs>
       <use xlink:href="#DejaVuSans-37"/>
       <use xlink:href="#DejaVuSans-30" transform="translate(63.623047 0)"/>
      </g>
     </g>
    </g>
    <g id="xtick_4">
     <g id="line2d_4">
      <g>
       <use xlink:href="#m38253255a3" x="244.597675" y="173.518125" style="stroke: #000000; stroke-width: 0.8"/>
      </g>
     </g>
     <g id="text_4">
      <!-- 80 -->
      <g transform="translate(237.598925 188.876406) scale(0.11 -0.11)">
       <defs>
        <path id="DejaVuSans-38" d="M 2034 2216 
Q 1584 2216 1326 1975 
Q 1069 1734 1069 1313 
Q 1069 891 1326 650 
Q 1584 409 2034 409 
Q 2484 409 2743 651 
Q 3003 894 3003 1313 
Q 3003 1734 2745 1975 
Q 2488 2216 2034 2216 
z
M 1403 2484 
Q 997 2584 770 2862 
Q 544 3141 544 3541 
Q 544 4100 942 4425 
Q 1341 4750 2034 4750 
Q 2731 4750 3128 4425 
Q 3525 4100 3525 3541 
Q 3525 3141 3298 2862 
Q 3072 2584 2669 2484 
Q 3125 2378 3379 2068 
Q 3634 1759 3634 1313 
Q 3634 634 3220 271 
Q 2806 -91 2034 -91 
Q 1263 -91 848 271 
Q 434 634 434 1313 
Q 434 1759 690 2068 
Q 947 2378 1403 2484 
z
M 1172 3481 
Q 1172 3119 1398 2916 
Q 1625 2713 2034 2713 
Q 2441 2713 2670 2916 
Q 2900 3119 2900 3481 
Q 2900 3844 2670 4047 
Q 2441 4250 2034 4250 
Q 1625 4250 1398 4047 
Q 1172 3844 1172 3481 
z
" transform="scale(0.015625)"/>
       </defs>
       <use xlink:href="#DejaVuSans-38"/>
       <use xlink:href="#DejaVuSans-30" transform="translate(63.623047 0)"/>
      </g>
     </g>
    </g>
   </g>
   <g id="matplotlib.axis_2">
    <g id="ytick_1">
     <g id="line2d_5">
      <defs>
       <path id="me5688a0cce" d="M 0 0 
L -3.5 0 
" style="stroke: #000000; stroke-width: 0.8"/>
      </defs>
      <g>
       <use xlink:href="#me5688a0cce" x="67.298281" y="167.693242" style="stroke: #000000; stroke-width: 0.8"/>
      </g>
     </g>
     <g id="text_5">
      <!-- −20 -->
      <g transform="translate(37.083125 171.872382) scale(0.11 -0.11)">
       <defs>
        <path id="DejaVuSans-2212" d="M 678 2272 
L 4684 2272 
L 4684 1741 
L 678 1741 
L 678 2272 
z
" transform="scale(0.015625)"/>
        <path id="DejaVuSans-32" d="M 1228 531 
L 3431 531 
L 3431 0 
L 469 0 
L 469 531 
Q 828 903 1448 1529 
Q 2069 2156 2228 2338 
Q 2531 2678 2651 2914 
Q 2772 3150 2772 3378 
Q 2772 3750 2511 3984 
Q 2250 4219 1831 4219 
Q 1534 4219 1204 4116 
Q 875 4013 500 3803 
L 500 4441 
Q 881 4594 1212 4672 
Q 1544 4750 1819 4750 
Q 2544 4750 2975 4387 
Q 3406 4025 3406 3419 
Q 3406 3131 3298 2873 
Q 3191 2616 2906 2266 
Q 2828 2175 2409 1742 
Q 1991 1309 1228 531 
z
" transform="scale(0.015625)"/>
       </defs>
       <use xlink:href="#DejaVuSans-2212"/>
       <use xlink:href="#DejaVuSans-32" transform="translate(83.789062 0)"/>
       <use xlink:href="#DejaVuSans-30" transform="translate(147.412109 0)"/>
      </g>
     </g>
    </g>
    <g id="ytick_2">
     <g id="line2d_6">
      <g>
       <use xlink:href="#me5688a0cce" x="67.298281" y="141.861654" style="stroke: #000000; stroke-width: 0.8"/>
      </g>
     </g>
     <g id="text_6">
      <!-- 0 -->
      <g transform="translate(53.299531 146.040795) scale(0.11 -0.11)">
       <use xlink:href="#DejaVuSans-30"/>
      </g>
     </g>
    </g>
    <g id="ytick_3">
     <g id="line2d_7">
      <g>
       <use xlink:href="#me5688a0cce" x="67.298281" y="116.030067" style="stroke: #000000; stroke-width: 0.8"/>
      </g>
     </g>
     <g id="text_7">
      <!-- 20 -->
      <g transform="translate(46.300781 120.209207) scale(0.11 -0.11)">
       <use xlink:href="#DejaVuSans-32"/>
       <use xlink:href="#DejaVuSans-30" transform="translate(63.623047 0)"/>
      </g>
     </g>
    </g>
    <g id="ytick_4">
     <g id="line2d_8">
      <g>
       <use xlink:href="#me5688a0cce" x="67.298281" y="90.198479" style="stroke: #000000; stroke-width: 0.8"/>
      </g>
     </g>
     <g id="text_8">
      <!-- 40 -->
      <g transform="translate(46.300781 94.37762) scale(0.11 -0.11)">
       <defs>
        <path id="DejaVuSans-34" d="M 2419 4116 
L 825 1625 
L 2419 1625 
L 2419 4116 
z
M 2253 4666 
L 3047 4666 
L 3047 1625 
L 3713 1625 
L 3713 1100 
L 3047 1100 
L 3047 0 
L 2419 0 
L 2419 1100 
L 313 1100 
L 313 1709 
L 2253 4666 
z
" transform="scale(0.015625)"/>
       </defs>
       <use xlink:href="#DejaVuSans-34"/>
       <use xlink:href="#DejaVuSans-30" transform="translate(63.623047 0)"/>
      </g>
     </g>
    </g>
    <g id="ytick_5">
     <g id="line2d_9">
      <g>
       <use xlink:href="#me5688a0cce" x="67.298281" y="64.366892" style="stroke: #000000; stroke-width: 0.8"/>
      </g>
     </g>
     <g id="text_9">
      <!-- 60 -->
      <g transform="translate(46.300781 68.546033) scale(0.11 -0.11)">
       <use xlink:href="#DejaVuSans-36"/>
       <use xlink:href="#DejaVuSans-30" transform="translate(63.623047 0)"/>
      </g>
     </g>
    </g>
    <g id="ytick_6">
     <g id="line2d_10">
      <g>
       <use xlink:href="#me5688a0cce" x="67.298281" y="38.535304" style="stroke: #000000; stroke-width: 0.8"/>
      </g>
     </g>
     <g id="text_10">
      <!-- 80 -->
      <g transform="translate(46.300781 42.714445) scale(0.11 -0.11)">
       <use xlink:href="#DejaVuSans-38"/>
       <use xlink:href="#DejaVuSans-30" transform="translate(63.623047 0)"/>
      </g>
     </g>
    </g>
    <g id="text_11">
     <!-- % change of Speed -->
     <g transform="translate(24.277969 171.472344) rotate(-90) scale(0.13 -0.13)">
      <defs>
       <path id="DejaVuSans-Bold-25" d="M 4959 1925 
Q 4738 1925 4616 1733 
Q 4494 1541 4494 1184 
Q 4494 825 4614 633 
Q 4734 441 4959 441 
Q 5184 441 5303 633 
Q 5422 825 5422 1184 
Q 5422 1541 5301 1733 
Q 5181 1925 4959 1925 
z
M 4959 2450 
Q 5541 2450 5875 2112 
Q 6209 1775 6209 1184 
Q 6209 594 5875 251 
Q 5541 -91 4959 -91 
Q 4378 -91 4042 251 
Q 3706 594 3706 1184 
Q 3706 1772 4042 2111 
Q 4378 2450 4959 2450 
z
M 2094 -91 
L 1403 -91 
L 4319 4750 
L 5013 4750 
L 2094 -91 
z
M 1453 4750 
Q 2034 4750 2367 4411 
Q 2700 4072 2700 3481 
Q 2700 2891 2367 2550 
Q 2034 2209 1453 2209 
Q 872 2209 539 2550 
Q 206 2891 206 3481 
Q 206 4072 539 4411 
Q 872 4750 1453 4750 
z
M 1453 4225 
Q 1228 4225 1106 4031 
Q 984 3838 984 3481 
Q 984 3122 1106 2926 
Q 1228 2731 1453 2731 
Q 1678 2731 1798 2926 
Q 1919 3122 1919 3481 
Q 1919 3838 1797 4031 
Q 1675 4225 1453 4225 
z
" transform="scale(0.015625)"/>
       <path id="DejaVuSans-Bold-20" transform="scale(0.015625)"/>
       <path id="DejaVuSans-Bold-63" d="M 3366 3391 
L 3366 2478 
Q 3138 2634 2908 2709 
Q 2678 2784 2431 2784 
Q 1963 2784 1702 2511 
Q 1441 2238 1441 1747 
Q 1441 1256 1702 982 
Q 1963 709 2431 709 
Q 2694 709 2930 787 
Q 3166 866 3366 1019 
L 3366 103 
Q 3103 6 2833 -42 
Q 2563 -91 2291 -91 
Q 1344 -91 809 395 
Q 275 881 275 1747 
Q 275 2613 809 3098 
Q 1344 3584 2291 3584 
Q 2566 3584 2833 3536 
Q 3100 3488 3366 3391 
z
" transform="scale(0.015625)"/>
       <path id="DejaVuSans-Bold-68" d="M 4056 2131 
L 4056 0 
L 2931 0 
L 2931 347 
L 2931 1625 
Q 2931 2084 2911 2256 
Q 2891 2428 2841 2509 
Q 2775 2619 2662 2680 
Q 2550 2741 2406 2741 
Q 2056 2741 1856 2470 
Q 1656 2200 1656 1722 
L 1656 0 
L 538 0 
L 538 4863 
L 1656 4863 
L 1656 2988 
Q 1909 3294 2193 3439 
Q 2478 3584 2822 3584 
Q 3428 3584 3742 3212 
Q 4056 2841 4056 2131 
z
" transform="scale(0.015625)"/>
       <path id="DejaVuSans-Bold-61" d="M 2106 1575 
Q 1756 1575 1579 1456 
Q 1403 1338 1403 1106 
Q 1403 894 1545 773 
Q 1688 653 1941 653 
Q 2256 653 2472 879 
Q 2688 1106 2688 1447 
L 2688 1575 
L 2106 1575 
z
M 3816 1997 
L 3816 0 
L 2688 0 
L 2688 519 
Q 2463 200 2181 54 
Q 1900 -91 1497 -91 
Q 953 -91 614 226 
Q 275 544 275 1050 
Q 275 1666 698 1953 
Q 1122 2241 2028 2241 
L 2688 2241 
L 2688 2328 
Q 2688 2594 2478 2717 
Q 2269 2841 1825 2841 
Q 1466 2841 1156 2769 
Q 847 2697 581 2553 
L 581 3406 
Q 941 3494 1303 3539 
Q 1666 3584 2028 3584 
Q 2975 3584 3395 3211 
Q 3816 2838 3816 1997 
z
" transform="scale(0.015625)"/>
       <path id="DejaVuSans-Bold-6e" d="M 4056 2131 
L 4056 0 
L 2931 0 
L 2931 347 
L 2931 1631 
Q 2931 2084 2911 2256 
Q 2891 2428 2841 2509 
Q 2775 2619 2662 2680 
Q 2550 2741 2406 2741 
Q 2056 2741 1856 2470 
Q 1656 2200 1656 1722 
L 1656 0 
L 538 0 
L 538 3500 
L 1656 3500 
L 1656 2988 
Q 1909 3294 2193 3439 
Q 2478 3584 2822 3584 
Q 3428 3584 3742 3212 
Q 4056 2841 4056 2131 
z
" transform="scale(0.015625)"/>
       <path id="DejaVuSans-Bold-67" d="M 2919 594 
Q 2688 288 2409 144 
Q 2131 0 1766 0 
Q 1125 0 706 504 
Q 288 1009 288 1791 
Q 288 2575 706 3076 
Q 1125 3578 1766 3578 
Q 2131 3578 2409 3434 
Q 2688 3291 2919 2981 
L 2919 3500 
L 4044 3500 
L 4044 353 
Q 4044 -491 3511 -936 
Q 2978 -1381 1966 -1381 
Q 1638 -1381 1331 -1331 
Q 1025 -1281 716 -1178 
L 716 -306 
Q 1009 -475 1290 -558 
Q 1572 -641 1856 -641 
Q 2406 -641 2662 -400 
Q 2919 -159 2919 353 
L 2919 594 
z
M 2181 2772 
Q 1834 2772 1640 2515 
Q 1447 2259 1447 1791 
Q 1447 1309 1634 1061 
Q 1822 813 2181 813 
Q 2531 813 2725 1069 
Q 2919 1325 2919 1791 
Q 2919 2259 2725 2515 
Q 2531 2772 2181 2772 
z
" transform="scale(0.015625)"/>
       <path id="DejaVuSans-Bold-65" d="M 4031 1759 
L 4031 1441 
L 1416 1441 
Q 1456 1047 1700 850 
Q 1944 653 2381 653 
Q 2734 653 3104 758 
Q 3475 863 3866 1075 
L 3866 213 
Q 3469 63 3072 -14 
Q 2675 -91 2278 -91 
Q 1328 -91 801 392 
Q 275 875 275 1747 
Q 275 2603 792 3093 
Q 1309 3584 2216 3584 
Q 3041 3584 3536 3087 
Q 4031 2591 4031 1759 
z
M 2881 2131 
Q 2881 2450 2695 2645 
Q 2509 2841 2209 2841 
Q 1884 2841 1681 2658 
Q 1478 2475 1428 2131 
L 2881 2131 
z
" transform="scale(0.015625)"/>
       <path id="DejaVuSans-Bold-6f" d="M 2203 2784 
Q 1831 2784 1636 2517 
Q 1441 2250 1441 1747 
Q 1441 1244 1636 976 
Q 1831 709 2203 709 
Q 2569 709 2762 976 
Q 2956 1244 2956 1747 
Q 2956 2250 2762 2517 
Q 2569 2784 2203 2784 
z
M 2203 3584 
Q 3106 3584 3614 3096 
Q 4122 2609 4122 1747 
Q 4122 884 3614 396 
Q 3106 -91 2203 -91 
Q 1297 -91 786 396 
Q 275 884 275 1747 
Q 275 2609 786 3096 
Q 1297 3584 2203 3584 
z
" transform="scale(0.015625)"/>
       <path id="DejaVuSans-Bold-66" d="M 2841 4863 
L 2841 4128 
L 2222 4128 
Q 1984 4128 1890 4042 
Q 1797 3956 1797 3744 
L 1797 3500 
L 2753 3500 
L 2753 2700 
L 1797 2700 
L 1797 0 
L 678 0 
L 678 2700 
L 122 2700 
L 122 3500 
L 678 3500 
L 678 3744 
Q 678 4316 997 4589 
Q 1316 4863 1984 4863 
L 2841 4863 
z
" transform="scale(0.015625)"/>
       <path id="DejaVuSans-Bold-53" d="M 3834 4519 
L 3834 3531 
Q 3450 3703 3084 3790 
Q 2719 3878 2394 3878 
Q 1963 3878 1756 3759 
Q 1550 3641 1550 3391 
Q 1550 3203 1689 3098 
Q 1828 2994 2194 2919 
L 2706 2816 
Q 3484 2659 3812 2340 
Q 4141 2022 4141 1434 
Q 4141 663 3683 286 
Q 3225 -91 2284 -91 
Q 1841 -91 1394 -6 
Q 947 78 500 244 
L 500 1259 
Q 947 1022 1364 901 
Q 1781 781 2169 781 
Q 2563 781 2772 912 
Q 2981 1044 2981 1288 
Q 2981 1506 2839 1625 
Q 2697 1744 2272 1838 
L 1806 1941 
Q 1106 2091 782 2419 
Q 459 2747 459 3303 
Q 459 4000 909 4375 
Q 1359 4750 2203 4750 
Q 2588 4750 2994 4692 
Q 3400 4634 3834 4519 
z
" transform="scale(0.015625)"/>
       <path id="DejaVuSans-Bold-70" d="M 1656 506 
L 1656 -1331 
L 538 -1331 
L 538 3500 
L 1656 3500 
L 1656 2988 
Q 1888 3294 2169 3439 
Q 2450 3584 2816 3584 
Q 3463 3584 3878 3070 
Q 4294 2556 4294 1747 
Q 4294 938 3878 423 
Q 3463 -91 2816 -91 
Q 2450 -91 2169 54 
Q 1888 200 1656 506 
z
M 2400 2772 
Q 2041 2772 1848 2508 
Q 1656 2244 1656 1747 
Q 1656 1250 1848 986 
Q 2041 722 2400 722 
Q 2759 722 2948 984 
Q 3138 1247 3138 1747 
Q 3138 2247 2948 2509 
Q 2759 2772 2400 2772 
z
" transform="scale(0.015625)"/>
       <path id="DejaVuSans-Bold-64" d="M 2919 2988 
L 2919 4863 
L 4044 4863 
L 4044 0 
L 2919 0 
L 2919 506 
Q 2688 197 2409 53 
Q 2131 -91 1766 -91 
Q 1119 -91 703 423 
Q 288 938 288 1747 
Q 288 2556 703 3070 
Q 1119 3584 1766 3584 
Q 2128 3584 2408 3439 
Q 2688 3294 2919 2988 
z
M 2181 722 
Q 2541 722 2730 984 
Q 2919 1247 2919 1747 
Q 2919 2247 2730 2509 
Q 2541 2772 2181 2772 
Q 1825 2772 1636 2509 
Q 1447 2247 1447 1747 
Q 1447 1247 1636 984 
Q 1825 722 2181 722 
z
" transform="scale(0.015625)"/>
      </defs>
      <use xlink:href="#DejaVuSans-Bold-25"/>
      <use xlink:href="#DejaVuSans-Bold-20" transform="translate(100.195312 0)"/>
      <use xlink:href="#DejaVuSans-Bold-63" transform="translate(135.009766 0)"/>
      <use xlink:href="#DejaVuSans-Bold-68" transform="translate(194.287109 0)"/>
      <use xlink:href="#DejaVuSans-Bold-61" transform="translate(265.478516 0)"/>
      <use xlink:href="#DejaVuSans-Bold-6e" transform="translate(332.958984 0)"/>
      <use xlink:href="#DejaVuSans-Bold-67" transform="translate(404.150391 0)"/>
      <use xlink:href="#DejaVuSans-Bold-65" transform="translate(475.732422 0)"/>
      <use xlink:href="#DejaVuSans-Bold-20" transform="translate(543.554688 0)"/>
      <use xlink:href="#DejaVuSans-Bold-6f" transform="translate(578.369141 0)"/>
      <use xlink:href="#DejaVuSans-Bold-66" transform="translate(647.070312 0)"/>
      <use xlink:href="#DejaVuSans-Bold-20" transform="translate(690.576172 0)"/>
      <use xlink:href="#DejaVuSans-Bold-53" transform="translate(725.390625 0)"/>
      <use xlink:href="#DejaVuSans-Bold-70" transform="translate(797.412109 0)"/>
      <use xlink:href="#DejaVuSans-Bold-65" transform="translate(868.994141 0)"/>
      <use xlink:href="#DejaVuSans-Bold-65" transform="translate(936.816406 0)"/>
      <use xlink:href="#DejaVuSans-Bold-64" transform="translate(1004.638672 0)"/>
     </g>
    </g>
   </g>
   <g id="line2d_11">
    <path d="M 76.258281 106.635085 
L 78.068382 106.814471 
L 79.878483 106.993856 
L 81.688584 107.173241 
L 83.498685 107.352627 
L 85.308786 107.532012 
L 87.118887 107.711397 
L 88.928988 107.890783 
L 90.739089 108.070168 
L 92.54919 108.249553 
L 94.359291 108.428938 
L 96.169392 108.608324 
L 97.979493 108.787709 
L 99.789594 108.967094 
L 101.599695 109.14648 
L 103.409796 109.325865 
L 105.219897 109.50525 
L 107.029998 109.684636 
L 108.840099 109.864021 
L 110.6502 110.043406 
L 112.460301 110.222792 
L 114.270402 110.402177 
L 116.080503 110.581562 
L 117.890604 110.760948 
L 119.700705 110.940333 
L 121.510807 111.119718 
L 123.320908 111.299103 
L 125.131009 111.478489 
L 126.94111 111.657874 
L 128.751211 111.837259 
L 130.561312 112.016645 
L 132.371413 112.19603 
L 134.181514 112.375415 
L 135.991615 112.554801 
L 137.801716 112.734186 
L 139.611817 112.913571 
L 141.421918 113.092957 
L 143.232019 113.272342 
L 145.04212 113.451727 
L 146.852221 113.631113 
L 148.662322 113.810498 
L 150.472423 113.989883 
L 152.282524 114.169268 
L 154.092625 114.348654 
L 155.902726 114.528039 
L 157.712827 114.707424 
L 159.522928 114.88681 
L 161.333029 115.066195 
L 163.14313 115.24558 
L 164.953231 115.424966 
L 166.763332 115.604351 
L 168.573433 115.783736 
L 170.383534 115.963122 
L 172.193635 116.142507 
L 174.003736 116.321892 
L 175.813837 116.501278 
L 177.623938 116.680663 
L 179.434039 116.860048 
L 181.24414 117.039433 
L 183.054241 117.218819 
L 184.864342 117.398204 
L 186.674443 117.577589 
L 188.484544 117.756975 
L 190.294645 117.93636 
L 192.104746 118.115745 
L 193.914847 118.295131 
L 195.724948 118.474516 
L 197.535049 118.653901 
L 199.34515 118.833287 
L 201.155251 119.012672 
L 202.965352 119.192057 
L 204.775453 119.371443 
L 206.585554 119.550828 
L 208.395655 119.730213 
L 210.205756 119.909598 
L 212.015857 120.088984 
L 213.825958 120.268369 
L 215.636059 120.447754 
L 217.44616 120.62714 
L 219.256261 120.806525 
L 221.066362 120.98591 
L 222.876463 121.165296 
L 224.686564 121.344681 
L 226.496665 121.524066 
L 228.306766 121.703452 
L 230.116867 121.882837 
L 231.926968 122.062222 
L 233.737069 122.241608 
L 235.54717 122.420993 
L 237.357271 122.600378 
L 239.167372 122.779763 
L 240.977473 122.959149 
L 242.787574 123.138534 
L 244.597675 123.317919 
L 246.407776 123.497305 
L 248.217877 123.67669 
L 250.027978 123.856075 
L 251.838079 124.035461 
L 253.64818 124.214846 
L 255.458281 124.394231 
" clip-path="url(#p479452fd15)" style="fill: none; stroke: #ffa500; stroke-width: 2.25; stroke-linecap: square"/>
   </g>
   <g id="patch_3">
    <path d="M 67.298281 173.518125 
L 67.298281 29.518125 
" style="fill: none; stroke: #000000; stroke-width: 0.8; stroke-linejoin: miter; stroke-linecap: square"/>
   </g>
   <g id="patch_4">
    <path d="M 67.298281 173.518125 
L 264.418281 173.518125 
" style="fill: none; stroke: #000000; stroke-width: 0.8; stroke-linejoin: miter; stroke-linecap: square"/>
   </g>
   <g id="text_12">
    <!-- r=-0.16 -->
    <g transform="translate(201.339881 48.636563) scale(0.1 -0.1)">
     <defs>
      <path id="DejaVuSans-72" d="M 2631 2963 
Q 2534 3019 2420 3045 
Q 2306 3072 2169 3072 
Q 1681 3072 1420 2755 
Q 1159 2438 1159 1844 
L 1159 0 
L 581 0 
L 581 3500 
L 1159 3500 
L 1159 2956 
Q 1341 3275 1631 3429 
Q 1922 3584 2338 3584 
Q 2397 3584 2469 3576 
Q 2541 3569 2628 3553 
L 2631 2963 
z
" transform="scale(0.015625)"/>
      <path id="DejaVuSans-3d" d="M 678 2906 
L 4684 2906 
L 4684 2381 
L 678 2381 
L 678 2906 
z
M 678 1631 
L 4684 1631 
L 4684 1100 
L 678 1100 
L 678 1631 
z
" transform="scale(0.015625)"/>
      <path id="DejaVuSans-2d" d="M 313 2009 
L 1997 2009 
L 1997 1497 
L 313 1497 
L 313 2009 
z
" transform="scale(0.015625)"/>
      <path id="DejaVuSans-2e" d="M 684 794 
L 1344 794 
L 1344 0 
L 684 0 
L 684 794 
z
" transform="scale(0.015625)"/>
      <path id="DejaVuSans-31" d="M 794 531 
L 1825 531 
L 1825 4091 
L 703 3866 
L 703 4441 
L 1819 4666 
L 2450 4666 
L 2450 531 
L 3481 531 
L 3481 0 
L 794 0 
L 794 531 
z
" transform="scale(0.015625)"/>
     </defs>
     <use xlink:href="#DejaVuSans-72"/>
     <use xlink:href="#DejaVuSans-3d" transform="translate(41.113281 0)"/>
     <use xlink:href="#DejaVuSans-2d" transform="translate(124.902344 0)"/>
     <use xlink:href="#DejaVuSans-30" transform="translate(160.986328 0)"/>
     <use xlink:href="#DejaVuSans-2e" transform="translate(224.609375 0)"/>
     <use xlink:href="#DejaVuSans-31" transform="translate(256.396484 0)"/>
     <use xlink:href="#DejaVuSans-36" transform="translate(320.019531 0)"/>
    </g>
    <!-- p=0.536 -->
    <g transform="translate(201.339881 59.834375) scale(0.1 -0.1)">
     <defs>
      <path id="DejaVuSans-70" d="M 1159 525 
L 1159 -1331 
L 581 -1331 
L 581 3500 
L 1159 3500 
L 1159 2969 
Q 1341 3281 1617 3432 
Q 1894 3584 2278 3584 
Q 2916 3584 3314 3078 
Q 3713 2572 3713 1747 
Q 3713 922 3314 415 
Q 2916 -91 2278 -91 
Q 1894 -91 1617 61 
Q 1341 213 1159 525 
z
M 3116 1747 
Q 3116 2381 2855 2742 
Q 2594 3103 2138 3103 
Q 1681 3103 1420 2742 
Q 1159 2381 1159 1747 
Q 1159 1113 1420 752 
Q 1681 391 2138 391 
Q 2594 391 2855 752 
Q 3116 1113 3116 1747 
z
" transform="scale(0.015625)"/>
      <path id="DejaVuSans-33" d="M 2597 2516 
Q 3050 2419 3304 2112 
Q 3559 1806 3559 1356 
Q 3559 666 3084 287 
Q 2609 -91 1734 -91 
Q 1441 -91 1130 -33 
Q 819 25 488 141 
L 488 750 
Q 750 597 1062 519 
Q 1375 441 1716 441 
Q 2309 441 2620 675 
Q 2931 909 2931 1356 
Q 2931 1769 2642 2001 
Q 2353 2234 1838 2234 
L 1294 2234 
L 1294 2753 
L 1863 2753 
Q 2328 2753 2575 2939 
Q 2822 3125 2822 3475 
Q 2822 3834 2567 4026 
Q 2313 4219 1838 4219 
Q 1578 4219 1281 4162 
Q 984 4106 628 3988 
L 628 4550 
Q 988 4650 1302 4700 
Q 1616 4750 1894 4750 
Q 2613 4750 3031 4423 
Q 3450 4097 3450 3541 
Q 3450 3153 3228 2886 
Q 3006 2619 2597 2516 
z
" transform="scale(0.015625)"/>
     </defs>
     <use xlink:href="#DejaVuSans-70"/>
     <use xlink:href="#DejaVuSans-3d" transform="translate(63.476562 0)"/>
     <use xlink:href="#DejaVuSans-30" transform="translate(147.265625 0)"/>
     <use xlink:href="#DejaVuSans-2e" transform="translate(210.888672 0)"/>
     <use xlink:href="#DejaVuSans-35" transform="translate(242.675781 0)"/>
     <use xlink:href="#DejaVuSans-33" transform="translate(306.298828 0)"/>
     <use xlink:href="#DejaVuSans-36" transform="translate(369.921875 0)"/>
    </g>
   </g>
   <g id="text_13">
    <!-- More affected hand -->
    <g transform="translate(99.545156 23.518125) scale(0.12 -0.12)">
     <defs>
      <path id="DejaVuSans-Bold-4d" d="M 588 4666 
L 2119 4666 
L 3181 2169 
L 4250 4666 
L 5778 4666 
L 5778 0 
L 4641 0 
L 4641 3413 
L 3566 897 
L 2803 897 
L 1728 3413 
L 1728 0 
L 588 0 
L 588 4666 
z
" transform="scale(0.015625)"/>
      <path id="DejaVuSans-Bold-72" d="M 3138 2547 
Q 2991 2616 2845 2648 
Q 2700 2681 2553 2681 
Q 2122 2681 1889 2404 
Q 1656 2128 1656 1613 
L 1656 0 
L 538 0 
L 538 3500 
L 1656 3500 
L 1656 2925 
Q 1872 3269 2151 3426 
Q 2431 3584 2822 3584 
Q 2878 3584 2943 3579 
Q 3009 3575 3134 3559 
L 3138 2547 
z
" transform="scale(0.015625)"/>
      <path id="DejaVuSans-Bold-74" d="M 1759 4494 
L 1759 3500 
L 2913 3500 
L 2913 2700 
L 1759 2700 
L 1759 1216 
Q 1759 972 1856 886 
Q 1953 800 2241 800 
L 2816 800 
L 2816 0 
L 1856 0 
Q 1194 0 917 276 
Q 641 553 641 1216 
L 641 2700 
L 84 2700 
L 84 3500 
L 641 3500 
L 641 4494 
L 1759 4494 
z
" transform="scale(0.015625)"/>
     </defs>
     <use xlink:href="#DejaVuSans-Bold-4d"/>
     <use xlink:href="#DejaVuSans-Bold-6f" transform="translate(99.511719 0)"/>
     <use xlink:href="#DejaVuSans-Bold-72" transform="translate(168.212891 0)"/>
     <use xlink:href="#DejaVuSans-Bold-65" transform="translate(217.529297 0)"/>
     <use xlink:href="#DejaVuSans-Bold-20" transform="translate(285.351562 0)"/>
     <use xlink:href="#DejaVuSans-Bold-61" transform="translate(320.166016 0)"/>
     <use xlink:href="#DejaVuSans-Bold-66" transform="translate(387.646484 0)"/>
     <use xlink:href="#DejaVuSans-Bold-66" transform="translate(431.152344 0)"/>
     <use xlink:href="#DejaVuSans-Bold-65" transform="translate(474.658203 0)"/>
     <use xlink:href="#DejaVuSans-Bold-63" transform="translate(542.480469 0)"/>
     <use xlink:href="#DejaVuSans-Bold-74" transform="translate(601.757812 0)"/>
     <use xlink:href="#DejaVuSans-Bold-65" transform="translate(649.560547 0)"/>
     <use xlink:href="#DejaVuSans-Bold-64" transform="translate(717.382812 0)"/>
     <use xlink:href="#DejaVuSans-Bold-20" transform="translate(788.964844 0)"/>
     <use xlink:href="#DejaVuSans-Bold-68" transform="translate(823.779297 0)"/>
     <use xlink:href="#DejaVuSans-Bold-61" transform="translate(894.970703 0)"/>
     <use xlink:href="#DejaVuSans-Bold-6e" transform="translate(962.451172 0)"/>
     <use xlink:href="#DejaVuSans-Bold-64" transform="translate(1033.642578 0)"/>
    </g>
   </g>
  </g>
  <g id="axes_2">
   <g id="patch_5">
    <path d="M 313.698281 173.518125 
L 510.818281 173.518125 
L 510.818281 29.518125 
L 313.698281 29.518125 
z
" style="fill: #ffffff"/>
   </g>
   <g id="FillBetweenPolyCollection_2">
    <path d="M 322.658281 99.947826 
L 322.658281 166.97267 
L 324.468382 166.272201 
L 326.278483 165.571731 
L 328.088584 164.871262 
L 329.898685 164.136247 
L 331.708786 163.398761 
L 333.518887 162.661275 
L 335.328988 161.923789 
L 337.139089 161.186303 
L 338.94919 160.448817 
L 340.759291 159.711332 
L 342.569392 159.002844 
L 344.379493 158.420238 
L 346.189594 157.837632 
L 347.999695 157.150628 
L 349.809796 156.478128 
L 351.619897 155.781448 
L 353.429998 155.084767 
L 355.240099 154.44951 
L 357.0502 153.847776 
L 358.860301 153.24227 
L 360.670402 152.465432 
L 362.480503 151.656904 
L 364.290604 151.003977 
L 366.100705 150.353874 
L 367.910807 149.703771 
L 369.720908 149.053667 
L 371.531009 148.403564 
L 373.34111 147.750994 
L 375.151211 147.095087 
L 376.961312 146.439031 
L 378.771413 145.782976 
L 380.581514 145.063491 
L 382.391615 144.469526 
L 384.201716 143.731634 
L 386.011817 143.176632 
L 387.821918 142.528171 
L 389.632019 142.046852 
L 391.44212 141.502398 
L 393.252221 140.951001 
L 395.062322 140.485295 
L 396.872423 139.988762 
L 398.682524 139.456027 
L 400.492625 138.923291 
L 402.302726 138.390556 
L 404.112827 137.854764 
L 405.922928 137.317904 
L 407.733029 136.785572 
L 409.54313 136.251569 
L 411.353231 135.715472 
L 413.163332 135.179135 
L 414.973433 134.572008 
L 416.783534 133.991983 
L 418.593635 133.410603 
L 420.403736 133.012492 
L 422.213837 132.798607 
L 424.023938 132.683857 
L 425.834039 132.466811 
L 427.64414 132.325856 
L 429.454241 131.890768 
L 431.264342 132.064533 
L 433.074443 132.302115 
L 434.884544 132.261735 
L 436.694645 132.519603 
L 438.504746 132.78641 
L 440.314847 133.085604 
L 442.124948 133.476262 
L 443.935049 133.789386 
L 445.74515 134.115138 
L 447.555251 134.471607 
L 449.365352 134.790622 
L 451.175453 135.124278 
L 452.985554 135.459561 
L 454.795655 135.836389 
L 456.605756 136.213216 
L 458.415857 136.604173 
L 460.225958 136.970284 
L 462.036059 137.346413 
L 463.84616 137.724514 
L 465.656261 138.103084 
L 467.466362 138.480351 
L 469.276463 138.857617 
L 471.086564 139.234883 
L 472.896665 139.615257 
L 474.706766 139.996521 
L 476.516867 140.520784 
L 478.326968 141.049223 
L 480.137069 141.577661 
L 481.94717 142.105687 
L 483.757271 142.631242 
L 485.567372 143.099246 
L 487.377473 143.502967 
L 489.187574 143.904488 
L 490.997675 144.30601 
L 492.807776 144.707531 
L 494.617877 145.109053 
L 496.427978 145.522096 
L 498.238079 145.995307 
L 500.04818 146.468519 
L 501.858281 146.94173 
L 501.858281 97.183323 
L 501.858281 97.183323 
L 500.04818 97.682668 
L 498.238079 98.249853 
L 496.427978 99.208331 
L 494.617877 99.930817 
L 492.807776 100.439911 
L 490.997675 100.949004 
L 489.187574 101.735473 
L 487.377473 102.347079 
L 485.567372 103.110623 
L 483.757271 103.88607 
L 481.94717 104.317152 
L 480.137069 104.959232 
L 478.326968 105.698733 
L 476.516867 106.091022 
L 474.706766 106.376491 
L 472.896665 106.913192 
L 471.086564 107.549429 
L 469.276463 107.775439 
L 467.466362 108.069497 
L 465.656261 108.747497 
L 463.84616 109.320136 
L 462.036059 109.878338 
L 460.225958 110.343169 
L 458.415857 110.694374 
L 456.605756 110.838856 
L 454.795655 111.010926 
L 452.985554 111.299569 
L 451.175453 111.461677 
L 449.365352 111.704122 
L 447.555251 111.952476 
L 445.74515 112.050049 
L 443.935049 112.10349 
L 442.124948 112.576086 
L 440.314847 112.781303 
L 438.504746 112.871362 
L 436.694645 112.882505 
L 434.884544 112.897889 
L 433.074443 112.873011 
L 431.264342 112.851874 
L 429.454241 112.92973 
L 427.64414 113.062361 
L 425.834039 113.050523 
L 424.023938 112.962451 
L 422.213837 112.973302 
L 420.403736 113.069498 
L 418.593635 112.995803 
L 416.783534 113.052556 
L 414.973433 113.063268 
L 413.163332 113.062707 
L 411.353231 113.149914 
L 409.54313 113.237137 
L 407.733029 113.250137 
L 405.922928 113.175384 
L 404.112827 113.099173 
L 402.302726 113.116696 
L 400.492625 113.107387 
L 398.682524 113.112302 
L 396.872423 113.121184 
L 395.062322 113.132103 
L 393.252221 112.99025 
L 391.44212 112.822444 
L 389.632019 112.722323 
L 387.821918 112.47857 
L 386.011817 112.306049 
L 384.201716 112.131672 
L 382.391615 111.959614 
L 380.581514 111.7421 
L 378.771413 111.439891 
L 376.961312 111.265655 
L 375.151211 110.890506 
L 373.34111 110.458878 
L 371.531009 110.122099 
L 369.720908 109.931023 
L 367.910807 109.758752 
L 366.100705 109.480452 
L 364.290604 109.173 
L 362.480503 108.932515 
L 360.670402 108.418004 
L 358.860301 108.249937 
L 357.0502 107.999354 
L 355.240099 107.745184 
L 353.429998 107.400588 
L 351.619897 107.055991 
L 349.809796 106.711566 
L 347.999695 106.343321 
L 346.189594 105.865253 
L 344.379493 105.365812 
L 342.569392 104.876252 
L 340.759291 104.381915 
L 338.94919 103.858791 
L 337.139089 103.399889 
L 335.328988 102.909432 
L 333.518887 102.419923 
L 331.708786 102.045753 
L 329.898685 101.661416 
L 328.088584 101.178219 
L 326.278483 100.781788 
L 324.468382 100.388204 
L 322.658281 99.947826 
z
" clip-path="url(#p17360cc5c6)" style="fill: #ffa500; fill-opacity: 0.15"/>
   </g>
   <g id="PathCollection_3">
    <g clip-path="url(#p17360cc5c6)">
     <use xlink:href="#mb82c5101b8" x="425.834039" y="111.511414" style="fill: #808080; fill-opacity: 0.85; stroke: #808080; stroke-opacity: 0.85"/>
     <use xlink:href="#mb82c5101b8" x="436.694645" y="125.846979" style="fill: #808080; fill-opacity: 0.85; stroke: #808080; stroke-opacity: 0.85"/>
     <use xlink:href="#mb82c5101b8" x="431.264342" y="133.901601" style="fill: #808080; fill-opacity: 0.85; stroke: #808080; stroke-opacity: 0.85"/>
     <use xlink:href="#mb82c5101b8" x="501.858281" y="83.921767" style="fill: #808080; fill-opacity: 0.85; stroke: #808080; stroke-opacity: 0.85"/>
     <use xlink:href="#mb82c5101b8" x="376.961312" y="148.482053" style="fill: #808080; fill-opacity: 0.85; stroke: #808080; stroke-opacity: 0.85"/>
     <use xlink:href="#mb82c5101b8" x="420.403736" y="127.518958" style="fill: #808080; fill-opacity: 0.85; stroke: #808080; stroke-opacity: 0.85"/>
     <use xlink:href="#mb82c5101b8" x="398.682524" y="116.088918" style="fill: #808080; fill-opacity: 0.85; stroke: #808080; stroke-opacity: 0.85"/>
     <use xlink:href="#mb82c5101b8" x="447.555251" y="130.443988" style="fill: #808080; fill-opacity: 0.85; stroke: #808080; stroke-opacity: 0.85"/>
    </g>
   </g>
   <g id="PathCollection_4">
    <g clip-path="url(#p17360cc5c6)">
     <use xlink:href="#m1283d46d95" x="442.124948" y="132.181999" style="fill: #808080; fill-opacity: 0.85; stroke: #808080; stroke-opacity: 0.85"/>
     <use xlink:href="#m1283d46d95" x="414.973433" y="130.777179" style="fill: #808080; fill-opacity: 0.85; stroke: #808080; stroke-opacity: 0.85"/>
     <use xlink:href="#m1283d46d95" x="387.821918" y="124.346816" style="fill: #808080; fill-opacity: 0.85; stroke: #808080; stroke-opacity: 0.85"/>
     <use xlink:href="#m1283d46d95" x="442.124948" y="151.340231" style="fill: #808080; fill-opacity: 0.85; stroke: #808080; stroke-opacity: 0.85"/>
     <use xlink:href="#m1283d46d95" x="414.973433" y="147.039424" style="fill: #808080; fill-opacity: 0.85; stroke: #808080; stroke-opacity: 0.85"/>
     <use xlink:href="#m1283d46d95" x="355.240099" y="109.581099" style="fill: #808080; fill-opacity: 0.85; stroke: #808080; stroke-opacity: 0.85"/>
     <use xlink:href="#m1283d46d95" x="485.567372" y="133.705035" style="fill: #808080; fill-opacity: 0.85; stroke: #808080; stroke-opacity: 0.85"/>
     <use xlink:href="#m1283d46d95" x="474.706766" y="90.632777" style="fill: #808080; fill-opacity: 0.85; stroke: #808080; stroke-opacity: 0.85"/>
     <use xlink:href="#m1283d46d95" x="469.276463" y="113.844206" style="fill: #808080; fill-opacity: 0.85; stroke: #808080; stroke-opacity: 0.85"/>
     <use xlink:href="#m1283d46d95" x="322.658281" y="89.460392" style="fill: #808080; fill-opacity: 0.85; stroke: #808080; stroke-opacity: 0.85"/>
    </g>
   </g>
   <g id="matplotlib.axis_3">
    <g id="xtick_5">
     <g id="line2d_12">
      <g>
       <use xlink:href="#m38253255a3" x="328.088584" y="173.518125" style="stroke: #000000; stroke-width: 0.8"/>
      </g>
     </g>
     <g id="text_14">
      <!-- 50 -->
      <g transform="translate(321.089834 188.876406) scale(0.11 -0.11)">
       <use xlink:href="#DejaVuSans-35"/>
       <use xlink:href="#DejaVuSans-30" transform="translate(63.623047 0)"/>
      </g>
     </g>
    </g>
    <g id="xtick_6">
     <g id="line2d_13">
      <g>
       <use xlink:href="#m38253255a3" x="382.391615" y="173.518125" style="stroke: #000000; stroke-width: 0.8"/>
      </g>
     </g>
     <g id="text_15">
      <!-- 60 -->
      <g transform="translate(375.392865 188.876406) scale(0.11 -0.11)">
       <use xlink:href="#DejaVuSans-36"/>
       <use xlink:href="#DejaVuSans-30" transform="translate(63.623047 0)"/>
      </g>
     </g>
    </g>
    <g id="xtick_7">
     <g id="line2d_14">
      <g>
       <use xlink:href="#m38253255a3" x="436.694645" y="173.518125" style="stroke: #000000; stroke-width: 0.8"/>
      </g>
     </g>
     <g id="text_16">
      <!-- 70 -->
      <g transform="translate(429.695895 188.876406) scale(0.11 -0.11)">
       <use xlink:href="#DejaVuSans-37"/>
       <use xlink:href="#DejaVuSans-30" transform="translate(63.623047 0)"/>
      </g>
     </g>
    </g>
    <g id="xtick_8">
     <g id="line2d_15">
      <g>
       <use xlink:href="#m38253255a3" x="490.997675" y="173.518125" style="stroke: #000000; stroke-width: 0.8"/>
      </g>
     </g>
     <g id="text_17">
      <!-- 80 -->
      <g transform="translate(483.998925 188.876406) scale(0.11 -0.11)">
       <use xlink:href="#DejaVuSans-38"/>
       <use xlink:href="#DejaVuSans-30" transform="translate(63.623047 0)"/>
      </g>
     </g>
    </g>
   </g>
   <g id="matplotlib.axis_4">
    <g id="ytick_7">
     <g id="line2d_16">
      <g>
       <use xlink:href="#me5688a0cce" x="313.698281" y="167.693242" style="stroke: #000000; stroke-width: 0.8"/>
      </g>
     </g>
    </g>
    <g id="ytick_8">
     <g id="line2d_17">
      <g>
       <use xlink:href="#me5688a0cce" x="313.698281" y="141.861654" style="stroke: #000000; stroke-width: 0.8"/>
      </g>
     </g>
    </g>
    <g id="ytick_9">
     <g id="line2d_18">
      <g>
       <use xlink:href="#me5688a0cce" x="313.698281" y="116.030067" style="stroke: #000000; stroke-width: 0.8"/>
      </g>
     </g>
    </g>
    <g id="ytick_10">
     <g id="line2d_19">
      <g>
       <use xlink:href="#me5688a0cce" x="313.698281" y="90.198479" style="stroke: #000000; stroke-width: 0.8"/>
      </g>
     </g>
    </g>
    <g id="ytick_11">
     <g id="line2d_20">
      <g>
       <use xlink:href="#me5688a0cce" x="313.698281" y="64.366892" style="stroke: #000000; stroke-width: 0.8"/>
      </g>
     </g>
    </g>
    <g id="ytick_12">
     <g id="line2d_21">
      <g>
       <use xlink:href="#me5688a0cce" x="313.698281" y="38.535304" style="stroke: #000000; stroke-width: 0.8"/>
      </g>
     </g>
    </g>
   </g>
   <g id="line2d_22">
    <path d="M 322.658281 123.799659 
L 324.468382 123.772354 
L 326.278483 123.74505 
L 328.088584 123.717745 
L 329.898685 123.69044 
L 331.708786 123.663135 
L 333.518887 123.63583 
L 335.328988 123.608525 
L 337.139089 123.58122 
L 338.94919 123.553916 
L 340.759291 123.526611 
L 342.569392 123.499306 
L 344.379493 123.472001 
L 346.189594 123.444696 
L 347.999695 123.417391 
L 349.809796 123.390087 
L 351.619897 123.362782 
L 353.429998 123.335477 
L 355.240099 123.308172 
L 357.0502 123.280867 
L 358.860301 123.253562 
L 360.670402 123.226257 
L 362.480503 123.198953 
L 364.290604 123.171648 
L 366.100705 123.144343 
L 367.910807 123.117038 
L 369.720908 123.089733 
L 371.531009 123.062428 
L 373.34111 123.035124 
L 375.151211 123.007819 
L 376.961312 122.980514 
L 378.771413 122.953209 
L 380.581514 122.925904 
L 382.391615 122.898599 
L 384.201716 122.871294 
L 386.011817 122.84399 
L 387.821918 122.816685 
L 389.632019 122.78938 
L 391.44212 122.762075 
L 393.252221 122.73477 
L 395.062322 122.707465 
L 396.872423 122.680161 
L 398.682524 122.652856 
L 400.492625 122.625551 
L 402.302726 122.598246 
L 404.112827 122.570941 
L 405.922928 122.543636 
L 407.733029 122.516331 
L 409.54313 122.489027 
L 411.353231 122.461722 
L 413.163332 122.434417 
L 414.973433 122.407112 
L 416.783534 122.379807 
L 418.593635 122.352502 
L 420.403736 122.325198 
L 422.213837 122.297893 
L 424.023938 122.270588 
L 425.834039 122.243283 
L 427.64414 122.215978 
L 429.454241 122.188673 
L 431.264342 122.161368 
L 433.074443 122.134064 
L 434.884544 122.106759 
L 436.694645 122.079454 
L 438.504746 122.052149 
L 440.314847 122.024844 
L 442.124948 121.997539 
L 443.935049 121.970235 
L 445.74515 121.94293 
L 447.555251 121.915625 
L 449.365352 121.88832 
L 451.175453 121.861015 
L 452.985554 121.83371 
L 454.795655 121.806405 
L 456.605756 121.779101 
L 458.415857 121.751796 
L 460.225958 121.724491 
L 462.036059 121.697186 
L 463.84616 121.669881 
L 465.656261 121.642576 
L 467.466362 121.615272 
L 469.276463 121.587967 
L 471.086564 121.560662 
L 472.896665 121.533357 
L 474.706766 121.506052 
L 476.516867 121.478747 
L 478.326968 121.451442 
L 480.137069 121.424138 
L 481.94717 121.396833 
L 483.757271 121.369528 
L 485.567372 121.342223 
L 487.377473 121.314918 
L 489.187574 121.287613 
L 490.997675 121.260309 
L 492.807776 121.233004 
L 494.617877 121.205699 
L 496.427978 121.178394 
L 498.238079 121.151089 
L 500.04818 121.123784 
L 501.858281 121.096479 
" clip-path="url(#p17360cc5c6)" style="fill: none; stroke: #ffa500; stroke-width: 2.25; stroke-linecap: square"/>
   </g>
   <g id="patch_6">
    <path d="M 313.698281 173.518125 
L 313.698281 29.518125 
" style="fill: none; stroke: #000000; stroke-width: 0.8; stroke-linejoin: miter; stroke-linecap: square"/>
   </g>
   <g id="patch_7">
    <path d="M 313.698281 173.518125 
L 510.818281 173.518125 
" style="fill: none; stroke: #000000; stroke-width: 0.8; stroke-linejoin: miter; stroke-linecap: square"/>
   </g>
   <g id="text_18">
    <!-- r=0.03 -->
    <g transform="translate(447.739881 48.636563) scale(0.1 -0.1)">
     <use xlink:href="#DejaVuSans-72"/>
     <use xlink:href="#DejaVuSans-3d" transform="translate(41.113281 0)"/>
     <use xlink:href="#DejaVuSans-30" transform="translate(124.902344 0)"/>
     <use xlink:href="#DejaVuSans-2e" transform="translate(188.525391 0)"/>
     <use xlink:href="#DejaVuSans-30" transform="translate(220.3125 0)"/>
     <use xlink:href="#DejaVuSans-33" transform="translate(283.935547 0)"/>
    </g>
    <!-- p=0.891 -->
    <g transform="translate(447.739881 59.834375) scale(0.1 -0.1)">
     <defs>
      <path id="DejaVuSans-39" d="M 703 97 
L 703 672 
Q 941 559 1184 500 
Q 1428 441 1663 441 
Q 2288 441 2617 861 
Q 2947 1281 2994 2138 
Q 2813 1869 2534 1725 
Q 2256 1581 1919 1581 
Q 1219 1581 811 2004 
Q 403 2428 403 3163 
Q 403 3881 828 4315 
Q 1253 4750 1959 4750 
Q 2769 4750 3195 4129 
Q 3622 3509 3622 2328 
Q 3622 1225 3098 567 
Q 2575 -91 1691 -91 
Q 1453 -91 1209 -44 
Q 966 3 703 97 
z
M 1959 2075 
Q 2384 2075 2632 2365 
Q 2881 2656 2881 3163 
Q 2881 3666 2632 3958 
Q 2384 4250 1959 4250 
Q 1534 4250 1286 3958 
Q 1038 3666 1038 3163 
Q 1038 2656 1286 2365 
Q 1534 2075 1959 2075 
z
" transform="scale(0.015625)"/>
     </defs>
     <use xlink:href="#DejaVuSans-70"/>
     <use xlink:href="#DejaVuSans-3d" transform="translate(63.476562 0)"/>
     <use xlink:href="#DejaVuSans-30" transform="translate(147.265625 0)"/>
     <use xlink:href="#DejaVuSans-2e" transform="translate(210.888672 0)"/>
     <use xlink:href="#DejaVuSans-38" transform="translate(242.675781 0)"/>
     <use xlink:href="#DejaVuSans-39" transform="translate(306.298828 0)"/>
     <use xlink:href="#DejaVuSans-31" transform="translate(369.921875 0)"/>
    </g>
   </g>
   <g id="text_19">
    <!-- Less affected hand -->
    <g transform="translate(348.032031 23.518125) scale(0.12 -0.12)">
     <defs>
      <path id="DejaVuSans-Bold-4c" d="M 588 4666 
L 1791 4666 
L 1791 909 
L 3903 909 
L 3903 0 
L 588 0 
L 588 4666 
z
" transform="scale(0.015625)"/>
      <path id="DejaVuSans-Bold-73" d="M 3272 3391 
L 3272 2541 
Q 2913 2691 2578 2766 
Q 2244 2841 1947 2841 
Q 1628 2841 1473 2761 
Q 1319 2681 1319 2516 
Q 1319 2381 1436 2309 
Q 1553 2238 1856 2203 
L 2053 2175 
Q 2913 2066 3209 1816 
Q 3506 1566 3506 1031 
Q 3506 472 3093 190 
Q 2681 -91 1863 -91 
Q 1516 -91 1145 -36 
Q 775 19 384 128 
L 384 978 
Q 719 816 1070 734 
Q 1422 653 1784 653 
Q 2113 653 2278 743 
Q 2444 834 2444 1013 
Q 2444 1163 2330 1236 
Q 2216 1309 1875 1350 
L 1678 1375 
Q 931 1469 631 1722 
Q 331 1975 331 2491 
Q 331 3047 712 3315 
Q 1094 3584 1881 3584 
Q 2191 3584 2531 3537 
Q 2872 3491 3272 3391 
z
" transform="scale(0.015625)"/>
     </defs>
     <use xlink:href="#DejaVuSans-Bold-4c"/>
     <use xlink:href="#DejaVuSans-Bold-65" transform="translate(63.720703 0)"/>
     <use xlink:href="#DejaVuSans-Bold-73" transform="translate(131.542969 0)"/>
     <use xlink:href="#DejaVuSans-Bold-73" transform="translate(191.064453 0)"/>
     <use xlink:href="#DejaVuSans-Bold-20" transform="translate(250.585938 0)"/>
     <use xlink:href="#DejaVuSans-Bold-61" transform="translate(285.400391 0)"/>
     <use xlink:href="#DejaVuSans-Bold-66" transform="translate(352.880859 0)"/>
     <use xlink:href="#DejaVuSans-Bold-66" transform="translate(396.386719 0)"/>
     <use xlink:href="#DejaVuSans-Bold-65" transform="translate(439.892578 0)"/>
     <use xlink:href="#DejaVuSans-Bold-63" transform="translate(507.714844 0)"/>
     <use xlink:href="#DejaVuSans-Bold-74" transform="translate(566.992188 0)"/>
     <use xlink:href="#DejaVuSans-Bold-65" transform="translate(614.794922 0)"/>
     <use xlink:href="#DejaVuSans-Bold-64" transform="translate(682.617188 0)"/>
     <use xlink:href="#DejaVuSans-Bold-20" transform="translate(754.199219 0)"/>
     <use xlink:href="#DejaVuSans-Bold-68" transform="translate(789.013672 0)"/>
     <use xlink:href="#DejaVuSans-Bold-61" transform="translate(860.205078 0)"/>
     <use xlink:href="#DejaVuSans-Bold-6e" transform="translate(927.685547 0)"/>
     <use xlink:href="#DejaVuSans-Bold-64" transform="translate(998.876953 0)"/>
    </g>
   </g>
  </g>
  <g id="axes_3">
   <g id="patch_8">
    <path d="M 67.298281 357.838125 
L 264.418281 357.838125 
L 264.418281 213.838125 
L 67.298281 213.838125 
z
" style="fill: #ffffff"/>
   </g>
   <g id="FillBetweenPolyCollection_3">
    <path d="M 76.258281 290.71719 
L 76.258281 336.036012 
L 78.068382 335.107208 
L 79.878483 334.178405 
L 81.688584 333.249602 
L 83.498685 332.296167 
L 85.308786 331.17257 
L 87.118887 330.04784 
L 88.928988 329.047555 
L 90.739089 327.954391 
L 92.54919 326.785096 
L 94.359291 325.615213 
L 96.169392 324.445331 
L 97.979493 323.299457 
L 99.789594 322.269228 
L 101.599695 321.445155 
L 103.409796 320.631096 
L 105.219897 319.803403 
L 107.029998 319.02152 
L 108.840099 318.104292 
L 110.6502 317.181508 
L 112.460301 316.290328 
L 114.270402 315.16522 
L 116.080503 314.297321 
L 117.890604 313.429423 
L 119.700705 312.571507 
L 121.510807 311.746433 
L 123.320908 310.839568 
L 125.131009 309.962756 
L 126.94111 309.0989 
L 128.751211 308.234417 
L 130.561312 307.369935 
L 132.371413 306.497909 
L 134.181514 305.585088 
L 135.991615 304.767958 
L 137.801716 303.925686 
L 139.611817 303.036452 
L 141.421918 302.178802 
L 143.232019 301.469353 
L 145.04212 300.823551 
L 146.852221 300.10177 
L 148.662322 299.557523 
L 150.472423 299.115991 
L 152.282524 298.56276 
L 154.092625 298.029638 
L 155.902726 297.336667 
L 157.712827 296.89981 
L 159.522928 296.473396 
L 161.333029 295.94665 
L 163.14313 295.316865 
L 164.953231 295.01124 
L 166.763332 294.394861 
L 168.573433 294.066824 
L 170.383534 293.823951 
L 172.193635 293.585312 
L 174.003736 293.469592 
L 175.813837 293.156113 
L 177.623938 292.862097 
L 179.434039 292.557331 
L 181.24414 292.249084 
L 183.054241 291.939441 
L 184.864342 291.632224 
L 186.674443 291.325037 
L 188.484544 291.103859 
L 190.294645 290.914855 
L 192.104746 290.828416 
L 193.914847 290.563404 
L 195.724948 290.348557 
L 197.535049 290.177552 
L 199.34515 289.97171 
L 201.155251 289.788911 
L 202.965352 289.803208 
L 204.775453 289.736083 
L 206.585554 289.501869 
L 208.395655 289.239806 
L 210.205756 289.057841 
L 212.015857 288.749611 
L 213.825958 288.628425 
L 215.636059 288.507818 
L 217.44616 288.392253 
L 219.256261 288.140835 
L 221.066362 287.819932 
L 222.876463 287.608542 
L 224.686564 287.394093 
L 226.496665 287.179099 
L 228.306766 286.988113 
L 230.116867 286.870559 
L 231.926968 286.747428 
L 233.737069 286.488798 
L 235.54717 286.505144 
L 237.357271 286.419621 
L 239.167372 286.303063 
L 240.977473 286.185906 
L 242.787574 286.017289 
L 244.597675 285.82349 
L 246.407776 285.741111 
L 248.217877 285.658731 
L 250.027978 285.576352 
L 251.838079 285.493973 
L 253.64818 285.387683 
L 255.458281 285.273397 
L 255.458281 229.46612 
L 255.458281 229.46612 
L 253.64818 230.48809 
L 251.838079 231.515864 
L 250.027978 232.543637 
L 248.217877 233.571411 
L 246.407776 234.599185 
L 244.597675 235.626959 
L 242.787574 236.654733 
L 240.977473 237.639917 
L 239.167372 238.603948 
L 237.357271 239.586687 
L 235.54717 240.597546 
L 233.737069 241.608404 
L 231.926968 242.619263 
L 230.116867 243.630121 
L 228.306766 244.640979 
L 226.496665 245.651838 
L 224.686564 246.662696 
L 222.876463 247.673554 
L 221.066362 248.674906 
L 219.256261 249.623157 
L 217.44616 250.572098 
L 215.636059 251.540115 
L 213.825958 252.737694 
L 212.015857 253.750982 
L 210.205756 254.767906 
L 208.395655 255.959364 
L 206.585554 257.141249 
L 204.775453 258.138226 
L 202.965352 259.112946 
L 201.155251 260.087666 
L 199.34515 261.064211 
L 197.535049 261.999527 
L 195.724948 263.019635 
L 193.914847 263.967943 
L 192.104746 264.975114 
L 190.294645 266.083176 
L 188.484544 266.968957 
L 186.674443 267.903973 
L 184.864342 268.811793 
L 183.054241 269.689312 
L 181.24414 270.566514 
L 179.434039 271.443181 
L 177.623938 272.315557 
L 175.813837 273.19322 
L 174.003736 274.008055 
L 172.193635 274.897109 
L 170.383534 275.78942 
L 168.573433 276.565173 
L 166.763332 277.289121 
L 164.953231 278.016802 
L 163.14313 278.785918 
L 161.333029 279.512971 
L 159.522928 280.158498 
L 157.712827 280.862007 
L 155.902726 281.529488 
L 154.092625 282.064875 
L 152.282524 282.634801 
L 150.472423 283.194393 
L 148.662322 283.630367 
L 146.852221 283.943681 
L 145.04212 284.319822 
L 143.232019 284.626275 
L 141.421918 284.920985 
L 139.611817 285.217961 
L 137.801716 285.505789 
L 135.991615 285.982366 
L 134.181514 286.626186 
L 132.371413 286.69199 
L 130.561312 286.723548 
L 128.751211 286.9589 
L 126.94111 287.242797 
L 125.131009 287.315414 
L 123.320908 287.731711 
L 121.510807 287.994275 
L 119.700705 288.161058 
L 117.890604 288.297825 
L 116.080503 288.415813 
L 114.270402 288.564123 
L 112.460301 288.690674 
L 110.6502 288.817226 
L 108.840099 288.943777 
L 107.029998 289.070328 
L 105.219897 289.191613 
L 103.409796 289.182641 
L 101.599695 289.173773 
L 99.789594 289.164906 
L 97.979493 289.156672 
L 96.169392 289.151778 
L 94.359291 289.146884 
L 92.54919 289.14199 
L 90.739089 289.162825 
L 88.928988 289.156963 
L 87.118887 289.117223 
L 85.308786 289.246951 
L 83.498685 289.54956 
L 81.688584 289.854369 
L 79.878483 290.159178 
L 78.068382 290.463988 
L 76.258281 290.71719 
z
" clip-path="url(#pf79b4a7aa7)" style="fill: #ffa500; fill-opacity: 0.15"/>
   </g>
   <g id="PathCollection_5">
    <g clip-path="url(#pf79b4a7aa7)">
     <use xlink:href="#mb82c5101b8" x="179.434039" y="299.750928" style="fill: #808080; fill-opacity: 0.85; stroke: #808080; stroke-opacity: 0.85"/>
     <use xlink:href="#mb82c5101b8" x="190.294645" y="240.672263" style="fill: #808080; fill-opacity: 0.85; stroke: #808080; stroke-opacity: 0.85"/>
     <use xlink:href="#mb82c5101b8" x="184.864342" y="277.685925" style="fill: #808080; fill-opacity: 0.85; stroke: #808080; stroke-opacity: 0.85"/>
     <use xlink:href="#mb82c5101b8" x="255.458281" y="252.777363" style="fill: #808080; fill-opacity: 0.85; stroke: #808080; stroke-opacity: 0.85"/>
     <use xlink:href="#mb82c5101b8" x="130.561312" y="287.870425" style="fill: #808080; fill-opacity: 0.85; stroke: #808080; stroke-opacity: 0.85"/>
     <use xlink:href="#mb82c5101b8" x="174.003736" y="299.673041" style="fill: #808080; fill-opacity: 0.85; stroke: #808080; stroke-opacity: 0.85"/>
     <use xlink:href="#mb82c5101b8" x="152.282524" y="281.90233" style="fill: #808080; fill-opacity: 0.85; stroke: #808080; stroke-opacity: 0.85"/>
     <use xlink:href="#mb82c5101b8" x="201.155251" y="283.97552" style="fill: #808080; fill-opacity: 0.85; stroke: #808080; stroke-opacity: 0.85"/>
    </g>
   </g>
   <g id="PathCollection_6">
    <g clip-path="url(#pf79b4a7aa7)">
     <use xlink:href="#m1283d46d95" x="195.724948" y="270.777902" style="fill: #808080; fill-opacity: 0.85; stroke: #808080; stroke-opacity: 0.85"/>
     <use xlink:href="#m1283d46d95" x="168.573433" y="282.958316" style="fill: #808080; fill-opacity: 0.85; stroke: #808080; stroke-opacity: 0.85"/>
     <use xlink:href="#m1283d46d95" x="141.421918" y="303.53997" style="fill: #808080; fill-opacity: 0.85; stroke: #808080; stroke-opacity: 0.85"/>
     <use xlink:href="#m1283d46d95" x="195.724948" y="260.541003" style="fill: #808080; fill-opacity: 0.85; stroke: #808080; stroke-opacity: 0.85"/>
     <use xlink:href="#m1283d46d95" x="168.573433" y="288.937531" style="fill: #808080; fill-opacity: 0.85; stroke: #808080; stroke-opacity: 0.85"/>
     <use xlink:href="#m1283d46d95" x="108.840099" y="319.884293" style="fill: #808080; fill-opacity: 0.85; stroke: #808080; stroke-opacity: 0.85"/>
     <use xlink:href="#m1283d46d95" x="239.167372" y="305.916992" style="fill: #808080; fill-opacity: 0.85; stroke: #808080; stroke-opacity: 0.85"/>
     <use xlink:href="#m1283d46d95" x="228.306766" y="220.38358" style="fill: #808080; fill-opacity: 0.85; stroke: #808080; stroke-opacity: 0.85"/>
     <use xlink:href="#m1283d46d95" x="222.876463" y="302.930115" style="fill: #808080; fill-opacity: 0.85; stroke: #808080; stroke-opacity: 0.85"/>
     <use xlink:href="#m1283d46d95" x="76.258281" y="314.362606" style="fill: #808080; fill-opacity: 0.85; stroke: #808080; stroke-opacity: 0.85"/>
    </g>
   </g>
   <g id="matplotlib.axis_5">
    <g id="xtick_9">
     <g id="line2d_23">
      <g>
       <use xlink:href="#m38253255a3" x="81.688584" y="357.838125" style="stroke: #000000; stroke-width: 0.8"/>
      </g>
     </g>
     <g id="text_20">
      <!-- 50 -->
      <g transform="translate(74.689834 373.196406) scale(0.11 -0.11)">
       <use xlink:href="#DejaVuSans-35"/>
       <use xlink:href="#DejaVuSans-30" transform="translate(63.623047 0)"/>
      </g>
     </g>
    </g>
    <g id="xtick_10">
     <g id="line2d_24">
      <g>
       <use xlink:href="#m38253255a3" x="135.991615" y="357.838125" style="stroke: #000000; stroke-width: 0.8"/>
      </g>
     </g>
     <g id="text_21">
      <!-- 60 -->
      <g transform="translate(128.992865 373.196406) scale(0.11 -0.11)">
       <use xlink:href="#DejaVuSans-36"/>
       <use xlink:href="#DejaVuSans-30" transform="translate(63.623047 0)"/>
      </g>
     </g>
    </g>
    <g id="xtick_11">
     <g id="line2d_25">
      <g>
       <use xlink:href="#m38253255a3" x="190.294645" y="357.838125" style="stroke: #000000; stroke-width: 0.8"/>
      </g>
     </g>
     <g id="text_22">
      <!-- 70 -->
      <g transform="translate(183.295895 373.196406) scale(0.11 -0.11)">
       <use xlink:href="#DejaVuSans-37"/>
       <use xlink:href="#DejaVuSans-30" transform="translate(63.623047 0)"/>
      </g>
     </g>
    </g>
    <g id="xtick_12">
     <g id="line2d_26">
      <g>
       <use xlink:href="#m38253255a3" x="244.597675" y="357.838125" style="stroke: #000000; stroke-width: 0.8"/>
      </g>
     </g>
     <g id="text_23">
      <!-- 80 -->
      <g transform="translate(237.598925 373.196406) scale(0.11 -0.11)">
       <use xlink:href="#DejaVuSans-38"/>
       <use xlink:href="#DejaVuSans-30" transform="translate(63.623047 0)"/>
      </g>
     </g>
    </g>
    <g id="text_24">
     <!-- Age (years) -->
     <g transform="translate(123.455938 389.347813) scale(0.13 -0.13)">
      <defs>
       <path id="DejaVuSans-Bold-41" d="M 3419 850 
L 1538 850 
L 1241 0 
L 31 0 
L 1759 4666 
L 3194 4666 
L 4922 0 
L 3713 0 
L 3419 850 
z
M 1838 1716 
L 3116 1716 
L 2478 3572 
L 1838 1716 
z
" transform="scale(0.015625)"/>
       <path id="DejaVuSans-Bold-28" d="M 2413 -844 
L 1484 -844 
Q 1006 -72 778 623 
Q 550 1319 550 2003 
Q 550 2688 779 3389 
Q 1009 4091 1484 4856 
L 2413 4856 
Q 2013 4116 1813 3408 
Q 1613 2700 1613 2009 
Q 1613 1319 1811 609 
Q 2009 -100 2413 -844 
z
" transform="scale(0.015625)"/>
       <path id="DejaVuSans-Bold-79" d="M 78 3500 
L 1197 3500 
L 2138 1125 
L 2938 3500 
L 4056 3500 
L 2584 -331 
Q 2363 -916 2067 -1148 
Q 1772 -1381 1288 -1381 
L 641 -1381 
L 641 -647 
L 991 -647 
Q 1275 -647 1404 -556 
Q 1534 -466 1606 -231 
L 1638 -134 
L 78 3500 
z
" transform="scale(0.015625)"/>
       <path id="DejaVuSans-Bold-29" d="M 513 -844 
Q 913 -100 1113 609 
Q 1313 1319 1313 2009 
Q 1313 2700 1113 3408 
Q 913 4116 513 4856 
L 1441 4856 
Q 1916 4091 2145 3389 
Q 2375 2688 2375 2003 
Q 2375 1319 2147 623 
Q 1919 -72 1441 -844 
L 513 -844 
z
" transform="scale(0.015625)"/>
      </defs>
      <use xlink:href="#DejaVuSans-Bold-41"/>
      <use xlink:href="#DejaVuSans-Bold-67" transform="translate(77.392578 0)"/>
      <use xlink:href="#DejaVuSans-Bold-65" transform="translate(148.974609 0)"/>
      <use xlink:href="#DejaVuSans-Bold-20" transform="translate(216.796875 0)"/>
      <use xlink:href="#DejaVuSans-Bold-28" transform="translate(251.611328 0)"/>
      <use xlink:href="#DejaVuSans-Bold-79" transform="translate(297.314453 0)"/>
      <use xlink:href="#DejaVuSans-Bold-65" transform="translate(362.5 0)"/>
      <use xlink:href="#DejaVuSans-Bold-61" transform="translate(430.322266 0)"/>
      <use xlink:href="#DejaVuSans-Bold-72" transform="translate(497.802734 0)"/>
      <use xlink:href="#DejaVuSans-Bold-73" transform="translate(547.119141 0)"/>
      <use xlink:href="#DejaVuSans-Bold-29" transform="translate(606.640625 0)"/>
     </g>
    </g>
   </g>
   <g id="matplotlib.axis_6">
    <g id="ytick_13">
     <g id="line2d_27">
      <g>
       <use xlink:href="#me5688a0cce" x="67.298281" y="313.543754" style="stroke: #000000; stroke-width: 0.8"/>
      </g>
     </g>
     <g id="text_25">
      <!-- −20 -->
      <g transform="translate(37.083125 317.722894) scale(0.11 -0.11)">
       <use xlink:href="#DejaVuSans-2212"/>
       <use xlink:href="#DejaVuSans-32" transform="translate(83.789062 0)"/>
       <use xlink:href="#DejaVuSans-30" transform="translate(147.412109 0)"/>
      </g>
     </g>
    </g>
    <g id="ytick_14">
     <g id="line2d_28">
      <g>
       <use xlink:href="#me5688a0cce" x="67.298281" y="268.149268" style="stroke: #000000; stroke-width: 0.8"/>
      </g>
     </g>
     <g id="text_26">
      <!-- 0 -->
      <g transform="translate(53.299531 272.328409) scale(0.11 -0.11)">
       <use xlink:href="#DejaVuSans-30"/>
      </g>
     </g>
    </g>
    <g id="ytick_15">
     <g id="line2d_29">
      <g>
       <use xlink:href="#me5688a0cce" x="67.298281" y="222.754782" style="stroke: #000000; stroke-width: 0.8"/>
      </g>
     </g>
     <g id="text_27">
      <!-- 20 -->
      <g transform="translate(46.300781 226.933923) scale(0.11 -0.11)">
       <use xlink:href="#DejaVuSans-32"/>
       <use xlink:href="#DejaVuSans-30" transform="translate(63.623047 0)"/>
      </g>
     </g>
    </g>
    <g id="text_28">
     <!-- % change of dwell time -->
     <g transform="translate(24.277969 371.291797) rotate(-90) scale(0.13 -0.13)">
      <defs>
       <path id="DejaVuSans-Bold-77" d="M 225 3500 
L 1313 3500 
L 1900 1088 
L 2491 3500 
L 3425 3500 
L 4013 1113 
L 4603 3500 
L 5691 3500 
L 4769 0 
L 3547 0 
L 2956 2406 
L 2369 0 
L 1147 0 
L 225 3500 
z
" transform="scale(0.015625)"/>
       <path id="DejaVuSans-Bold-6c" d="M 538 4863 
L 1656 4863 
L 1656 0 
L 538 0 
L 538 4863 
z
" transform="scale(0.015625)"/>
       <path id="DejaVuSans-Bold-69" d="M 538 3500 
L 1656 3500 
L 1656 0 
L 538 0 
L 538 3500 
z
M 538 4863 
L 1656 4863 
L 1656 3950 
L 538 3950 
L 538 4863 
z
" transform="scale(0.015625)"/>
       <path id="DejaVuSans-Bold-6d" d="M 3781 2919 
Q 3994 3244 4286 3414 
Q 4578 3584 4928 3584 
Q 5531 3584 5847 3212 
Q 6163 2841 6163 2131 
L 6163 0 
L 5038 0 
L 5038 1825 
Q 5041 1866 5042 1909 
Q 5044 1953 5044 2034 
Q 5044 2406 4934 2573 
Q 4825 2741 4581 2741 
Q 4263 2741 4089 2478 
Q 3916 2216 3909 1719 
L 3909 0 
L 2784 0 
L 2784 1825 
Q 2784 2406 2684 2573 
Q 2584 2741 2328 2741 
Q 2006 2741 1831 2477 
Q 1656 2213 1656 1722 
L 1656 0 
L 531 0 
L 531 3500 
L 1656 3500 
L 1656 2988 
Q 1863 3284 2130 3434 
Q 2397 3584 2719 3584 
Q 3081 3584 3359 3409 
Q 3638 3234 3781 2919 
z
" transform="scale(0.015625)"/>
      </defs>
      <use xlink:href="#DejaVuSans-Bold-25"/>
      <use xlink:href="#DejaVuSans-Bold-20" transform="translate(100.195312 0)"/>
      <use xlink:href="#DejaVuSans-Bold-63" transform="translate(135.009766 0)"/>
      <use xlink:href="#DejaVuSans-Bold-68" transform="translate(194.287109 0)"/>
      <use xlink:href="#DejaVuSans-Bold-61" transform="translate(265.478516 0)"/>
      <use xlink:href="#DejaVuSans-Bold-6e" transform="translate(332.958984 0)"/>
      <use xlink:href="#DejaVuSans-Bold-67" transform="translate(404.150391 0)"/>
      <use xlink:href="#DejaVuSans-Bold-65" transform="translate(475.732422 0)"/>
      <use xlink:href="#DejaVuSans-Bold-20" transform="translate(543.554688 0)"/>
      <use xlink:href="#DejaVuSans-Bold-6f" transform="translate(578.369141 0)"/>
      <use xlink:href="#DejaVuSans-Bold-66" transform="translate(647.070312 0)"/>
      <use xlink:href="#DejaVuSans-Bold-20" transform="translate(690.576172 0)"/>
      <use xlink:href="#DejaVuSans-Bold-64" transform="translate(725.390625 0)"/>
      <use xlink:href="#DejaVuSans-Bold-77" transform="translate(796.972656 0)"/>
      <use xlink:href="#DejaVuSans-Bold-65" transform="translate(889.355469 0)"/>
      <use xlink:href="#DejaVuSans-Bold-6c" transform="translate(957.177734 0)"/>
      <use xlink:href="#DejaVuSans-Bold-6c" transform="translate(991.455078 0)"/>
      <use xlink:href="#DejaVuSans-Bold-20" transform="translate(1025.732422 0)"/>
      <use xlink:href="#DejaVuSans-Bold-74" transform="translate(1060.546875 0)"/>
      <use xlink:href="#DejaVuSans-Bold-69" transform="translate(1108.349609 0)"/>
      <use xlink:href="#DejaVuSans-Bold-6d" transform="translate(1142.626953 0)"/>
      <use xlink:href="#DejaVuSans-Bold-65" transform="translate(1246.826172 0)"/>
     </g>
    </g>
   </g>
   <g id="line2d_30">
    <path d="M 76.258281 315.369621 
L 78.068382 314.797238 
L 79.878483 314.224856 
L 81.688584 313.652473 
L 83.498685 313.08009 
L 85.308786 312.507708 
L 87.118887 311.935325 
L 88.928988 311.362943 
L 90.739089 310.79056 
L 92.54919 310.218178 
L 94.359291 309.645795 
L 96.169392 309.073412 
L 97.979493 308.50103 
L 99.789594 307.928647 
L 101.599695 307.356265 
L 103.409796 306.783882 
L 105.219897 306.2115 
L 107.029998 305.639117 
L 108.840099 305.066734 
L 110.6502 304.494352 
L 112.460301 303.921969 
L 114.270402 303.349587 
L 116.080503 302.777204 
L 117.890604 302.204822 
L 119.700705 301.632439 
L 121.510807 301.060057 
L 123.320908 300.487674 
L 125.131009 299.915291 
L 126.94111 299.342909 
L 128.751211 298.770526 
L 130.561312 298.198144 
L 132.371413 297.625761 
L 134.181514 297.053379 
L 135.991615 296.480996 
L 137.801716 295.908613 
L 139.611817 295.336231 
L 141.421918 294.763848 
L 143.232019 294.191466 
L 145.04212 293.619083 
L 146.852221 293.046701 
L 148.662322 292.474318 
L 150.472423 291.901935 
L 152.282524 291.329553 
L 154.092625 290.75717 
L 155.902726 290.184788 
L 157.712827 289.612405 
L 159.522928 289.040023 
L 161.333029 288.46764 
L 163.14313 287.895257 
L 164.953231 287.322875 
L 166.763332 286.750492 
L 168.573433 286.17811 
L 170.383534 285.605727 
L 172.193635 285.033345 
L 174.003736 284.460962 
L 175.813837 283.888579 
L 177.623938 283.316197 
L 179.434039 282.743814 
L 181.24414 282.171432 
L 183.054241 281.599049 
L 184.864342 281.026667 
L 186.674443 280.454284 
L 188.484544 279.881901 
L 190.294645 279.309519 
L 192.104746 278.737136 
L 193.914847 278.164754 
L 195.724948 277.592371 
L 197.535049 277.019989 
L 199.34515 276.447606 
L 201.155251 275.875224 
L 202.965352 275.302841 
L 204.775453 274.730458 
L 206.585554 274.158076 
L 208.395655 273.585693 
L 210.205756 273.013311 
L 212.015857 272.440928 
L 213.825958 271.868546 
L 215.636059 271.296163 
L 217.44616 270.72378 
L 219.256261 270.151398 
L 221.066362 269.579015 
L 222.876463 269.006633 
L 224.686564 268.43425 
L 226.496665 267.861868 
L 228.306766 267.289485 
L 230.116867 266.717102 
L 231.926968 266.14472 
L 233.737069 265.572337 
L 235.54717 264.999955 
L 237.357271 264.427572 
L 239.167372 263.85519 
L 240.977473 263.282807 
L 242.787574 262.710424 
L 244.597675 262.138042 
L 246.407776 261.565659 
L 248.217877 260.993277 
L 250.027978 260.420894 
L 251.838079 259.848512 
L 253.64818 259.276129 
L 255.458281 258.703746 
" clip-path="url(#pf79b4a7aa7)" style="fill: none; stroke: #ffa500; stroke-width: 2.25; stroke-linecap: square"/>
   </g>
   <g id="patch_9">
    <path d="M 67.298281 357.838125 
L 67.298281 213.838125 
" style="fill: none; stroke: #000000; stroke-width: 0.8; stroke-linejoin: miter; stroke-linecap: square"/>
   </g>
   <g id="patch_10">
    <path d="M 67.298281 357.838125 
L 264.418281 357.838125 
" style="fill: none; stroke: #000000; stroke-width: 0.8; stroke-linejoin: miter; stroke-linecap: square"/>
   </g>
   <g id="text_29">
    <!-- r=0.55 -->
    <g transform="translate(201.339881 232.956563) scale(0.1 -0.1)">
     <use xlink:href="#DejaVuSans-72"/>
     <use xlink:href="#DejaVuSans-3d" transform="translate(41.113281 0)"/>
     <use xlink:href="#DejaVuSans-30" transform="translate(124.902344 0)"/>
     <use xlink:href="#DejaVuSans-2e" transform="translate(188.525391 0)"/>
     <use xlink:href="#DejaVuSans-35" transform="translate(220.3125 0)"/>
     <use xlink:href="#DejaVuSans-35" transform="translate(283.935547 0)"/>
    </g>
    <!-- p=0.018 -->
    <g transform="translate(201.339881 244.154375) scale(0.1 -0.1)">
     <use xlink:href="#DejaVuSans-70"/>
     <use xlink:href="#DejaVuSans-3d" transform="translate(63.476562 0)"/>
     <use xlink:href="#DejaVuSans-30" transform="translate(147.265625 0)"/>
     <use xlink:href="#DejaVuSans-2e" transform="translate(210.888672 0)"/>
     <use xlink:href="#DejaVuSans-30" transform="translate(242.675781 0)"/>
     <use xlink:href="#DejaVuSans-31" transform="translate(306.298828 0)"/>
     <use xlink:href="#DejaVuSans-38" transform="translate(369.921875 0)"/>
    </g>
   </g>
  </g>
  <g id="axes_4">
   <g id="patch_11">
    <path d="M 313.698281 357.838125 
L 510.818281 357.838125 
L 510.818281 213.838125 
L 313.698281 213.838125 
z
" style="fill: #ffffff"/>
   </g>
   <g id="FillBetweenPolyCollection_4">
    <path d="M 322.658281 279.457927 
L 322.658281 351.29267 
L 324.468382 350.196927 
L 326.278483 349.100794 
L 328.088584 348.043847 
L 329.898685 347.161563 
L 331.708786 346.271916 
L 333.518887 345.232731 
L 335.328988 344.105697 
L 337.139089 343.190444 
L 338.94919 342.272633 
L 340.759291 341.241689 
L 342.569392 340.123728 
L 344.379493 338.998347 
L 346.189594 337.994428 
L 347.999695 336.760645 
L 349.809796 335.645339 
L 351.619897 334.523847 
L 353.429998 333.40045 
L 355.240099 332.379648 
L 357.0502 331.513461 
L 358.860301 330.647275 
L 360.670402 329.781088 
L 362.480503 328.704785 
L 364.290604 327.573093 
L 366.100705 326.441401 
L 367.910807 325.317704 
L 369.720908 324.256423 
L 371.531009 323.441238 
L 373.34111 322.626054 
L 375.151211 321.628855 
L 376.961312 320.220185 
L 378.771413 318.991893 
L 380.581514 318.238496 
L 382.391615 317.316926 
L 384.201716 316.508018 
L 386.011817 315.69911 
L 387.821918 314.882236 
L 389.632019 313.992794 
L 391.44212 313.047949 
L 393.252221 312.213362 
L 395.062322 311.377354 
L 396.872423 310.466952 
L 398.682524 309.294034 
L 400.492625 308.118217 
L 402.302726 307.425478 
L 404.112827 306.602882 
L 405.922928 305.676504 
L 407.733029 304.67289 
L 409.54313 303.841314 
L 411.353231 303.231232 
L 413.163332 302.783722 
L 414.973433 302.010176 
L 416.783534 301.400987 
L 418.593635 300.729882 
L 420.403736 300.046897 
L 422.213837 299.361478 
L 424.023938 298.740893 
L 425.834039 298.146607 
L 427.64414 297.607607 
L 429.454241 297.122345 
L 431.264342 296.738773 
L 433.074443 296.146476 
L 434.884544 295.966373 
L 436.694645 295.572687 
L 438.504746 295.193446 
L 440.314847 295.173648 
L 442.124948 295.133743 
L 443.935049 294.651699 
L 445.74515 294.66672 
L 447.555251 294.455392 
L 449.365352 294.352871 
L 451.175453 294.203416 
L 452.985554 293.951201 
L 454.795655 293.947598 
L 456.605756 293.922382 
L 458.415857 293.834208 
L 460.225958 293.751093 
L 462.036059 293.728016 
L 463.84616 293.747539 
L 465.656261 293.736439 
L 467.466362 293.713022 
L 469.276463 293.688459 
L 471.086564 293.62664 
L 472.896665 293.612832 
L 474.706766 293.566099 
L 476.516867 293.535829 
L 478.326968 293.564937 
L 480.137069 293.539066 
L 481.94717 293.444708 
L 483.757271 293.449473 
L 485.567372 293.464656 
L 487.377473 293.441812 
L 489.187574 293.465217 
L 490.997675 293.577519 
L 492.807776 293.513633 
L 494.617877 293.421961 
L 496.427978 293.316127 
L 498.238079 293.24479 
L 500.04818 293.227733 
L 501.858281 293.24263 
L 501.858281 237.865675 
L 501.858281 237.865675 
L 500.04818 238.896752 
L 498.238079 239.92783 
L 496.427978 240.830329 
L 494.617877 241.975564 
L 492.807776 242.865011 
L 490.997675 243.885256 
L 489.187574 245.058819 
L 487.377473 246.107208 
L 485.567372 247.099278 
L 483.757271 248.006604 
L 481.94717 248.975051 
L 480.137069 250.084112 
L 478.326968 251.202971 
L 476.516867 252.277084 
L 474.706766 253.173981 
L 472.896665 254.129676 
L 471.086564 255.086358 
L 469.276463 256.037086 
L 467.466362 256.985672 
L 465.656261 257.723307 
L 463.84616 258.160416 
L 462.036059 258.967558 
L 460.225958 259.919233 
L 458.415857 260.668208 
L 456.605756 261.330298 
L 454.795655 262.376591 
L 452.985554 263.17457 
L 451.175453 263.883007 
L 449.365352 264.617438 
L 447.555251 265.298528 
L 445.74515 266.005225 
L 443.935049 266.713194 
L 442.124948 267.240994 
L 440.314847 267.806668 
L 438.504746 268.361864 
L 436.694645 268.616436 
L 434.884544 269.057007 
L 433.074443 269.700969 
L 431.264342 270.143244 
L 429.454241 270.707303 
L 427.64414 271.275998 
L 425.834039 271.831208 
L 424.023938 272.200795 
L 422.213837 272.523645 
L 420.403736 273.284859 
L 418.593635 273.536769 
L 416.783534 273.851276 
L 414.973433 274.115478 
L 413.163332 274.302156 
L 411.353231 274.418745 
L 409.54313 274.635943 
L 407.733029 274.767547 
L 405.922928 275.068348 
L 404.112827 275.274505 
L 402.302726 275.470875 
L 400.492625 275.82388 
L 398.682524 275.816893 
L 396.872423 276.049682 
L 395.062322 276.352834 
L 393.252221 276.527496 
L 391.44212 276.702707 
L 389.632019 276.878473 
L 387.821918 276.964501 
L 386.011817 277.134834 
L 384.201716 277.323664 
L 382.391615 277.513288 
L 380.581514 277.702912 
L 378.771413 277.858964 
L 376.961312 277.965409 
L 375.151211 278.118483 
L 373.34111 278.172204 
L 371.531009 278.225925 
L 369.720908 278.242005 
L 367.910807 278.116167 
L 366.100705 278.189944 
L 364.290604 278.454668 
L 362.480503 278.589983 
L 360.670402 278.563921 
L 358.860301 278.621173 
L 357.0502 278.678425 
L 355.240099 278.762734 
L 353.429998 278.800917 
L 351.619897 278.844396 
L 349.809796 278.899337 
L 347.999695 278.914867 
L 346.189594 278.952488 
L 344.379493 278.987427 
L 342.569392 279.026756 
L 340.759291 279.066085 
L 338.94919 279.106152 
L 337.139089 279.120826 
L 335.328988 279.128771 
L 333.518887 279.16591 
L 331.708786 279.25936 
L 329.898685 279.29755 
L 328.088584 279.337782 
L 326.278483 279.395428 
L 324.468382 279.504426 
L 322.658281 279.457927 
z
" clip-path="url(#pc26e079665)" style="fill: #ffa500; fill-opacity: 0.15"/>
   </g>
   <g id="PathCollection_7">
    <g clip-path="url(#pc26e079665)">
     <use xlink:href="#mb82c5101b8" x="425.834039" y="282.951818" style="fill: #808080; fill-opacity: 0.85; stroke: #808080; stroke-opacity: 0.85"/>
     <use xlink:href="#mb82c5101b8" x="436.694645" y="285.484707" style="fill: #808080; fill-opacity: 0.85; stroke: #808080; stroke-opacity: 0.85"/>
     <use xlink:href="#mb82c5101b8" x="431.264342" y="275.89991" style="fill: #808080; fill-opacity: 0.85; stroke: #808080; stroke-opacity: 0.85"/>
     <use xlink:href="#mb82c5101b8" x="501.858281" y="266.764499" style="fill: #808080; fill-opacity: 0.85; stroke: #808080; stroke-opacity: 0.85"/>
     <use xlink:href="#mb82c5101b8" x="376.961312" y="332.719484" style="fill: #808080; fill-opacity: 0.85; stroke: #808080; stroke-opacity: 0.85"/>
     <use xlink:href="#mb82c5101b8" x="420.403736" y="334.378212" style="fill: #808080; fill-opacity: 0.85; stroke: #808080; stroke-opacity: 0.85"/>
     <use xlink:href="#mb82c5101b8" x="398.682524" y="303.392646" style="fill: #808080; fill-opacity: 0.85; stroke: #808080; stroke-opacity: 0.85"/>
     <use xlink:href="#mb82c5101b8" x="447.555251" y="248.194946" style="fill: #808080; fill-opacity: 0.85; stroke: #808080; stroke-opacity: 0.85"/>
    </g>
   </g>
   <g id="PathCollection_8">
    <g clip-path="url(#pc26e079665)">
     <use xlink:href="#m1283d46d95" x="442.124948" y="321.021606" style="fill: #808080; fill-opacity: 0.85; stroke: #808080; stroke-opacity: 0.85"/>
     <use xlink:href="#m1283d46d95" x="414.973433" y="279.504348" style="fill: #808080; fill-opacity: 0.85; stroke: #808080; stroke-opacity: 0.85"/>
     <use xlink:href="#m1283d46d95" x="387.821918" y="268.722987" style="fill: #808080; fill-opacity: 0.85; stroke: #808080; stroke-opacity: 0.85"/>
     <use xlink:href="#m1283d46d95" x="442.124948" y="236.061349" style="fill: #808080; fill-opacity: 0.85; stroke: #808080; stroke-opacity: 0.85"/>
     <use xlink:href="#m1283d46d95" x="414.973433" y="290.944369" style="fill: #808080; fill-opacity: 0.85; stroke: #808080; stroke-opacity: 0.85"/>
     <use xlink:href="#m1283d46d95" x="355.240099" y="322.24091" style="fill: #808080; fill-opacity: 0.85; stroke: #808080; stroke-opacity: 0.85"/>
     <use xlink:href="#m1283d46d95" x="485.567372" y="289.974509" style="fill: #808080; fill-opacity: 0.85; stroke: #808080; stroke-opacity: 0.85"/>
     <use xlink:href="#m1283d46d95" x="474.706766" y="237.252443" style="fill: #808080; fill-opacity: 0.85; stroke: #808080; stroke-opacity: 0.85"/>
     <use xlink:href="#m1283d46d95" x="469.276463" y="287.135212" style="fill: #808080; fill-opacity: 0.85; stroke: #808080; stroke-opacity: 0.85"/>
     <use xlink:href="#m1283d46d95" x="322.658281" y="270.753816" style="fill: #808080; fill-opacity: 0.85; stroke: #808080; stroke-opacity: 0.85"/>
    </g>
   </g>
   <g id="matplotlib.axis_7">
    <g id="xtick_13">
     <g id="line2d_31">
      <g>
       <use xlink:href="#m38253255a3" x="328.088584" y="357.838125" style="stroke: #000000; stroke-width: 0.8"/>
      </g>
     </g>
     <g id="text_30">
      <!-- 50 -->
      <g transform="translate(321.089834 373.196406) scale(0.11 -0.11)">
       <use xlink:href="#DejaVuSans-35"/>
       <use xlink:href="#DejaVuSans-30" transform="translate(63.623047 0)"/>
      </g>
     </g>
    </g>
    <g id="xtick_14">
     <g id="line2d_32">
      <g>
       <use xlink:href="#m38253255a3" x="382.391615" y="357.838125" style="stroke: #000000; stroke-width: 0.8"/>
      </g>
     </g>
     <g id="text_31">
      <!-- 60 -->
      <g transform="translate(375.392865 373.196406) scale(0.11 -0.11)">
       <use xlink:href="#DejaVuSans-36"/>
       <use xlink:href="#DejaVuSans-30" transform="translate(63.623047 0)"/>
      </g>
     </g>
    </g>
    <g id="xtick_15">
     <g id="line2d_33">
      <g>
       <use xlink:href="#m38253255a3" x="436.694645" y="357.838125" style="stroke: #000000; stroke-width: 0.8"/>
      </g>
     </g>
     <g id="text_32">
      <!-- 70 -->
      <g transform="translate(429.695895 373.196406) scale(0.11 -0.11)">
       <use xlink:href="#DejaVuSans-37"/>
       <use xlink:href="#DejaVuSans-30" transform="translate(63.623047 0)"/>
      </g>
     </g>
    </g>
    <g id="xtick_16">
     <g id="line2d_34">
      <g>
       <use xlink:href="#m38253255a3" x="490.997675" y="357.838125" style="stroke: #000000; stroke-width: 0.8"/>
      </g>
     </g>
     <g id="text_33">
      <!-- 80 -->
      <g transform="translate(483.998925 373.196406) scale(0.11 -0.11)">
       <use xlink:href="#DejaVuSans-38"/>
       <use xlink:href="#DejaVuSans-30" transform="translate(63.623047 0)"/>
      </g>
     </g>
    </g>
    <g id="text_34">
     <!-- Age (years) -->
     <g transform="translate(369.855937 389.347813) scale(0.13 -0.13)">
      <use xlink:href="#DejaVuSans-Bold-41"/>
      <use xlink:href="#DejaVuSans-Bold-67" transform="translate(77.392578 0)"/>
      <use xlink:href="#DejaVuSans-Bold-65" transform="translate(148.974609 0)"/>
      <use xlink:href="#DejaVuSans-Bold-20" transform="translate(216.796875 0)"/>
      <use xlink:href="#DejaVuSans-Bold-28" transform="translate(251.611328 0)"/>
      <use xlink:href="#DejaVuSans-Bold-79" transform="translate(297.314453 0)"/>
      <use xlink:href="#DejaVuSans-Bold-65" transform="translate(362.5 0)"/>
      <use xlink:href="#DejaVuSans-Bold-61" transform="translate(430.322266 0)"/>
      <use xlink:href="#DejaVuSans-Bold-72" transform="translate(497.802734 0)"/>
      <use xlink:href="#DejaVuSans-Bold-73" transform="translate(547.119141 0)"/>
      <use xlink:href="#DejaVuSans-Bold-29" transform="translate(606.640625 0)"/>
     </g>
    </g>
   </g>
   <g id="matplotlib.axis_8">
    <g id="ytick_16">
     <g id="line2d_35">
      <g>
       <use xlink:href="#me5688a0cce" x="313.698281" y="313.543754" style="stroke: #000000; stroke-width: 0.8"/>
      </g>
     </g>
    </g>
    <g id="ytick_17">
     <g id="line2d_36">
      <g>
       <use xlink:href="#me5688a0cce" x="313.698281" y="268.149268" style="stroke: #000000; stroke-width: 0.8"/>
      </g>
     </g>
    </g>
    <g id="ytick_18">
     <g id="line2d_37">
      <g>
       <use xlink:href="#me5688a0cce" x="313.698281" y="222.754782" style="stroke: #000000; stroke-width: 0.8"/>
      </g>
     </g>
    </g>
   </g>
   <g id="line2d_38">
    <path d="M 322.658281 308.491786 
L 324.468382 308.079343 
L 326.278483 307.6669 
L 328.088584 307.254457 
L 329.898685 306.842015 
L 331.708786 306.429572 
L 333.518887 306.017129 
L 335.328988 305.604686 
L 337.139089 305.192243 
L 338.94919 304.7798 
L 340.759291 304.367358 
L 342.569392 303.954915 
L 344.379493 303.542472 
L 346.189594 303.130029 
L 347.999695 302.717586 
L 349.809796 302.305143 
L 351.619897 301.8927 
L 353.429998 301.480258 
L 355.240099 301.067815 
L 357.0502 300.655372 
L 358.860301 300.242929 
L 360.670402 299.830486 
L 362.480503 299.418043 
L 364.290604 299.005601 
L 366.100705 298.593158 
L 367.910807 298.180715 
L 369.720908 297.768272 
L 371.531009 297.355829 
L 373.34111 296.943386 
L 375.151211 296.530943 
L 376.961312 296.118501 
L 378.771413 295.706058 
L 380.581514 295.293615 
L 382.391615 294.881172 
L 384.201716 294.468729 
L 386.011817 294.056286 
L 387.821918 293.643844 
L 389.632019 293.231401 
L 391.44212 292.818958 
L 393.252221 292.406515 
L 395.062322 291.994072 
L 396.872423 291.581629 
L 398.682524 291.169186 
L 400.492625 290.756744 
L 402.302726 290.344301 
L 404.112827 289.931858 
L 405.922928 289.519415 
L 407.733029 289.106972 
L 409.54313 288.694529 
L 411.353231 288.282087 
L 413.163332 287.869644 
L 414.973433 287.457201 
L 416.783534 287.044758 
L 418.593635 286.632315 
L 420.403736 286.219872 
L 422.213837 285.807429 
L 424.023938 285.394987 
L 425.834039 284.982544 
L 427.64414 284.570101 
L 429.454241 284.157658 
L 431.264342 283.745215 
L 433.074443 283.332772 
L 434.884544 282.92033 
L 436.694645 282.507887 
L 438.504746 282.095444 
L 440.314847 281.683001 
L 442.124948 281.270558 
L 443.935049 280.858115 
L 445.74515 280.445672 
L 447.555251 280.03323 
L 449.365352 279.620787 
L 451.175453 279.208344 
L 452.985554 278.795901 
L 454.795655 278.383458 
L 456.605756 277.971015 
L 458.415857 277.558573 
L 460.225958 277.14613 
L 462.036059 276.733687 
L 463.84616 276.321244 
L 465.656261 275.908801 
L 467.466362 275.496358 
L 469.276463 275.083915 
L 471.086564 274.671473 
L 472.896665 274.25903 
L 474.706766 273.846587 
L 476.516867 273.434144 
L 478.326968 273.021701 
L 480.137069 272.609258 
L 481.94717 272.196816 
L 483.757271 271.784373 
L 485.567372 271.37193 
L 487.377473 270.959487 
L 489.187574 270.547044 
L 490.997675 270.134601 
L 492.807776 269.722158 
L 494.617877 269.309716 
L 496.427978 268.897273 
L 498.238079 268.48483 
L 500.04818 268.072387 
L 501.858281 267.659944 
" clip-path="url(#pc26e079665)" style="fill: none; stroke: #ffa500; stroke-width: 2.25; stroke-linecap: square"/>
   </g>
   <g id="patch_12">
    <path d="M 313.698281 357.838125 
L 313.698281 213.838125 
" style="fill: none; stroke: #000000; stroke-width: 0.8; stroke-linejoin: miter; stroke-linecap: square"/>
   </g>
   <g id="patch_13">
    <path d="M 313.698281 357.838125 
L 510.818281 357.838125 
" style="fill: none; stroke: #000000; stroke-width: 0.8; stroke-linejoin: miter; stroke-linecap: square"/>
   </g>
   <g id="text_35">
    <!-- r=0.35 -->
    <g transform="translate(447.739881 232.956563) scale(0.1 -0.1)">
     <use xlink:href="#DejaVuSans-72"/>
     <use xlink:href="#DejaVuSans-3d" transform="translate(41.113281 0)"/>
     <use xlink:href="#DejaVuSans-30" transform="translate(124.902344 0)"/>
     <use xlink:href="#DejaVuSans-2e" transform="translate(188.525391 0)"/>
     <use xlink:href="#DejaVuSans-33" transform="translate(220.3125 0)"/>
     <use xlink:href="#DejaVuSans-35" transform="translate(283.935547 0)"/>
    </g>
    <!-- p=0.152 -->
    <g transform="translate(447.739881 244.154375) scale(0.1 -0.1)">
     <use xlink:href="#DejaVuSans-70"/>
     <use xlink:href="#DejaVuSans-3d" transform="translate(63.476562 0)"/>
     <use xlink:href="#DejaVuSans-30" transform="translate(147.265625 0)"/>
     <use xlink:href="#DejaVuSans-2e" transform="translate(210.888672 0)"/>
     <use xlink:href="#DejaVuSans-31" transform="translate(242.675781 0)"/>
     <use xlink:href="#DejaVuSans-35" transform="translate(306.298828 0)"/>
     <use xlink:href="#DejaVuSans-32" transform="translate(369.921875 0)"/>
    </g>
   </g>
  </g>
 </g>
 <defs>
  <clipPath id="p479452fd15">
   <rect x="67.298281" y="29.518125" width="197.12" height="144"/>
  </clipPath>
  <clipPath id="p17360cc5c6">
   <rect x="313.698281" y="29.518125" width="197.12" height="144"/>
  </clipPath>
  <clipPath id="pf79b4a7aa7">
   <rect x="67.298281" y="213.838125" width="197.12" height="144"/>
  </clipPath>
  <clipPath id="pc26e079665">
   <rect x="313.698281" y="213.838125" width="197.12" height="144"/>
  </clipPath>
 </defs>
</svg>
