<?xml version="1.0" encoding="utf-8" standalone="no"?>
<!DOCTYPE svg PUBLIC "-//W3C//DTD SVG 1.1//EN"
  "http://www.w3.org/Graphics/SVG/1.1/DTD/svg11.dtd">
<svg xmlns:xlink="http://www.w3.org/1999/xlink" width="530.255781pt" height="406.567188pt" viewBox="0 0 530.255781 406.567188" xmlns="http://www.w3.org/2000/svg" version="1.1">
 <metadata>
  <rdf:RDF xmlns:dc="http://purl.org/dc/elements/1.1/" xmlns:cc="http://creativecommons.org/ns#" xmlns:rdf="http://www.w3.org/1999/02/22-rdf-syntax-ns#">
   <cc:Work>
    <dc:type rdf:resource="http://purl.org/dc/dcmitype/StillImage"/>
    <dc:date>2026-01-12T16:05:49.695601</dc:date>
    <dc:format>image/svg+xml</dc:format>
    <dc:creator>
     <cc:Agent>
      <dc:title>Matplotlib v3.10.7, https://matplotlib.org/</dc:title>
     </cc:Agent>
    </dc:creator>
   </cc:Work>
  </rdf:RDF>
 </metadata>
 <defs>
  <style type="text/css">*{stroke-linejoin: round; stroke-linecap: butt}</style>
 </defs>
 <g id="figure_1">
  <g id="patch_1">
   <path d="M 0 406.567188 
L 530.255781 406.567188 
L 530.255781 0 
L 0 0 
z
" style="fill: #ffffff"/>
  </g>
  <g id="axes_1">
   <g id="patch_2">
    <path d="M 67.298281 173.518125 
L 264.418281 173.518125 
L 264.418281 29.518125 
L 67.298281 29.518125 
z
" style="fill: #ffffff"/>
   </g>
   <g id="FillBetweenPolyCollection_1">
    <path d="M 76.258281 113.666709 
L 76.258281 145.930215 
L 78.068382 145.582721 
L 79.878483 145.225977 
L 81.688584 144.87556 
L 83.498685 144.526022 
L 85.308786 144.176107 
L 87.118887 143.826901 
L 88.928988 143.624178 
L 90.739089 143.40862 
L 92.54919 143.142719 
L 94.359291 143.065963 
L 96.169392 142.880332 
L 97.979493 142.694701 
L 99.789594 142.458679 
L 101.599695 142.32344 
L 103.409796 142.242545 
L 105.219897 141.950869 
L 107.029998 141.767842 
L 108.840099 141.619575 
L 110.6502 141.473372 
L 112.460301 141.327305 
L 114.270402 141.221098 
L 116.080503 141.064449 
L 117.890604 140.957497 
L 119.700705 140.96395 
L 121.510807 140.719716 
L 123.320908 140.57246 
L 125.131009 140.412292 
L 126.94111 140.355257 
L 128.751211 140.362732 
L 130.561312 140.274473 
L 132.371413 140.146576 
L 134.181514 140.068494 
L 135.991615 140.013059 
L 137.801716 140.042706 
L 139.611817 140.094685 
L 141.421918 140.052207 
L 143.232019 140.089133 
L 145.04212 140.088694 
L 146.852221 139.920431 
L 148.662322 139.781031 
L 150.472423 139.707537 
L 152.282524 139.820477 
L 154.092625 139.790071 
L 155.902726 139.713036 
L 157.712827 139.766154 
L 159.522928 139.823549 
L 161.333029 139.880943 
L 163.14313 140.030387 
L 164.953231 140.213938 
L 166.763332 140.323398 
L 168.573433 140.420758 
L 170.383534 140.377498 
L 172.193635 140.501273 
L 174.003736 140.766989 
L 175.813837 140.88252 
L 177.623938 140.991597 
L 179.434039 141.100674 
L 181.24414 141.209752 
L 183.054241 141.343869 
L 184.864342 141.434 
L 186.674443 141.544098 
L 188.484544 141.654197 
L 190.294645 141.781072 
L 192.104746 141.886966 
L 193.914847 142.01365 
L 195.724948 142.13428 
L 197.535049 142.204107 
L 199.34515 142.380598 
L 201.155251 142.474291 
L 202.965352 142.567983 
L 204.775453 142.661676 
L 206.585554 142.895542 
L 208.395655 143.028423 
L 210.205756 143.148517 
L 212.015857 143.091563 
L 213.825958 143.339711 
L 215.636059 143.59263 
L 217.44616 143.899854 
L 219.256261 144.181572 
L 221.066362 144.461377 
L 222.876463 144.522253 
L 224.686564 144.556144 
L 226.496665 144.719504 
L 228.306766 144.84059 
L 230.116867 145.113174 
L 231.926968 145.383078 
L 233.737069 145.652983 
L 235.54717 145.845125 
L 237.357271 146.010424 
L 239.167372 146.175723 
L 240.977473 146.341022 
L 242.787574 146.503518 
L 244.597675 146.66506 
L 246.407776 146.826602 
L 248.217877 146.988144 
L 250.027978 147.149686 
L 251.838079 147.311229 
L 253.64818 147.472771 
L 255.458281 147.634313 
L 255.458281 81.685683 
L 255.458281 81.685683 
L 253.64818 82.156761 
L 251.838079 82.627838 
L 250.027978 83.098915 
L 248.217877 83.569992 
L 246.407776 84.041069 
L 244.597675 84.512147 
L 242.787574 84.983224 
L 240.977473 85.454301 
L 239.167372 85.925378 
L 237.357271 86.425746 
L 235.54717 86.946784 
L 233.737069 87.538229 
L 231.926968 88.096423 
L 230.116867 88.548825 
L 228.306766 89.147702 
L 226.496665 89.782562 
L 224.686564 90.417421 
L 222.876463 91.05228 
L 221.066362 91.687139 
L 219.256261 92.302092 
L 217.44616 92.897575 
L 215.636059 93.493057 
L 213.825958 94.08854 
L 212.015857 94.684023 
L 210.205756 95.212955 
L 208.395655 95.676942 
L 206.585554 96.140929 
L 204.775453 96.604915 
L 202.965352 97.03314 
L 201.155251 97.422647 
L 199.34515 97.814065 
L 197.535049 98.26283 
L 195.724948 98.929674 
L 193.914847 99.396191 
L 192.104746 99.862825 
L 190.294645 100.458761 
L 188.484544 100.989842 
L 186.674443 101.448783 
L 184.864342 101.864215 
L 183.054241 102.36818 
L 181.24414 102.825519 
L 179.434039 103.254377 
L 177.623938 103.71375 
L 175.813837 104.202438 
L 174.003736 104.651644 
L 172.193635 105.158996 
L 170.383534 105.731821 
L 168.573433 106.198594 
L 166.763332 106.71554 
L 164.953231 107.234302 
L 163.14313 107.561634 
L 161.333029 108.093298 
L 159.522928 108.373257 
L 157.712827 108.715512 
L 155.902726 109.11418 
L 154.092625 109.517666 
L 152.282524 109.97367 
L 150.472423 110.433109 
L 148.662322 110.697196 
L 146.852221 111.070966 
L 145.04212 111.503303 
L 143.232019 111.780299 
L 141.421918 112.120352 
L 139.611817 112.502685 
L 137.801716 112.66425 
L 135.991615 112.877445 
L 134.181514 113.100908 
L 132.371413 113.228011 
L 130.561312 113.362226 
L 128.751211 113.600326 
L 126.94111 113.688031 
L 125.131009 113.908669 
L 123.320908 114.124267 
L 121.510807 114.260825 
L 119.700705 114.131842 
L 117.890604 114.031823 
L 116.080503 114.129374 
L 114.270402 114.172361 
L 112.460301 114.188177 
L 110.6502 114.256669 
L 108.840099 114.320901 
L 107.029998 114.347688 
L 105.219897 114.439837 
L 103.409796 114.290168 
L 101.599695 114.26914 
L 99.789594 114.112164 
L 97.979493 114.444688 
L 96.169392 114.396148 
L 94.359291 114.137821 
L 92.54919 113.916231 
L 90.739089 113.78488 
L 88.928988 113.573749 
L 87.118887 113.584999 
L 85.308786 113.606932 
L 83.498685 113.625116 
L 81.688584 113.643299 
L 79.878483 113.661483 
L 78.068382 113.679667 
L 76.258281 113.666709 
z
" clip-path="url(#pff81286f12)" style="fill: #ffa500; fill-opacity: 0.15"/>
   </g>
   <g id="PathCollection_1">
    <defs>
     <path id="m77ef0daa23" d="M -2.645751 2.645751 
L 2.645751 2.645751 
L 2.645751 -2.645751 
L -2.645751 -2.645751 
z
" style="stroke: #808080; stroke-opacity: 0.85"/>
    </defs>
    <g clip-path="url(#pff81286f12)">
     <use xlink:href="#m77ef0daa23" x="119.965598" y="131.597497" style="fill: #808080; fill-opacity: 0.85; stroke: #808080; stroke-opacity: 0.85"/>
     <use xlink:href="#m77ef0daa23" x="119.965598" y="149.018901" style="fill: #808080; fill-opacity: 0.85; stroke: #808080; stroke-opacity: 0.85"/>
     <use xlink:href="#m77ef0daa23" x="185.526574" y="126.338258" style="fill: #808080; fill-opacity: 0.85; stroke: #808080; stroke-opacity: 0.85"/>
     <use xlink:href="#m77ef0daa23" x="255.458281" y="111.717581" style="fill: #808080; fill-opacity: 0.85; stroke: #808080; stroke-opacity: 0.85"/>
     <use xlink:href="#m77ef0daa23" x="119.965598" y="139.413373" style="fill: #808080; fill-opacity: 0.85; stroke: #808080; stroke-opacity: 0.85"/>
     <use xlink:href="#m77ef0daa23" x="152.017631" y="118.595145" style="fill: #808080; fill-opacity: 0.85; stroke: #808080; stroke-opacity: 0.85"/>
     <use xlink:href="#m77ef0daa23" x="90.827387" y="126.118764" style="fill: #808080; fill-opacity: 0.85; stroke: #808080; stroke-opacity: 0.85"/>
     <use xlink:href="#m77ef0daa23" x="251.08755" y="140.664082" style="fill: #808080; fill-opacity: 0.85; stroke: #808080; stroke-opacity: 0.85"/>
    </g>
   </g>
   <g id="PathCollection_2">
    <defs>
     <path id="mfe1d2515bb" d="M 0 -2.645751 
L -2.645751 2.645751 
L 2.645751 2.645751 
z
" style="stroke: #808080; stroke-opacity: 0.85"/>
    </defs>
    <g clip-path="url(#pff81286f12)">
     <use xlink:href="#mfe1d2515bb" x="153.765924" y="147.563116" style="fill: #808080; fill-opacity: 0.85; stroke: #808080; stroke-opacity: 0.85"/>
     <use xlink:href="#mfe1d2515bb" x="76.258281" y="149.99222" style="fill: #808080; fill-opacity: 0.85; stroke: #808080; stroke-opacity: 0.85"/>
     <use xlink:href="#mfe1d2515bb" x="229.233891" y="138.625191" style="fill: #808080; fill-opacity: 0.85; stroke: #808080; stroke-opacity: 0.85"/>
     <use xlink:href="#mfe1d2515bb" x="76.258281" y="148.767742" style="fill: #808080; fill-opacity: 0.85; stroke: #808080; stroke-opacity: 0.85"/>
     <use xlink:href="#mfe1d2515bb" x="193.539582" y="166.97267" style="fill: #808080; fill-opacity: 0.85; stroke: #808080; stroke-opacity: 0.85"/>
     <use xlink:href="#mfe1d2515bb" x="124.33633" y="69.394527" style="fill: #808080; fill-opacity: 0.85; stroke: #808080; stroke-opacity: 0.85"/>
     <use xlink:href="#mfe1d2515bb" x="76.258281" y="148.414521" style="fill: #808080; fill-opacity: 0.85; stroke: #808080; stroke-opacity: 0.85"/>
     <use xlink:href="#mfe1d2515bb" x="191.354216" y="36.06358" style="fill: #808080; fill-opacity: 0.85; stroke: #808080; stroke-opacity: 0.85"/>
     <use xlink:href="#mfe1d2515bb" x="76.258281" y="151.016844" style="fill: #808080; fill-opacity: 0.85; stroke: #808080; stroke-opacity: 0.85"/>
     <use xlink:href="#mfe1d2515bb" x="90.827387" y="92.101517" style="fill: #808080; fill-opacity: 0.85; stroke: #808080; stroke-opacity: 0.85"/>
    </g>
   </g>
   <g id="matplotlib.axis_1">
    <g id="xtick_1">
     <g id="line2d_1">
      <defs>
       <path id="m1af7c180ea" d="M 0 0 
L 0 3.5 
" style="stroke: #000000; stroke-width: 0.8"/>
      </defs>
      <g>
       <use xlink:href="#m1af7c180ea" x="76.258281" y="173.518125" style="stroke: #000000; stroke-width: 0.8"/>
      </g>
     </g>
     <g id="text_1">
      <!-- 0 -->
      <g transform="translate(72.758906 188.876406) scale(0.11 -0.11)">
       <defs>
        <path id="DejaVuSans-30" d="M 2034 4250 
Q 1547 4250 1301 3770 
Q 1056 3291 1056 2328 
Q 1056 1369 1301 889 
Q 1547 409 2034 409 
Q 2525 409 2770 889 
Q 3016 1369 3016 2328 
Q 3016 3291 2770 3770 
Q 2525 4250 2034 4250 
z
M 2034 4750 
Q 2819 4750 3233 4129 
Q 3647 3509 3647 2328 
Q 3647 1150 3233 529 
Q 2819 -91 2034 -91 
Q 1250 -91 836 529 
Q 422 1150 422 2328 
Q 422 3509 836 4129 
Q 1250 4750 2034 4750 
z
" transform="scale(0.015625)"/>
       </defs>
       <use xlink:href="#DejaVuSans-30"/>
      </g>
     </g>
    </g>
    <g id="xtick_2">
     <g id="line2d_2">
      <g>
       <use xlink:href="#m1af7c180ea" x="112.098281" y="173.518125" style="stroke: #000000; stroke-width: 0.8"/>
      </g>
     </g>
     <g id="text_2">
      <!-- 246 -->
      <g transform="translate(101.600156 188.876406) scale(0.11 -0.11)">
       <defs>
        <path id="DejaVuSans-32" d="M 1228 531 
L 3431 531 
L 3431 0 
L 469 0 
L 469 531 
Q 828 903 1448 1529 
Q 2069 2156 2228 2338 
Q 2531 2678 2651 2914 
Q 2772 3150 2772 3378 
Q 2772 3750 2511 3984 
Q 2250 4219 1831 4219 
Q 1534 4219 1204 4116 
Q 875 4013 500 3803 
L 500 4441 
Q 881 4594 1212 4672 
Q 1544 4750 1819 4750 
Q 2544 4750 2975 4387 
Q 3406 4025 3406 3419 
Q 3406 3131 3298 2873 
Q 3191 2616 2906 2266 
Q 2828 2175 2409 1742 
Q 1991 1309 1228 531 
z
" transform="scale(0.015625)"/>
        <path id="DejaVuSans-34" d="M 2419 4116 
L 825 1625 
L 2419 1625 
L 2419 4116 
z
M 2253 4666 
L 3047 4666 
L 3047 1625 
L 3713 1625 
L 3713 1100 
L 3047 1100 
L 3047 0 
L 2419 0 
L 2419 1100 
L 313 1100 
L 313 1709 
L 2253 4666 
z
" transform="scale(0.015625)"/>
        <path id="DejaVuSans-36" d="M 2113 2584 
Q 1688 2584 1439 2293 
Q 1191 2003 1191 1497 
Q 1191 994 1439 701 
Q 1688 409 2113 409 
Q 2538 409 2786 701 
Q 3034 994 3034 1497 
Q 3034 2003 2786 2293 
Q 2538 2584 2113 2584 
z
M 3366 4563 
L 3366 3988 
Q 3128 4100 2886 4159 
Q 2644 4219 2406 4219 
Q 1781 4219 1451 3797 
Q 1122 3375 1075 2522 
Q 1259 2794 1537 2939 
Q 1816 3084 2150 3084 
Q 2853 3084 3261 2657 
Q 3669 2231 3669 1497 
Q 3669 778 3244 343 
Q 2819 -91 2113 -91 
Q 1303 -91 875 529 
Q 447 1150 447 2328 
Q 447 3434 972 4092 
Q 1497 4750 2381 4750 
Q 2619 4750 2861 4703 
Q 3103 4656 3366 4563 
z
" transform="scale(0.015625)"/>
       </defs>
       <use xlink:href="#DejaVuSans-32"/>
       <use xlink:href="#DejaVuSans-34" transform="translate(63.623047 0)"/>
       <use xlink:href="#DejaVuSans-36" transform="translate(127.246094 0)"/>
      </g>
     </g>
    </g>
    <g id="xtick_3">
     <g id="line2d_3">
      <g>
       <use xlink:href="#m1af7c180ea" x="147.938281" y="173.518125" style="stroke: #000000; stroke-width: 0.8"/>
      </g>
     </g>
     <g id="text_3">
      <!-- 492 -->
      <g transform="translate(137.440156 188.876406) scale(0.11 -0.11)">
       <defs>
        <path id="DejaVuSans-39" d="M 703 97 
L 703 672 
Q 941 559 1184 500 
Q 1428 441 1663 441 
Q 2288 441 2617 861 
Q 2947 1281 2994 2138 
Q 2813 1869 2534 1725 
Q 2256 1581 1919 1581 
Q 1219 1581 811 2004 
Q 403 2428 403 3163 
Q 403 3881 828 4315 
Q 1253 4750 1959 4750 
Q 2769 4750 3195 4129 
Q 3622 3509 3622 2328 
Q 3622 1225 3098 567 
Q 2575 -91 1691 -91 
Q 1453 -91 1209 -44 
Q 966 3 703 97 
z
M 1959 2075 
Q 2384 2075 2632 2365 
Q 2881 2656 2881 3163 
Q 2881 3666 2632 3958 
Q 2384 4250 1959 4250 
Q 1534 4250 1286 3958 
Q 1038 3666 1038 3163 
Q 1038 2656 1286 2365 
Q 1534 2075 1959 2075 
z
" transform="scale(0.015625)"/>
       </defs>
       <use xlink:href="#DejaVuSans-34"/>
       <use xlink:href="#DejaVuSans-39" transform="translate(63.623047 0)"/>
       <use xlink:href="#DejaVuSans-32" transform="translate(127.246094 0)"/>
      </g>
     </g>
    </g>
    <g id="xtick_4">
     <g id="line2d_4">
      <g>
       <use xlink:href="#m1af7c180ea" x="183.778281" y="173.518125" style="stroke: #000000; stroke-width: 0.8"/>
      </g>
     </g>
     <g id="text_4">
      <!-- 738 -->
      <g transform="translate(173.280156 188.876406) scale(0.11 -0.11)">
       <defs>
        <path id="DejaVuSans-37" d="M 525 4666 
L 3525 4666 
L 3525 4397 
L 1831 0 
L 1172 0 
L 2766 4134 
L 525 4134 
L 525 4666 
z
" transform="scale(0.015625)"/>
        <path id="DejaVuSans-33" d="M 2597 2516 
Q 3050 2419 3304 2112 
Q 3559 1806 3559 1356 
Q 3559 666 3084 287 
Q 2609 -91 1734 -91 
Q 1441 -91 1130 -33 
Q 819 25 488 141 
L 488 750 
Q 750 597 1062 519 
Q 1375 441 1716 441 
Q 2309 441 2620 675 
Q 2931 909 2931 1356 
Q 2931 1769 2642 2001 
Q 2353 2234 1838 2234 
L 1294 2234 
L 1294 2753 
L 1863 2753 
Q 2328 2753 2575 2939 
Q 2822 3125 2822 3475 
Q 2822 3834 2567 4026 
Q 2313 4219 1838 4219 
Q 1578 4219 1281 4162 
Q 984 4106 628 3988 
L 628 4550 
Q 988 4650 1302 4700 
Q 1616 4750 1894 4750 
Q 2613 4750 3031 4423 
Q 3450 4097 3450 3541 
Q 3450 3153 3228 2886 
Q 3006 2619 2597 2516 
z
" transform="scale(0.015625)"/>
        <path id="DejaVuSans-38" d="M 2034 2216 
Q 1584 2216 1326 1975 
Q 1069 1734 1069 1313 
Q 1069 891 1326 650 
Q 1584 409 2034 409 
Q 2484 409 2743 651 
Q 3003 894 3003 1313 
Q 3003 1734 2745 1975 
Q 2488 2216 2034 2216 
z
M 1403 2484 
Q 997 2584 770 2862 
Q 544 3141 544 3541 
Q 544 4100 942 4425 
Q 1341 4750 2034 4750 
Q 2731 4750 3128 4425 
Q 3525 4100 3525 3541 
Q 3525 3141 3298 2862 
Q 3072 2584 2669 2484 
Q 3125 2378 3379 2068 
Q 3634 1759 3634 1313 
Q 3634 634 3220 271 
Q 2806 -91 2034 -91 
Q 1263 -91 848 271 
Q 434 634 434 1313 
Q 434 1759 690 2068 
Q 947 2378 1403 2484 
z
M 1172 3481 
Q 1172 3119 1398 2916 
Q 1625 2713 2034 2713 
Q 2441 2713 2670 2916 
Q 2900 3119 2900 3481 
Q 2900 3844 2670 4047 
Q 2441 4250 2034 4250 
Q 1625 4250 1398 4047 
Q 1172 3844 1172 3481 
z
" transform="scale(0.015625)"/>
       </defs>
       <use xlink:href="#DejaVuSans-37"/>
       <use xlink:href="#DejaVuSans-33" transform="translate(63.623047 0)"/>
       <use xlink:href="#DejaVuSans-38" transform="translate(127.246094 0)"/>
      </g>
     </g>
    </g>
    <g id="xtick_5">
     <g id="line2d_5">
      <g>
       <use xlink:href="#m1af7c180ea" x="219.618281" y="173.518125" style="stroke: #000000; stroke-width: 0.8"/>
      </g>
     </g>
     <g id="text_5">
      <!-- 984 -->
      <g transform="translate(209.120156 188.876406) scale(0.11 -0.11)">
       <use xlink:href="#DejaVuSans-39"/>
       <use xlink:href="#DejaVuSans-38" transform="translate(63.623047 0)"/>
       <use xlink:href="#DejaVuSans-34" transform="translate(127.246094 0)"/>
      </g>
     </g>
    </g>
    <g id="xtick_6">
     <g id="line2d_6">
      <g>
       <use xlink:href="#m1af7c180ea" x="255.458281" y="173.518125" style="stroke: #000000; stroke-width: 0.8"/>
      </g>
     </g>
     <g id="text_6">
      <!-- 1230 -->
      <g transform="translate(241.460781 188.876406) scale(0.11 -0.11)">
       <defs>
        <path id="DejaVuSans-31" d="M 794 531 
L 1825 531 
L 1825 4091 
L 703 3866 
L 703 4441 
L 1819 4666 
L 2450 4666 
L 2450 531 
L 3481 531 
L 3481 0 
L 794 0 
L 794 531 
z
" transform="scale(0.015625)"/>
       </defs>
       <use xlink:href="#DejaVuSans-31"/>
       <use xlink:href="#DejaVuSans-32" transform="translate(63.623047 0)"/>
       <use xlink:href="#DejaVuSans-33" transform="translate(127.246094 0)"/>
       <use xlink:href="#DejaVuSans-30" transform="translate(190.869141 0)"/>
      </g>
     </g>
    </g>
   </g>
   <g id="matplotlib.axis_2">
    <g id="ytick_1">
     <g id="line2d_7">
      <defs>
       <path id="m6d3d5ced65" d="M 0 0 
L -3.5 0 
" style="stroke: #000000; stroke-width: 0.8"/>
      </defs>
      <g>
       <use xlink:href="#m6d3d5ced65" x="67.298281" y="155.735953" style="stroke: #000000; stroke-width: 0.8"/>
      </g>
     </g>
     <g id="text_7">
      <!-- 0 -->
      <g transform="translate(53.299531 159.915094) scale(0.11 -0.11)">
       <use xlink:href="#DejaVuSans-30"/>
      </g>
     </g>
    </g>
    <g id="ytick_2">
     <g id="line2d_8">
      <g>
       <use xlink:href="#m6d3d5ced65" x="67.298281" y="126.516826" style="stroke: #000000; stroke-width: 0.8"/>
      </g>
     </g>
     <g id="text_8">
      <!-- 20 -->
      <g transform="translate(46.300781 130.695967) scale(0.11 -0.11)">
       <use xlink:href="#DejaVuSans-32"/>
       <use xlink:href="#DejaVuSans-30" transform="translate(63.623047 0)"/>
      </g>
     </g>
    </g>
    <g id="ytick_3">
     <g id="line2d_9">
      <g>
       <use xlink:href="#m6d3d5ced65" x="67.298281" y="97.297699" style="stroke: #000000; stroke-width: 0.8"/>
      </g>
     </g>
     <g id="text_9">
      <!-- 40 -->
      <g transform="translate(46.300781 101.47684) scale(0.11 -0.11)">
       <use xlink:href="#DejaVuSans-34"/>
       <use xlink:href="#DejaVuSans-30" transform="translate(63.623047 0)"/>
      </g>
     </g>
    </g>
    <g id="ytick_4">
     <g id="line2d_10">
      <g>
       <use xlink:href="#m6d3d5ced65" x="67.298281" y="68.078572" style="stroke: #000000; stroke-width: 0.8"/>
      </g>
     </g>
     <g id="text_10">
      <!-- 60 -->
      <g transform="translate(46.300781 72.257713) scale(0.11 -0.11)">
       <use xlink:href="#DejaVuSans-36"/>
       <use xlink:href="#DejaVuSans-30" transform="translate(63.623047 0)"/>
      </g>
     </g>
    </g>
    <g id="ytick_5">
     <g id="line2d_11">
      <g>
       <use xlink:href="#m6d3d5ced65" x="67.298281" y="38.859445" style="stroke: #000000; stroke-width: 0.8"/>
      </g>
     </g>
     <g id="text_11">
      <!-- 80 -->
      <g transform="translate(46.300781 43.038586) scale(0.11 -0.11)">
       <use xlink:href="#DejaVuSans-38"/>
       <use xlink:href="#DejaVuSans-30" transform="translate(63.623047 0)"/>
      </g>
     </g>
    </g>
    <g id="text_12">
     <!-- % change of Speed -->
     <g transform="translate(33.495625 171.472344) rotate(-90) scale(0.13 -0.13)">
      <defs>
       <path id="DejaVuSans-Bold-25" d="M 4959 1925 
Q 4738 1925 4616 1733 
Q 4494 1541 4494 1184 
Q 4494 825 4614 633 
Q 4734 441 4959 441 
Q 5184 441 5303 633 
Q 5422 825 5422 1184 
Q 5422 1541 5301 1733 
Q 5181 1925 4959 1925 
z
M 4959 2450 
Q 5541 2450 5875 2112 
Q 6209 1775 6209 1184 
Q 6209 594 5875 251 
Q 5541 -91 4959 -91 
Q 4378 -91 4042 251 
Q 3706 594 3706 1184 
Q 3706 1772 4042 2111 
Q 4378 2450 4959 2450 
z
M 2094 -91 
L 1403 -91 
L 4319 4750 
L 5013 4750 
L 2094 -91 
z
M 1453 4750 
Q 2034 4750 2367 4411 
Q 2700 4072 2700 3481 
Q 2700 2891 2367 2550 
Q 2034 2209 1453 2209 
Q 872 2209 539 2550 
Q 206 2891 206 3481 
Q 206 4072 539 4411 
Q 872 4750 1453 4750 
z
M 1453 4225 
Q 1228 4225 1106 4031 
Q 984 3838 984 3481 
Q 984 3122 1106 2926 
Q 1228 2731 1453 2731 
Q 1678 2731 1798 2926 
Q 1919 3122 1919 3481 
Q 1919 3838 1797 4031 
Q 1675 4225 1453 4225 
z
" transform="scale(0.015625)"/>
       <path id="DejaVuSans-Bold-20" transform="scale(0.015625)"/>
       <path id="DejaVuSans-Bold-63" d="M 3366 3391 
L 3366 2478 
Q 3138 2634 2908 2709 
Q 2678 2784 2431 2784 
Q 1963 2784 1702 2511 
Q 1441 2238 1441 1747 
Q 1441 1256 1702 982 
Q 1963 709 2431 709 
Q 2694 709 2930 787 
Q 3166 866 3366 1019 
L 3366 103 
Q 3103 6 2833 -42 
Q 2563 -91 2291 -91 
Q 1344 -91 809 395 
Q 275 881 275 1747 
Q 275 2613 809 3098 
Q 1344 3584 2291 3584 
Q 2566 3584 2833 3536 
Q 3100 3488 3366 3391 
z
" transform="scale(0.015625)"/>
       <path id="DejaVuSans-Bold-68" d="M 4056 2131 
L 4056 0 
L 2931 0 
L 2931 347 
L 2931 1625 
Q 2931 2084 2911 2256 
Q 2891 2428 2841 2509 
Q 2775 2619 2662 2680 
Q 2550 2741 2406 2741 
Q 2056 2741 1856 2470 
Q 1656 2200 1656 1722 
L 1656 0 
L 538 0 
L 538 4863 
L 1656 4863 
L 1656 2988 
Q 1909 3294 2193 3439 
Q 2478 3584 2822 3584 
Q 3428 3584 3742 3212 
Q 4056 2841 4056 2131 
z
" transform="scale(0.015625)"/>
       <path id="DejaVuSans-Bold-61" d="M 2106 1575 
Q 1756 1575 1579 1456 
Q 1403 1338 1403 1106 
Q 1403 894 1545 773 
Q 1688 653 1941 653 
Q 2256 653 2472 879 
Q 2688 1106 2688 1447 
L 2688 1575 
L 2106 1575 
z
M 3816 1997 
L 3816 0 
L 2688 0 
L 2688 519 
Q 2463 200 2181 54 
Q 1900 -91 1497 -91 
Q 953 -91 614 226 
Q 275 544 275 1050 
Q 275 1666 698 1953 
Q 1122 2241 2028 2241 
L 2688 2241 
L 2688 2328 
Q 2688 2594 2478 2717 
Q 2269 2841 1825 2841 
Q 1466 2841 1156 2769 
Q 847 2697 581 2553 
L 581 3406 
Q 941 3494 1303 3539 
Q 1666 3584 2028 3584 
Q 2975 3584 3395 3211 
Q 3816 2838 3816 1997 
z
" transform="scale(0.015625)"/>
       <path id="DejaVuSans-Bold-6e" d="M 4056 2131 
L 4056 0 
L 2931 0 
L 2931 347 
L 2931 1631 
Q 2931 2084 2911 2256 
Q 2891 2428 2841 2509 
Q 2775 2619 2662 2680 
Q 2550 2741 2406 2741 
Q 2056 2741 1856 2470 
Q 1656 2200 1656 1722 
L 1656 0 
L 538 0 
L 538 3500 
L 1656 3500 
L 1656 2988 
Q 1909 3294 2193 3439 
Q 2478 3584 2822 3584 
Q 3428 3584 3742 3212 
Q 4056 2841 4056 2131 
z
" transform="scale(0.015625)"/>
       <path id="DejaVuSans-Bold-67" d="M 2919 594 
Q 2688 288 2409 144 
Q 2131 0 1766 0 
Q 1125 0 706 504 
Q 288 1009 288 1791 
Q 288 2575 706 3076 
Q 1125 3578 1766 3578 
Q 2131 3578 2409 3434 
Q 2688 3291 2919 2981 
L 2919 3500 
L 4044 3500 
L 4044 353 
Q 4044 -491 3511 -936 
Q 2978 -1381 1966 -1381 
Q 1638 -1381 1331 -1331 
Q 1025 -1281 716 -1178 
L 716 -306 
Q 1009 -475 1290 -558 
Q 1572 -641 1856 -641 
Q 2406 -641 2662 -400 
Q 2919 -159 2919 353 
L 2919 594 
z
M 2181 2772 
Q 1834 2772 1640 2515 
Q 1447 2259 1447 1791 
Q 1447 1309 1634 1061 
Q 1822 813 2181 813 
Q 2531 813 2725 1069 
Q 2919 1325 2919 1791 
Q 2919 2259 2725 2515 
Q 2531 2772 2181 2772 
z
" transform="scale(0.015625)"/>
       <path id="DejaVuSans-Bold-65" d="M 4031 1759 
L 4031 1441 
L 1416 1441 
Q 1456 1047 1700 850 
Q 1944 653 2381 653 
Q 2734 653 3104 758 
Q 3475 863 3866 1075 
L 3866 213 
Q 3469 63 3072 -14 
Q 2675 -91 2278 -91 
Q 1328 -91 801 392 
Q 275 875 275 1747 
Q 275 2603 792 3093 
Q 1309 3584 2216 3584 
Q 3041 3584 3536 3087 
Q 4031 2591 4031 1759 
z
M 2881 2131 
Q 2881 2450 2695 2645 
Q 2509 2841 2209 2841 
Q 1884 2841 1681 2658 
Q 1478 2475 1428 2131 
L 2881 2131 
z
" transform="scale(0.015625)"/>
       <path id="DejaVuSans-Bold-6f" d="M 2203 2784 
Q 1831 2784 1636 2517 
Q 1441 2250 1441 1747 
Q 1441 1244 1636 976 
Q 1831 709 2203 709 
Q 2569 709 2762 976 
Q 2956 1244 2956 1747 
Q 2956 2250 2762 2517 
Q 2569 2784 2203 2784 
z
M 2203 3584 
Q 3106 3584 3614 3096 
Q 4122 2609 4122 1747 
Q 4122 884 3614 396 
Q 3106 -91 2203 -91 
Q 1297 -91 786 396 
Q 275 884 275 1747 
Q 275 2609 786 3096 
Q 1297 3584 2203 3584 
z
" transform="scale(0.015625)"/>
       <path id="DejaVuSans-Bold-66" d="M 2841 4863 
L 2841 4128 
L 2222 4128 
Q 1984 4128 1890 4042 
Q 1797 3956 1797 3744 
L 1797 3500 
L 2753 3500 
L 2753 2700 
L 1797 2700 
L 1797 0 
L 678 0 
L 678 2700 
L 122 2700 
L 122 3500 
L 678 3500 
L 678 3744 
Q 678 4316 997 4589 
Q 1316 4863 1984 4863 
L 2841 4863 
z
" transform="scale(0.015625)"/>
       <path id="DejaVuSans-Bold-53" d="M 3834 4519 
L 3834 3531 
Q 3450 3703 3084 3790 
Q 2719 3878 2394 3878 
Q 1963 3878 1756 3759 
Q 1550 3641 1550 3391 
Q 1550 3203 1689 3098 
Q 1828 2994 2194 2919 
L 2706 2816 
Q 3484 2659 3812 2340 
Q 4141 2022 4141 1434 
Q 4141 663 3683 286 
Q 3225 -91 2284 -91 
Q 1841 -91 1394 -6 
Q 947 78 500 244 
L 500 1259 
Q 947 1022 1364 901 
Q 1781 781 2169 781 
Q 2563 781 2772 912 
Q 2981 1044 2981 1288 
Q 2981 1506 2839 1625 
Q 2697 1744 2272 1838 
L 1806 1941 
Q 1106 2091 782 2419 
Q 459 2747 459 3303 
Q 459 4000 909 4375 
Q 1359 4750 2203 4750 
Q 2588 4750 2994 4692 
Q 3400 4634 3834 4519 
z
" transform="scale(0.015625)"/>
       <path id="DejaVuSans-Bold-70" d="M 1656 506 
L 1656 -1331 
L 538 -1331 
L 538 3500 
L 1656 3500 
L 1656 2988 
Q 1888 3294 2169 3439 
Q 2450 3584 2816 3584 
Q 3463 3584 3878 3070 
Q 4294 2556 4294 1747 
Q 4294 938 3878 423 
Q 3463 -91 2816 -91 
Q 2450 -91 2169 54 
Q 1888 200 1656 506 
z
M 2400 2772 
Q 2041 2772 1848 2508 
Q 1656 2244 1656 1747 
Q 1656 1250 1848 986 
Q 2041 722 2400 722 
Q 2759 722 2948 984 
Q 3138 1247 3138 1747 
Q 3138 2247 2948 2509 
Q 2759 2772 2400 2772 
z
" transform="scale(0.015625)"/>
       <path id="DejaVuSans-Bold-64" d="M 2919 2988 
L 2919 4863 
L 4044 4863 
L 4044 0 
L 2919 0 
L 2919 506 
Q 2688 197 2409 53 
Q 2131 -91 1766 -91 
Q 1119 -91 703 423 
Q 288 938 288 1747 
Q 288 2556 703 3070 
Q 1119 3584 1766 3584 
Q 2128 3584 2408 3439 
Q 2688 3294 2919 2988 
z
M 2181 722 
Q 2541 722 2730 984 
Q 2919 1247 2919 1747 
Q 2919 2247 2730 2509 
Q 2541 2772 2181 2772 
Q 1825 2772 1636 2509 
Q 1447 2247 1447 1747 
Q 1447 1247 1636 984 
Q 1825 722 2181 722 
z
" transform="scale(0.015625)"/>
      </defs>
      <use xlink:href="#DejaVuSans-Bold-25"/>
      <use xlink:href="#DejaVuSans-Bold-20" transform="translate(100.195312 0)"/>
      <use xlink:href="#DejaVuSans-Bold-63" transform="translate(135.009766 0)"/>
      <use xlink:href="#DejaVuSans-Bold-68" transform="translate(194.287109 0)"/>
      <use xlink:href="#DejaVuSans-Bold-61" transform="translate(265.478516 0)"/>
      <use xlink:href="#DejaVuSans-Bold-6e" transform="translate(332.958984 0)"/>
      <use xlink:href="#DejaVuSans-Bold-67" transform="translate(404.150391 0)"/>
      <use xlink:href="#DejaVuSans-Bold-65" transform="translate(475.732422 0)"/>
      <use xlink:href="#DejaVuSans-Bold-20" transform="translate(543.554688 0)"/>
      <use xlink:href="#DejaVuSans-Bold-6f" transform="translate(578.369141 0)"/>
      <use xlink:href="#DejaVuSans-Bold-66" transform="translate(647.070312 0)"/>
      <use xlink:href="#DejaVuSans-Bold-20" transform="translate(690.576172 0)"/>
      <use xlink:href="#DejaVuSans-Bold-53" transform="translate(725.390625 0)"/>
      <use xlink:href="#DejaVuSans-Bold-70" transform="translate(797.412109 0)"/>
      <use xlink:href="#DejaVuSans-Bold-65" transform="translate(868.994141 0)"/>
      <use xlink:href="#DejaVuSans-Bold-65" transform="translate(936.816406 0)"/>
      <use xlink:href="#DejaVuSans-Bold-64" transform="translate(1004.638672 0)"/>
     </g>
    </g>
   </g>
   <g id="line2d_12">
    <path d="M 76.258281 133.122309 
L 78.068382 132.967023 
L 79.878483 132.811737 
L 81.688584 132.656452 
L 83.498685 132.501166 
L 85.308786 132.34588 
L 87.118887 132.190594 
L 88.928988 132.035308 
L 90.739089 131.880022 
L 92.54919 131.724736 
L 94.359291 131.56945 
L 96.169392 131.414164 
L 97.979493 131.258879 
L 99.789594 131.103593 
L 101.599695 130.948307 
L 103.409796 130.793021 
L 105.219897 130.637735 
L 107.029998 130.482449 
L 108.840099 130.327163 
L 110.6502 130.171877 
L 112.460301 130.016591 
L 114.270402 129.861306 
L 116.080503 129.70602 
L 117.890604 129.550734 
L 119.700705 129.395448 
L 121.510807 129.240162 
L 123.320908 129.084876 
L 125.131009 128.92959 
L 126.94111 128.774304 
L 128.751211 128.619018 
L 130.561312 128.463733 
L 132.371413 128.308447 
L 134.181514 128.153161 
L 135.991615 127.997875 
L 137.801716 127.842589 
L 139.611817 127.687303 
L 141.421918 127.532017 
L 143.232019 127.376731 
L 145.04212 127.221445 
L 146.852221 127.06616 
L 148.662322 126.910874 
L 150.472423 126.755588 
L 152.282524 126.600302 
L 154.092625 126.445016 
L 155.902726 126.28973 
L 157.712827 126.134444 
L 159.522928 125.979158 
L 161.333029 125.823872 
L 163.14313 125.668587 
L 164.953231 125.513301 
L 166.763332 125.358015 
L 168.573433 125.202729 
L 170.383534 125.047443 
L 172.193635 124.892157 
L 174.003736 124.736871 
L 175.813837 124.581585 
L 177.623938 124.426299 
L 179.434039 124.271014 
L 181.24414 124.115728 
L 183.054241 123.960442 
L 184.864342 123.805156 
L 186.674443 123.64987 
L 188.484544 123.494584 
L 190.294645 123.339298 
L 192.104746 123.184012 
L 193.914847 123.028726 
L 195.724948 122.873441 
L 197.535049 122.718155 
L 199.34515 122.562869 
L 201.155251 122.407583 
L 202.965352 122.252297 
L 204.775453 122.097011 
L 206.585554 121.941725 
L 208.395655 121.786439 
L 210.205756 121.631153 
L 212.015857 121.475867 
L 213.825958 121.320582 
L 215.636059 121.165296 
L 217.44616 121.01001 
L 219.256261 120.854724 
L 221.066362 120.699438 
L 222.876463 120.544152 
L 224.686564 120.388866 
L 226.496665 120.23358 
L 228.306766 120.078294 
L 230.116867 119.923009 
L 231.926968 119.767723 
L 233.737069 119.612437 
L 235.54717 119.457151 
L 237.357271 119.301865 
L 239.167372 119.146579 
L 240.977473 118.991293 
L 242.787574 118.836007 
L 244.597675 118.680721 
L 246.407776 118.525436 
L 248.217877 118.37015 
L 250.027978 118.214864 
L 251.838079 118.059578 
L 253.64818 117.904292 
L 255.458281 117.749006 
" clip-path="url(#pff81286f12)" style="fill: none; stroke: #ffa500; stroke-width: 2.25; stroke-linecap: square"/>
   </g>
   <g id="patch_3">
    <path d="M 67.298281 173.518125 
L 67.298281 29.518125 
" style="fill: none; stroke: #000000; stroke-width: 0.8; stroke-linejoin: miter; stroke-linecap: square"/>
   </g>
   <g id="patch_4">
    <path d="M 67.298281 173.518125 
L 264.418281 173.518125 
" style="fill: none; stroke: #000000; stroke-width: 0.8; stroke-linejoin: miter; stroke-linecap: square"/>
   </g>
   <g id="text_13">
    <!-- r=0.16 -->
    <g transform="translate(201.339881 48.636563) scale(0.1 -0.1)">
     <defs>
      <path id="DejaVuSans-72" d="M 2631 2963 
Q 2534 3019 2420 3045 
Q 2306 3072 2169 3072 
Q 1681 3072 1420 2755 
Q 1159 2438 1159 1844 
L 1159 0 
L 581 0 
L 581 3500 
L 1159 3500 
L 1159 2956 
Q 1341 3275 1631 3429 
Q 1922 3584 2338 3584 
Q 2397 3584 2469 3576 
Q 2541 3569 2628 3553 
L 2631 2963 
z
" transform="scale(0.015625)"/>
      <path id="DejaVuSans-3d" d="M 678 2906 
L 4684 2906 
L 4684 2381 
L 678 2381 
L 678 2906 
z
M 678 1631 
L 4684 1631 
L 4684 1100 
L 678 1100 
L 678 1631 
z
" transform="scale(0.015625)"/>
      <path id="DejaVuSans-2e" d="M 684 794 
L 1344 794 
L 1344 0 
L 684 0 
L 684 794 
z
" transform="scale(0.015625)"/>
     </defs>
     <use xlink:href="#DejaVuSans-72"/>
     <use xlink:href="#DejaVuSans-3d" transform="translate(41.113281 0)"/>
     <use xlink:href="#DejaVuSans-30" transform="translate(124.902344 0)"/>
     <use xlink:href="#DejaVuSans-2e" transform="translate(188.525391 0)"/>
     <use xlink:href="#DejaVuSans-31" transform="translate(220.3125 0)"/>
     <use xlink:href="#DejaVuSans-36" transform="translate(283.935547 0)"/>
    </g>
    <!-- p=0.524 -->
    <g transform="translate(201.339881 59.834375) scale(0.1 -0.1)">
     <defs>
      <path id="DejaVuSans-70" d="M 1159 525 
L 1159 -1331 
L 581 -1331 
L 581 3500 
L 1159 3500 
L 1159 2969 
Q 1341 3281 1617 3432 
Q 1894 3584 2278 3584 
Q 2916 3584 3314 3078 
Q 3713 2572 3713 1747 
Q 3713 922 3314 415 
Q 2916 -91 2278 -91 
Q 1894 -91 1617 61 
Q 1341 213 1159 525 
z
M 3116 1747 
Q 3116 2381 2855 2742 
Q 2594 3103 2138 3103 
Q 1681 3103 1420 2742 
Q 1159 2381 1159 1747 
Q 1159 1113 1420 752 
Q 1681 391 2138 391 
Q 2594 391 2855 752 
Q 3116 1113 3116 1747 
z
" transform="scale(0.015625)"/>
      <path id="DejaVuSans-35" d="M 691 4666 
L 3169 4666 
L 3169 4134 
L 1269 4134 
L 1269 2991 
Q 1406 3038 1543 3061 
Q 1681 3084 1819 3084 
Q 2600 3084 3056 2656 
Q 3513 2228 3513 1497 
Q 3513 744 3044 326 
Q 2575 -91 1722 -91 
Q 1428 -91 1123 -41 
Q 819 9 494 109 
L 494 744 
Q 775 591 1075 516 
Q 1375 441 1709 441 
Q 2250 441 2565 725 
Q 2881 1009 2881 1497 
Q 2881 1984 2565 2268 
Q 2250 2553 1709 2553 
Q 1456 2553 1204 2497 
Q 953 2441 691 2322 
L 691 4666 
z
" transform="scale(0.015625)"/>
     </defs>
     <use xlink:href="#DejaVuSans-70"/>
     <use xlink:href="#DejaVuSans-3d" transform="translate(63.476562 0)"/>
     <use xlink:href="#DejaVuSans-30" transform="translate(147.265625 0)"/>
     <use xlink:href="#DejaVuSans-2e" transform="translate(210.888672 0)"/>
     <use xlink:href="#DejaVuSans-35" transform="translate(242.675781 0)"/>
     <use xlink:href="#DejaVuSans-32" transform="translate(306.298828 0)"/>
     <use xlink:href="#DejaVuSans-34" transform="translate(369.921875 0)"/>
    </g>
   </g>
   <g id="text_14">
    <!-- More affected hand -->
    <g transform="translate(99.545156 23.518125) scale(0.12 -0.12)">
     <defs>
      <path id="DejaVuSans-Bold-4d" d="M 588 4666 
L 2119 4666 
L 3181 2169 
L 4250 4666 
L 5778 4666 
L 5778 0 
L 4641 0 
L 4641 3413 
L 3566 897 
L 2803 897 
L 1728 3413 
L 1728 0 
L 588 0 
L 588 4666 
z
" transform="scale(0.015625)"/>
      <path id="DejaVuSans-Bold-72" d="M 3138 2547 
Q 2991 2616 2845 2648 
Q 2700 2681 2553 2681 
Q 2122 2681 1889 2404 
Q 1656 2128 1656 1613 
L 1656 0 
L 538 0 
L 538 3500 
L 1656 3500 
L 1656 2925 
Q 1872 3269 2151 3426 
Q 2431 3584 2822 3584 
Q 2878 3584 2943 3579 
Q 3009 3575 3134 3559 
L 3138 2547 
z
" transform="scale(0.015625)"/>
      <path id="DejaVuSans-Bold-74" d="M 1759 4494 
L 1759 3500 
L 2913 3500 
L 2913 2700 
L 1759 2700 
L 1759 1216 
Q 1759 972 1856 886 
Q 1953 800 2241 800 
L 2816 800 
L 2816 0 
L 1856 0 
Q 1194 0 917 276 
Q 641 553 641 1216 
L 641 2700 
L 84 2700 
L 84 3500 
L 641 3500 
L 641 4494 
L 1759 4494 
z
" transform="scale(0.015625)"/>
     </defs>
     <use xlink:href="#DejaVuSans-Bold-4d"/>
     <use xlink:href="#DejaVuSans-Bold-6f" transform="translate(99.511719 0)"/>
     <use xlink:href="#DejaVuSans-Bold-72" transform="translate(168.212891 0)"/>
     <use xlink:href="#DejaVuSans-Bold-65" transform="translate(217.529297 0)"/>
     <use xlink:href="#DejaVuSans-Bold-20" transform="translate(285.351562 0)"/>
     <use xlink:href="#DejaVuSans-Bold-61" transform="translate(320.166016 0)"/>
     <use xlink:href="#DejaVuSans-Bold-66" transform="translate(387.646484 0)"/>
     <use xlink:href="#DejaVuSans-Bold-66" transform="translate(431.152344 0)"/>
     <use xlink:href="#DejaVuSans-Bold-65" transform="translate(474.658203 0)"/>
     <use xlink:href="#DejaVuSans-Bold-63" transform="translate(542.480469 0)"/>
     <use xlink:href="#DejaVuSans-Bold-74" transform="translate(601.757812 0)"/>
     <use xlink:href="#DejaVuSans-Bold-65" transform="translate(649.560547 0)"/>
     <use xlink:href="#DejaVuSans-Bold-64" transform="translate(717.382812 0)"/>
     <use xlink:href="#DejaVuSans-Bold-20" transform="translate(788.964844 0)"/>
     <use xlink:href="#DejaVuSans-Bold-68" transform="translate(823.779297 0)"/>
     <use xlink:href="#DejaVuSans-Bold-61" transform="translate(894.970703 0)"/>
     <use xlink:href="#DejaVuSans-Bold-6e" transform="translate(962.451172 0)"/>
     <use xlink:href="#DejaVuSans-Bold-64" transform="translate(1033.642578 0)"/>
    </g>
   </g>
  </g>
  <g id="axes_2">
   <g id="patch_5">
    <path d="M 313.698281 173.518125 
L 510.818281 173.518125 
L 510.818281 29.518125 
L 313.698281 29.518125 
z
" style="fill: #ffffff"/>
   </g>
   <g id="FillBetweenPolyCollection_2">
    <path d="M 322.658281 123.620688 
L 322.658281 153.015513 
L 324.468382 152.606769 
L 326.278483 152.330092 
L 328.088584 151.973165 
L 329.898685 151.775084 
L 331.708786 151.415906 
L 333.518887 151.054793 
L 335.328988 150.654888 
L 337.139089 150.326134 
L 338.94919 149.963383 
L 340.759291 149.619794 
L 342.569392 149.262704 
L 344.379493 148.927978 
L 346.189594 148.648661 
L 347.999695 148.367153 
L 349.809796 147.9484 
L 351.619897 147.601465 
L 353.429998 147.347002 
L 355.240099 147.083456 
L 357.0502 146.801545 
L 358.860301 146.587484 
L 360.670402 146.335132 
L 362.480503 146.082251 
L 364.290604 145.864579 
L 366.100705 145.582371 
L 367.910807 145.304083 
L 369.720908 145.07314 
L 371.531009 144.841292 
L 373.34111 144.78902 
L 375.151211 144.695611 
L 376.961312 144.674026 
L 378.771413 144.69742 
L 380.581514 144.500497 
L 382.391615 144.399625 
L 384.201716 144.17573 
L 386.011817 144.0364 
L 387.821918 143.906221 
L 389.632019 143.855379 
L 391.44212 143.855851 
L 393.252221 143.879006 
L 395.062322 143.843535 
L 396.872423 143.725557 
L 398.682524 143.656796 
L 400.492625 143.720144 
L 402.302726 143.768009 
L 404.112827 143.815731 
L 405.922928 143.863737 
L 407.733029 143.910973 
L 409.54313 144.002012 
L 411.353231 144.144493 
L 413.163332 144.27953 
L 414.973433 144.307025 
L 416.783534 144.354863 
L 418.593635 144.374187 
L 420.403736 144.494748 
L 422.213837 144.621919 
L 424.023938 144.67342 
L 425.834039 144.74937 
L 427.64414 144.845064 
L 429.454241 144.98169 
L 431.264342 145.307656 
L 433.074443 145.537405 
L 434.884544 145.768177 
L 436.694645 146.000812 
L 438.504746 146.231985 
L 440.314847 146.46011 
L 442.124948 146.513612 
L 443.935049 146.466227 
L 445.74515 146.759561 
L 447.555251 146.824621 
L 449.365352 147.021941 
L 451.175453 147.135838 
L 452.985554 147.240654 
L 454.795655 147.345469 
L 456.605756 147.443723 
L 458.415857 147.537282 
L 460.225958 147.642404 
L 462.036059 147.843234 
L 463.84616 148.02077 
L 465.656261 148.192102 
L 467.466362 148.363998 
L 469.276463 148.511838 
L 471.086564 148.692653 
L 472.896665 148.892603 
L 474.706766 149.125949 
L 476.516867 149.328433 
L 478.326968 149.5126 
L 480.137069 149.774121 
L 481.94717 150.002429 
L 483.757271 150.21364 
L 485.567372 150.347214 
L 487.377473 150.479589 
L 489.187574 150.637601 
L 490.997675 150.822847 
L 492.807776 150.940794 
L 494.617877 151.05874 
L 496.427978 151.176687 
L 498.238079 151.351623 
L 500.04818 151.615109 
L 501.858281 151.820591 
L 501.858281 101.427443 
L 501.858281 101.427443 
L 500.04818 101.811518 
L 498.238079 102.194802 
L 496.427978 102.579891 
L 494.617877 102.964981 
L 492.807776 103.422719 
L 490.997675 103.761046 
L 489.187574 104.174731 
L 487.377473 104.625015 
L 485.567372 105.075299 
L 483.757271 105.375895 
L 481.94717 105.663566 
L 480.137069 106.032644 
L 478.326968 106.518666 
L 476.516867 107.079332 
L 474.706766 107.640551 
L 472.896665 108.204158 
L 471.086564 108.684003 
L 469.276463 109.117649 
L 467.466362 109.547086 
L 465.656261 109.976524 
L 463.84616 110.275404 
L 462.036059 110.696262 
L 460.225958 111.191097 
L 458.415857 111.679669 
L 456.605756 112.061657 
L 454.795655 112.297286 
L 452.985554 112.532915 
L 451.175453 112.768544 
L 449.365352 113.004645 
L 447.555251 113.242851 
L 445.74515 113.483931 
L 443.935049 113.957425 
L 442.124948 114.260479 
L 440.314847 114.519208 
L 438.504746 114.828217 
L 436.694645 115.205336 
L 434.884544 115.434692 
L 433.074443 115.635367 
L 431.264342 115.836043 
L 429.454241 116.036718 
L 427.64414 116.311862 
L 425.834039 116.822537 
L 424.023938 117.102903 
L 422.213837 117.62859 
L 420.403736 118.122445 
L 418.593635 118.669796 
L 416.783534 118.910111 
L 414.973433 119.196034 
L 413.163332 119.775112 
L 411.353231 120.219808 
L 409.54313 120.358449 
L 407.733029 120.483144 
L 405.922928 120.896178 
L 404.112827 121.027047 
L 402.302726 121.453354 
L 400.492625 121.843126 
L 398.682524 122.079256 
L 396.872423 122.390362 
L 395.062322 122.881404 
L 393.252221 123.050104 
L 391.44212 123.196865 
L 389.632019 123.387194 
L 387.821918 123.669067 
L 386.011817 123.83089 
L 384.201716 124.044921 
L 382.391615 124.154535 
L 380.581514 124.330016 
L 378.771413 124.478762 
L 376.961312 124.640003 
L 375.151211 124.713463 
L 373.34111 124.87898 
L 371.531009 124.919816 
L 369.720908 125.080551 
L 367.910807 125.155726 
L 366.100705 125.228304 
L 364.290604 125.35861 
L 362.480503 125.434201 
L 360.670402 125.677266 
L 358.860301 125.601852 
L 357.0502 125.631199 
L 355.240099 125.629285 
L 353.429998 125.535884 
L 351.619897 125.485852 
L 349.809796 125.252665 
L 347.999695 125.05053 
L 346.189594 125.11658 
L 344.379493 125.141483 
L 342.569392 125.164821 
L 340.759291 125.187646 
L 338.94919 125.071266 
L 337.139089 124.965625 
L 335.328988 124.982777 
L 333.518887 124.811737 
L 331.708786 124.623222 
L 329.898685 124.359682 
L 328.088584 124.161527 
L 326.278483 124.040812 
L 324.468382 123.754428 
L 322.658281 123.620688 
z
" clip-path="url(#pe9311625a1)" style="fill: #ffa500; fill-opacity: 0.15"/>
   </g>
   <g id="PathCollection_3">
    <g clip-path="url(#pe9311625a1)">
     <use xlink:href="#m77ef0daa23" x="366.365598" y="121.4056" style="fill: #808080; fill-opacity: 0.85; stroke: #808080; stroke-opacity: 0.85"/>
     <use xlink:href="#m77ef0daa23" x="366.365598" y="137.621123" style="fill: #808080; fill-opacity: 0.85; stroke: #808080; stroke-opacity: 0.85"/>
     <use xlink:href="#m77ef0daa23" x="431.926574" y="146.732023" style="fill: #808080; fill-opacity: 0.85; stroke: #808080; stroke-opacity: 0.85"/>
     <use xlink:href="#m77ef0daa23" x="501.858281" y="90.197862" style="fill: #808080; fill-opacity: 0.85; stroke: #808080; stroke-opacity: 0.85"/>
     <use xlink:href="#m77ef0daa23" x="366.365598" y="163.224547" style="fill: #808080; fill-opacity: 0.85; stroke: #808080; stroke-opacity: 0.85"/>
     <use xlink:href="#m77ef0daa23" x="398.417631" y="139.512364" style="fill: #808080; fill-opacity: 0.85; stroke: #808080; stroke-opacity: 0.85"/>
     <use xlink:href="#m77ef0daa23" x="337.227387" y="126.583395" style="fill: #808080; fill-opacity: 0.85; stroke: #808080; stroke-opacity: 0.85"/>
     <use xlink:href="#m77ef0daa23" x="497.48755" y="142.820981" style="fill: #808080; fill-opacity: 0.85; stroke: #808080; stroke-opacity: 0.85"/>
    </g>
   </g>
   <g id="PathCollection_4">
    <g clip-path="url(#pe9311625a1)">
     <use xlink:href="#mfe1d2515bb" x="400.165924" y="144.786913" style="fill: #808080; fill-opacity: 0.85; stroke: #808080; stroke-opacity: 0.85"/>
     <use xlink:href="#mfe1d2515bb" x="322.658281" y="143.197866" style="fill: #808080; fill-opacity: 0.85; stroke: #808080; stroke-opacity: 0.85"/>
     <use xlink:href="#mfe1d2515bb" x="475.633891" y="135.924229" style="fill: #808080; fill-opacity: 0.85; stroke: #808080; stroke-opacity: 0.85"/>
     <use xlink:href="#mfe1d2515bb" x="322.658281" y="166.457545" style="fill: #808080; fill-opacity: 0.85; stroke: #808080; stroke-opacity: 0.85"/>
     <use xlink:href="#mfe1d2515bb" x="439.939582" y="161.592733" style="fill: #808080; fill-opacity: 0.85; stroke: #808080; stroke-opacity: 0.85"/>
     <use xlink:href="#mfe1d2515bb" x="370.73633" y="119.222145" style="fill: #808080; fill-opacity: 0.85; stroke: #808080; stroke-opacity: 0.85"/>
     <use xlink:href="#mfe1d2515bb" x="322.658281" y="146.50968" style="fill: #808080; fill-opacity: 0.85; stroke: #808080; stroke-opacity: 0.85"/>
     <use xlink:href="#mfe1d2515bb" x="437.754216" y="97.788951" style="fill: #808080; fill-opacity: 0.85; stroke: #808080; stroke-opacity: 0.85"/>
     <use xlink:href="#mfe1d2515bb" x="322.658281" y="124.044313" style="fill: #808080; fill-opacity: 0.85; stroke: #808080; stroke-opacity: 0.85"/>
     <use xlink:href="#mfe1d2515bb" x="337.227387" y="96.46282" style="fill: #808080; fill-opacity: 0.85; stroke: #808080; stroke-opacity: 0.85"/>
    </g>
   </g>
   <g id="matplotlib.axis_3">
    <g id="xtick_7">
     <g id="line2d_13">
      <g>
       <use xlink:href="#m1af7c180ea" x="322.658281" y="173.518125" style="stroke: #000000; stroke-width: 0.8"/>
      </g>
     </g>
     <g id="text_15">
      <!-- 0 -->
      <g transform="translate(319.158906 188.876406) scale(0.11 -0.11)">
       <use xlink:href="#DejaVuSans-30"/>
      </g>
     </g>
    </g>
    <g id="xtick_8">
     <g id="line2d_14">
      <g>
       <use xlink:href="#m1af7c180ea" x="358.498281" y="173.518125" style="stroke: #000000; stroke-width: 0.8"/>
      </g>
     </g>
     <g id="text_16">
      <!-- 246 -->
      <g transform="translate(348.000156 188.876406) scale(0.11 -0.11)">
       <use xlink:href="#DejaVuSans-32"/>
       <use xlink:href="#DejaVuSans-34" transform="translate(63.623047 0)"/>
       <use xlink:href="#DejaVuSans-36" transform="translate(127.246094 0)"/>
      </g>
     </g>
    </g>
    <g id="xtick_9">
     <g id="line2d_15">
      <g>
       <use xlink:href="#m1af7c180ea" x="394.338281" y="173.518125" style="stroke: #000000; stroke-width: 0.8"/>
      </g>
     </g>
     <g id="text_17">
      <!-- 492 -->
      <g transform="translate(383.840156 188.876406) scale(0.11 -0.11)">
       <use xlink:href="#DejaVuSans-34"/>
       <use xlink:href="#DejaVuSans-39" transform="translate(63.623047 0)"/>
       <use xlink:href="#DejaVuSans-32" transform="translate(127.246094 0)"/>
      </g>
     </g>
    </g>
    <g id="xtick_10">
     <g id="line2d_16">
      <g>
       <use xlink:href="#m1af7c180ea" x="430.178281" y="173.518125" style="stroke: #000000; stroke-width: 0.8"/>
      </g>
     </g>
     <g id="text_18">
      <!-- 738 -->
      <g transform="translate(419.680156 188.876406) scale(0.11 -0.11)">
       <use xlink:href="#DejaVuSans-37"/>
       <use xlink:href="#DejaVuSans-33" transform="translate(63.623047 0)"/>
       <use xlink:href="#DejaVuSans-38" transform="translate(127.246094 0)"/>
      </g>
     </g>
    </g>
    <g id="xtick_11">
     <g id="line2d_17">
      <g>
       <use xlink:href="#m1af7c180ea" x="466.018281" y="173.518125" style="stroke: #000000; stroke-width: 0.8"/>
      </g>
     </g>
     <g id="text_19">
      <!-- 984 -->
      <g transform="translate(455.520156 188.876406) scale(0.11 -0.11)">
       <use xlink:href="#DejaVuSans-39"/>
       <use xlink:href="#DejaVuSans-38" transform="translate(63.623047 0)"/>
       <use xlink:href="#DejaVuSans-34" transform="translate(127.246094 0)"/>
      </g>
     </g>
    </g>
    <g id="xtick_12">
     <g id="line2d_18">
      <g>
       <use xlink:href="#m1af7c180ea" x="501.858281" y="173.518125" style="stroke: #000000; stroke-width: 0.8"/>
      </g>
     </g>
     <g id="text_20">
      <!-- 1230 -->
      <g transform="translate(487.860781 188.876406) scale(0.11 -0.11)">
       <use xlink:href="#DejaVuSans-31"/>
       <use xlink:href="#DejaVuSans-32" transform="translate(63.623047 0)"/>
       <use xlink:href="#DejaVuSans-33" transform="translate(127.246094 0)"/>
       <use xlink:href="#DejaVuSans-30" transform="translate(190.869141 0)"/>
      </g>
     </g>
    </g>
   </g>
   <g id="matplotlib.axis_4">
    <g id="ytick_6">
     <g id="line2d_19">
      <g>
       <use xlink:href="#m6d3d5ced65" x="313.698281" y="155.735953" style="stroke: #000000; stroke-width: 0.8"/>
      </g>
     </g>
    </g>
    <g id="ytick_7">
     <g id="line2d_20">
      <g>
       <use xlink:href="#m6d3d5ced65" x="313.698281" y="126.516826" style="stroke: #000000; stroke-width: 0.8"/>
      </g>
     </g>
    </g>
    <g id="ytick_8">
     <g id="line2d_21">
      <g>
       <use xlink:href="#m6d3d5ced65" x="313.698281" y="97.297699" style="stroke: #000000; stroke-width: 0.8"/>
      </g>
     </g>
    </g>
    <g id="ytick_9">
     <g id="line2d_22">
      <g>
       <use xlink:href="#m6d3d5ced65" x="313.698281" y="68.078572" style="stroke: #000000; stroke-width: 0.8"/>
      </g>
     </g>
    </g>
    <g id="ytick_10">
     <g id="line2d_23">
      <g>
       <use xlink:href="#m6d3d5ced65" x="313.698281" y="38.859445" style="stroke: #000000; stroke-width: 0.8"/>
      </g>
     </g>
    </g>
   </g>
   <g id="line2d_24">
    <path d="M 322.658281 138.032443 
L 324.468382 137.912046 
L 326.278483 137.791649 
L 328.088584 137.671252 
L 329.898685 137.550855 
L 331.708786 137.430458 
L 333.518887 137.310061 
L 335.328988 137.189664 
L 337.139089 137.069267 
L 338.94919 136.94887 
L 340.759291 136.828473 
L 342.569392 136.708076 
L 344.379493 136.587679 
L 346.189594 136.467282 
L 347.999695 136.346885 
L 349.809796 136.226488 
L 351.619897 136.106091 
L 353.429998 135.985694 
L 355.240099 135.865297 
L 357.0502 135.7449 
L 358.860301 135.624503 
L 360.670402 135.504106 
L 362.480503 135.38371 
L 364.290604 135.263313 
L 366.100705 135.142916 
L 367.910807 135.022519 
L 369.720908 134.902122 
L 371.531009 134.781725 
L 373.34111 134.661328 
L 375.151211 134.540931 
L 376.961312 134.420534 
L 378.771413 134.300137 
L 380.581514 134.17974 
L 382.391615 134.059343 
L 384.201716 133.938946 
L 386.011817 133.818549 
L 387.821918 133.698152 
L 389.632019 133.577755 
L 391.44212 133.457358 
L 393.252221 133.336961 
L 395.062322 133.216564 
L 396.872423 133.096167 
L 398.682524 132.97577 
L 400.492625 132.855373 
L 402.302726 132.734976 
L 404.112827 132.614579 
L 405.922928 132.494182 
L 407.733029 132.373785 
L 409.54313 132.253388 
L 411.353231 132.132991 
L 413.163332 132.012594 
L 414.973433 131.892197 
L 416.783534 131.7718 
L 418.593635 131.651403 
L 420.403736 131.531007 
L 422.213837 131.41061 
L 424.023938 131.290213 
L 425.834039 131.169816 
L 427.64414 131.049419 
L 429.454241 130.929022 
L 431.264342 130.808625 
L 433.074443 130.688228 
L 434.884544 130.567831 
L 436.694645 130.447434 
L 438.504746 130.327037 
L 440.314847 130.20664 
L 442.124948 130.086243 
L 443.935049 129.965846 
L 445.74515 129.845449 
L 447.555251 129.725052 
L 449.365352 129.604655 
L 451.175453 129.484258 
L 452.985554 129.363861 
L 454.795655 129.243464 
L 456.605756 129.123067 
L 458.415857 129.00267 
L 460.225958 128.882273 
L 462.036059 128.761876 
L 463.84616 128.641479 
L 465.656261 128.521082 
L 467.466362 128.400685 
L 469.276463 128.280288 
L 471.086564 128.159891 
L 472.896665 128.039494 
L 474.706766 127.919097 
L 476.516867 127.7987 
L 478.326968 127.678304 
L 480.137069 127.557907 
L 481.94717 127.43751 
L 483.757271 127.317113 
L 485.567372 127.196716 
L 487.377473 127.076319 
L 489.187574 126.955922 
L 490.997675 126.835525 
L 492.807776 126.715128 
L 494.617877 126.594731 
L 496.427978 126.474334 
L 498.238079 126.353937 
L 500.04818 126.23354 
L 501.858281 126.113143 
" clip-path="url(#pe9311625a1)" style="fill: none; stroke: #ffa500; stroke-width: 2.25; stroke-linecap: square"/>
   </g>
   <g id="patch_6">
    <path d="M 313.698281 173.518125 
L 313.698281 29.518125 
" style="fill: none; stroke: #000000; stroke-width: 0.8; stroke-linejoin: miter; stroke-linecap: square"/>
   </g>
   <g id="patch_7">
    <path d="M 313.698281 173.518125 
L 510.818281 173.518125 
" style="fill: none; stroke: #000000; stroke-width: 0.8; stroke-linejoin: miter; stroke-linecap: square"/>
   </g>
   <g id="text_21">
    <!-- r=0.18 -->
    <g transform="translate(447.739881 48.636563) scale(0.1 -0.1)">
     <use xlink:href="#DejaVuSans-72"/>
     <use xlink:href="#DejaVuSans-3d" transform="translate(41.113281 0)"/>
     <use xlink:href="#DejaVuSans-30" transform="translate(124.902344 0)"/>
     <use xlink:href="#DejaVuSans-2e" transform="translate(188.525391 0)"/>
     <use xlink:href="#DejaVuSans-31" transform="translate(220.3125 0)"/>
     <use xlink:href="#DejaVuSans-38" transform="translate(283.935547 0)"/>
    </g>
    <!-- p=0.468 -->
    <g transform="translate(447.739881 59.834375) scale(0.1 -0.1)">
     <use xlink:href="#DejaVuSans-70"/>
     <use xlink:href="#DejaVuSans-3d" transform="translate(63.476562 0)"/>
     <use xlink:href="#DejaVuSans-30" transform="translate(147.265625 0)"/>
     <use xlink:href="#DejaVuSans-2e" transform="translate(210.888672 0)"/>
     <use xlink:href="#DejaVuSans-34" transform="translate(242.675781 0)"/>
     <use xlink:href="#DejaVuSans-36" transform="translate(306.298828 0)"/>
     <use xlink:href="#DejaVuSans-38" transform="translate(369.921875 0)"/>
    </g>
   </g>
   <g id="text_22">
    <!-- Less affected hand -->
    <g transform="translate(348.032031 23.518125) scale(0.12 -0.12)">
     <defs>
      <path id="DejaVuSans-Bold-4c" d="M 588 4666 
L 1791 4666 
L 1791 909 
L 3903 909 
L 3903 0 
L 588 0 
L 588 4666 
z
" transform="scale(0.015625)"/>
      <path id="DejaVuSans-Bold-73" d="M 3272 3391 
L 3272 2541 
Q 2913 2691 2578 2766 
Q 2244 2841 1947 2841 
Q 1628 2841 1473 2761 
Q 1319 2681 1319 2516 
Q 1319 2381 1436 2309 
Q 1553 2238 1856 2203 
L 2053 2175 
Q 2913 2066 3209 1816 
Q 3506 1566 3506 1031 
Q 3506 472 3093 190 
Q 2681 -91 1863 -91 
Q 1516 -91 1145 -36 
Q 775 19 384 128 
L 384 978 
Q 719 816 1070 734 
Q 1422 653 1784 653 
Q 2113 653 2278 743 
Q 2444 834 2444 1013 
Q 2444 1163 2330 1236 
Q 2216 1309 1875 1350 
L 1678 1375 
Q 931 1469 631 1722 
Q 331 1975 331 2491 
Q 331 3047 712 3315 
Q 1094 3584 1881 3584 
Q 2191 3584 2531 3537 
Q 2872 3491 3272 3391 
z
" transform="scale(0.015625)"/>
     </defs>
     <use xlink:href="#DejaVuSans-Bold-4c"/>
     <use xlink:href="#DejaVuSans-Bold-65" transform="translate(63.720703 0)"/>
     <use xlink:href="#DejaVuSans-Bold-73" transform="translate(131.542969 0)"/>
     <use xlink:href="#DejaVuSans-Bold-73" transform="translate(191.064453 0)"/>
     <use xlink:href="#DejaVuSans-Bold-20" transform="translate(250.585938 0)"/>
     <use xlink:href="#DejaVuSans-Bold-61" transform="translate(285.400391 0)"/>
     <use xlink:href="#DejaVuSans-Bold-66" transform="translate(352.880859 0)"/>
     <use xlink:href="#DejaVuSans-Bold-66" transform="translate(396.386719 0)"/>
     <use xlink:href="#DejaVuSans-Bold-65" transform="translate(439.892578 0)"/>
     <use xlink:href="#DejaVuSans-Bold-63" transform="translate(507.714844 0)"/>
     <use xlink:href="#DejaVuSans-Bold-74" transform="translate(566.992188 0)"/>
     <use xlink:href="#DejaVuSans-Bold-65" transform="translate(614.794922 0)"/>
     <use xlink:href="#DejaVuSans-Bold-64" transform="translate(682.617188 0)"/>
     <use xlink:href="#DejaVuSans-Bold-20" transform="translate(754.199219 0)"/>
     <use xlink:href="#DejaVuSans-Bold-68" transform="translate(789.013672 0)"/>
     <use xlink:href="#DejaVuSans-Bold-61" transform="translate(860.205078 0)"/>
     <use xlink:href="#DejaVuSans-Bold-6e" transform="translate(927.685547 0)"/>
     <use xlink:href="#DejaVuSans-Bold-64" transform="translate(998.876953 0)"/>
    </g>
   </g>
  </g>
  <g id="axes_3">
   <g id="patch_8">
    <path d="M 67.298281 357.838125 
L 264.418281 357.838125 
L 264.418281 213.838125 
L 67.298281 213.838125 
z
" style="fill: #ffffff"/>
   </g>
   <g id="FillBetweenPolyCollection_3">
    <path d="M 76.258281 283.889446 
L 76.258281 319.283024 
L 78.068382 318.636849 
L 79.878483 317.987627 
L 81.688584 317.336132 
L 83.498685 316.708167 
L 85.308786 316.161413 
L 87.118887 315.622137 
L 88.928988 315.241612 
L 90.739089 314.900473 
L 92.54919 314.365344 
L 94.359291 313.881379 
L 96.169392 313.384254 
L 97.979493 312.971936 
L 99.789594 312.567133 
L 101.599695 312.15371 
L 103.409796 311.742365 
L 105.219897 311.429094 
L 107.029998 311.136225 
L 108.840099 310.511702 
L 110.6502 310.221811 
L 112.460301 309.756407 
L 114.270402 309.542943 
L 116.080503 309.254207 
L 117.890604 308.885309 
L 119.700705 308.393286 
L 121.510807 307.891762 
L 123.320908 307.730073 
L 125.131009 307.703708 
L 126.94111 307.315367 
L 128.751211 307.040682 
L 130.561312 306.573422 
L 132.371413 306.098335 
L 134.181514 305.644046 
L 135.991615 305.553218 
L 137.801716 305.382672 
L 139.611817 305.176599 
L 141.421918 304.958561 
L 143.232019 304.815693 
L 145.04212 304.612187 
L 146.852221 304.48696 
L 148.662322 304.44207 
L 150.472423 304.477298 
L 152.282524 304.45683 
L 154.092625 304.186525 
L 155.902726 304.135671 
L 157.712827 303.983832 
L 159.522928 303.897732 
L 161.333029 303.677939 
L 163.14313 303.606599 
L 164.953231 303.617609 
L 166.763332 303.471096 
L 168.573433 303.395099 
L 170.383534 303.339911 
L 172.193635 303.312632 
L 174.003736 303.230051 
L 175.813837 303.178893 
L 177.623938 303.206318 
L 179.434039 303.167401 
L 181.24414 303.125007 
L 183.054241 303.081746 
L 184.864342 303.038485 
L 186.674443 302.995224 
L 188.484544 303.202728 
L 190.294645 303.439609 
L 192.104746 303.651294 
L 193.914847 303.612678 
L 195.724948 303.577719 
L 197.535049 303.681414 
L 199.34515 303.694438 
L 201.155251 303.771966 
L 202.965352 303.878662 
L 204.775453 303.985359 
L 206.585554 304.092056 
L 208.395655 304.19672 
L 210.205756 304.300714 
L 212.015857 304.374455 
L 213.825958 304.385504 
L 215.636059 304.396553 
L 217.44616 304.499835 
L 219.256261 304.605139 
L 221.066362 304.769704 
L 222.876463 304.867638 
L 224.686564 304.926964 
L 226.496665 305.077172 
L 228.306766 305.137221 
L 230.116867 305.245217 
L 231.926968 305.353213 
L 233.737069 305.460181 
L 235.54717 305.562872 
L 237.357271 305.543333 
L 239.167372 305.625446 
L 240.977473 305.56686 
L 242.787574 305.507533 
L 244.597675 305.450896 
L 246.407776 305.586289 
L 248.217877 305.751264 
L 250.027978 305.916239 
L 251.838079 306.082595 
L 253.64818 306.252296 
L 255.458281 306.330504 
L 255.458281 239.193451 
L 255.458281 239.193451 
L 253.64818 239.939422 
L 251.838079 240.673609 
L 250.027978 241.377459 
L 248.217877 242.081828 
L 246.407776 242.786196 
L 244.597675 243.490565 
L 242.787574 244.194933 
L 240.977473 244.900672 
L 239.167372 245.608118 
L 237.357271 246.19581 
L 235.54717 246.765633 
L 233.737069 247.335456 
L 231.926968 247.933457 
L 230.116867 248.681443 
L 228.306766 249.429429 
L 226.496665 250.177414 
L 224.686564 250.925649 
L 222.876463 251.683074 
L 221.066362 252.349833 
L 219.256261 253.001891 
L 217.44616 253.769336 
L 215.636059 254.409991 
L 213.825958 255.050647 
L 212.015857 255.691302 
L 210.205756 256.331958 
L 208.395655 256.972953 
L 206.585554 257.619561 
L 204.775453 258.266169 
L 202.965352 259.059327 
L 201.155251 259.890372 
L 199.34515 260.610289 
L 197.535049 261.248172 
L 195.724948 261.886193 
L 193.914847 262.524214 
L 192.104746 263.19052 
L 190.294645 263.852958 
L 188.484544 264.546267 
L 186.674443 265.129827 
L 184.864342 265.945284 
L 183.054241 266.760741 
L 181.24414 267.216494 
L 179.434039 267.606385 
L 177.623938 268.27752 
L 175.813837 269.020092 
L 174.003736 269.611636 
L 172.193635 270.040888 
L 170.383534 270.459426 
L 168.573433 271.09518 
L 166.763332 271.734931 
L 164.953231 272.194422 
L 163.14313 272.799676 
L 161.333029 273.358229 
L 159.522928 273.880789 
L 157.712827 274.341011 
L 155.902726 274.736242 
L 154.092625 274.939497 
L 152.282524 275.556359 
L 150.472423 275.718281 
L 148.662322 276.268328 
L 146.852221 276.823039 
L 145.04212 277.382294 
L 143.232019 278.052348 
L 141.421918 278.276323 
L 139.611817 278.4603 
L 137.801716 278.866602 
L 135.991615 278.782255 
L 134.181514 278.947644 
L 132.371413 279.469412 
L 130.561312 280.144356 
L 128.751211 280.462296 
L 126.94111 280.681665 
L 125.131009 281.103757 
L 123.320908 281.376249 
L 121.510807 281.597404 
L 119.700705 281.761143 
L 117.890604 281.92601 
L 116.080503 282.123849 
L 114.270402 282.257638 
L 112.460301 282.594987 
L 110.6502 282.636828 
L 108.840099 282.741238 
L 107.029998 282.80864 
L 105.219897 282.729872 
L 103.409796 282.647176 
L 101.599695 282.714777 
L 99.789594 283.036377 
L 97.979493 283.361928 
L 96.169392 283.594707 
L 94.359291 283.633468 
L 92.54919 283.587892 
L 90.739089 283.596908 
L 88.928988 283.596376 
L 87.118887 283.603037 
L 85.308786 283.613774 
L 83.498685 283.683871 
L 81.688584 283.980136 
L 79.878483 283.964268 
L 78.068382 283.921918 
L 76.258281 283.889446 
z
" clip-path="url(#p5a2ecc2597)" style="fill: #ffa500; fill-opacity: 0.15"/>
   </g>
   <g id="PathCollection_5">
    <g clip-path="url(#p5a2ecc2597)">
     <use xlink:href="#m77ef0daa23" x="119.965598" y="311.52741" style="fill: #808080; fill-opacity: 0.85; stroke: #808080; stroke-opacity: 0.85"/>
     <use xlink:href="#m77ef0daa23" x="119.965598" y="243.682686" style="fill: #808080; fill-opacity: 0.85; stroke: #808080; stroke-opacity: 0.85"/>
     <use xlink:href="#m77ef0daa23" x="185.526574" y="286.188414" style="fill: #808080; fill-opacity: 0.85; stroke: #808080; stroke-opacity: 0.85"/>
     <use xlink:href="#m77ef0daa23" x="255.458281" y="257.583934" style="fill: #808080; fill-opacity: 0.85; stroke: #808080; stroke-opacity: 0.85"/>
     <use xlink:href="#m77ef0daa23" x="119.965598" y="297.884084" style="fill: #808080; fill-opacity: 0.85; stroke: #808080; stroke-opacity: 0.85"/>
     <use xlink:href="#m77ef0daa23" x="152.017631" y="311.437966" style="fill: #808080; fill-opacity: 0.85; stroke: #808080; stroke-opacity: 0.85"/>
     <use xlink:href="#m77ef0daa23" x="90.827387" y="291.030446" style="fill: #808080; fill-opacity: 0.85; stroke: #808080; stroke-opacity: 0.85"/>
     <use xlink:href="#m77ef0daa23" x="251.08755" y="293.411255" style="fill: #808080; fill-opacity: 0.85; stroke: #808080; stroke-opacity: 0.85"/>
    </g>
   </g>
   <g id="PathCollection_6">
    <g clip-path="url(#p5a2ecc2597)">
     <use xlink:href="#mfe1d2515bb" x="153.765924" y="278.255382" style="fill: #808080; fill-opacity: 0.85; stroke: #808080; stroke-opacity: 0.85"/>
     <use xlink:href="#mfe1d2515bb" x="76.258281" y="292.24312" style="fill: #808080; fill-opacity: 0.85; stroke: #808080; stroke-opacity: 0.85"/>
     <use xlink:href="#mfe1d2515bb" x="229.233891" y="315.878668" style="fill: #808080; fill-opacity: 0.85; stroke: #808080; stroke-opacity: 0.85"/>
     <use xlink:href="#mfe1d2515bb" x="76.258281" y="266.499538" style="fill: #808080; fill-opacity: 0.85; stroke: #808080; stroke-opacity: 0.85"/>
     <use xlink:href="#mfe1d2515bb" x="193.539582" y="299.109527" style="fill: #808080; fill-opacity: 0.85; stroke: #808080; stroke-opacity: 0.85"/>
     <use xlink:href="#mfe1d2515bb" x="124.33633" y="334.648152" style="fill: #808080; fill-opacity: 0.85; stroke: #808080; stroke-opacity: 0.85"/>
     <use xlink:href="#mfe1d2515bb" x="76.258281" y="318.608391" style="fill: #808080; fill-opacity: 0.85; stroke: #808080; stroke-opacity: 0.85"/>
     <use xlink:href="#mfe1d2515bb" x="191.354216" y="220.38358" style="fill: #808080; fill-opacity: 0.85; stroke: #808080; stroke-opacity: 0.85"/>
     <use xlink:href="#mfe1d2515bb" x="76.258281" y="315.178322" style="fill: #808080; fill-opacity: 0.85; stroke: #808080; stroke-opacity: 0.85"/>
     <use xlink:href="#mfe1d2515bb" x="90.827387" y="328.307159" style="fill: #808080; fill-opacity: 0.85; stroke: #808080; stroke-opacity: 0.85"/>
    </g>
   </g>
   <g id="matplotlib.axis_5">
    <g id="xtick_13">
     <g id="line2d_25">
      <g>
       <use xlink:href="#m1af7c180ea" x="76.258281" y="357.838125" style="stroke: #000000; stroke-width: 0.8"/>
      </g>
     </g>
     <g id="text_23">
      <!-- 0 -->
      <g transform="translate(72.758906 373.196406) scale(0.11 -0.11)">
       <use xlink:href="#DejaVuSans-30"/>
      </g>
     </g>
    </g>
    <g id="xtick_14">
     <g id="line2d_26">
      <g>
       <use xlink:href="#m1af7c180ea" x="112.098281" y="357.838125" style="stroke: #000000; stroke-width: 0.8"/>
      </g>
     </g>
     <g id="text_24">
      <!-- 246 -->
      <g transform="translate(101.600156 373.196406) scale(0.11 -0.11)">
       <use xlink:href="#DejaVuSans-32"/>
       <use xlink:href="#DejaVuSans-34" transform="translate(63.623047 0)"/>
       <use xlink:href="#DejaVuSans-36" transform="translate(127.246094 0)"/>
      </g>
     </g>
    </g>
    <g id="xtick_15">
     <g id="line2d_27">
      <g>
       <use xlink:href="#m1af7c180ea" x="147.938281" y="357.838125" style="stroke: #000000; stroke-width: 0.8"/>
      </g>
     </g>
     <g id="text_25">
      <!-- 492 -->
      <g transform="translate(137.440156 373.196406) scale(0.11 -0.11)">
       <use xlink:href="#DejaVuSans-34"/>
       <use xlink:href="#DejaVuSans-39" transform="translate(63.623047 0)"/>
       <use xlink:href="#DejaVuSans-32" transform="translate(127.246094 0)"/>
      </g>
     </g>
    </g>
    <g id="xtick_16">
     <g id="line2d_28">
      <g>
       <use xlink:href="#m1af7c180ea" x="183.778281" y="357.838125" style="stroke: #000000; stroke-width: 0.8"/>
      </g>
     </g>
     <g id="text_26">
      <!-- 738 -->
      <g transform="translate(173.280156 373.196406) scale(0.11 -0.11)">
       <use xlink:href="#DejaVuSans-37"/>
       <use xlink:href="#DejaVuSans-33" transform="translate(63.623047 0)"/>
       <use xlink:href="#DejaVuSans-38" transform="translate(127.246094 0)"/>
      </g>
     </g>
    </g>
    <g id="xtick_17">
     <g id="line2d_29">
      <g>
       <use xlink:href="#m1af7c180ea" x="219.618281" y="357.838125" style="stroke: #000000; stroke-width: 0.8"/>
      </g>
     </g>
     <g id="text_27">
      <!-- 984 -->
      <g transform="translate(209.120156 373.196406) scale(0.11 -0.11)">
       <use xlink:href="#DejaVuSans-39"/>
       <use xlink:href="#DejaVuSans-38" transform="translate(63.623047 0)"/>
       <use xlink:href="#DejaVuSans-34" transform="translate(127.246094 0)"/>
      </g>
     </g>
    </g>
    <g id="xtick_18">
     <g id="line2d_30">
      <g>
       <use xlink:href="#m1af7c180ea" x="255.458281" y="357.838125" style="stroke: #000000; stroke-width: 0.8"/>
      </g>
     </g>
     <g id="text_28">
      <!-- 1230 -->
      <g transform="translate(241.460781 373.196406) scale(0.11 -0.11)">
       <use xlink:href="#DejaVuSans-31"/>
       <use xlink:href="#DejaVuSans-32" transform="translate(63.623047 0)"/>
       <use xlink:href="#DejaVuSans-33" transform="translate(127.246094 0)"/>
       <use xlink:href="#DejaVuSans-30" transform="translate(190.869141 0)"/>
      </g>
     </g>
    </g>
    <g id="text_29">
     <!-- Daily medication dose -->
     <g transform="translate(84.730156 389.362031) scale(0.13 -0.13)">
      <defs>
       <path id="DejaVuSans-Bold-44" d="M 1791 3756 
L 1791 909 
L 2222 909 
Q 2959 909 3348 1275 
Q 3738 1641 3738 2338 
Q 3738 3031 3350 3393 
Q 2963 3756 2222 3756 
L 1791 3756 
z
M 588 4666 
L 1856 4666 
Q 2919 4666 3439 4514 
Q 3959 4363 4331 4000 
Q 4659 3684 4818 3271 
Q 4978 2859 4978 2338 
Q 4978 1809 4818 1395 
Q 4659 981 4331 666 
Q 3956 303 3431 151 
Q 2906 0 1856 0 
L 588 0 
L 588 4666 
z
" transform="scale(0.015625)"/>
       <path id="DejaVuSans-Bold-69" d="M 538 3500 
L 1656 3500 
L 1656 0 
L 538 0 
L 538 3500 
z
M 538 4863 
L 1656 4863 
L 1656 3950 
L 538 3950 
L 538 4863 
z
" transform="scale(0.015625)"/>
       <path id="DejaVuSans-Bold-6c" d="M 538 4863 
L 1656 4863 
L 1656 0 
L 538 0 
L 538 4863 
z
" transform="scale(0.015625)"/>
       <path id="DejaVuSans-Bold-79" d="M 78 3500 
L 1197 3500 
L 2138 1125 
L 2938 3500 
L 4056 3500 
L 2584 -331 
Q 2363 -916 2067 -1148 
Q 1772 -1381 1288 -1381 
L 641 -1381 
L 641 -647 
L 991 -647 
Q 1275 -647 1404 -556 
Q 1534 -466 1606 -231 
L 1638 -134 
L 78 3500 
z
" transform="scale(0.015625)"/>
       <path id="DejaVuSans-Bold-6d" d="M 3781 2919 
Q 3994 3244 4286 3414 
Q 4578 3584 4928 3584 
Q 5531 3584 5847 3212 
Q 6163 2841 6163 2131 
L 6163 0 
L 5038 0 
L 5038 1825 
Q 5041 1866 5042 1909 
Q 5044 1953 5044 2034 
Q 5044 2406 4934 2573 
Q 4825 2741 4581 2741 
Q 4263 2741 4089 2478 
Q 3916 2216 3909 1719 
L 3909 0 
L 2784 0 
L 2784 1825 
Q 2784 2406 2684 2573 
Q 2584 2741 2328 2741 
Q 2006 2741 1831 2477 
Q 1656 2213 1656 1722 
L 1656 0 
L 531 0 
L 531 3500 
L 1656 3500 
L 1656 2988 
Q 1863 3284 2130 3434 
Q 2397 3584 2719 3584 
Q 3081 3584 3359 3409 
Q 3638 3234 3781 2919 
z
" transform="scale(0.015625)"/>
      </defs>
      <use xlink:href="#DejaVuSans-Bold-44"/>
      <use xlink:href="#DejaVuSans-Bold-61" transform="translate(83.007812 0)"/>
      <use xlink:href="#DejaVuSans-Bold-69" transform="translate(150.488281 0)"/>
      <use xlink:href="#DejaVuSans-Bold-6c" transform="translate(184.765625 0)"/>
      <use xlink:href="#DejaVuSans-Bold-79" transform="translate(219.042969 0)"/>
      <use xlink:href="#DejaVuSans-Bold-20" transform="translate(284.228516 0)"/>
      <use xlink:href="#DejaVuSans-Bold-6d" transform="translate(319.042969 0)"/>
      <use xlink:href="#DejaVuSans-Bold-65" transform="translate(423.242188 0)"/>
      <use xlink:href="#DejaVuSans-Bold-64" transform="translate(491.064453 0)"/>
      <use xlink:href="#DejaVuSans-Bold-69" transform="translate(562.646484 0)"/>
      <use xlink:href="#DejaVuSans-Bold-63" transform="translate(596.923828 0)"/>
      <use xlink:href="#DejaVuSans-Bold-61" transform="translate(656.201172 0)"/>
      <use xlink:href="#DejaVuSans-Bold-74" transform="translate(723.681641 0)"/>
      <use xlink:href="#DejaVuSans-Bold-69" transform="translate(771.484375 0)"/>
      <use xlink:href="#DejaVuSans-Bold-6f" transform="translate(805.761719 0)"/>
      <use xlink:href="#DejaVuSans-Bold-6e" transform="translate(874.462891 0)"/>
      <use xlink:href="#DejaVuSans-Bold-20" transform="translate(945.654297 0)"/>
      <use xlink:href="#DejaVuSans-Bold-64" transform="translate(980.46875 0)"/>
      <use xlink:href="#DejaVuSans-Bold-6f" transform="translate(1052.050781 0)"/>
      <use xlink:href="#DejaVuSans-Bold-73" transform="translate(1120.751953 0)"/>
      <use xlink:href="#DejaVuSans-Bold-65" transform="translate(1180.273438 0)"/>
     </g>
    </g>
   </g>
   <g id="matplotlib.axis_6">
    <g id="ytick_11">
     <g id="line2d_31">
      <g>
       <use xlink:href="#m6d3d5ced65" x="67.298281" y="353.431854" style="stroke: #000000; stroke-width: 0.8"/>
      </g>
     </g>
     <g id="text_30">
      <!-- 30 -->
      <g transform="translate(37.083125 357.610994) scale(0.11 -0.11)">
       <defs>
        <path id="DejaVuSans-2212" d="M 678 2272 
L 4684 2272 
L 4684 1741 
L 678 1741 
L 678 2272 
z
" transform="scale(0.015625)"/>
       </defs>
       <use xlink:href="#DejaVuSans-2212"/>
       <use xlink:href="#DejaVuSans-33" transform="translate(83.789062 0)"/>
       <use xlink:href="#DejaVuSans-30" transform="translate(147.412109 0)"/>
      </g>
     </g>
    </g>
    <g id="ytick_12">
     <g id="line2d_32">
      <g>
       <use xlink:href="#m6d3d5ced65" x="67.298281" y="327.366807" style="stroke: #000000; stroke-width: 0.8"/>
      </g>
     </g>
     <g id="text_31">
      <!-- 20 -->
      <g transform="translate(37.083125 331.545948) scale(0.11 -0.11)">
       <use xlink:href="#DejaVuSans-2212"/>
       <use xlink:href="#DejaVuSans-32" transform="translate(83.789062 0)"/>
       <use xlink:href="#DejaVuSans-30" transform="translate(147.412109 0)"/>
      </g>
     </g>
    </g>
    <g id="ytick_13">
     <g id="line2d_33">
      <g>
       <use xlink:href="#m6d3d5ced65" x="67.298281" y="301.30176" style="stroke: #000000; stroke-width: 0.8"/>
      </g>
     </g>
     <g id="text_32">
      <!-- 10 -->
      <g transform="translate(37.083125 305.480901) scale(0.11 -0.11)">
       <use xlink:href="#DejaVuSans-2212"/>
       <use xlink:href="#DejaVuSans-31" transform="translate(83.789062 0)"/>
       <use xlink:href="#DejaVuSans-30" transform="translate(147.412109 0)"/>
      </g>
     </g>
    </g>
    <g id="ytick_14">
     <g id="line2d_34">
      <g>
       <use xlink:href="#m6d3d5ced65" x="67.298281" y="275.236713" style="stroke: #000000; stroke-width: 0.8"/>
      </g>
     </g>
     <g id="text_33">
      <!-- 0 -->
      <g transform="translate(53.299531 279.415854) scale(0.11 -0.11)">
       <use xlink:href="#DejaVuSans-30"/>
      </g>
     </g>
    </g>
    <g id="ytick_15">
     <g id="line2d_35">
      <g>
       <use xlink:href="#m6d3d5ced65" x="67.298281" y="249.171667" style="stroke: #000000; stroke-width: 0.8"/>
      </g>
     </g>
     <g id="text_34">
      <!-- 10 -->
      <g transform="translate(46.300781 253.350807) scale(0.11 -0.11)">
       <use xlink:href="#DejaVuSans-31"/>
       <use xlink:href="#DejaVuSans-30" transform="translate(63.623047 0)"/>
      </g>
     </g>
    </g>
    <g id="ytick_16">
     <g id="line2d_36">
      <g>
       <use xlink:href="#m6d3d5ced65" x="67.298281" y="223.10662" style="stroke: #000000; stroke-width: 0.8"/>
      </g>
     </g>
     <g id="text_35">
      <!-- 20 -->
      <g transform="translate(46.300781 227.285761) scale(0.11 -0.11)">
       <use xlink:href="#DejaVuSans-32"/>
       <use xlink:href="#DejaVuSans-30" transform="translate(63.623047 0)"/>
      </g>
     </g>
    </g>
    <g id="text_36">
     <!-- % change of dwell time -->
     <g transform="translate(24.277969 371.291797) rotate(-90) scale(0.13 -0.13)">
      <defs>
       <path id="DejaVuSans-Bold-77" d="M 225 3500 
L 1313 3500 
L 1900 1088 
L 2491 3500 
L 3425 3500 
L 4013 1113 
L 4603 3500 
L 5691 3500 
L 4769 0 
L 3547 0 
L 2956 2406 
L 2369 0 
L 1147 0 
L 225 3500 
z
" transform="scale(0.015625)"/>
      </defs>
      <use xlink:href="#DejaVuSans-Bold-25"/>
      <use xlink:href="#DejaVuSans-Bold-20" transform="translate(100.195312 0)"/>
      <use xlink:href="#DejaVuSans-Bold-63" transform="translate(135.009766 0)"/>
      <use xlink:href="#DejaVuSans-Bold-68" transform="translate(194.287109 0)"/>
      <use xlink:href="#DejaVuSans-Bold-61" transform="translate(265.478516 0)"/>
      <use xlink:href="#DejaVuSans-Bold-6e" transform="translate(332.958984 0)"/>
      <use xlink:href="#DejaVuSans-Bold-67" transform="translate(404.150391 0)"/>
      <use xlink:href="#DejaVuSans-Bold-65" transform="translate(475.732422 0)"/>
      <use xlink:href="#DejaVuSans-Bold-20" transform="translate(543.554688 0)"/>
      <use xlink:href="#DejaVuSans-Bold-6f" transform="translate(578.369141 0)"/>
      <use xlink:href="#DejaVuSans-Bold-66" transform="translate(647.070312 0)"/>
      <use xlink:href="#DejaVuSans-Bold-20" transform="translate(690.576172 0)"/>
      <use xlink:href="#DejaVuSans-Bold-64" transform="translate(725.390625 0)"/>
      <use xlink:href="#DejaVuSans-Bold-77" transform="translate(796.972656 0)"/>
      <use xlink:href="#DejaVuSans-Bold-65" transform="translate(889.355469 0)"/>
      <use xlink:href="#DejaVuSans-Bold-6c" transform="translate(957.177734 0)"/>
      <use xlink:href="#DejaVuSans-Bold-6c" transform="translate(991.455078 0)"/>
      <use xlink:href="#DejaVuSans-Bold-20" transform="translate(1025.732422 0)"/>
      <use xlink:href="#DejaVuSans-Bold-74" transform="translate(1060.546875 0)"/>
      <use xlink:href="#DejaVuSans-Bold-69" transform="translate(1108.349609 0)"/>
      <use xlink:href="#DejaVuSans-Bold-6d" transform="translate(1142.626953 0)"/>
      <use xlink:href="#DejaVuSans-Bold-65" transform="translate(1246.826172 0)"/>
     </g>
    </g>
   </g>
   <g id="line2d_37">
    <path d="M 76.258281 301.521202 
L 78.068382 301.273639 
L 79.878483 301.026076 
L 81.688584 300.778513 
L 83.498685 300.53095 
L 85.308786 300.283387 
L 87.118887 300.035824 
L 88.928988 299.788261 
L 90.739089 299.540698 
L 92.54919 299.293135 
L 94.359291 299.045572 
L 96.169392 298.798009 
L 97.979493 298.550446 
L 99.789594 298.302884 
L 101.599695 298.055321 
L 103.409796 297.807758 
L 105.219897 297.560195 
L 107.029998 297.312632 
L 108.840099 297.065069 
L 110.6502 296.817506 
L 112.460301 296.569943 
L 114.270402 296.32238 
L 116.080503 296.074817 
L 117.890604 295.827254 
L 119.700705 295.579691 
L 121.510807 295.332128 
L 123.320908 295.084565 
L 125.131009 294.837002 
L 126.94111 294.58944 
L 128.751211 294.341877 
L 130.561312 294.094314 
L 132.371413 293.846751 
L 134.181514 293.599188 
L 135.991615 293.351625 
L 137.801716 293.104062 
L 139.611817 292.856499 
L 141.421918 292.608936 
L 143.232019 292.361373 
L 145.04212 292.11381 
L 146.852221 291.866247 
L 148.662322 291.618684 
L 150.472423 291.371121 
L 152.282524 291.123558 
L 154.092625 290.875995 
L 155.902726 290.628433 
L 157.712827 290.38087 
L 159.522928 290.133307 
L 161.333029 289.885744 
L 163.14313 289.638181 
L 164.953231 289.390618 
L 166.763332 289.143055 
L 168.573433 288.895492 
L 170.383534 288.647929 
L 172.193635 288.400366 
L 174.003736 288.152803 
L 175.813837 287.90524 
L 177.623938 287.657677 
L 179.434039 287.410114 
L 181.24414 287.162551 
L 183.054241 286.914988 
L 184.864342 286.667426 
L 186.674443 286.419863 
L 188.484544 286.1723 
L 190.294645 285.924737 
L 192.104746 285.677174 
L 193.914847 285.429611 
L 195.724948 285.182048 
L 197.535049 284.934485 
L 199.34515 284.686922 
L 201.155251 284.439359 
L 202.965352 284.191796 
L 204.775453 283.944233 
L 206.585554 283.69667 
L 208.395655 283.449107 
L 210.205756 283.201544 
L 212.015857 282.953982 
L 213.825958 282.706419 
L 215.636059 282.458856 
L 217.44616 282.211293 
L 219.256261 281.96373 
L 221.066362 281.716167 
L 222.876463 281.468604 
L 224.686564 281.221041 
L 226.496665 280.973478 
L 228.306766 280.725915 
L 230.116867 280.478352 
L 231.926968 280.230789 
L 233.737069 279.983226 
L 235.54717 279.735663 
L 237.357271 279.4881 
L 239.167372 279.240537 
L 240.977473 278.992975 
L 242.787574 278.745412 
L 244.597675 278.497849 
L 246.407776 278.250286 
L 248.217877 278.002723 
L 250.027978 277.75516 
L 251.838079 277.507597 
L 253.64818 277.260034 
L 255.458281 277.012471 
" clip-path="url(#p5a2ecc2597)" style="fill: none; stroke: #ffa500; stroke-width: 2.25; stroke-linecap: square"/>
   </g>
   <g id="patch_9">
    <path d="M 67.298281 357.838125 
L 67.298281 213.838125 
" style="fill: none; stroke: #000000; stroke-width: 0.8; stroke-linejoin: miter; stroke-linecap: square"/>
   </g>
   <g id="patch_10">
    <path d="M 67.298281 357.838125 
L 264.418281 357.838125 
" style="fill: none; stroke: #000000; stroke-width: 0.8; stroke-linejoin: miter; stroke-linecap: square"/>
   </g>
   <g id="text_37">
    <!-- r=0.28 -->
    <g transform="translate(201.339881 232.956563) scale(0.1 -0.1)">
     <use xlink:href="#DejaVuSans-72"/>
     <use xlink:href="#DejaVuSans-3d" transform="translate(41.113281 0)"/>
     <use xlink:href="#DejaVuSans-30" transform="translate(124.902344 0)"/>
     <use xlink:href="#DejaVuSans-2e" transform="translate(188.525391 0)"/>
     <use xlink:href="#DejaVuSans-32" transform="translate(220.3125 0)"/>
     <use xlink:href="#DejaVuSans-38" transform="translate(283.935547 0)"/>
    </g>
    <!-- p=0.262 -->
    <g transform="translate(201.339881 244.154375) scale(0.1 -0.1)">
     <use xlink:href="#DejaVuSans-70"/>
     <use xlink:href="#DejaVuSans-3d" transform="translate(63.476562 0)"/>
     <use xlink:href="#DejaVuSans-30" transform="translate(147.265625 0)"/>
     <use xlink:href="#DejaVuSans-2e" transform="translate(210.888672 0)"/>
     <use xlink:href="#DejaVuSans-32" transform="translate(242.675781 0)"/>
     <use xlink:href="#DejaVuSans-36" transform="translate(306.298828 0)"/>
     <use xlink:href="#DejaVuSans-32" transform="translate(369.921875 0)"/>
    </g>
   </g>
  </g>
  <g id="axes_4">
   <g id="patch_11">
    <path d="M 313.698281 357.838125 
L 510.818281 357.838125 
L 510.818281 213.838125 
L 313.698281 213.838125 
z
" style="fill: #ffffff"/>
   </g>
   <g id="FillBetweenPolyCollection_4">
    <path d="M 322.658281 284.144849 
L 322.658281 329.13084 
L 324.468382 328.599776 
L 326.278483 328.035283 
L 328.088584 327.426408 
L 329.898685 326.858987 
L 331.708786 326.445603 
L 333.518887 325.923155 
L 335.328988 325.307067 
L 337.139089 324.69098 
L 338.94919 324.071934 
L 340.759291 323.451101 
L 342.569392 323.235917 
L 344.379493 322.900897 
L 346.189594 322.294555 
L 347.999695 321.678348 
L 349.809796 321.105893 
L 351.619897 320.357563 
L 353.429998 319.91407 
L 355.240099 319.324551 
L 357.0502 318.725813 
L 358.860301 318.196336 
L 360.670402 317.917892 
L 362.480503 317.367655 
L 364.290604 316.829157 
L 366.100705 316.430038 
L 367.910807 315.807956 
L 369.720908 315.324838 
L 371.531009 314.75925 
L 373.34111 314.429581 
L 375.151211 314.495323 
L 376.961312 314.375887 
L 378.771413 314.045567 
L 380.581514 313.352332 
L 382.391615 313.411293 
L 384.201716 312.913323 
L 386.011817 312.76305 
L 387.821918 312.881169 
L 389.632019 312.718722 
L 391.44212 312.740538 
L 393.252221 312.576452 
L 395.062322 312.904155 
L 396.872423 312.815571 
L 398.682524 312.628911 
L 400.492625 312.573146 
L 402.302726 312.357432 
L 404.112827 312.304282 
L 405.922928 312.271387 
L 407.733029 311.666393 
L 409.54313 311.431233 
L 411.353231 311.337492 
L 413.163332 310.98262 
L 414.973433 310.876212 
L 416.783534 311.134286 
L 418.593635 311.200193 
L 420.403736 311.569465 
L 422.213837 311.75951 
L 424.023938 311.914878 
L 425.834039 312.069301 
L 427.64414 312.210588 
L 429.454241 312.535634 
L 431.264342 312.859406 
L 433.074443 313.179342 
L 434.884544 313.03414 
L 436.694645 312.884986 
L 438.504746 312.735831 
L 440.314847 312.586677 
L 442.124948 312.437523 
L 443.935049 312.288369 
L 445.74515 312.139215 
L 447.555251 311.99006 
L 449.365352 311.891314 
L 451.175453 311.869473 
L 452.985554 311.847631 
L 454.795655 311.825789 
L 456.605756 311.803947 
L 458.415857 311.836323 
L 460.225958 311.880237 
L 462.036059 311.924151 
L 463.84616 312.05585 
L 465.656261 312.393817 
L 467.466362 312.731785 
L 469.276463 312.851552 
L 471.086564 312.715686 
L 472.896665 312.579821 
L 474.706766 312.521307 
L 476.516867 312.815916 
L 478.326968 313.110525 
L 480.137069 313.405134 
L 481.94717 313.696089 
L 483.757271 313.983084 
L 485.567372 314.270078 
L 487.377473 314.557072 
L 489.187574 314.844067 
L 490.997675 315.131061 
L 492.807776 315.418055 
L 494.617877 315.703353 
L 496.427978 315.755382 
L 498.238079 315.80741 
L 500.04818 315.859439 
L 501.858281 315.911468 
L 501.858281 257.447672 
L 501.858281 257.447672 
L 500.04818 257.937388 
L 498.238079 258.482908 
L 496.427978 258.958812 
L 494.617877 259.719134 
L 492.807776 260.306461 
L 490.997675 260.672062 
L 489.187574 261.037663 
L 487.377473 261.403264 
L 485.567372 261.805874 
L 483.757271 262.422116 
L 481.94717 263.076563 
L 480.137069 263.73101 
L 478.326968 264.385457 
L 476.516867 265.039904 
L 474.706766 265.697038 
L 472.896665 266.269833 
L 471.086564 266.610238 
L 469.276463 266.890356 
L 467.466362 267.232103 
L 465.656261 267.624501 
L 463.84616 267.95395 
L 462.036059 268.606506 
L 460.225958 269.238782 
L 458.415857 269.463832 
L 456.605756 269.910667 
L 454.795655 270.272518 
L 452.985554 270.613026 
L 451.175453 270.993129 
L 449.365352 271.473102 
L 447.555251 271.853807 
L 445.74515 272.200622 
L 443.935049 272.638955 
L 442.124948 272.887354 
L 440.314847 273.342675 
L 438.504746 273.60013 
L 436.694645 274.211743 
L 434.884544 274.686466 
L 433.074443 274.959652 
L 431.264342 275.334827 
L 429.454241 275.487889 
L 427.64414 275.873951 
L 425.834039 276.115914 
L 424.023938 276.521837 
L 422.213837 276.889405 
L 420.403736 277.02387 
L 418.593635 277.210327 
L 416.783534 277.70657 
L 414.973433 278.204541 
L 413.163332 278.702512 
L 411.353231 279.044001 
L 409.54313 279.237732 
L 407.733029 279.431462 
L 405.922928 279.595532 
L 404.112827 279.821004 
L 402.302726 280.055698 
L 400.492625 280.409869 
L 398.682524 280.595444 
L 396.872423 280.806649 
L 395.062322 280.860482 
L 393.252221 280.971306 
L 391.44212 281.14819 
L 389.632019 281.240181 
L 387.821918 281.345905 
L 386.011817 281.554804 
L 384.201716 281.555725 
L 382.391615 281.66021 
L 380.581514 281.773392 
L 378.771413 281.881631 
L 376.961312 281.987613 
L 375.151211 282.095586 
L 373.34111 282.204393 
L 371.531009 282.410911 
L 369.720908 282.612309 
L 367.910807 282.794688 
L 366.100705 282.810049 
L 364.290604 282.879704 
L 362.480503 282.854817 
L 360.670402 282.951021 
L 358.860301 283.057839 
L 357.0502 283.166825 
L 355.240099 283.283186 
L 353.429998 283.37575 
L 351.619897 283.484568 
L 349.809796 283.593386 
L 347.999695 283.637223 
L 346.189594 283.801976 
L 344.379493 283.865146 
L 342.569392 283.839202 
L 340.759291 283.896563 
L 338.94919 283.92927 
L 337.139089 283.930036 
L 335.328988 283.919978 
L 333.518887 283.920178 
L 331.708786 283.924014 
L 329.898685 283.920223 
L 328.088584 283.92282 
L 326.278483 283.961009 
L 324.468382 284.113979 
L 322.658281 284.144849 
z
" clip-path="url(#peb6a18f720)" style="fill: #ffa500; fill-opacity: 0.15"/>
   </g>
   <g id="PathCollection_7">
    <g clip-path="url(#peb6a18f720)">
     <use xlink:href="#m77ef0daa23" x="366.365598" y="292.235658" style="fill: #808080; fill-opacity: 0.85; stroke: #808080; stroke-opacity: 0.85"/>
     <use xlink:href="#m77ef0daa23" x="366.365598" y="295.144375" style="fill: #808080; fill-opacity: 0.85; stroke: #808080; stroke-opacity: 0.85"/>
     <use xlink:href="#m77ef0daa23" x="431.926574" y="284.137391" style="fill: #808080; fill-opacity: 0.85; stroke: #808080; stroke-opacity: 0.85"/>
     <use xlink:href="#m77ef0daa23" x="501.858281" y="273.646473" style="fill: #808080; fill-opacity: 0.85; stroke: #808080; stroke-opacity: 0.85"/>
     <use xlink:href="#m77ef0daa23" x="366.365598" y="349.38782" style="fill: #808080; fill-opacity: 0.85; stroke: #808080; stroke-opacity: 0.85"/>
     <use xlink:href="#m77ef0daa23" x="398.417631" y="351.29267" style="fill: #808080; fill-opacity: 0.85; stroke: #808080; stroke-opacity: 0.85"/>
     <use xlink:href="#m77ef0daa23" x="337.227387" y="315.709484" style="fill: #808080; fill-opacity: 0.85; stroke: #808080; stroke-opacity: 0.85"/>
     <use xlink:href="#m77ef0daa23" x="497.48755" y="252.32158" style="fill: #808080; fill-opacity: 0.85; stroke: #808080; stroke-opacity: 0.85"/>
    </g>
   </g>
   <g id="PathCollection_8">
    <g clip-path="url(#peb6a18f720)">
     <use xlink:href="#mfe1d2515bb" x="400.165924" y="335.954219" style="fill: #808080; fill-opacity: 0.85; stroke: #808080; stroke-opacity: 0.85"/>
     <use xlink:href="#mfe1d2515bb" x="322.658281" y="288.276654" style="fill: #808080; fill-opacity: 0.85; stroke: #808080; stroke-opacity: 0.85"/>
     <use xlink:href="#mfe1d2515bb" x="475.633891" y="275.895561" style="fill: #808080; fill-opacity: 0.85; stroke: #808080; stroke-opacity: 0.85"/>
     <use xlink:href="#mfe1d2515bb" x="322.658281" y="238.387607" style="fill: #808080; fill-opacity: 0.85; stroke: #808080; stroke-opacity: 0.85"/>
     <use xlink:href="#mfe1d2515bb" x="439.939582" y="301.414139" style="fill: #808080; fill-opacity: 0.85; stroke: #808080; stroke-opacity: 0.85"/>
     <use xlink:href="#mfe1d2515bb" x="370.73633" y="337.354442" style="fill: #808080; fill-opacity: 0.85; stroke: #808080; stroke-opacity: 0.85"/>
     <use xlink:href="#mfe1d2515bb" x="322.658281" y="300.300371" style="fill: #808080; fill-opacity: 0.85; stroke: #808080; stroke-opacity: 0.85"/>
     <use xlink:href="#mfe1d2515bb" x="437.754216" y="239.755435" style="fill: #808080; fill-opacity: 0.85; stroke: #808080; stroke-opacity: 0.85"/>
     <use xlink:href="#mfe1d2515bb" x="322.658281" y="297.039781" style="fill: #808080; fill-opacity: 0.85; stroke: #808080; stroke-opacity: 0.85"/>
     <use xlink:href="#mfe1d2515bb" x="337.227387" y="278.227723" style="fill: #808080; fill-opacity: 0.85; stroke: #808080; stroke-opacity: 0.85"/>
    </g>
   </g>
   <g id="matplotlib.axis_7">
    <g id="xtick_19">
     <g id="line2d_38">
      <g>
       <use xlink:href="#m1af7c180ea" x="322.658281" y="357.838125" style="stroke: #000000; stroke-width: 0.8"/>
      </g>
     </g>
     <g id="text_38">
      <!-- 0 -->
      <g transform="translate(319.158906 373.196406) scale(0.11 -0.11)">
       <use xlink:href="#DejaVuSans-30"/>
      </g>
     </g>
    </g>
    <g id="xtick_20">
     <g id="line2d_39">
      <g>
       <use xlink:href="#m1af7c180ea" x="358.498281" y="357.838125" style="stroke: #000000; stroke-width: 0.8"/>
      </g>
     </g>
     <g id="text_39">
      <!-- 246 -->
      <g transform="translate(348.000156 373.196406) scale(0.11 -0.11)">
       <use xlink:href="#DejaVuSans-32"/>
       <use xlink:href="#DejaVuSans-34" transform="translate(63.623047 0)"/>
       <use xlink:href="#DejaVuSans-36" transform="translate(127.246094 0)"/>
      </g>
     </g>
    </g>
    <g id="xtick_21">
     <g id="line2d_40">
      <g>
       <use xlink:href="#m1af7c180ea" x="394.338281" y="357.838125" style="stroke: #000000; stroke-width: 0.8"/>
      </g>
     </g>
     <g id="text_40">
      <!-- 492 -->
      <g transform="translate(383.840156 373.196406) scale(0.11 -0.11)">
       <use xlink:href="#DejaVuSans-34"/>
       <use xlink:href="#DejaVuSans-39" transform="translate(63.623047 0)"/>
       <use xlink:href="#DejaVuSans-32" transform="translate(127.246094 0)"/>
      </g>
     </g>
    </g>
    <g id="xtick_22">
     <g id="line2d_41">
      <g>
       <use xlink:href="#m1af7c180ea" x="430.178281" y="357.838125" style="stroke: #000000; stroke-width: 0.8"/>
      </g>
     </g>
     <g id="text_41">
      <!-- 738 -->
      <g transform="translate(419.680156 373.196406) scale(0.11 -0.11)">
       <use xlink:href="#DejaVuSans-37"/>
       <use xlink:href="#DejaVuSans-33" transform="translate(63.623047 0)"/>
       <use xlink:href="#DejaVuSans-38" transform="translate(127.246094 0)"/>
      </g>
     </g>
    </g>
    <g id="xtick_23">
     <g id="line2d_42">
      <g>
       <use xlink:href="#m1af7c180ea" x="466.018281" y="357.838125" style="stroke: #000000; stroke-width: 0.8"/>
      </g>
     </g>
     <g id="text_42">
      <!-- 984 -->
      <g transform="translate(455.520156 373.196406) scale(0.11 -0.11)">
       <use xlink:href="#DejaVuSans-39"/>
       <use xlink:href="#DejaVuSans-38" transform="translate(63.623047 0)"/>
       <use xlink:href="#DejaVuSans-34" transform="translate(127.246094 0)"/>
      </g>
     </g>
    </g>
    <g id="xtick_24">
     <g id="line2d_43">
      <g>
       <use xlink:href="#m1af7c180ea" x="501.858281" y="357.838125" style="stroke: #000000; stroke-width: 0.8"/>
      </g>
     </g>
     <g id="text_43">
      <!-- 1230 -->
      <g transform="translate(487.860781 373.196406) scale(0.11 -0.11)">
       <use xlink:href="#DejaVuSans-31"/>
       <use xlink:href="#DejaVuSans-32" transform="translate(63.623047 0)"/>
       <use xlink:href="#DejaVuSans-33" transform="translate(127.246094 0)"/>
       <use xlink:href="#DejaVuSans-30" transform="translate(190.869141 0)"/>
      </g>
     </g>
    </g>
    <g id="text_44">
     <!-- Daily medication dose -->
     <g transform="translate(331.130156 389.362031) scale(0.13 -0.13)">
      <use xlink:href="#DejaVuSans-Bold-44"/>
      <use xlink:href="#DejaVuSans-Bold-61" transform="translate(83.007812 0)"/>
      <use xlink:href="#DejaVuSans-Bold-69" transform="translate(150.488281 0)"/>
      <use xlink:href="#DejaVuSans-Bold-6c" transform="translate(184.765625 0)"/>
      <use xlink:href="#DejaVuSans-Bold-79" transform="translate(219.042969 0)"/>
      <use xlink:href="#DejaVuSans-Bold-20" transform="translate(284.228516 0)"/>
      <use xlink:href="#DejaVuSans-Bold-6d" transform="translate(319.042969 0)"/>
      <use xlink:href="#DejaVuSans-Bold-65" transform="translate(423.242188 0)"/>
      <use xlink:href="#DejaVuSans-Bold-64" transform="translate(491.064453 0)"/>
      <use xlink:href="#DejaVuSans-Bold-69" transform="translate(562.646484 0)"/>
      <use xlink:href="#DejaVuSans-Bold-63" transform="translate(596.923828 0)"/>
      <use xlink:href="#DejaVuSans-Bold-61" transform="translate(656.201172 0)"/>
      <use xlink:href="#DejaVuSans-Bold-74" transform="translate(723.681641 0)"/>
      <use xlink:href="#DejaVuSans-Bold-69" transform="translate(771.484375 0)"/>
      <use xlink:href="#DejaVuSans-Bold-6f" transform="translate(805.761719 0)"/>
      <use xlink:href="#DejaVuSans-Bold-6e" transform="translate(874.462891 0)"/>
      <use xlink:href="#DejaVuSans-Bold-20" transform="translate(945.654297 0)"/>
      <use xlink:href="#DejaVuSans-Bold-64" transform="translate(980.46875 0)"/>
      <use xlink:href="#DejaVuSans-Bold-6f" transform="translate(1052.050781 0)"/>
      <use xlink:href="#DejaVuSans-Bold-73" transform="translate(1120.751953 0)"/>
      <use xlink:href="#DejaVuSans-Bold-65" transform="translate(1180.273438 0)"/>
     </g>
    </g>
   </g>
   <g id="matplotlib.axis_8">
    <g id="ytick_17">
     <g id="line2d_44">
      <g>
       <use xlink:href="#m6d3d5ced65" x="313.698281" y="353.431854" style="stroke: #000000; stroke-width: 0.8"/>
      </g>
     </g>
    </g>
    <g id="ytick_18">
     <g id="line2d_45">
      <g>
       <use xlink:href="#m6d3d5ced65" x="313.698281" y="327.366807" style="stroke: #000000; stroke-width: 0.8"/>
      </g>
     </g>
    </g>
    <g id="ytick_19">
     <g id="line2d_46">
      <g>
       <use xlink:href="#m6d3d5ced65" x="313.698281" y="301.30176" style="stroke: #000000; stroke-width: 0.8"/>
      </g>
     </g>
    </g>
    <g id="ytick_20">
     <g id="line2d_47">
      <g>
       <use xlink:href="#m6d3d5ced65" x="313.698281" y="275.236713" style="stroke: #000000; stroke-width: 0.8"/>
      </g>
     </g>
    </g>
    <g id="ytick_21">
     <g id="line2d_48">
      <g>
       <use xlink:href="#m6d3d5ced65" x="313.698281" y="249.171667" style="stroke: #000000; stroke-width: 0.8"/>
      </g>
     </g>
    </g>
    <g id="ytick_22">
     <g id="line2d_49">
      <g>
       <use xlink:href="#m6d3d5ced65" x="313.698281" y="223.10662" style="stroke: #000000; stroke-width: 0.8"/>
      </g>
     </g>
    </g>
   </g>
   <g id="line2d_50">
    <path d="M 322.658281 304.250387 
L 324.468382 303.996091 
L 326.278483 303.741794 
L 328.088584 303.487498 
L 329.898685 303.233202 
L 331.708786 302.978906 
L 333.518887 302.724609 
L 335.328988 302.470313 
L 337.139089 302.216017 
L 338.94919 301.96172 
L 340.759291 301.707424 
L 342.569392 301.453128 
L 344.379493 301.198832 
L 346.189594 300.944535 
L 347.999695 300.690239 
L 349.809796 300.435943 
L 351.619897 300.181647 
L 353.429998 299.92735 
L 355.240099 299.673054 
L 357.0502 299.418758 
L 358.860301 299.164462 
L 360.670402 298.910165 
L 362.480503 298.655869 
L 364.290604 298.401573 
L 366.100705 298.147277 
L 367.910807 297.89298 
L 369.720908 297.638684 
L 371.531009 297.384388 
L 373.34111 297.130092 
L 375.151211 296.875795 
L 376.961312 296.621499 
L 378.771413 296.367203 
L 380.581514 296.112907 
L 382.391615 295.85861 
L 384.201716 295.604314 
L 386.011817 295.350018 
L 387.821918 295.095722 
L 389.632019 294.841425 
L 391.44212 294.587129 
L 393.252221 294.332833 
L 395.062322 294.078537 
L 396.872423 293.82424 
L 398.682524 293.569944 
L 400.492625 293.315648 
L 402.302726 293.061352 
L 404.112827 292.807055 
L 405.922928 292.552759 
L 407.733029 292.298463 
L 409.54313 292.044166 
L 411.353231 291.78987 
L 413.163332 291.535574 
L 414.973433 291.281278 
L 416.783534 291.026981 
L 418.593635 290.772685 
L 420.403736 290.518389 
L 422.213837 290.264093 
L 424.023938 290.009796 
L 425.834039 289.7555 
L 427.64414 289.501204 
L 429.454241 289.246908 
L 431.264342 288.992611 
L 433.074443 288.738315 
L 434.884544 288.484019 
L 436.694645 288.229723 
L 438.504746 287.975426 
L 440.314847 287.72113 
L 442.124948 287.466834 
L 443.935049 287.212538 
L 445.74515 286.958241 
L 447.555251 286.703945 
L 449.365352 286.449649 
L 451.175453 286.195353 
L 452.985554 285.941056 
L 454.795655 285.68676 
L 456.605756 285.432464 
L 458.415857 285.178168 
L 460.225958 284.923871 
L 462.036059 284.669575 
L 463.84616 284.415279 
L 465.656261 284.160983 
L 467.466362 283.906686 
L 469.276463 283.65239 
L 471.086564 283.398094 
L 472.896665 283.143798 
L 474.706766 282.889501 
L 476.516867 282.635205 
L 478.326968 282.380909 
L 480.137069 282.126612 
L 481.94717 281.872316 
L 483.757271 281.61802 
L 485.567372 281.363724 
L 487.377473 281.109427 
L 489.187574 280.855131 
L 490.997675 280.600835 
L 492.807776 280.346539 
L 494.617877 280.092242 
L 496.427978 279.837946 
L 498.238079 279.58365 
L 500.04818 279.329354 
L 501.858281 279.075057 
" clip-path="url(#peb6a18f720)" style="fill: none; stroke: #ffa500; stroke-width: 2.25; stroke-linecap: square"/>
   </g>
   <g id="patch_12">
    <path d="M 313.698281 357.838125 
L 313.698281 213.838125 
" style="fill: none; stroke: #000000; stroke-width: 0.8; stroke-linejoin: miter; stroke-linecap: square"/>
   </g>
   <g id="patch_13">
    <path d="M 313.698281 357.838125 
L 510.818281 357.838125 
" style="fill: none; stroke: #000000; stroke-width: 0.8; stroke-linejoin: miter; stroke-linecap: square"/>
   </g>
   <g id="text_45">
    <!-- r=0.25 -->
    <g transform="translate(447.739881 232.956563) scale(0.1 -0.1)">
     <use xlink:href="#DejaVuSans-72"/>
     <use xlink:href="#DejaVuSans-3d" transform="translate(41.113281 0)"/>
     <use xlink:href="#DejaVuSans-30" transform="translate(124.902344 0)"/>
     <use xlink:href="#DejaVuSans-2e" transform="translate(188.525391 0)"/>
     <use xlink:href="#DejaVuSans-32" transform="translate(220.3125 0)"/>
     <use xlink:href="#DejaVuSans-35" transform="translate(283.935547 0)"/>
    </g>
    <!-- p=0.308 -->
    <g transform="translate(447.739881 244.154375) scale(0.1 -0.1)">
     <use xlink:href="#DejaVuSans-70"/>
     <use xlink:href="#DejaVuSans-3d" transform="translate(63.476562 0)"/>
     <use xlink:href="#DejaVuSans-30" transform="translate(147.265625 0)"/>
     <use xlink:href="#DejaVuSans-2e" transform="translate(210.888672 0)"/>
     <use xlink:href="#DejaVuSans-33" transform="translate(242.675781 0)"/>
     <use xlink:href="#DejaVuSans-30" transform="translate(306.298828 0)"/>
     <use xlink:href="#DejaVuSans-38" transform="translate(369.921875 0)"/>
    </g>
   </g>
  </g>
 </g>
 <defs>
  <clipPath id="pff81286f12">
   <rect x="67.298281" y="29.518125" width="197.12" height="144"/>
  </clipPath>
  <clipPath id="pe9311625a1">
   <rect x="313.698281" y="29.518125" width="197.12" height="144"/>
  </clipPath>
  <clipPath id="p5a2ecc2597">
   <rect x="67.298281" y="213.838125" width="197.12" height="144"/>
  </clipPath>
  <clipPath id="peb6a18f720">
   <rect x="313.698281" y="213.838125" width="197.12" height="144"/>
  </clipPath>
 </defs>
</svg>
