<?xml version="1.0" encoding="utf-8" standalone="no"?>
<!DOCTYPE svg PUBLIC "-//W3C//DTD SVG 1.1//EN"
  "http://www.w3.org/Graphics/SVG/1.1/DTD/svg11.dtd">
<svg xmlns:xlink="http://www.w3.org/1999/xlink" width="525.218281pt" height="406.465625pt" viewBox="0 0 525.218281 406.465625" xmlns="http://www.w3.org/2000/svg" version="1.1">
 <metadata>
  <rdf:RDF xmlns:dc="http://purl.org/dc/elements/1.1/" xmlns:cc="http://creativecommons.org/ns#" xmlns:rdf="http://www.w3.org/1999/02/22-rdf-syntax-ns#">
   <cc:Work>
    <dc:type rdf:resource="http://purl.org/dc/dcmitype/StillImage"/>
    <dc:date>2026-01-12T16:05:47.947900</dc:date>
    <dc:format>image/svg+xml</dc:format>
    <dc:creator>
     <cc:Agent>
      <dc:title>Matplotlib v3.10.7, https://matplotlib.org/</dc:title>
     </cc:Agent>
    </dc:creator>
   </cc:Work>
  </rdf:RDF>
 </metadata>
 <defs>
  <style type="text/css">*{stroke-linejoin: round; stroke-linecap: butt}</style>
 </defs>
 <g id="figure_1">
  <g id="patch_1">
   <path d="M 0 406.465625 
L 525.218281 406.465625 
L 525.218281 0 
L 0 0 
z
" style="fill: #ffffff"/>
  </g>
  <g id="axes_1">
   <g id="patch_2">
    <path d="M 67.298281 173.518125 
L 264.418281 173.518125 
L 264.418281 29.518125 
L 67.298281 29.518125 
z
" style="fill: #ffffff"/>
   </g>
   <g id="FillBetweenPolyCollection_1">
    <path d="M 76.258281 130.437829 
L 76.258281 159.238963 
L 78.068382 158.225338 
L 79.878483 157.237582 
L 81.688584 156.257531 
L 83.498685 155.155973 
L 85.308786 154.149807 
L 87.118887 153.069622 
L 88.928988 152.096329 
L 90.739089 151.239029 
L 92.54919 150.35403 
L 94.359291 149.608143 
L 96.169392 149.087918 
L 97.979493 148.533981 
L 99.789594 148.176132 
L 101.599695 147.820635 
L 103.409796 147.551918 
L 105.219897 147.321581 
L 107.029998 146.949485 
L 108.840099 146.706197 
L 110.6502 146.521679 
L 112.460301 146.523541 
L 114.270402 146.378514 
L 116.080503 146.364304 
L 117.890604 146.294693 
L 119.700705 146.191382 
L 121.510807 146.094292 
L 123.320908 145.900842 
L 125.131009 145.704593 
L 126.94111 145.508344 
L 128.751211 145.444436 
L 130.561312 145.488183 
L 132.371413 145.553005 
L 134.181514 145.496218 
L 135.991615 145.390157 
L 137.801716 145.322065 
L 139.611817 145.341883 
L 141.421918 145.39355 
L 143.232019 145.448617 
L 145.04212 145.388971 
L 146.852221 145.321981 
L 148.662322 145.263971 
L 150.472423 145.245144 
L 152.282524 145.273424 
L 154.092625 145.284781 
L 155.902726 145.250542 
L 157.712827 145.344883 
L 159.522928 145.372129 
L 161.333029 145.300667 
L 163.14313 145.227518 
L 164.953231 145.185018 
L 166.763332 145.211451 
L 168.573433 145.237884 
L 170.383534 145.264318 
L 172.193635 145.217432 
L 174.003736 145.161101 
L 175.813837 145.10477 
L 177.623938 145.075495 
L 179.434039 145.178124 
L 181.24414 145.279467 
L 183.054241 145.321164 
L 184.864342 145.259098 
L 186.674443 145.195357 
L 188.484544 145.175536 
L 190.294645 145.341681 
L 192.104746 145.320289 
L 193.914847 145.296409 
L 195.724948 145.301963 
L 197.535049 145.35198 
L 199.34515 145.401997 
L 201.155251 145.452014 
L 202.965352 145.502031 
L 204.775453 145.552048 
L 206.585554 145.602065 
L 208.395655 145.652082 
L 210.205756 145.702099 
L 212.015857 145.752116 
L 213.825958 145.802133 
L 215.636059 145.85215 
L 217.44616 145.902167 
L 219.256261 145.956898 
L 221.066362 146.001228 
L 222.876463 146.052217 
L 224.686564 146.102234 
L 226.496665 146.151053 
L 228.306766 146.180214 
L 230.116867 146.209374 
L 231.926968 146.238534 
L 233.737069 146.267694 
L 235.54717 146.296855 
L 237.357271 146.324478 
L 239.167372 146.351679 
L 240.977473 146.380546 
L 242.787574 146.411172 
L 244.597675 146.441797 
L 246.407776 146.478075 
L 248.217877 146.58935 
L 250.027978 146.700626 
L 251.838079 146.811901 
L 253.64818 146.911089 
L 255.458281 146.963211 
L 255.458281 36.06358 
L 255.458281 36.06358 
L 253.64818 37.271471 
L 251.838079 38.479363 
L 250.027978 39.687962 
L 248.217877 40.897295 
L 246.407776 42.106628 
L 244.597675 43.315962 
L 242.787574 44.525295 
L 240.977473 45.734628 
L 239.167372 47.022446 
L 237.357271 48.318696 
L 235.54717 49.614946 
L 233.737069 50.911196 
L 231.926968 52.207446 
L 230.116867 53.503696 
L 228.306766 54.799946 
L 226.496665 56.096196 
L 224.686564 57.392446 
L 222.876463 58.689013 
L 221.066362 59.881145 
L 219.256261 61.036022 
L 217.44616 62.1909 
L 215.636059 63.345777 
L 213.825958 64.500654 
L 212.015857 65.655531 
L 210.205756 66.810409 
L 208.395655 67.965286 
L 206.585554 69.120163 
L 204.775453 70.27504 
L 202.965352 71.466601 
L 201.155251 72.705265 
L 199.34515 73.943929 
L 197.535049 75.182593 
L 195.724948 76.421257 
L 193.914847 77.602721 
L 192.104746 78.768367 
L 190.294645 79.934875 
L 188.484544 81.10188 
L 186.674443 82.268885 
L 184.864342 83.437293 
L 183.054241 84.625268 
L 181.24414 85.774866 
L 179.434039 86.940203 
L 177.623938 88.10554 
L 175.813837 89.272765 
L 174.003736 90.490219 
L 172.193635 91.645507 
L 170.383534 92.808675 
L 168.573433 94.003448 
L 166.763332 95.140298 
L 164.953231 96.277147 
L 163.14313 97.43434 
L 161.333029 98.599572 
L 159.522928 99.764803 
L 157.712827 100.930035 
L 155.902726 102.0022 
L 154.092625 103.093128 
L 152.282524 104.227246 
L 150.472423 105.362869 
L 148.662322 106.502111 
L 146.852221 107.754035 
L 145.04212 109.014139 
L 143.232019 110.259044 
L 141.421918 111.539043 
L 139.611817 112.592488 
L 137.801716 113.976988 
L 135.991615 115.319579 
L 134.181514 116.492283 
L 132.371413 117.689209 
L 130.561312 118.799171 
L 128.751211 119.879886 
L 126.94111 120.750096 
L 125.131009 121.498927 
L 123.320908 122.406883 
L 121.510807 123.295902 
L 119.700705 124.105073 
L 117.890604 124.854681 
L 116.080503 125.616324 
L 114.270402 126.337696 
L 112.460301 127.005894 
L 110.6502 127.604888 
L 108.840099 128.097089 
L 107.029998 128.334164 
L 105.219897 128.681827 
L 103.409796 128.758629 
L 101.599695 129.260684 
L 99.789594 129.36259 
L 97.979493 129.572792 
L 96.169392 129.743057 
L 94.359291 129.83899 
L 92.54919 129.99357 
L 90.739089 130.199605 
L 88.928988 130.200912 
L 87.118887 130.20162 
L 85.308786 130.203282 
L 83.498685 130.28916 
L 81.688584 130.429224 
L 79.878483 130.336966 
L 78.068382 130.454975 
L 76.258281 130.437829 
z
" clip-path="url(#p53c1f4d21f)" style="fill: #ffa500; fill-opacity: 0.15"/>
   </g>
   <g id="PathCollection_1">
    <defs>
     <path id="ma9e80009c0" d="M -2.645751 2.645751 
L 2.645751 2.645751 
L 2.645751 -2.645751 
L -2.645751 -2.645751 
z
" style="stroke: #808080; stroke-opacity: 0.85"/>
    </defs>
    <g clip-path="url(#p53c1f4d21f)">
     <use xlink:href="#ma9e80009c0" x="101.858281" y="138.919685" style="fill: #808080; fill-opacity: 0.85; stroke: #808080; stroke-opacity: 0.85"/>
     <use xlink:href="#ma9e80009c0" x="76.258281" y="152.735091" style="fill: #808080; fill-opacity: 0.85; stroke: #808080; stroke-opacity: 0.85"/>
     <use xlink:href="#ma9e80009c0" x="153.058281" y="134.749038" style="fill: #808080; fill-opacity: 0.85; stroke: #808080; stroke-opacity: 0.85"/>
     <use xlink:href="#ma9e80009c0" x="153.058281" y="123.154645" style="fill: #808080; fill-opacity: 0.85; stroke: #808080; stroke-opacity: 0.85"/>
     <use xlink:href="#ma9e80009c0" x="96.738281" y="145.117779" style="fill: #808080; fill-opacity: 0.85; stroke: #808080; stroke-opacity: 0.85"/>
     <use xlink:href="#ma9e80009c0" x="91.618281" y="128.608646" style="fill: #808080; fill-opacity: 0.85; stroke: #808080; stroke-opacity: 0.85"/>
     <use xlink:href="#ma9e80009c0" x="142.818281" y="134.574977" style="fill: #808080; fill-opacity: 0.85; stroke: #808080; stroke-opacity: 0.85"/>
     <use xlink:href="#ma9e80009c0" x="101.858281" y="146.109608" style="fill: #808080; fill-opacity: 0.85; stroke: #808080; stroke-opacity: 0.85"/>
    </g>
   </g>
   <g id="PathCollection_2">
    <defs>
     <path id="m52c645c744" d="M 0 -2.645751 
L -2.645751 2.645751 
L 2.645751 2.645751 
z
" style="stroke: #808080; stroke-opacity: 0.85"/>
    </defs>
    <g clip-path="url(#p53c1f4d21f)">
     <use xlink:href="#m52c645c744" x="142.818281" y="151.580634" style="fill: #808080; fill-opacity: 0.85; stroke: #808080; stroke-opacity: 0.85"/>
     <use xlink:href="#m52c645c744" x="76.258281" y="153.506946" style="fill: #808080; fill-opacity: 0.85; stroke: #808080; stroke-opacity: 0.85"/>
     <use xlink:href="#m52c645c744" x="255.458281" y="144.49274" style="fill: #808080; fill-opacity: 0.85; stroke: #808080; stroke-opacity: 0.85"/>
     <use xlink:href="#m52c645c744" x="101.858281" y="152.535919" style="fill: #808080; fill-opacity: 0.85; stroke: #808080; stroke-opacity: 0.85"/>
     <use xlink:href="#m52c645c744" x="153.058281" y="166.97267" style="fill: #808080; fill-opacity: 0.85; stroke: #808080; stroke-opacity: 0.85"/>
     <use xlink:href="#m52c645c744" x="142.818281" y="89.591898" style="fill: #808080; fill-opacity: 0.85; stroke: #808080; stroke-opacity: 0.85"/>
     <use xlink:href="#m52c645c744" x="78.818281" y="152.25581" style="fill: #808080; fill-opacity: 0.85; stroke: #808080; stroke-opacity: 0.85"/>
     <use xlink:href="#m52c645c744" x="173.538281" y="63.160011" style="fill: #808080; fill-opacity: 0.85; stroke: #808080; stroke-opacity: 0.85"/>
     <use xlink:href="#m52c645c744" x="91.618281" y="154.319486" style="fill: #808080; fill-opacity: 0.85; stroke: #808080; stroke-opacity: 0.85"/>
     <use xlink:href="#m52c645c744" x="91.618281" y="107.598844" style="fill: #808080; fill-opacity: 0.85; stroke: #808080; stroke-opacity: 0.85"/>
    </g>
   </g>
   <g id="matplotlib.axis_1">
    <g id="xtick_1">
     <g id="line2d_1">
      <defs>
       <path id="m5813f2cfdb" d="M 0 0 
L 0 3.5 
" style="stroke: #000000; stroke-width: 0.8"/>
      </defs>
      <g>
       <use xlink:href="#m5813f2cfdb" x="71.138281" y="173.518125" style="stroke: #000000; stroke-width: 0.8"/>
      </g>
     </g>
     <g id="text_1">
      <!-- 0 -->
      <g transform="translate(67.638906 188.876406) scale(0.11 -0.11)">
       <defs>
        <path id="DejaVuSans-30" d="M 2034 4250 
Q 1547 4250 1301 3770 
Q 1056 3291 1056 2328 
Q 1056 1369 1301 889 
Q 1547 409 2034 409 
Q 2525 409 2770 889 
Q 3016 1369 3016 2328 
Q 3016 3291 2770 3770 
Q 2525 4250 2034 4250 
z
M 2034 4750 
Q 2819 4750 3233 4129 
Q 3647 3509 3647 2328 
Q 3647 1150 3233 529 
Q 2819 -91 2034 -91 
Q 1250 -91 836 529 
Q 422 1150 422 2328 
Q 422 3509 836 4129 
Q 1250 4750 2034 4750 
z
" transform="scale(0.015625)"/>
       </defs>
       <use xlink:href="#DejaVuSans-30"/>
      </g>
     </g>
    </g>
    <g id="xtick_2">
     <g id="line2d_2">
      <g>
       <use xlink:href="#m5813f2cfdb" x="101.858281" y="173.518125" style="stroke: #000000; stroke-width: 0.8"/>
      </g>
     </g>
     <g id="text_2">
      <!-- 3 -->
      <g transform="translate(98.358906 188.876406) scale(0.11 -0.11)">
       <defs>
        <path id="DejaVuSans-33" d="M 2597 2516 
Q 3050 2419 3304 2112 
Q 3559 1806 3559 1356 
Q 3559 666 3084 287 
Q 2609 -91 1734 -91 
Q 1441 -91 1130 -33 
Q 819 25 488 141 
L 488 750 
Q 750 597 1062 519 
Q 1375 441 1716 441 
Q 2309 441 2620 675 
Q 2931 909 2931 1356 
Q 2931 1769 2642 2001 
Q 2353 2234 1838 2234 
L 1294 2234 
L 1294 2753 
L 1863 2753 
Q 2328 2753 2575 2939 
Q 2822 3125 2822 3475 
Q 2822 3834 2567 4026 
Q 2313 4219 1838 4219 
Q 1578 4219 1281 4162 
Q 984 4106 628 3988 
L 628 4550 
Q 988 4650 1302 4700 
Q 1616 4750 1894 4750 
Q 2613 4750 3031 4423 
Q 3450 4097 3450 3541 
Q 3450 3153 3228 2886 
Q 3006 2619 2597 2516 
z
" transform="scale(0.015625)"/>
       </defs>
       <use xlink:href="#DejaVuSans-33"/>
      </g>
     </g>
    </g>
    <g id="xtick_3">
     <g id="line2d_3">
      <g>
       <use xlink:href="#m5813f2cfdb" x="132.578281" y="173.518125" style="stroke: #000000; stroke-width: 0.8"/>
      </g>
     </g>
     <g id="text_3">
      <!-- 6 -->
      <g transform="translate(129.078906 188.876406) scale(0.11 -0.11)">
       <defs>
        <path id="DejaVuSans-36" d="M 2113 2584 
Q 1688 2584 1439 2293 
Q 1191 2003 1191 1497 
Q 1191 994 1439 701 
Q 1688 409 2113 409 
Q 2538 409 2786 701 
Q 3034 994 3034 1497 
Q 3034 2003 2786 2293 
Q 2538 2584 2113 2584 
z
M 3366 4563 
L 3366 3988 
Q 3128 4100 2886 4159 
Q 2644 4219 2406 4219 
Q 1781 4219 1451 3797 
Q 1122 3375 1075 2522 
Q 1259 2794 1537 2939 
Q 1816 3084 2150 3084 
Q 2853 3084 3261 2657 
Q 3669 2231 3669 1497 
Q 3669 778 3244 343 
Q 2819 -91 2113 -91 
Q 1303 -91 875 529 
Q 447 1150 447 2328 
Q 447 3434 972 4092 
Q 1497 4750 2381 4750 
Q 2619 4750 2861 4703 
Q 3103 4656 3366 4563 
z
" transform="scale(0.015625)"/>
       </defs>
       <use xlink:href="#DejaVuSans-36"/>
      </g>
     </g>
    </g>
    <g id="xtick_4">
     <g id="line2d_4">
      <g>
       <use xlink:href="#m5813f2cfdb" x="163.298281" y="173.518125" style="stroke: #000000; stroke-width: 0.8"/>
      </g>
     </g>
     <g id="text_4">
      <!-- 9 -->
      <g transform="translate(159.798906 188.876406) scale(0.11 -0.11)">
       <defs>
        <path id="DejaVuSans-39" d="M 703 97 
L 703 672 
Q 941 559 1184 500 
Q 1428 441 1663 441 
Q 2288 441 2617 861 
Q 2947 1281 2994 2138 
Q 2813 1869 2534 1725 
Q 2256 1581 1919 1581 
Q 1219 1581 811 2004 
Q 403 2428 403 3163 
Q 403 3881 828 4315 
Q 1253 4750 1959 4750 
Q 2769 4750 3195 4129 
Q 3622 3509 3622 2328 
Q 3622 1225 3098 567 
Q 2575 -91 1691 -91 
Q 1453 -91 1209 -44 
Q 966 3 703 97 
z
M 1959 2075 
Q 2384 2075 2632 2365 
Q 2881 2656 2881 3163 
Q 2881 3666 2632 3958 
Q 2384 4250 1959 4250 
Q 1534 4250 1286 3958 
Q 1038 3666 1038 3163 
Q 1038 2656 1286 2365 
Q 1534 2075 1959 2075 
z
" transform="scale(0.015625)"/>
       </defs>
       <use xlink:href="#DejaVuSans-39"/>
      </g>
     </g>
    </g>
    <g id="xtick_5">
     <g id="line2d_5">
      <g>
       <use xlink:href="#m5813f2cfdb" x="194.018281" y="173.518125" style="stroke: #000000; stroke-width: 0.8"/>
      </g>
     </g>
     <g id="text_5">
      <!-- 12 -->
      <g transform="translate(187.019531 188.876406) scale(0.11 -0.11)">
       <defs>
        <path id="DejaVuSans-31" d="M 794 531 
L 1825 531 
L 1825 4091 
L 703 3866 
L 703 4441 
L 1819 4666 
L 2450 4666 
L 2450 531 
L 3481 531 
L 3481 0 
L 794 0 
L 794 531 
z
" transform="scale(0.015625)"/>
        <path id="DejaVuSans-32" d="M 1228 531 
L 3431 531 
L 3431 0 
L 469 0 
L 469 531 
Q 828 903 1448 1529 
Q 2069 2156 2228 2338 
Q 2531 2678 2651 2914 
Q 2772 3150 2772 3378 
Q 2772 3750 2511 3984 
Q 2250 4219 1831 4219 
Q 1534 4219 1204 4116 
Q 875 4013 500 3803 
L 500 4441 
Q 881 4594 1212 4672 
Q 1544 4750 1819 4750 
Q 2544 4750 2975 4387 
Q 3406 4025 3406 3419 
Q 3406 3131 3298 2873 
Q 3191 2616 2906 2266 
Q 2828 2175 2409 1742 
Q 1991 1309 1228 531 
z
" transform="scale(0.015625)"/>
       </defs>
       <use xlink:href="#DejaVuSans-31"/>
       <use xlink:href="#DejaVuSans-32" transform="translate(63.623047 0)"/>
      </g>
     </g>
    </g>
    <g id="xtick_6">
     <g id="line2d_6">
      <g>
       <use xlink:href="#m5813f2cfdb" x="224.738281" y="173.518125" style="stroke: #000000; stroke-width: 0.8"/>
      </g>
     </g>
     <g id="text_6">
      <!-- 15 -->
      <g transform="translate(217.739531 188.876406) scale(0.11 -0.11)">
       <defs>
        <path id="DejaVuSans-35" d="M 691 4666 
L 3169 4666 
L 3169 4134 
L 1269 4134 
L 1269 2991 
Q 1406 3038 1543 3061 
Q 1681 3084 1819 3084 
Q 2600 3084 3056 2656 
Q 3513 2228 3513 1497 
Q 3513 744 3044 326 
Q 2575 -91 1722 -91 
Q 1428 -91 1123 -41 
Q 819 9 494 109 
L 494 744 
Q 775 591 1075 516 
Q 1375 441 1709 441 
Q 2250 441 2565 725 
Q 2881 1009 2881 1497 
Q 2881 1984 2565 2268 
Q 2250 2553 1709 2553 
Q 1456 2553 1204 2497 
Q 953 2441 691 2322 
L 691 4666 
z
" transform="scale(0.015625)"/>
       </defs>
       <use xlink:href="#DejaVuSans-31"/>
       <use xlink:href="#DejaVuSans-35" transform="translate(63.623047 0)"/>
      </g>
     </g>
    </g>
    <g id="xtick_7">
     <g id="line2d_7">
      <g>
       <use xlink:href="#m5813f2cfdb" x="255.458281" y="173.518125" style="stroke: #000000; stroke-width: 0.8"/>
      </g>
     </g>
     <g id="text_7">
      <!-- 18 -->
      <g transform="translate(248.459531 188.876406) scale(0.11 -0.11)">
       <defs>
        <path id="DejaVuSans-38" d="M 2034 2216 
Q 1584 2216 1326 1975 
Q 1069 1734 1069 1313 
Q 1069 891 1326 650 
Q 1584 409 2034 409 
Q 2484 409 2743 651 
Q 3003 894 3003 1313 
Q 3003 1734 2745 1975 
Q 2488 2216 2034 2216 
z
M 1403 2484 
Q 997 2584 770 2862 
Q 544 3141 544 3541 
Q 544 4100 942 4425 
Q 1341 4750 2034 4750 
Q 2731 4750 3128 4425 
Q 3525 4100 3525 3541 
Q 3525 3141 3298 2862 
Q 3072 2584 2669 2484 
Q 3125 2378 3379 2068 
Q 3634 1759 3634 1313 
Q 3634 634 3220 271 
Q 2806 -91 2034 -91 
Q 1263 -91 848 271 
Q 434 634 434 1313 
Q 434 1759 690 2068 
Q 947 2378 1403 2484 
z
M 1172 3481 
Q 1172 3119 1398 2916 
Q 1625 2713 2034 2713 
Q 2441 2713 2670 2916 
Q 2900 3119 2900 3481 
Q 2900 3844 2670 4047 
Q 2441 4250 2034 4250 
Q 1625 4250 1398 4047 
Q 1172 3844 1172 3481 
z
" transform="scale(0.015625)"/>
       </defs>
       <use xlink:href="#DejaVuSans-31"/>
       <use xlink:href="#DejaVuSans-38" transform="translate(63.623047 0)"/>
      </g>
     </g>
    </g>
   </g>
   <g id="matplotlib.axis_2">
    <g id="ytick_1">
     <g id="line2d_8">
      <defs>
       <path id="mfa6cbeec6a" d="M 0 0 
L -3.5 0 
" style="stroke: #000000; stroke-width: 0.8"/>
      </defs>
      <g>
       <use xlink:href="#mfa6cbeec6a" x="67.298281" y="158.061803" style="stroke: #000000; stroke-width: 0.8"/>
      </g>
     </g>
     <g id="text_8">
      <!-- 0 -->
      <g transform="translate(53.299531 162.240944) scale(0.11 -0.11)">
       <use xlink:href="#DejaVuSans-30"/>
      </g>
     </g>
    </g>
    <g id="ytick_2">
     <g id="line2d_9">
      <g>
       <use xlink:href="#mfa6cbeec6a" x="67.298281" y="129.097855" style="stroke: #000000; stroke-width: 0.8"/>
      </g>
     </g>
     <g id="text_9">
      <!-- 25 -->
      <g transform="translate(46.300781 133.276996) scale(0.11 -0.11)">
       <use xlink:href="#DejaVuSans-32"/>
       <use xlink:href="#DejaVuSans-35" transform="translate(63.623047 0)"/>
      </g>
     </g>
    </g>
    <g id="ytick_3">
     <g id="line2d_10">
      <g>
       <use xlink:href="#mfa6cbeec6a" x="67.298281" y="100.133907" style="stroke: #000000; stroke-width: 0.8"/>
      </g>
     </g>
     <g id="text_10">
      <!-- 50 -->
      <g transform="translate(46.300781 104.313048) scale(0.11 -0.11)">
       <use xlink:href="#DejaVuSans-35"/>
       <use xlink:href="#DejaVuSans-30" transform="translate(63.623047 0)"/>
      </g>
     </g>
    </g>
    <g id="ytick_4">
     <g id="line2d_11">
      <g>
       <use xlink:href="#mfa6cbeec6a" x="67.298281" y="71.16996" style="stroke: #000000; stroke-width: 0.8"/>
      </g>
     </g>
     <g id="text_11">
      <!-- 75 -->
      <g transform="translate(46.300781 75.3491) scale(0.11 -0.11)">
       <defs>
        <path id="DejaVuSans-37" d="M 525 4666 
L 3525 4666 
L 3525 4397 
L 1831 0 
L 1172 0 
L 2766 4134 
L 525 4134 
L 525 4666 
z
" transform="scale(0.015625)"/>
       </defs>
       <use xlink:href="#DejaVuSans-37"/>
       <use xlink:href="#DejaVuSans-35" transform="translate(63.623047 0)"/>
      </g>
     </g>
    </g>
    <g id="ytick_5">
     <g id="line2d_12">
      <g>
       <use xlink:href="#mfa6cbeec6a" x="67.298281" y="42.206012" style="stroke: #000000; stroke-width: 0.8"/>
      </g>
     </g>
     <g id="text_12">
      <!-- 100 -->
      <g transform="translate(39.302031 46.385152) scale(0.11 -0.11)">
       <use xlink:href="#DejaVuSans-31"/>
       <use xlink:href="#DejaVuSans-30" transform="translate(63.623047 0)"/>
       <use xlink:href="#DejaVuSans-30" transform="translate(127.246094 0)"/>
      </g>
     </g>
    </g>
    <g id="text_13">
     <!-- % change of Speed -->
     <g transform="translate(26.496875 171.472344) rotate(-90) scale(0.13 -0.13)">
      <defs>
       <path id="DejaVuSans-Bold-25" d="M 4959 1925 
Q 4738 1925 4616 1733 
Q 4494 1541 4494 1184 
Q 4494 825 4614 633 
Q 4734 441 4959 441 
Q 5184 441 5303 633 
Q 5422 825 5422 1184 
Q 5422 1541 5301 1733 
Q 5181 1925 4959 1925 
z
M 4959 2450 
Q 5541 2450 5875 2112 
Q 6209 1775 6209 1184 
Q 6209 594 5875 251 
Q 5541 -91 4959 -91 
Q 4378 -91 4042 251 
Q 3706 594 3706 1184 
Q 3706 1772 4042 2111 
Q 4378 2450 4959 2450 
z
M 2094 -91 
L 1403 -91 
L 4319 4750 
L 5013 4750 
L 2094 -91 
z
M 1453 4750 
Q 2034 4750 2367 4411 
Q 2700 4072 2700 3481 
Q 2700 2891 2367 2550 
Q 2034 2209 1453 2209 
Q 872 2209 539 2550 
Q 206 2891 206 3481 
Q 206 4072 539 4411 
Q 872 4750 1453 4750 
z
M 1453 4225 
Q 1228 4225 1106 4031 
Q 984 3838 984 3481 
Q 984 3122 1106 2926 
Q 1228 2731 1453 2731 
Q 1678 2731 1798 2926 
Q 1919 3122 1919 3481 
Q 1919 3838 1797 4031 
Q 1675 4225 1453 4225 
z
" transform="scale(0.015625)"/>
       <path id="DejaVuSans-Bold-20" transform="scale(0.015625)"/>
       <path id="DejaVuSans-Bold-63" d="M 3366 3391 
L 3366 2478 
Q 3138 2634 2908 2709 
Q 2678 2784 2431 2784 
Q 1963 2784 1702 2511 
Q 1441 2238 1441 1747 
Q 1441 1256 1702 982 
Q 1963 709 2431 709 
Q 2694 709 2930 787 
Q 3166 866 3366 1019 
L 3366 103 
Q 3103 6 2833 -42 
Q 2563 -91 2291 -91 
Q 1344 -91 809 395 
Q 275 881 275 1747 
Q 275 2613 809 3098 
Q 1344 3584 2291 3584 
Q 2566 3584 2833 3536 
Q 3100 3488 3366 3391 
z
" transform="scale(0.015625)"/>
       <path id="DejaVuSans-Bold-68" d="M 4056 2131 
L 4056 0 
L 2931 0 
L 2931 347 
L 2931 1625 
Q 2931 2084 2911 2256 
Q 2891 2428 2841 2509 
Q 2775 2619 2662 2680 
Q 2550 2741 2406 2741 
Q 2056 2741 1856 2470 
Q 1656 2200 1656 1722 
L 1656 0 
L 538 0 
L 538 4863 
L 1656 4863 
L 1656 2988 
Q 1909 3294 2193 3439 
Q 2478 3584 2822 3584 
Q 3428 3584 3742 3212 
Q 4056 2841 4056 2131 
z
" transform="scale(0.015625)"/>
       <path id="DejaVuSans-Bold-61" d="M 2106 1575 
Q 1756 1575 1579 1456 
Q 1403 1338 1403 1106 
Q 1403 894 1545 773 
Q 1688 653 1941 653 
Q 2256 653 2472 879 
Q 2688 1106 2688 1447 
L 2688 1575 
L 2106 1575 
z
M 3816 1997 
L 3816 0 
L 2688 0 
L 2688 519 
Q 2463 200 2181 54 
Q 1900 -91 1497 -91 
Q 953 -91 614 226 
Q 275 544 275 1050 
Q 275 1666 698 1953 
Q 1122 2241 2028 2241 
L 2688 2241 
L 2688 2328 
Q 2688 2594 2478 2717 
Q 2269 2841 1825 2841 
Q 1466 2841 1156 2769 
Q 847 2697 581 2553 
L 581 3406 
Q 941 3494 1303 3539 
Q 1666 3584 2028 3584 
Q 2975 3584 3395 3211 
Q 3816 2838 3816 1997 
z
" transform="scale(0.015625)"/>
       <path id="DejaVuSans-Bold-6e" d="M 4056 2131 
L 4056 0 
L 2931 0 
L 2931 347 
L 2931 1631 
Q 2931 2084 2911 2256 
Q 2891 2428 2841 2509 
Q 2775 2619 2662 2680 
Q 2550 2741 2406 2741 
Q 2056 2741 1856 2470 
Q 1656 2200 1656 1722 
L 1656 0 
L 538 0 
L 538 3500 
L 1656 3500 
L 1656 2988 
Q 1909 3294 2193 3439 
Q 2478 3584 2822 3584 
Q 3428 3584 3742 3212 
Q 4056 2841 4056 2131 
z
" transform="scale(0.015625)"/>
       <path id="DejaVuSans-Bold-67" d="M 2919 594 
Q 2688 288 2409 144 
Q 2131 0 1766 0 
Q 1125 0 706 504 
Q 288 1009 288 1791 
Q 288 2575 706 3076 
Q 1125 3578 1766 3578 
Q 2131 3578 2409 3434 
Q 2688 3291 2919 2981 
L 2919 3500 
L 4044 3500 
L 4044 353 
Q 4044 -491 3511 -936 
Q 2978 -1381 1966 -1381 
Q 1638 -1381 1331 -1331 
Q 1025 -1281 716 -1178 
L 716 -306 
Q 1009 -475 1290 -558 
Q 1572 -641 1856 -641 
Q 2406 -641 2662 -400 
Q 2919 -159 2919 353 
L 2919 594 
z
M 2181 2772 
Q 1834 2772 1640 2515 
Q 1447 2259 1447 1791 
Q 1447 1309 1634 1061 
Q 1822 813 2181 813 
Q 2531 813 2725 1069 
Q 2919 1325 2919 1791 
Q 2919 2259 2725 2515 
Q 2531 2772 2181 2772 
z
" transform="scale(0.015625)"/>
       <path id="DejaVuSans-Bold-65" d="M 4031 1759 
L 4031 1441 
L 1416 1441 
Q 1456 1047 1700 850 
Q 1944 653 2381 653 
Q 2734 653 3104 758 
Q 3475 863 3866 1075 
L 3866 213 
Q 3469 63 3072 -14 
Q 2675 -91 2278 -91 
Q 1328 -91 801 392 
Q 275 875 275 1747 
Q 275 2603 792 3093 
Q 1309 3584 2216 3584 
Q 3041 3584 3536 3087 
Q 4031 2591 4031 1759 
z
M 2881 2131 
Q 2881 2450 2695 2645 
Q 2509 2841 2209 2841 
Q 1884 2841 1681 2658 
Q 1478 2475 1428 2131 
L 2881 2131 
z
" transform="scale(0.015625)"/>
       <path id="DejaVuSans-Bold-6f" d="M 2203 2784 
Q 1831 2784 1636 2517 
Q 1441 2250 1441 1747 
Q 1441 1244 1636 976 
Q 1831 709 2203 709 
Q 2569 709 2762 976 
Q 2956 1244 2956 1747 
Q 2956 2250 2762 2517 
Q 2569 2784 2203 2784 
z
M 2203 3584 
Q 3106 3584 3614 3096 
Q 4122 2609 4122 1747 
Q 4122 884 3614 396 
Q 3106 -91 2203 -91 
Q 1297 -91 786 396 
Q 275 884 275 1747 
Q 275 2609 786 3096 
Q 1297 3584 2203 3584 
z
" transform="scale(0.015625)"/>
       <path id="DejaVuSans-Bold-66" d="M 2841 4863 
L 2841 4128 
L 2222 4128 
Q 1984 4128 1890 4042 
Q 1797 3956 1797 3744 
L 1797 3500 
L 2753 3500 
L 2753 2700 
L 1797 2700 
L 1797 0 
L 678 0 
L 678 2700 
L 122 2700 
L 122 3500 
L 678 3500 
L 678 3744 
Q 678 4316 997 4589 
Q 1316 4863 1984 4863 
L 2841 4863 
z
" transform="scale(0.015625)"/>
       <path id="DejaVuSans-Bold-53" d="M 3834 4519 
L 3834 3531 
Q 3450 3703 3084 3790 
Q 2719 3878 2394 3878 
Q 1963 3878 1756 3759 
Q 1550 3641 1550 3391 
Q 1550 3203 1689 3098 
Q 1828 2994 2194 2919 
L 2706 2816 
Q 3484 2659 3812 2340 
Q 4141 2022 4141 1434 
Q 4141 663 3683 286 
Q 3225 -91 2284 -91 
Q 1841 -91 1394 -6 
Q 947 78 500 244 
L 500 1259 
Q 947 1022 1364 901 
Q 1781 781 2169 781 
Q 2563 781 2772 912 
Q 2981 1044 2981 1288 
Q 2981 1506 2839 1625 
Q 2697 1744 2272 1838 
L 1806 1941 
Q 1106 2091 782 2419 
Q 459 2747 459 3303 
Q 459 4000 909 4375 
Q 1359 4750 2203 4750 
Q 2588 4750 2994 4692 
Q 3400 4634 3834 4519 
z
" transform="scale(0.015625)"/>
       <path id="DejaVuSans-Bold-70" d="M 1656 506 
L 1656 -1331 
L 538 -1331 
L 538 3500 
L 1656 3500 
L 1656 2988 
Q 1888 3294 2169 3439 
Q 2450 3584 2816 3584 
Q 3463 3584 3878 3070 
Q 4294 2556 4294 1747 
Q 4294 938 3878 423 
Q 3463 -91 2816 -91 
Q 2450 -91 2169 54 
Q 1888 200 1656 506 
z
M 2400 2772 
Q 2041 2772 1848 2508 
Q 1656 2244 1656 1747 
Q 1656 1250 1848 986 
Q 2041 722 2400 722 
Q 2759 722 2948 984 
Q 3138 1247 3138 1747 
Q 3138 2247 2948 2509 
Q 2759 2772 2400 2772 
z
" transform="scale(0.015625)"/>
       <path id="DejaVuSans-Bold-64" d="M 2919 2988 
L 2919 4863 
L 4044 4863 
L 4044 0 
L 2919 0 
L 2919 506 
Q 2688 197 2409 53 
Q 2131 -91 1766 -91 
Q 1119 -91 703 423 
Q 288 938 288 1747 
Q 288 2556 703 3070 
Q 1119 3584 1766 3584 
Q 2128 3584 2408 3439 
Q 2688 3294 2919 2988 
z
M 2181 722 
Q 2541 722 2730 984 
Q 2919 1247 2919 1747 
Q 2919 2247 2730 2509 
Q 2541 2772 2181 2772 
Q 1825 2772 1636 2509 
Q 1447 2247 1447 1747 
Q 1447 1247 1636 984 
Q 1825 722 2181 722 
z
" transform="scale(0.015625)"/>
      </defs>
      <use xlink:href="#DejaVuSans-Bold-25"/>
      <use xlink:href="#DejaVuSans-Bold-20" transform="translate(100.195312 0)"/>
      <use xlink:href="#DejaVuSans-Bold-63" transform="translate(135.009766 0)"/>
      <use xlink:href="#DejaVuSans-Bold-68" transform="translate(194.287109 0)"/>
      <use xlink:href="#DejaVuSans-Bold-61" transform="translate(265.478516 0)"/>
      <use xlink:href="#DejaVuSans-Bold-6e" transform="translate(332.958984 0)"/>
      <use xlink:href="#DejaVuSans-Bold-67" transform="translate(404.150391 0)"/>
      <use xlink:href="#DejaVuSans-Bold-65" transform="translate(475.732422 0)"/>
      <use xlink:href="#DejaVuSans-Bold-20" transform="translate(543.554688 0)"/>
      <use xlink:href="#DejaVuSans-Bold-6f" transform="translate(578.369141 0)"/>
      <use xlink:href="#DejaVuSans-Bold-66" transform="translate(647.070312 0)"/>
      <use xlink:href="#DejaVuSans-Bold-20" transform="translate(690.576172 0)"/>
      <use xlink:href="#DejaVuSans-Bold-53" transform="translate(725.390625 0)"/>
      <use xlink:href="#DejaVuSans-Bold-70" transform="translate(797.412109 0)"/>
      <use xlink:href="#DejaVuSans-Bold-65" transform="translate(868.994141 0)"/>
      <use xlink:href="#DejaVuSans-Bold-65" transform="translate(936.816406 0)"/>
      <use xlink:href="#DejaVuSans-Bold-64" transform="translate(1004.638672 0)"/>
     </g>
    </g>
   </g>
   <g id="line2d_13">
    <path d="M 76.258281 142.692202 
L 78.068382 142.419406 
L 79.878483 142.146611 
L 81.688584 141.873815 
L 83.498685 141.601019 
L 85.308786 141.328223 
L 87.118887 141.055427 
L 88.928988 140.782631 
L 90.739089 140.509835 
L 92.54919 140.237039 
L 94.359291 139.964243 
L 96.169392 139.691447 
L 97.979493 139.418651 
L 99.789594 139.145855 
L 101.599695 138.873059 
L 103.409796 138.600263 
L 105.219897 138.327467 
L 107.029998 138.054671 
L 108.840099 137.781875 
L 110.6502 137.509079 
L 112.460301 137.236283 
L 114.270402 136.963487 
L 116.080503 136.690691 
L 117.890604 136.417895 
L 119.700705 136.145099 
L 121.510807 135.872303 
L 123.320908 135.599507 
L 125.131009 135.326711 
L 126.94111 135.053915 
L 128.751211 134.781119 
L 130.561312 134.508323 
L 132.371413 134.235527 
L 134.181514 133.962731 
L 135.991615 133.689935 
L 137.801716 133.417139 
L 139.611817 133.144343 
L 141.421918 132.871547 
L 143.232019 132.598751 
L 145.04212 132.325955 
L 146.852221 132.053159 
L 148.662322 131.780363 
L 150.472423 131.507567 
L 152.282524 131.234771 
L 154.092625 130.961975 
L 155.902726 130.689179 
L 157.712827 130.416383 
L 159.522928 130.143587 
L 161.333029 129.870791 
L 163.14313 129.597995 
L 164.953231 129.325199 
L 166.763332 129.052403 
L 168.573433 128.779607 
L 170.383534 128.506811 
L 172.193635 128.234015 
L 174.003736 127.961219 
L 175.813837 127.688423 
L 177.623938 127.415628 
L 179.434039 127.142832 
L 181.24414 126.870036 
L 183.054241 126.59724 
L 184.864342 126.324444 
L 186.674443 126.051648 
L 188.484544 125.778852 
L 190.294645 125.506056 
L 192.104746 125.23326 
L 193.914847 124.960464 
L 195.724948 124.687668 
L 197.535049 124.414872 
L 199.34515 124.142076 
L 201.155251 123.86928 
L 202.965352 123.596484 
L 204.775453 123.323688 
L 206.585554 123.050892 
L 208.395655 122.778096 
L 210.205756 122.5053 
L 212.015857 122.232504 
L 213.825958 121.959708 
L 215.636059 121.686912 
L 217.44616 121.414116 
L 219.256261 121.14132 
L 221.066362 120.868524 
L 222.876463 120.595728 
L 224.686564 120.322932 
L 226.496665 120.050136 
L 228.306766 119.77734 
L 230.116867 119.504544 
L 231.926968 119.231748 
L 233.737069 118.958952 
L 235.54717 118.686156 
L 237.357271 118.41336 
L 239.167372 118.140564 
L 240.977473 117.867768 
L 242.787574 117.594972 
L 244.597675 117.322176 
L 246.407776 117.04938 
L 248.217877 116.776584 
L 250.027978 116.503788 
L 251.838079 116.230992 
L 253.64818 115.958196 
L 255.458281 115.6854 
" clip-path="url(#p53c1f4d21f)" style="fill: none; stroke: #ffa500; stroke-width: 2.25; stroke-linecap: square"/>
   </g>
   <g id="patch_3">
    <path d="M 67.298281 173.518125 
L 67.298281 29.518125 
" style="fill: none; stroke: #000000; stroke-width: 0.8; stroke-linejoin: miter; stroke-linecap: square"/>
   </g>
   <g id="patch_4">
    <path d="M 67.298281 173.518125 
L 264.418281 173.518125 
" style="fill: none; stroke: #000000; stroke-width: 0.8; stroke-linejoin: miter; stroke-linecap: square"/>
   </g>
   <g id="text_14">
    <!-- r=0.26 -->
    <g transform="translate(201.339881 48.636563) scale(0.1 -0.1)">
     <defs>
      <path id="DejaVuSans-72" d="M 2631 2963 
Q 2534 3019 2420 3045 
Q 2306 3072 2169 3072 
Q 1681 3072 1420 2755 
Q 1159 2438 1159 1844 
L 1159 0 
L 581 0 
L 581 3500 
L 1159 3500 
L 1159 2956 
Q 1341 3275 1631 3429 
Q 1922 3584 2338 3584 
Q 2397 3584 2469 3576 
Q 2541 3569 2628 3553 
L 2631 2963 
z
" transform="scale(0.015625)"/>
      <path id="DejaVuSans-3d" d="M 678 2906 
L 4684 2906 
L 4684 2381 
L 678 2381 
L 678 2906 
z
M 678 1631 
L 4684 1631 
L 4684 1100 
L 678 1100 
L 678 1631 
z
" transform="scale(0.015625)"/>
      <path id="DejaVuSans-2e" d="M 684 794 
L 1344 794 
L 1344 0 
L 684 0 
L 684 794 
z
" transform="scale(0.015625)"/>
     </defs>
     <use xlink:href="#DejaVuSans-72"/>
     <use xlink:href="#DejaVuSans-3d" transform="translate(41.113281 0)"/>
     <use xlink:href="#DejaVuSans-30" transform="translate(124.902344 0)"/>
     <use xlink:href="#DejaVuSans-2e" transform="translate(188.525391 0)"/>
     <use xlink:href="#DejaVuSans-32" transform="translate(220.3125 0)"/>
     <use xlink:href="#DejaVuSans-36" transform="translate(283.935547 0)"/>
    </g>
    <!-- p=0.288 -->
    <g transform="translate(201.339881 59.834375) scale(0.1 -0.1)">
     <defs>
      <path id="DejaVuSans-70" d="M 1159 525 
L 1159 -1331 
L 581 -1331 
L 581 3500 
L 1159 3500 
L 1159 2969 
Q 1341 3281 1617 3432 
Q 1894 3584 2278 3584 
Q 2916 3584 3314 3078 
Q 3713 2572 3713 1747 
Q 3713 922 3314 415 
Q 2916 -91 2278 -91 
Q 1894 -91 1617 61 
Q 1341 213 1159 525 
z
M 3116 1747 
Q 3116 2381 2855 2742 
Q 2594 3103 2138 3103 
Q 1681 3103 1420 2742 
Q 1159 2381 1159 1747 
Q 1159 1113 1420 752 
Q 1681 391 2138 391 
Q 2594 391 2855 752 
Q 3116 1113 3116 1747 
z
" transform="scale(0.015625)"/>
     </defs>
     <use xlink:href="#DejaVuSans-70"/>
     <use xlink:href="#DejaVuSans-3d" transform="translate(63.476562 0)"/>
     <use xlink:href="#DejaVuSans-30" transform="translate(147.265625 0)"/>
     <use xlink:href="#DejaVuSans-2e" transform="translate(210.888672 0)"/>
     <use xlink:href="#DejaVuSans-32" transform="translate(242.675781 0)"/>
     <use xlink:href="#DejaVuSans-38" transform="translate(306.298828 0)"/>
     <use xlink:href="#DejaVuSans-38" transform="translate(369.921875 0)"/>
    </g>
   </g>
   <g id="text_15">
    <!-- More affected hand -->
    <g transform="translate(99.545156 23.518125) scale(0.12 -0.12)">
     <defs>
      <path id="DejaVuSans-Bold-4d" d="M 588 4666 
L 2119 4666 
L 3181 2169 
L 4250 4666 
L 5778 4666 
L 5778 0 
L 4641 0 
L 4641 3413 
L 3566 897 
L 2803 897 
L 1728 3413 
L 1728 0 
L 588 0 
L 588 4666 
z
" transform="scale(0.015625)"/>
      <path id="DejaVuSans-Bold-72" d="M 3138 2547 
Q 2991 2616 2845 2648 
Q 2700 2681 2553 2681 
Q 2122 2681 1889 2404 
Q 1656 2128 1656 1613 
L 1656 0 
L 538 0 
L 538 3500 
L 1656 3500 
L 1656 2925 
Q 1872 3269 2151 3426 
Q 2431 3584 2822 3584 
Q 2878 3584 2943 3579 
Q 3009 3575 3134 3559 
L 3138 2547 
z
" transform="scale(0.015625)"/>
      <path id="DejaVuSans-Bold-74" d="M 1759 4494 
L 1759 3500 
L 2913 3500 
L 2913 2700 
L 1759 2700 
L 1759 1216 
Q 1759 972 1856 886 
Q 1953 800 2241 800 
L 2816 800 
L 2816 0 
L 1856 0 
Q 1194 0 917 276 
Q 641 553 641 1216 
L 641 2700 
L 84 2700 
L 84 3500 
L 641 3500 
L 641 4494 
L 1759 4494 
z
" transform="scale(0.015625)"/>
     </defs>
     <use xlink:href="#DejaVuSans-Bold-4d"/>
     <use xlink:href="#DejaVuSans-Bold-6f" transform="translate(99.511719 0)"/>
     <use xlink:href="#DejaVuSans-Bold-72" transform="translate(168.212891 0)"/>
     <use xlink:href="#DejaVuSans-Bold-65" transform="translate(217.529297 0)"/>
     <use xlink:href="#DejaVuSans-Bold-20" transform="translate(285.351562 0)"/>
     <use xlink:href="#DejaVuSans-Bold-61" transform="translate(320.166016 0)"/>
     <use xlink:href="#DejaVuSans-Bold-66" transform="translate(387.646484 0)"/>
     <use xlink:href="#DejaVuSans-Bold-66" transform="translate(431.152344 0)"/>
     <use xlink:href="#DejaVuSans-Bold-65" transform="translate(474.658203 0)"/>
     <use xlink:href="#DejaVuSans-Bold-63" transform="translate(542.480469 0)"/>
     <use xlink:href="#DejaVuSans-Bold-74" transform="translate(601.757812 0)"/>
     <use xlink:href="#DejaVuSans-Bold-65" transform="translate(649.560547 0)"/>
     <use xlink:href="#DejaVuSans-Bold-64" transform="translate(717.382812 0)"/>
     <use xlink:href="#DejaVuSans-Bold-20" transform="translate(788.964844 0)"/>
     <use xlink:href="#DejaVuSans-Bold-68" transform="translate(823.779297 0)"/>
     <use xlink:href="#DejaVuSans-Bold-61" transform="translate(894.970703 0)"/>
     <use xlink:href="#DejaVuSans-Bold-6e" transform="translate(962.451172 0)"/>
     <use xlink:href="#DejaVuSans-Bold-64" transform="translate(1033.642578 0)"/>
    </g>
   </g>
  </g>
  <g id="axes_2">
   <g id="patch_5">
    <path d="M 313.698281 173.518125 
L 510.818281 173.518125 
L 510.818281 29.518125 
L 313.698281 29.518125 
z
" style="fill: #ffffff"/>
   </g>
   <g id="FillBetweenPolyCollection_2">
    <path d="M 322.658281 134.168527 
L 322.658281 156.361245 
L 324.468382 155.902423 
L 326.278483 155.381103 
L 328.088584 154.857944 
L 329.898685 154.267501 
L 331.708786 153.80397 
L 333.518887 153.290339 
L 335.328988 152.768239 
L 337.139089 152.258861 
L 338.94919 151.840116 
L 340.759291 151.403295 
L 342.569392 151.179338 
L 344.379493 150.924746 
L 346.189594 150.410763 
L 347.999695 150.16882 
L 349.809796 149.944545 
L 351.619897 149.81016 
L 353.429998 149.743328 
L 355.240099 149.632269 
L 357.0502 149.435599 
L 358.860301 149.203949 
L 360.670402 149.073819 
L 362.480503 148.781496 
L 364.290604 148.754482 
L 366.100705 148.808394 
L 367.910807 148.697524 
L 369.720908 148.670851 
L 371.531009 148.388556 
L 373.34111 148.494857 
L 375.151211 148.515134 
L 376.961312 148.415137 
L 378.771413 148.167361 
L 380.581514 148.204087 
L 382.391615 148.315267 
L 384.201716 148.251585 
L 386.011817 148.233119 
L 387.821918 148.33114 
L 389.632019 148.389656 
L 391.44212 148.332267 
L 393.252221 148.290556 
L 395.062322 148.273983 
L 396.872423 148.251323 
L 398.682524 148.391928 
L 400.492625 148.302238 
L 402.302726 148.379509 
L 404.112827 148.516825 
L 405.922928 148.615149 
L 407.733029 148.750031 
L 409.54313 148.851737 
L 411.353231 148.977342 
L 413.163332 149.098663 
L 414.973433 149.131452 
L 416.783534 149.113389 
L 418.593635 149.262476 
L 420.403736 149.429937 
L 422.213837 149.597398 
L 424.023938 149.76486 
L 425.834039 149.932321 
L 427.64414 150.071253 
L 429.454241 150.194075 
L 431.264342 150.355081 
L 433.074443 150.51695 
L 434.884544 150.67882 
L 436.694645 150.84069 
L 438.504746 151.002559 
L 440.314847 151.16406 
L 442.124948 151.324245 
L 443.935049 151.469156 
L 445.74515 151.570477 
L 447.555251 151.671784 
L 449.365352 151.773092 
L 451.175453 151.8744 
L 452.985554 151.981336 
L 454.795655 152.15464 
L 456.605756 152.329793 
L 458.415857 152.504945 
L 460.225958 152.677801 
L 462.036059 152.848889 
L 463.84616 152.965816 
L 465.656261 153.047877 
L 467.466362 153.129939 
L 469.276463 153.212001 
L 471.086564 153.294062 
L 472.896665 153.376124 
L 474.706766 153.458185 
L 476.516867 153.540247 
L 478.326968 153.622309 
L 480.137069 153.70437 
L 481.94717 153.786432 
L 483.757271 153.868753 
L 485.567372 153.991695 
L 487.377473 154.124197 
L 489.187574 154.258446 
L 490.997675 154.392695 
L 492.807776 154.526944 
L 494.617877 154.661193 
L 496.427978 154.795442 
L 498.238079 154.929691 
L 500.04818 155.063052 
L 501.858281 155.195513 
L 501.858281 87.61927 
L 501.858281 87.61927 
L 500.04818 88.345286 
L 498.238079 89.095413 
L 496.427978 89.846525 
L 494.617877 90.597637 
L 492.807776 91.348748 
L 490.997675 92.09986 
L 489.187574 92.850972 
L 487.377473 93.602083 
L 485.567372 94.353195 
L 483.757271 95.105267 
L 481.94717 95.858065 
L 480.137069 96.593632 
L 478.326968 97.146908 
L 476.516867 97.700184 
L 474.706766 98.253459 
L 472.896665 98.806735 
L 471.086564 99.360011 
L 469.276463 99.913286 
L 467.466362 100.466562 
L 465.656261 101.019838 
L 463.84616 101.573114 
L 462.036059 102.126389 
L 460.225958 102.679665 
L 458.415857 103.255908 
L 456.605756 103.934933 
L 454.795655 104.6166 
L 452.985554 105.298267 
L 451.175453 105.979934 
L 449.365352 106.639844 
L 447.555251 107.202874 
L 445.74515 107.876969 
L 443.935049 108.439541 
L 442.124948 109.053267 
L 440.314847 109.61987 
L 438.504746 110.177476 
L 436.694645 110.735081 
L 434.884544 111.292687 
L 433.074443 111.850293 
L 431.264342 112.407899 
L 429.454241 112.965504 
L 427.64414 113.524284 
L 425.834039 114.171546 
L 424.023938 114.848818 
L 422.213837 115.453507 
L 420.403736 116.180036 
L 418.593635 116.906566 
L 416.783534 117.633095 
L 414.973433 118.359624 
L 413.163332 119.061209 
L 411.353231 119.655437 
L 409.54313 120.249666 
L 407.733029 120.846059 
L 405.922928 121.442618 
L 404.112827 122.039176 
L 402.302726 122.635735 
L 400.492625 123.232709 
L 398.682524 123.831968 
L 396.872423 124.401297 
L 395.062322 124.928241 
L 393.252221 125.510975 
L 391.44212 126.183003 
L 389.632019 126.71948 
L 387.821918 127.234629 
L 386.011817 127.654923 
L 384.201716 128.236995 
L 382.391615 128.840662 
L 380.581514 129.21826 
L 378.771413 129.514916 
L 376.961312 130.081308 
L 375.151211 130.59123 
L 373.34111 131.041391 
L 371.531009 131.61707 
L 369.720908 131.952728 
L 367.910807 132.396861 
L 366.100705 132.510539 
L 364.290604 132.808637 
L 362.480503 133.045298 
L 360.670402 133.29629 
L 358.860301 133.425308 
L 357.0502 133.438348 
L 355.240099 133.449914 
L 353.429998 133.65606 
L 351.619897 133.762504 
L 349.809796 133.806874 
L 347.999695 133.877794 
L 346.189594 133.865353 
L 344.379493 134.030974 
L 342.569392 134.080459 
L 340.759291 134.052664 
L 338.94919 134.144058 
L 337.139089 134.110018 
L 335.328988 134.205325 
L 333.518887 134.239784 
L 331.708786 134.271519 
L 329.898685 134.301845 
L 328.088584 134.254046 
L 326.278483 134.245331 
L 324.468382 134.176985 
L 322.658281 134.168527 
z
" clip-path="url(#p804161404d)" style="fill: #ffa500; fill-opacity: 0.15"/>
   </g>
   <g id="PathCollection_3">
    <g clip-path="url(#p804161404d)">
     <use xlink:href="#ma9e80009c0" x="348.258281" y="130.837374" style="fill: #808080; fill-opacity: 0.85; stroke: #808080; stroke-opacity: 0.85"/>
     <use xlink:href="#ma9e80009c0" x="322.658281" y="143.696501" style="fill: #808080; fill-opacity: 0.85; stroke: #808080; stroke-opacity: 0.85"/>
     <use xlink:href="#ma9e80009c0" x="399.458281" y="150.921567" style="fill: #808080; fill-opacity: 0.85; stroke: #808080; stroke-opacity: 0.85"/>
     <use xlink:href="#ma9e80009c0" x="399.458281" y="106.089221" style="fill: #808080; fill-opacity: 0.85; stroke: #808080; stroke-opacity: 0.85"/>
     <use xlink:href="#ma9e80009c0" x="343.138281" y="164.000359" style="fill: #808080; fill-opacity: 0.85; stroke: #808080; stroke-opacity: 0.85"/>
     <use xlink:href="#ma9e80009c0" x="338.018281" y="145.196281" style="fill: #808080; fill-opacity: 0.85; stroke: #808080; stroke-opacity: 0.85"/>
     <use xlink:href="#ma9e80009c0" x="389.218281" y="134.943435" style="fill: #808080; fill-opacity: 0.85; stroke: #808080; stroke-opacity: 0.85"/>
     <use xlink:href="#ma9e80009c0" x="348.258281" y="147.820058" style="fill: #808080; fill-opacity: 0.85; stroke: #808080; stroke-opacity: 0.85"/>
    </g>
   </g>
   <g id="PathCollection_4">
    <g clip-path="url(#p804161404d)">
     <use xlink:href="#m52c645c744" x="389.218281" y="149.379068" style="fill: #808080; fill-opacity: 0.85; stroke: #808080; stroke-opacity: 0.85"/>
     <use xlink:href="#m52c645c744" x="322.658281" y="148.118933" style="fill: #808080; fill-opacity: 0.85; stroke: #808080; stroke-opacity: 0.85"/>
     <use xlink:href="#m52c645c744" x="501.858281" y="142.350841" style="fill: #808080; fill-opacity: 0.85; stroke: #808080; stroke-opacity: 0.85"/>
     <use xlink:href="#m52c645c744" x="348.258281" y="166.564169" style="fill: #808080; fill-opacity: 0.85; stroke: #808080; stroke-opacity: 0.85"/>
     <use xlink:href="#m52c645c744" x="399.458281" y="162.706308" style="fill: #808080; fill-opacity: 0.85; stroke: #808080; stroke-opacity: 0.85"/>
     <use xlink:href="#m52c645c744" x="389.218281" y="129.105865" style="fill: #808080; fill-opacity: 0.85; stroke: #808080; stroke-opacity: 0.85"/>
     <use xlink:href="#m52c645c744" x="325.218281" y="150.745245" style="fill: #808080; fill-opacity: 0.85; stroke: #808080; stroke-opacity: 0.85"/>
     <use xlink:href="#m52c645c744" x="419.938281" y="112.109056" style="fill: #808080; fill-opacity: 0.85; stroke: #808080; stroke-opacity: 0.85"/>
     <use xlink:href="#m52c645c744" x="338.018281" y="132.929909" style="fill: #808080; fill-opacity: 0.85; stroke: #808080; stroke-opacity: 0.85"/>
     <use xlink:href="#m52c645c744" x="338.018281" y="111.057416" style="fill: #808080; fill-opacity: 0.85; stroke: #808080; stroke-opacity: 0.85"/>
    </g>
   </g>
   <g id="matplotlib.axis_3">
    <g id="xtick_8">
     <g id="line2d_14">
      <g>
       <use xlink:href="#m5813f2cfdb" x="317.538281" y="173.518125" style="stroke: #000000; stroke-width: 0.8"/>
      </g>
     </g>
     <g id="text_16">
      <!-- 0 -->
      <g transform="translate(314.038906 188.876406) scale(0.11 -0.11)">
       <use xlink:href="#DejaVuSans-30"/>
      </g>
     </g>
    </g>
    <g id="xtick_9">
     <g id="line2d_15">
      <g>
       <use xlink:href="#m5813f2cfdb" x="348.258281" y="173.518125" style="stroke: #000000; stroke-width: 0.8"/>
      </g>
     </g>
     <g id="text_17">
      <!-- 3 -->
      <g transform="translate(344.758906 188.876406) scale(0.11 -0.11)">
       <use xlink:href="#DejaVuSans-33"/>
      </g>
     </g>
    </g>
    <g id="xtick_10">
     <g id="line2d_16">
      <g>
       <use xlink:href="#m5813f2cfdb" x="378.978281" y="173.518125" style="stroke: #000000; stroke-width: 0.8"/>
      </g>
     </g>
     <g id="text_18">
      <!-- 6 -->
      <g transform="translate(375.478906 188.876406) scale(0.11 -0.11)">
       <use xlink:href="#DejaVuSans-36"/>
      </g>
     </g>
    </g>
    <g id="xtick_11">
     <g id="line2d_17">
      <g>
       <use xlink:href="#m5813f2cfdb" x="409.698281" y="173.518125" style="stroke: #000000; stroke-width: 0.8"/>
      </g>
     </g>
     <g id="text_19">
      <!-- 9 -->
      <g transform="translate(406.198906 188.876406) scale(0.11 -0.11)">
       <use xlink:href="#DejaVuSans-39"/>
      </g>
     </g>
    </g>
    <g id="xtick_12">
     <g id="line2d_18">
      <g>
       <use xlink:href="#m5813f2cfdb" x="440.418281" y="173.518125" style="stroke: #000000; stroke-width: 0.8"/>
      </g>
     </g>
     <g id="text_20">
      <!-- 12 -->
      <g transform="translate(433.419531 188.876406) scale(0.11 -0.11)">
       <use xlink:href="#DejaVuSans-31"/>
       <use xlink:href="#DejaVuSans-32" transform="translate(63.623047 0)"/>
      </g>
     </g>
    </g>
    <g id="xtick_13">
     <g id="line2d_19">
      <g>
       <use xlink:href="#m5813f2cfdb" x="471.138281" y="173.518125" style="stroke: #000000; stroke-width: 0.8"/>
      </g>
     </g>
     <g id="text_21">
      <!-- 15 -->
      <g transform="translate(464.139531 188.876406) scale(0.11 -0.11)">
       <use xlink:href="#DejaVuSans-31"/>
       <use xlink:href="#DejaVuSans-35" transform="translate(63.623047 0)"/>
      </g>
     </g>
    </g>
    <g id="xtick_14">
     <g id="line2d_20">
      <g>
       <use xlink:href="#m5813f2cfdb" x="501.858281" y="173.518125" style="stroke: #000000; stroke-width: 0.8"/>
      </g>
     </g>
     <g id="text_22">
      <!-- 18 -->
      <g transform="translate(494.859531 188.876406) scale(0.11 -0.11)">
       <use xlink:href="#DejaVuSans-31"/>
       <use xlink:href="#DejaVuSans-38" transform="translate(63.623047 0)"/>
      </g>
     </g>
    </g>
   </g>
   <g id="matplotlib.axis_4">
    <g id="ytick_6">
     <g id="line2d_21">
      <g>
       <use xlink:href="#mfa6cbeec6a" x="313.698281" y="158.061803" style="stroke: #000000; stroke-width: 0.8"/>
      </g>
     </g>
    </g>
    <g id="ytick_7">
     <g id="line2d_22">
      <g>
       <use xlink:href="#mfa6cbeec6a" x="313.698281" y="129.097855" style="stroke: #000000; stroke-width: 0.8"/>
      </g>
     </g>
    </g>
    <g id="ytick_8">
     <g id="line2d_23">
      <g>
       <use xlink:href="#mfa6cbeec6a" x="313.698281" y="100.133907" style="stroke: #000000; stroke-width: 0.8"/>
      </g>
     </g>
    </g>
    <g id="ytick_9">
     <g id="line2d_24">
      <g>
       <use xlink:href="#mfa6cbeec6a" x="313.698281" y="71.16996" style="stroke: #000000; stroke-width: 0.8"/>
      </g>
     </g>
    </g>
    <g id="ytick_10">
     <g id="line2d_25">
      <g>
       <use xlink:href="#mfa6cbeec6a" x="313.698281" y="42.206012" style="stroke: #000000; stroke-width: 0.8"/>
      </g>
     </g>
    </g>
   </g>
   <g id="line2d_26">
    <path d="M 322.658281 143.785398 
L 324.468382 143.658921 
L 326.278483 143.532443 
L 328.088584 143.405965 
L 329.898685 143.279488 
L 331.708786 143.15301 
L 333.518887 143.026532 
L 335.328988 142.900055 
L 337.139089 142.773577 
L 338.94919 142.647099 
L 340.759291 142.520622 
L 342.569392 142.394144 
L 344.379493 142.267666 
L 346.189594 142.141189 
L 347.999695 142.014711 
L 349.809796 141.888233 
L 351.619897 141.761755 
L 353.429998 141.635278 
L 355.240099 141.5088 
L 357.0502 141.382322 
L 358.860301 141.255845 
L 360.670402 141.129367 
L 362.480503 141.002889 
L 364.290604 140.876412 
L 366.100705 140.749934 
L 367.910807 140.623456 
L 369.720908 140.496979 
L 371.531009 140.370501 
L 373.34111 140.244023 
L 375.151211 140.117546 
L 376.961312 139.991068 
L 378.771413 139.86459 
L 380.581514 139.738113 
L 382.391615 139.611635 
L 384.201716 139.485157 
L 386.011817 139.35868 
L 387.821918 139.232202 
L 389.632019 139.105724 
L 391.44212 138.979247 
L 393.252221 138.852769 
L 395.062322 138.726291 
L 396.872423 138.599814 
L 398.682524 138.473336 
L 400.492625 138.346858 
L 402.302726 138.220381 
L 404.112827 138.093903 
L 405.922928 137.967425 
L 407.733029 137.840948 
L 409.54313 137.71447 
L 411.353231 137.587992 
L 413.163332 137.461515 
L 414.973433 137.335037 
L 416.783534 137.208559 
L 418.593635 137.082082 
L 420.403736 136.955604 
L 422.213837 136.829126 
L 424.023938 136.702649 
L 425.834039 136.576171 
L 427.64414 136.449693 
L 429.454241 136.323216 
L 431.264342 136.196738 
L 433.074443 136.07026 
L 434.884544 135.943783 
L 436.694645 135.817305 
L 438.504746 135.690827 
L 440.314847 135.564349 
L 442.124948 135.437872 
L 443.935049 135.311394 
L 445.74515 135.184916 
L 447.555251 135.058439 
L 449.365352 134.931961 
L 451.175453 134.805483 
L 452.985554 134.679006 
L 454.795655 134.552528 
L 456.605756 134.42605 
L 458.415857 134.299573 
L 460.225958 134.173095 
L 462.036059 134.046617 
L 463.84616 133.92014 
L 465.656261 133.793662 
L 467.466362 133.667184 
L 469.276463 133.540707 
L 471.086564 133.414229 
L 472.896665 133.287751 
L 474.706766 133.161274 
L 476.516867 133.034796 
L 478.326968 132.908318 
L 480.137069 132.781841 
L 481.94717 132.655363 
L 483.757271 132.528885 
L 485.567372 132.402408 
L 487.377473 132.27593 
L 489.187574 132.149452 
L 490.997675 132.022975 
L 492.807776 131.896497 
L 494.617877 131.770019 
L 496.427978 131.643542 
L 498.238079 131.517064 
L 500.04818 131.390586 
L 501.858281 131.264109 
" clip-path="url(#p804161404d)" style="fill: none; stroke: #ffa500; stroke-width: 2.25; stroke-linecap: square"/>
   </g>
   <g id="patch_6">
    <path d="M 313.698281 173.518125 
L 313.698281 29.518125 
" style="fill: none; stroke: #000000; stroke-width: 0.8; stroke-linejoin: miter; stroke-linecap: square"/>
   </g>
   <g id="patch_7">
    <path d="M 313.698281 173.518125 
L 510.818281 173.518125 
" style="fill: none; stroke: #000000; stroke-width: 0.8; stroke-linejoin: miter; stroke-linecap: square"/>
   </g>
   <g id="text_23">
    <!-- r=0.18 -->
    <g transform="translate(447.739881 48.636563) scale(0.1 -0.1)">
     <use xlink:href="#DejaVuSans-72"/>
     <use xlink:href="#DejaVuSans-3d" transform="translate(41.113281 0)"/>
     <use xlink:href="#DejaVuSans-30" transform="translate(124.902344 0)"/>
     <use xlink:href="#DejaVuSans-2e" transform="translate(188.525391 0)"/>
     <use xlink:href="#DejaVuSans-31" transform="translate(220.3125 0)"/>
     <use xlink:href="#DejaVuSans-38" transform="translate(283.935547 0)"/>
    </g>
    <!-- p=0.475 -->
    <g transform="translate(447.739881 59.834375) scale(0.1 -0.1)">
     <defs>
      <path id="DejaVuSans-34" d="M 2419 4116 
L 825 1625 
L 2419 1625 
L 2419 4116 
z
M 2253 4666 
L 3047 4666 
L 3047 1625 
L 3713 1625 
L 3713 1100 
L 3047 1100 
L 3047 0 
L 2419 0 
L 2419 1100 
L 313 1100 
L 313 1709 
L 2253 4666 
z
" transform="scale(0.015625)"/>
     </defs>
     <use xlink:href="#DejaVuSans-70"/>
     <use xlink:href="#DejaVuSans-3d" transform="translate(63.476562 0)"/>
     <use xlink:href="#DejaVuSans-30" transform="translate(147.265625 0)"/>
     <use xlink:href="#DejaVuSans-2e" transform="translate(210.888672 0)"/>
     <use xlink:href="#DejaVuSans-34" transform="translate(242.675781 0)"/>
     <use xlink:href="#DejaVuSans-37" transform="translate(306.298828 0)"/>
     <use xlink:href="#DejaVuSans-35" transform="translate(369.921875 0)"/>
    </g>
   </g>
   <g id="text_24">
    <!-- Less affected hand -->
    <g transform="translate(348.032031 23.518125) scale(0.12 -0.12)">
     <defs>
      <path id="DejaVuSans-Bold-4c" d="M 588 4666 
L 1791 4666 
L 1791 909 
L 3903 909 
L 3903 0 
L 588 0 
L 588 4666 
z
" transform="scale(0.015625)"/>
      <path id="DejaVuSans-Bold-73" d="M 3272 3391 
L 3272 2541 
Q 2913 2691 2578 2766 
Q 2244 2841 1947 2841 
Q 1628 2841 1473 2761 
Q 1319 2681 1319 2516 
Q 1319 2381 1436 2309 
Q 1553 2238 1856 2203 
L 2053 2175 
Q 2913 2066 3209 1816 
Q 3506 1566 3506 1031 
Q 3506 472 3093 190 
Q 2681 -91 1863 -91 
Q 1516 -91 1145 -36 
Q 775 19 384 128 
L 384 978 
Q 719 816 1070 734 
Q 1422 653 1784 653 
Q 2113 653 2278 743 
Q 2444 834 2444 1013 
Q 2444 1163 2330 1236 
Q 2216 1309 1875 1350 
L 1678 1375 
Q 931 1469 631 1722 
Q 331 1975 331 2491 
Q 331 3047 712 3315 
Q 1094 3584 1881 3584 
Q 2191 3584 2531 3537 
Q 2872 3491 3272 3391 
z
" transform="scale(0.015625)"/>
     </defs>
     <use xlink:href="#DejaVuSans-Bold-4c"/>
     <use xlink:href="#DejaVuSans-Bold-65" transform="translate(63.720703 0)"/>
     <use xlink:href="#DejaVuSans-Bold-73" transform="translate(131.542969 0)"/>
     <use xlink:href="#DejaVuSans-Bold-73" transform="translate(191.064453 0)"/>
     <use xlink:href="#DejaVuSans-Bold-20" transform="translate(250.585938 0)"/>
     <use xlink:href="#DejaVuSans-Bold-61" transform="translate(285.400391 0)"/>
     <use xlink:href="#DejaVuSans-Bold-66" transform="translate(352.880859 0)"/>
     <use xlink:href="#DejaVuSans-Bold-66" transform="translate(396.386719 0)"/>
     <use xlink:href="#DejaVuSans-Bold-65" transform="translate(439.892578 0)"/>
     <use xlink:href="#DejaVuSans-Bold-63" transform="translate(507.714844 0)"/>
     <use xlink:href="#DejaVuSans-Bold-74" transform="translate(566.992188 0)"/>
     <use xlink:href="#DejaVuSans-Bold-65" transform="translate(614.794922 0)"/>
     <use xlink:href="#DejaVuSans-Bold-64" transform="translate(682.617188 0)"/>
     <use xlink:href="#DejaVuSans-Bold-20" transform="translate(754.199219 0)"/>
     <use xlink:href="#DejaVuSans-Bold-68" transform="translate(789.013672 0)"/>
     <use xlink:href="#DejaVuSans-Bold-61" transform="translate(860.205078 0)"/>
     <use xlink:href="#DejaVuSans-Bold-6e" transform="translate(927.685547 0)"/>
     <use xlink:href="#DejaVuSans-Bold-64" transform="translate(998.876953 0)"/>
    </g>
   </g>
  </g>
  <g id="axes_3">
   <g id="patch_8">
    <path d="M 67.298281 357.838125 
L 264.418281 357.838125 
L 264.418281 213.838125 
L 67.298281 213.838125 
z
" style="fill: #ffffff"/>
   </g>
   <g id="FillBetweenPolyCollection_3">
    <path d="M 76.258281 290.314221 
L 76.258281 325.326906 
L 78.068382 324.565508 
L 79.878483 323.799654 
L 81.688584 322.977336 
L 83.498685 322.067503 
L 85.308786 321.102703 
L 87.118887 320.090928 
L 88.928988 319.426594 
L 90.739089 318.913433 
L 92.54919 318.254377 
L 94.359291 317.676236 
L 96.169392 316.91065 
L 97.979493 316.144178 
L 99.789594 315.612836 
L 101.599695 314.968981 
L 103.409796 314.728287 
L 105.219897 314.450448 
L 107.029998 314.183338 
L 108.840099 313.523505 
L 110.6502 313.114752 
L 112.460301 312.901074 
L 114.270402 312.790264 
L 116.080503 312.607888 
L 117.890604 312.650076 
L 119.700705 312.72904 
L 121.510807 312.835841 
L 123.320908 312.841192 
L 125.131009 312.745294 
L 126.94111 312.798825 
L 128.751211 312.851612 
L 130.561312 312.903836 
L 132.371413 312.95606 
L 134.181514 313.039932 
L 135.991615 313.172971 
L 137.801716 313.271301 
L 139.611817 313.410942 
L 141.421918 313.547928 
L 143.232019 313.693594 
L 145.04212 313.991805 
L 146.852221 314.146176 
L 148.662322 314.168256 
L 150.472423 314.25947 
L 152.282524 314.280979 
L 154.092625 314.430888 
L 155.902726 314.595479 
L 157.712827 314.703369 
L 159.522928 314.928444 
L 161.333029 315.094689 
L 163.14313 315.247895 
L 164.953231 315.434013 
L 166.763332 315.605149 
L 168.573433 315.792196 
L 170.383534 315.931583 
L 172.193635 316.094421 
L 174.003736 316.100101 
L 175.813837 316.242135 
L 177.623938 316.383982 
L 179.434039 316.524694 
L 181.24414 316.665407 
L 183.054241 316.871535 
L 184.864342 317.041017 
L 186.674443 317.158137 
L 188.484544 317.273973 
L 190.294645 317.491314 
L 192.104746 317.799075 
L 193.914847 318.092 
L 195.724948 318.412263 
L 197.535049 318.656073 
L 199.34515 318.877567 
L 201.155251 319.088185 
L 202.965352 319.398747 
L 204.775453 319.709309 
L 206.585554 320.019871 
L 208.395655 320.330433 
L 210.205756 320.640994 
L 212.015857 320.943182 
L 213.825958 321.231389 
L 215.636059 321.497609 
L 217.44616 321.755388 
L 219.256261 322.096969 
L 221.066362 322.385068 
L 222.876463 322.672685 
L 224.686564 322.956666 
L 226.496665 323.221929 
L 228.306766 323.487193 
L 230.116867 323.752457 
L 231.926968 324.015729 
L 233.737069 324.282413 
L 235.54717 324.548247 
L 237.357271 324.813511 
L 239.167372 325.078775 
L 240.977473 325.341876 
L 242.787574 325.60362 
L 244.597675 325.765198 
L 246.407776 326.0542 
L 248.217877 326.354014 
L 250.027978 326.653827 
L 251.838079 326.927391 
L 253.64818 327.192968 
L 255.458281 327.458544 
L 255.458281 220.38358 
L 255.458281 220.38358 
L 253.64818 221.410476 
L 251.838079 222.441634 
L 250.027978 223.474016 
L 248.217877 224.506397 
L 246.407776 225.577016 
L 244.597675 226.564919 
L 242.787574 227.59265 
L 240.977473 228.620382 
L 239.167372 229.648113 
L 237.357271 230.675845 
L 235.54717 231.690125 
L 233.737069 232.547866 
L 231.926968 233.656071 
L 230.116867 234.772267 
L 228.306766 235.819204 
L 226.496665 236.848673 
L 224.686564 237.875153 
L 222.876463 238.873205 
L 221.066362 239.871258 
L 219.256261 240.830501 
L 217.44616 241.642073 
L 215.636059 242.453644 
L 213.825958 243.454768 
L 212.015857 244.478519 
L 210.205756 245.507408 
L 208.395655 246.64412 
L 206.585554 247.780832 
L 204.775453 248.853734 
L 202.965352 249.851787 
L 201.155251 250.788438 
L 199.34515 251.656284 
L 197.535049 252.650824 
L 195.724948 253.668482 
L 193.914847 254.68614 
L 192.104746 255.703797 
L 190.294645 256.721455 
L 188.484544 257.739113 
L 186.674443 258.760573 
L 184.864342 259.78286 
L 183.054241 260.805147 
L 181.24414 261.781056 
L 179.434039 262.549836 
L 177.623938 263.375807 
L 175.813837 264.466954 
L 174.003736 265.457301 
L 172.193635 266.604419 
L 170.383534 267.340818 
L 168.573433 268.340906 
L 166.763332 269.395284 
L 164.953231 270.438375 
L 163.14313 271.488323 
L 161.333029 272.538539 
L 159.522928 273.44465 
L 157.712827 274.473094 
L 155.902726 275.298453 
L 154.092625 276.245152 
L 152.282524 277.361881 
L 150.472423 278.166649 
L 148.662322 278.752971 
L 146.852221 279.702119 
L 145.04212 280.302508 
L 143.232019 281.161856 
L 141.421918 282.03447 
L 139.611817 282.772976 
L 137.801716 283.580853 
L 135.991615 284.167313 
L 134.181514 284.773741 
L 132.371413 285.4164 
L 130.561312 286.419096 
L 128.751211 287.099478 
L 126.94111 287.869591 
L 125.131009 288.505182 
L 123.320908 288.856142 
L 121.510807 289.333545 
L 119.700705 289.7128 
L 117.890604 290.067802 
L 116.080503 290.409385 
L 114.270402 290.689578 
L 112.460301 291.086314 
L 110.6502 291.487232 
L 108.840099 291.574499 
L 107.029998 291.902642 
L 105.219897 291.956686 
L 103.409796 292.244731 
L 101.599695 292.208077 
L 99.789594 292.167078 
L 97.979493 291.981759 
L 96.169392 291.831305 
L 94.359291 291.835125 
L 92.54919 292.012525 
L 90.739089 291.925441 
L 88.928988 291.714443 
L 87.118887 291.498335 
L 85.308786 291.400392 
L 83.498685 291.315658 
L 81.688584 291.079647 
L 79.878483 290.844347 
L 78.068382 290.412096 
L 76.258281 290.314221 
z
" clip-path="url(#p9f5e469fab)" style="fill: #ffa500; fill-opacity: 0.15"/>
   </g>
   <g id="PathCollection_5">
    <g clip-path="url(#p9f5e469fab)">
     <use xlink:href="#ma9e80009c0" x="101.858281" y="318.240265" style="fill: #808080; fill-opacity: 0.85; stroke: #808080; stroke-opacity: 0.85"/>
     <use xlink:href="#ma9e80009c0" x="76.258281" y="261.848547" style="fill: #808080; fill-opacity: 0.85; stroke: #808080; stroke-opacity: 0.85"/>
     <use xlink:href="#ma9e80009c0" x="153.058281" y="297.178796" style="fill: #808080; fill-opacity: 0.85; stroke: #808080; stroke-opacity: 0.85"/>
     <use xlink:href="#ma9e80009c0" x="153.058281" y="273.403097" style="fill: #808080; fill-opacity: 0.85; stroke: #808080; stroke-opacity: 0.85"/>
     <use xlink:href="#ma9e80009c0" x="96.738281" y="306.900097" style="fill: #808080; fill-opacity: 0.85; stroke: #808080; stroke-opacity: 0.85"/>
     <use xlink:href="#ma9e80009c0" x="91.618281" y="318.16592" style="fill: #808080; fill-opacity: 0.85; stroke: #808080; stroke-opacity: 0.85"/>
     <use xlink:href="#ma9e80009c0" x="142.818281" y="301.203435" style="fill: #808080; fill-opacity: 0.85; stroke: #808080; stroke-opacity: 0.85"/>
     <use xlink:href="#ma9e80009c0" x="101.858281" y="303.182335" style="fill: #808080; fill-opacity: 0.85; stroke: #808080; stroke-opacity: 0.85"/>
    </g>
   </g>
   <g id="PathCollection_6">
    <g clip-path="url(#p9f5e469fab)">
     <use xlink:href="#m52c645c744" x="142.818281" y="290.584956" style="fill: #808080; fill-opacity: 0.85; stroke: #808080; stroke-opacity: 0.85"/>
     <use xlink:href="#m52c645c744" x="76.258281" y="302.211395" style="fill: #808080; fill-opacity: 0.85; stroke: #808080; stroke-opacity: 0.85"/>
     <use xlink:href="#m52c645c744" x="255.458281" y="321.856978" style="fill: #808080; fill-opacity: 0.85; stroke: #808080; stroke-opacity: 0.85"/>
     <use xlink:href="#m52c645c744" x="101.858281" y="280.81364" style="fill: #808080; fill-opacity: 0.85; stroke: #808080; stroke-opacity: 0.85"/>
     <use xlink:href="#m52c645c744" x="153.058281" y="307.91867" style="fill: #808080; fill-opacity: 0.85; stroke: #808080; stroke-opacity: 0.85"/>
     <use xlink:href="#m52c645c744" x="142.818281" y="337.457947" style="fill: #808080; fill-opacity: 0.85; stroke: #808080; stroke-opacity: 0.85"/>
     <use xlink:href="#m52c645c744" x="78.818281" y="324.125891" style="fill: #808080; fill-opacity: 0.85; stroke: #808080; stroke-opacity: 0.85"/>
     <use xlink:href="#m52c645c744" x="173.538281" y="242.48261" style="fill: #808080; fill-opacity: 0.85; stroke: #808080; stroke-opacity: 0.85"/>
     <use xlink:href="#m52c645c744" x="91.618281" y="321.274859" style="fill: #808080; fill-opacity: 0.85; stroke: #808080; stroke-opacity: 0.85"/>
     <use xlink:href="#m52c645c744" x="91.618281" y="332.18739" style="fill: #808080; fill-opacity: 0.85; stroke: #808080; stroke-opacity: 0.85"/>
    </g>
   </g>
   <g id="matplotlib.axis_5">
    <g id="xtick_15">
     <g id="line2d_27">
      <g>
       <use xlink:href="#m5813f2cfdb" x="71.138281" y="357.838125" style="stroke: #000000; stroke-width: 0.8"/>
      </g>
     </g>
     <g id="text_25">
      <!-- 0 -->
      <g transform="translate(67.638906 373.196406) scale(0.11 -0.11)">
       <use xlink:href="#DejaVuSans-30"/>
      </g>
     </g>
    </g>
    <g id="xtick_16">
     <g id="line2d_28">
      <g>
       <use xlink:href="#m5813f2cfdb" x="101.858281" y="357.838125" style="stroke: #000000; stroke-width: 0.8"/>
      </g>
     </g>
     <g id="text_26">
      <!-- 3 -->
      <g transform="translate(98.358906 373.196406) scale(0.11 -0.11)">
       <use xlink:href="#DejaVuSans-33"/>
      </g>
     </g>
    </g>
    <g id="xtick_17">
     <g id="line2d_29">
      <g>
       <use xlink:href="#m5813f2cfdb" x="132.578281" y="357.838125" style="stroke: #000000; stroke-width: 0.8"/>
      </g>
     </g>
     <g id="text_27">
      <!-- 6 -->
      <g transform="translate(129.078906 373.196406) scale(0.11 -0.11)">
       <use xlink:href="#DejaVuSans-36"/>
      </g>
     </g>
    </g>
    <g id="xtick_18">
     <g id="line2d_30">
      <g>
       <use xlink:href="#m5813f2cfdb" x="163.298281" y="357.838125" style="stroke: #000000; stroke-width: 0.8"/>
      </g>
     </g>
     <g id="text_28">
      <!-- 9 -->
      <g transform="translate(159.798906 373.196406) scale(0.11 -0.11)">
       <use xlink:href="#DejaVuSans-39"/>
      </g>
     </g>
    </g>
    <g id="xtick_19">
     <g id="line2d_31">
      <g>
       <use xlink:href="#m5813f2cfdb" x="194.018281" y="357.838125" style="stroke: #000000; stroke-width: 0.8"/>
      </g>
     </g>
     <g id="text_29">
      <!-- 12 -->
      <g transform="translate(187.019531 373.196406) scale(0.11 -0.11)">
       <use xlink:href="#DejaVuSans-31"/>
       <use xlink:href="#DejaVuSans-32" transform="translate(63.623047 0)"/>
      </g>
     </g>
    </g>
    <g id="xtick_20">
     <g id="line2d_32">
      <g>
       <use xlink:href="#m5813f2cfdb" x="224.738281" y="357.838125" style="stroke: #000000; stroke-width: 0.8"/>
      </g>
     </g>
     <g id="text_30">
      <!-- 15 -->
      <g transform="translate(217.739531 373.196406) scale(0.11 -0.11)">
       <use xlink:href="#DejaVuSans-31"/>
       <use xlink:href="#DejaVuSans-35" transform="translate(63.623047 0)"/>
      </g>
     </g>
    </g>
    <g id="xtick_21">
     <g id="line2d_33">
      <g>
       <use xlink:href="#m5813f2cfdb" x="255.458281" y="357.838125" style="stroke: #000000; stroke-width: 0.8"/>
      </g>
     </g>
     <g id="text_31">
      <!-- 18 -->
      <g transform="translate(248.459531 373.196406) scale(0.11 -0.11)">
       <use xlink:href="#DejaVuSans-31"/>
       <use xlink:href="#DejaVuSans-38" transform="translate(63.623047 0)"/>
      </g>
     </g>
    </g>
    <g id="text_32">
     <!-- Disease duration -->
     <g transform="translate(103.730469 389.362031) scale(0.13 -0.13)">
      <defs>
       <path id="DejaVuSans-Bold-44" d="M 1791 3756 
L 1791 909 
L 2222 909 
Q 2959 909 3348 1275 
Q 3738 1641 3738 2338 
Q 3738 3031 3350 3393 
Q 2963 3756 2222 3756 
L 1791 3756 
z
M 588 4666 
L 1856 4666 
Q 2919 4666 3439 4514 
Q 3959 4363 4331 4000 
Q 4659 3684 4818 3271 
Q 4978 2859 4978 2338 
Q 4978 1809 4818 1395 
Q 4659 981 4331 666 
Q 3956 303 3431 151 
Q 2906 0 1856 0 
L 588 0 
L 588 4666 
z
" transform="scale(0.015625)"/>
       <path id="DejaVuSans-Bold-69" d="M 538 3500 
L 1656 3500 
L 1656 0 
L 538 0 
L 538 3500 
z
M 538 4863 
L 1656 4863 
L 1656 3950 
L 538 3950 
L 538 4863 
z
" transform="scale(0.015625)"/>
       <path id="DejaVuSans-Bold-75" d="M 500 1363 
L 500 3500 
L 1625 3500 
L 1625 3150 
Q 1625 2866 1622 2436 
Q 1619 2006 1619 1863 
Q 1619 1441 1641 1255 
Q 1663 1069 1716 984 
Q 1784 875 1895 815 
Q 2006 756 2150 756 
Q 2500 756 2700 1025 
Q 2900 1294 2900 1772 
L 2900 3500 
L 4019 3500 
L 4019 0 
L 2900 0 
L 2900 506 
Q 2647 200 2364 54 
Q 2081 -91 1741 -91 
Q 1134 -91 817 281 
Q 500 653 500 1363 
z
" transform="scale(0.015625)"/>
      </defs>
      <use xlink:href="#DejaVuSans-Bold-44"/>
      <use xlink:href="#DejaVuSans-Bold-69" transform="translate(83.007812 0)"/>
      <use xlink:href="#DejaVuSans-Bold-73" transform="translate(117.285156 0)"/>
      <use xlink:href="#DejaVuSans-Bold-65" transform="translate(176.806641 0)"/>
      <use xlink:href="#DejaVuSans-Bold-61" transform="translate(244.628906 0)"/>
      <use xlink:href="#DejaVuSans-Bold-73" transform="translate(312.109375 0)"/>
      <use xlink:href="#DejaVuSans-Bold-65" transform="translate(371.630859 0)"/>
      <use xlink:href="#DejaVuSans-Bold-20" transform="translate(439.453125 0)"/>
      <use xlink:href="#DejaVuSans-Bold-64" transform="translate(474.267578 0)"/>
      <use xlink:href="#DejaVuSans-Bold-75" transform="translate(545.849609 0)"/>
      <use xlink:href="#DejaVuSans-Bold-72" transform="translate(617.041016 0)"/>
      <use xlink:href="#DejaVuSans-Bold-61" transform="translate(666.357422 0)"/>
      <use xlink:href="#DejaVuSans-Bold-74" transform="translate(733.837891 0)"/>
      <use xlink:href="#DejaVuSans-Bold-69" transform="translate(781.640625 0)"/>
      <use xlink:href="#DejaVuSans-Bold-6f" transform="translate(815.917969 0)"/>
      <use xlink:href="#DejaVuSans-Bold-6e" transform="translate(884.619141 0)"/>
     </g>
    </g>
   </g>
   <g id="matplotlib.axis_6">
    <g id="ytick_11">
     <g id="line2d_34">
      <g>
       <use xlink:href="#mfa6cbeec6a" x="67.298281" y="331.405781" style="stroke: #000000; stroke-width: 0.8"/>
      </g>
     </g>
     <g id="text_33">
      <!-- 20 -->
      <g transform="translate(37.083125 335.584921) scale(0.11 -0.11)">
       <defs>
        <path id="DejaVuSans-2212" d="M 678 2272 
L 4684 2272 
L 4684 1741 
L 678 1741 
L 678 2272 
z
" transform="scale(0.015625)"/>
       </defs>
       <use xlink:href="#DejaVuSans-2212"/>
       <use xlink:href="#DejaVuSans-32" transform="translate(83.789062 0)"/>
       <use xlink:href="#DejaVuSans-30" transform="translate(147.412109 0)"/>
      </g>
     </g>
    </g>
    <g id="ytick_12">
     <g id="line2d_35">
      <g>
       <use xlink:href="#mfa6cbeec6a" x="67.298281" y="288.075875" style="stroke: #000000; stroke-width: 0.8"/>
      </g>
     </g>
     <g id="text_34">
      <!-- 0 -->
      <g transform="translate(53.299531 292.255015) scale(0.11 -0.11)">
       <use xlink:href="#DejaVuSans-30"/>
      </g>
     </g>
    </g>
    <g id="ytick_13">
     <g id="line2d_36">
      <g>
       <use xlink:href="#mfa6cbeec6a" x="67.298281" y="244.745969" style="stroke: #000000; stroke-width: 0.8"/>
      </g>
     </g>
     <g id="text_35">
      <!-- 20 -->
      <g transform="translate(46.300781 248.925109) scale(0.11 -0.11)">
       <use xlink:href="#DejaVuSans-32"/>
       <use xlink:href="#DejaVuSans-30" transform="translate(63.623047 0)"/>
      </g>
     </g>
    </g>
    <g id="text_36">
     <!-- % change of dwell time -->
     <g transform="translate(24.277969 371.291797) rotate(-90) scale(0.13 -0.13)">
      <defs>
       <path id="DejaVuSans-Bold-77" d="M 225 3500 
L 1313 3500 
L 1900 1088 
L 2491 3500 
L 3425 3500 
L 4013 1113 
L 4603 3500 
L 5691 3500 
L 4769 0 
L 3547 0 
L 2956 2406 
L 2369 0 
L 1147 0 
L 225 3500 
z
" transform="scale(0.015625)"/>
       <path id="DejaVuSans-Bold-6c" d="M 538 4863 
L 1656 4863 
L 1656 0 
L 538 0 
L 538 4863 
z
" transform="scale(0.015625)"/>
       <path id="DejaVuSans-Bold-6d" d="M 3781 2919 
Q 3994 3244 4286 3414 
Q 4578 3584 4928 3584 
Q 5531 3584 5847 3212 
Q 6163 2841 6163 2131 
L 6163 0 
L 5038 0 
L 5038 1825 
Q 5041 1866 5042 1909 
Q 5044 1953 5044 2034 
Q 5044 2406 4934 2573 
Q 4825 2741 4581 2741 
Q 4263 2741 4089 2478 
Q 3916 2216 3909 1719 
L 3909 0 
L 2784 0 
L 2784 1825 
Q 2784 2406 2684 2573 
Q 2584 2741 2328 2741 
Q 2006 2741 1831 2477 
Q 1656 2213 1656 1722 
L 1656 0 
L 531 0 
L 531 3500 
L 1656 3500 
L 1656 2988 
Q 1863 3284 2130 3434 
Q 2397 3584 2719 3584 
Q 3081 3584 3359 3409 
Q 3638 3234 3781 2919 
z
" transform="scale(0.015625)"/>
      </defs>
      <use xlink:href="#DejaVuSans-Bold-25"/>
      <use xlink:href="#DejaVuSans-Bold-20" transform="translate(100.195312 0)"/>
      <use xlink:href="#DejaVuSans-Bold-63" transform="translate(135.009766 0)"/>
      <use xlink:href="#DejaVuSans-Bold-68" transform="translate(194.287109 0)"/>
      <use xlink:href="#DejaVuSans-Bold-61" transform="translate(265.478516 0)"/>
      <use xlink:href="#DejaVuSans-Bold-6e" transform="translate(332.958984 0)"/>
      <use xlink:href="#DejaVuSans-Bold-67" transform="translate(404.150391 0)"/>
      <use xlink:href="#DejaVuSans-Bold-65" transform="translate(475.732422 0)"/>
      <use xlink:href="#DejaVuSans-Bold-20" transform="translate(543.554688 0)"/>
      <use xlink:href="#DejaVuSans-Bold-6f" transform="translate(578.369141 0)"/>
      <use xlink:href="#DejaVuSans-Bold-66" transform="translate(647.070312 0)"/>
      <use xlink:href="#DejaVuSans-Bold-20" transform="translate(690.576172 0)"/>
      <use xlink:href="#DejaVuSans-Bold-64" transform="translate(725.390625 0)"/>
      <use xlink:href="#DejaVuSans-Bold-77" transform="translate(796.972656 0)"/>
      <use xlink:href="#DejaVuSans-Bold-65" transform="translate(889.355469 0)"/>
      <use xlink:href="#DejaVuSans-Bold-6c" transform="translate(957.177734 0)"/>
      <use xlink:href="#DejaVuSans-Bold-6c" transform="translate(991.455078 0)"/>
      <use xlink:href="#DejaVuSans-Bold-20" transform="translate(1025.732422 0)"/>
      <use xlink:href="#DejaVuSans-Bold-74" transform="translate(1060.546875 0)"/>
      <use xlink:href="#DejaVuSans-Bold-69" transform="translate(1108.349609 0)"/>
      <use xlink:href="#DejaVuSans-Bold-6d" transform="translate(1142.626953 0)"/>
      <use xlink:href="#DejaVuSans-Bold-65" transform="translate(1246.826172 0)"/>
     </g>
    </g>
   </g>
   <g id="line2d_37">
    <path d="M 76.258281 304.918419 
L 78.068382 304.817572 
L 79.878483 304.716725 
L 81.688584 304.615878 
L 83.498685 304.51503 
L 85.308786 304.414183 
L 87.118887 304.313336 
L 88.928988 304.212489 
L 90.739089 304.111641 
L 92.54919 304.010794 
L 94.359291 303.909947 
L 96.169392 303.8091 
L 97.979493 303.708253 
L 99.789594 303.607405 
L 101.599695 303.506558 
L 103.409796 303.405711 
L 105.219897 303.304864 
L 107.029998 303.204016 
L 108.840099 303.103169 
L 110.6502 303.002322 
L 112.460301 302.901475 
L 114.270402 302.800628 
L 116.080503 302.69978 
L 117.890604 302.598933 
L 119.700705 302.498086 
L 121.510807 302.397239 
L 123.320908 302.296392 
L 125.131009 302.195544 
L 126.94111 302.094697 
L 128.751211 301.99385 
L 130.561312 301.893003 
L 132.371413 301.792155 
L 134.181514 301.691308 
L 135.991615 301.590461 
L 137.801716 301.489614 
L 139.611817 301.388767 
L 141.421918 301.287919 
L 143.232019 301.187072 
L 145.04212 301.086225 
L 146.852221 300.985378 
L 148.662322 300.88453 
L 150.472423 300.783683 
L 152.282524 300.682836 
L 154.092625 300.581989 
L 155.902726 300.481142 
L 157.712827 300.380294 
L 159.522928 300.279447 
L 161.333029 300.1786 
L 163.14313 300.077753 
L 164.953231 299.976905 
L 166.763332 299.876058 
L 168.573433 299.775211 
L 170.383534 299.674364 
L 172.193635 299.573517 
L 174.003736 299.472669 
L 175.813837 299.371822 
L 177.623938 299.270975 
L 179.434039 299.170128 
L 181.24414 299.069281 
L 183.054241 298.968433 
L 184.864342 298.867586 
L 186.674443 298.766739 
L 188.484544 298.665892 
L 190.294645 298.565044 
L 192.104746 298.464197 
L 193.914847 298.36335 
L 195.724948 298.262503 
L 197.535049 298.161656 
L 199.34515 298.060808 
L 201.155251 297.959961 
L 202.965352 297.859114 
L 204.775453 297.758267 
L 206.585554 297.657419 
L 208.395655 297.556572 
L 210.205756 297.455725 
L 212.015857 297.354878 
L 213.825958 297.254031 
L 215.636059 297.153183 
L 217.44616 297.052336 
L 219.256261 296.951489 
L 221.066362 296.850642 
L 222.876463 296.749794 
L 224.686564 296.648947 
L 226.496665 296.5481 
L 228.306766 296.447253 
L 230.116867 296.346406 
L 231.926968 296.245558 
L 233.737069 296.144711 
L 235.54717 296.043864 
L 237.357271 295.943017 
L 239.167372 295.84217 
L 240.977473 295.741322 
L 242.787574 295.640475 
L 244.597675 295.539628 
L 246.407776 295.438781 
L 248.217877 295.337933 
L 250.027978 295.237086 
L 251.838079 295.136239 
L 253.64818 295.035392 
L 255.458281 294.934545 
" clip-path="url(#p9f5e469fab)" style="fill: none; stroke: #ffa500; stroke-width: 2.25; stroke-linecap: square"/>
   </g>
   <g id="patch_9">
    <path d="M 67.298281 357.838125 
L 67.298281 213.838125 
" style="fill: none; stroke: #000000; stroke-width: 0.8; stroke-linejoin: miter; stroke-linecap: square"/>
   </g>
   <g id="patch_10">
    <path d="M 67.298281 357.838125 
L 264.418281 357.838125 
" style="fill: none; stroke: #000000; stroke-width: 0.8; stroke-linejoin: miter; stroke-linecap: square"/>
   </g>
   <g id="text_37">
    <!-- r=0.10 -->
    <g transform="translate(201.339881 232.956563) scale(0.1 -0.1)">
     <use xlink:href="#DejaVuSans-72"/>
     <use xlink:href="#DejaVuSans-3d" transform="translate(41.113281 0)"/>
     <use xlink:href="#DejaVuSans-30" transform="translate(124.902344 0)"/>
     <use xlink:href="#DejaVuSans-2e" transform="translate(188.525391 0)"/>
     <use xlink:href="#DejaVuSans-31" transform="translate(220.3125 0)"/>
     <use xlink:href="#DejaVuSans-30" transform="translate(283.935547 0)"/>
    </g>
    <!-- p=0.688 -->
    <g transform="translate(201.339881 244.154375) scale(0.1 -0.1)">
     <use xlink:href="#DejaVuSans-70"/>
     <use xlink:href="#DejaVuSans-3d" transform="translate(63.476562 0)"/>
     <use xlink:href="#DejaVuSans-30" transform="translate(147.265625 0)"/>
     <use xlink:href="#DejaVuSans-2e" transform="translate(210.888672 0)"/>
     <use xlink:href="#DejaVuSans-36" transform="translate(242.675781 0)"/>
     <use xlink:href="#DejaVuSans-38" transform="translate(306.298828 0)"/>
     <use xlink:href="#DejaVuSans-38" transform="translate(369.921875 0)"/>
    </g>
   </g>
  </g>
  <g id="axes_4">
   <g id="patch_11">
    <path d="M 313.698281 357.838125 
L 510.818281 357.838125 
L 510.818281 213.838125 
L 313.698281 213.838125 
z
" style="fill: #ffffff"/>
   </g>
   <g id="FillBetweenPolyCollection_4">
    <path d="M 322.658281 291.72234 
L 322.658281 326.809049 
L 324.468382 326.426739 
L 326.278483 325.994797 
L 328.088584 325.650294 
L 329.898685 325.224163 
L 331.708786 324.537114 
L 333.518887 323.841646 
L 335.328988 323.466746 
L 337.139089 323.045584 
L 338.94919 322.430467 
L 340.759291 321.886853 
L 342.569392 321.32746 
L 344.379493 320.745185 
L 346.189594 320.472191 
L 347.999695 320.241695 
L 349.809796 319.930224 
L 351.619897 319.900724 
L 353.429998 320.070308 
L 355.240099 319.736683 
L 357.0502 319.41815 
L 358.860301 319.144541 
L 360.670402 318.88889 
L 362.480503 318.509123 
L 364.290604 318.473569 
L 366.100705 318.268746 
L 367.910807 318.186333 
L 369.720908 317.97846 
L 371.531009 318.150962 
L 373.34111 318.18339 
L 375.151211 318.253746 
L 376.961312 318.268227 
L 378.771413 318.105008 
L 380.581514 318.342999 
L 382.391615 318.367722 
L 384.201716 318.353115 
L 386.011817 318.363606 
L 387.821918 318.544773 
L 389.632019 318.890542 
L 391.44212 319.247844 
L 393.252221 319.59714 
L 395.062322 319.941325 
L 396.872423 319.947704 
L 398.682524 320.520994 
L 400.492625 320.988251 
L 402.302726 321.252967 
L 404.112827 321.517683 
L 405.922928 321.782398 
L 407.733029 322.402859 
L 409.54313 322.759116 
L 411.353231 323.278785 
L 413.163332 323.530222 
L 414.973433 323.814885 
L 416.783534 324.161028 
L 418.593635 324.411149 
L 420.403736 324.759045 
L 422.213837 325.212849 
L 424.023938 325.568625 
L 425.834039 325.924402 
L 427.64414 326.360133 
L 429.454241 327.000467 
L 431.264342 327.638448 
L 433.074443 328.013501 
L 434.884544 328.315462 
L 436.694645 328.842711 
L 438.504746 329.365606 
L 440.314847 329.887931 
L 442.124948 330.3886 
L 443.935049 330.867068 
L 445.74515 331.463791 
L 447.555251 331.994728 
L 449.365352 332.523896 
L 451.175453 333.053064 
L 452.985554 333.58199 
L 454.795655 334.09567 
L 456.605756 334.365875 
L 458.415857 334.965619 
L 460.225958 335.563036 
L 462.036059 335.98486 
L 463.84616 336.378131 
L 465.656261 336.770196 
L 467.466362 337.162261 
L 469.276463 337.554326 
L 471.086564 337.946391 
L 472.896665 338.338456 
L 474.706766 338.822901 
L 476.516867 339.312839 
L 478.326968 339.802776 
L 480.137069 340.292714 
L 481.94717 340.782651 
L 483.757271 341.272589 
L 485.567372 341.762527 
L 487.377473 342.252464 
L 489.187574 342.742402 
L 490.997675 343.232339 
L 492.807776 343.722277 
L 494.617877 344.210372 
L 496.427978 344.697144 
L 498.238079 345.183916 
L 500.04818 345.670688 
L 501.858281 346.15746 
L 501.858281 253.404649 
L 501.858281 253.404649 
L 500.04818 254.051896 
L 498.238079 254.701967 
L 496.427978 255.355561 
L 494.617877 256.009155 
L 492.807776 256.860136 
L 490.997675 257.700536 
L 489.187574 258.235417 
L 487.377473 258.845752 
L 485.567372 259.526589 
L 483.757271 260.085376 
L 481.94717 260.645575 
L 480.137069 261.205773 
L 478.326968 261.838136 
L 476.516867 262.493536 
L 474.706766 263.244782 
L 472.896665 263.964553 
L 471.086564 264.510718 
L 469.276463 265.078517 
L 467.466362 265.723721 
L 465.656261 266.226953 
L 463.84616 266.7183 
L 462.036059 267.405394 
L 460.225958 268.09255 
L 458.415857 268.779706 
L 456.605756 269.46822 
L 454.795655 270.159735 
L 452.985554 270.848723 
L 451.175453 271.420955 
L 449.365352 271.951194 
L 447.555251 272.503326 
L 445.74515 273.220884 
L 443.935049 273.719954 
L 442.124948 274.27057 
L 440.314847 274.836773 
L 438.504746 275.389663 
L 436.694645 275.867991 
L 434.884544 276.507565 
L 433.074443 277.0246 
L 431.264342 277.610493 
L 429.454241 278.246989 
L 427.64414 278.732819 
L 425.834039 279.28892 
L 424.023938 279.952285 
L 422.213837 280.522202 
L 420.403736 281.020734 
L 418.593635 281.623858 
L 416.783534 282.230615 
L 414.973433 282.882366 
L 413.163332 283.502799 
L 411.353231 283.936621 
L 409.54313 284.423216 
L 407.733029 284.594584 
L 405.922928 285.085702 
L 404.112827 285.661436 
L 402.302726 286.194171 
L 400.492625 286.623913 
L 398.682524 286.789145 
L 396.872423 287.155515 
L 395.062322 287.428526 
L 393.252221 287.84094 
L 391.44212 287.953194 
L 389.632019 288.37574 
L 387.821918 288.735487 
L 386.011817 288.983149 
L 384.201716 289.475969 
L 382.391615 289.834967 
L 380.581514 290.135519 
L 378.771413 290.454979 
L 376.961312 290.621284 
L 375.151211 290.863836 
L 373.34111 291.071934 
L 371.531009 291.302532 
L 369.720908 291.5591 
L 367.910807 291.77031 
L 366.100705 291.91782 
L 364.290604 292.231936 
L 362.480503 292.463544 
L 360.670402 292.662468 
L 358.860301 292.857473 
L 357.0502 293.16046 
L 355.240099 293.368985 
L 353.429998 293.416505 
L 351.619897 293.414086 
L 349.809796 293.519049 
L 347.999695 293.688003 
L 346.189594 293.761346 
L 344.379493 293.746448 
L 342.569392 293.596705 
L 340.759291 293.712189 
L 338.94919 293.642417 
L 337.139089 293.546105 
L 335.328988 293.53699 
L 333.518887 293.438345 
L 331.708786 293.152709 
L 329.898685 293.14789 
L 328.088584 292.629661 
L 326.278483 292.277453 
L 324.468382 291.701672 
L 322.658281 291.72234 
z
" clip-path="url(#pde59b82a57)" style="fill: #ffa500; fill-opacity: 0.15"/>
   </g>
   <g id="PathCollection_7">
    <g clip-path="url(#pde59b82a57)">
     <use xlink:href="#ma9e80009c0" x="348.258281" y="302.205192" style="fill: #808080; fill-opacity: 0.85; stroke: #808080; stroke-opacity: 0.85"/>
     <use xlink:href="#ma9e80009c0" x="322.658281" y="304.622884" style="fill: #808080; fill-opacity: 0.85; stroke: #808080; stroke-opacity: 0.85"/>
     <use xlink:href="#ma9e80009c0" x="399.458281" y="295.474011" style="fill: #808080; fill-opacity: 0.85; stroke: #808080; stroke-opacity: 0.85"/>
     <use xlink:href="#ma9e80009c0" x="399.458281" y="286.754086" style="fill: #808080; fill-opacity: 0.85; stroke: #808080; stroke-opacity: 0.85"/>
     <use xlink:href="#ma9e80009c0" x="343.138281" y="349.709382" style="fill: #808080; fill-opacity: 0.85; stroke: #808080; stroke-opacity: 0.85"/>
     <use xlink:href="#ma9e80009c0" x="338.018281" y="351.29267" style="fill: #808080; fill-opacity: 0.85; stroke: #808080; stroke-opacity: 0.85"/>
     <use xlink:href="#ma9e80009c0" x="389.218281" y="321.716354" style="fill: #808080; fill-opacity: 0.85; stroke: #808080; stroke-opacity: 0.85"/>
     <use xlink:href="#ma9e80009c0" x="348.258281" y="269.029092" style="fill: #808080; fill-opacity: 0.85; stroke: #808080; stroke-opacity: 0.85"/>
    </g>
   </g>
   <g id="PathCollection_8">
    <g clip-path="url(#pde59b82a57)">
     <use xlink:href="#m52c645c744" x="389.218281" y="338.543534" style="fill: #808080; fill-opacity: 0.85; stroke: #808080; stroke-opacity: 0.85"/>
     <use xlink:href="#m52c645c744" x="322.658281" y="298.914516" style="fill: #808080; fill-opacity: 0.85; stroke: #808080; stroke-opacity: 0.85"/>
     <use xlink:href="#m52c645c744" x="501.858281" y="288.623501" style="fill: #808080; fill-opacity: 0.85; stroke: #808080; stroke-opacity: 0.85"/>
     <use xlink:href="#m52c645c744" x="348.258281" y="257.447342" style="fill: #808080; fill-opacity: 0.85; stroke: #808080; stroke-opacity: 0.85"/>
     <use xlink:href="#m52c645c744" x="399.458281" y="309.834235" style="fill: #808080; fill-opacity: 0.85; stroke: #808080; stroke-opacity: 0.85"/>
     <use xlink:href="#m52c645c744" x="389.218281" y="339.707383" style="fill: #808080; fill-opacity: 0.85; stroke: #808080; stroke-opacity: 0.85"/>
     <use xlink:href="#m52c645c744" x="325.218281" y="308.908485" style="fill: #808080; fill-opacity: 0.85; stroke: #808080; stroke-opacity: 0.85"/>
     <use xlink:href="#m52c645c744" x="419.938281" y="258.584264" style="fill: #808080; fill-opacity: 0.85; stroke: #808080; stroke-opacity: 0.85"/>
     <use xlink:href="#m52c645c744" x="338.018281" y="306.198322" style="fill: #808080; fill-opacity: 0.85; stroke: #808080; stroke-opacity: 0.85"/>
     <use xlink:href="#m52c645c744" x="338.018281" y="290.561966" style="fill: #808080; fill-opacity: 0.85; stroke: #808080; stroke-opacity: 0.85"/>
    </g>
   </g>
   <g id="matplotlib.axis_7">
    <g id="xtick_22">
     <g id="line2d_38">
      <g>
       <use xlink:href="#m5813f2cfdb" x="317.538281" y="357.838125" style="stroke: #000000; stroke-width: 0.8"/>
      </g>
     </g>
     <g id="text_38">
      <!-- 0 -->
      <g transform="translate(314.038906 373.196406) scale(0.11 -0.11)">
       <use xlink:href="#DejaVuSans-30"/>
      </g>
     </g>
    </g>
    <g id="xtick_23">
     <g id="line2d_39">
      <g>
       <use xlink:href="#m5813f2cfdb" x="348.258281" y="357.838125" style="stroke: #000000; stroke-width: 0.8"/>
      </g>
     </g>
     <g id="text_39">
      <!-- 3 -->
      <g transform="translate(344.758906 373.196406) scale(0.11 -0.11)">
       <use xlink:href="#DejaVuSans-33"/>
      </g>
     </g>
    </g>
    <g id="xtick_24">
     <g id="line2d_40">
      <g>
       <use xlink:href="#m5813f2cfdb" x="378.978281" y="357.838125" style="stroke: #000000; stroke-width: 0.8"/>
      </g>
     </g>
     <g id="text_40">
      <!-- 6 -->
      <g transform="translate(375.478906 373.196406) scale(0.11 -0.11)">
       <use xlink:href="#DejaVuSans-36"/>
      </g>
     </g>
    </g>
    <g id="xtick_25">
     <g id="line2d_41">
      <g>
       <use xlink:href="#m5813f2cfdb" x="409.698281" y="357.838125" style="stroke: #000000; stroke-width: 0.8"/>
      </g>
     </g>
     <g id="text_41">
      <!-- 9 -->
      <g transform="translate(406.198906 373.196406) scale(0.11 -0.11)">
       <use xlink:href="#DejaVuSans-39"/>
      </g>
     </g>
    </g>
    <g id="xtick_26">
     <g id="line2d_42">
      <g>
       <use xlink:href="#m5813f2cfdb" x="440.418281" y="357.838125" style="stroke: #000000; stroke-width: 0.8"/>
      </g>
     </g>
     <g id="text_42">
      <!-- 12 -->
      <g transform="translate(433.419531 373.196406) scale(0.11 -0.11)">
       <use xlink:href="#DejaVuSans-31"/>
       <use xlink:href="#DejaVuSans-32" transform="translate(63.623047 0)"/>
      </g>
     </g>
    </g>
    <g id="xtick_27">
     <g id="line2d_43">
      <g>
       <use xlink:href="#m5813f2cfdb" x="471.138281" y="357.838125" style="stroke: #000000; stroke-width: 0.8"/>
      </g>
     </g>
     <g id="text_43">
      <!-- 15 -->
      <g transform="translate(464.139531 373.196406) scale(0.11 -0.11)">
       <use xlink:href="#DejaVuSans-31"/>
       <use xlink:href="#DejaVuSans-35" transform="translate(63.623047 0)"/>
      </g>
     </g>
    </g>
    <g id="xtick_28">
     <g id="line2d_44">
      <g>
       <use xlink:href="#m5813f2cfdb" x="501.858281" y="357.838125" style="stroke: #000000; stroke-width: 0.8"/>
      </g>
     </g>
     <g id="text_44">
      <!-- 18 -->
      <g transform="translate(494.859531 373.196406) scale(0.11 -0.11)">
       <use xlink:href="#DejaVuSans-31"/>
       <use xlink:href="#DejaVuSans-38" transform="translate(63.623047 0)"/>
      </g>
     </g>
    </g>
    <g id="text_45">
     <!-- Disease duration -->
     <g transform="translate(350.130469 389.362031) scale(0.13 -0.13)">
      <use xlink:href="#DejaVuSans-Bold-44"/>
      <use xlink:href="#DejaVuSans-Bold-69" transform="translate(83.007812 0)"/>
      <use xlink:href="#DejaVuSans-Bold-73" transform="translate(117.285156 0)"/>
      <use xlink:href="#DejaVuSans-Bold-65" transform="translate(176.806641 0)"/>
      <use xlink:href="#DejaVuSans-Bold-61" transform="translate(244.628906 0)"/>
      <use xlink:href="#DejaVuSans-Bold-73" transform="translate(312.109375 0)"/>
      <use xlink:href="#DejaVuSans-Bold-65" transform="translate(371.630859 0)"/>
      <use xlink:href="#DejaVuSans-Bold-20" transform="translate(439.453125 0)"/>
      <use xlink:href="#DejaVuSans-Bold-64" transform="translate(474.267578 0)"/>
      <use xlink:href="#DejaVuSans-Bold-75" transform="translate(545.849609 0)"/>
      <use xlink:href="#DejaVuSans-Bold-72" transform="translate(617.041016 0)"/>
      <use xlink:href="#DejaVuSans-Bold-61" transform="translate(666.357422 0)"/>
      <use xlink:href="#DejaVuSans-Bold-74" transform="translate(733.837891 0)"/>
      <use xlink:href="#DejaVuSans-Bold-69" transform="translate(781.640625 0)"/>
      <use xlink:href="#DejaVuSans-Bold-6f" transform="translate(815.917969 0)"/>
      <use xlink:href="#DejaVuSans-Bold-6e" transform="translate(884.619141 0)"/>
     </g>
    </g>
   </g>
   <g id="matplotlib.axis_8">
    <g id="ytick_14">
     <g id="line2d_45">
      <g>
       <use xlink:href="#mfa6cbeec6a" x="313.698281" y="331.405781" style="stroke: #000000; stroke-width: 0.8"/>
      </g>
     </g>
    </g>
    <g id="ytick_15">
     <g id="line2d_46">
      <g>
       <use xlink:href="#mfa6cbeec6a" x="313.698281" y="288.075875" style="stroke: #000000; stroke-width: 0.8"/>
      </g>
     </g>
    </g>
    <g id="ytick_16">
     <g id="line2d_47">
      <g>
       <use xlink:href="#mfa6cbeec6a" x="313.698281" y="244.745969" style="stroke: #000000; stroke-width: 0.8"/>
      </g>
     </g>
    </g>
   </g>
   <g id="line2d_48">
    <path d="M 322.658281 309.400526 
L 324.468382 309.207128 
L 326.278483 309.01373 
L 328.088584 308.820332 
L 329.898685 308.626933 
L 331.708786 308.433535 
L 333.518887 308.240137 
L 335.328988 308.046739 
L 337.139089 307.853341 
L 338.94919 307.659943 
L 340.759291 307.466544 
L 342.569392 307.273146 
L 344.379493 307.079748 
L 346.189594 306.88635 
L 347.999695 306.692952 
L 349.809796 306.499554 
L 351.619897 306.306155 
L 353.429998 306.112757 
L 355.240099 305.919359 
L 357.0502 305.725961 
L 358.860301 305.532563 
L 360.670402 305.339165 
L 362.480503 305.145766 
L 364.290604 304.952368 
L 366.100705 304.75897 
L 367.910807 304.565572 
L 369.720908 304.372174 
L 371.531009 304.178775 
L 373.34111 303.985377 
L 375.151211 303.791979 
L 376.961312 303.598581 
L 378.771413 303.405183 
L 380.581514 303.211785 
L 382.391615 303.018386 
L 384.201716 302.824988 
L 386.011817 302.63159 
L 387.821918 302.438192 
L 389.632019 302.244794 
L 391.44212 302.051396 
L 393.252221 301.857997 
L 395.062322 301.664599 
L 396.872423 301.471201 
L 398.682524 301.277803 
L 400.492625 301.084405 
L 402.302726 300.891007 
L 404.112827 300.697608 
L 405.922928 300.50421 
L 407.733029 300.310812 
L 409.54313 300.117414 
L 411.353231 299.924016 
L 413.163332 299.730618 
L 414.973433 299.537219 
L 416.783534 299.343821 
L 418.593635 299.150423 
L 420.403736 298.957025 
L 422.213837 298.763627 
L 424.023938 298.570228 
L 425.834039 298.37683 
L 427.64414 298.183432 
L 429.454241 297.990034 
L 431.264342 297.796636 
L 433.074443 297.603238 
L 434.884544 297.409839 
L 436.694645 297.216441 
L 438.504746 297.023043 
L 440.314847 296.829645 
L 442.124948 296.636247 
L 443.935049 296.442849 
L 445.74515 296.24945 
L 447.555251 296.056052 
L 449.365352 295.862654 
L 451.175453 295.669256 
L 452.985554 295.475858 
L 454.795655 295.28246 
L 456.605756 295.089061 
L 458.415857 294.895663 
L 460.225958 294.702265 
L 462.036059 294.508867 
L 463.84616 294.315469 
L 465.656261 294.122071 
L 467.466362 293.928672 
L 469.276463 293.735274 
L 471.086564 293.541876 
L 472.896665 293.348478 
L 474.706766 293.15508 
L 476.516867 292.961681 
L 478.326968 292.768283 
L 480.137069 292.574885 
L 481.94717 292.381487 
L 483.757271 292.188089 
L 485.567372 291.994691 
L 487.377473 291.801292 
L 489.187574 291.607894 
L 490.997675 291.414496 
L 492.807776 291.221098 
L 494.617877 291.0277 
L 496.427978 290.834302 
L 498.238079 290.640903 
L 500.04818 290.447505 
L 501.858281 290.254107 
" clip-path="url(#pde59b82a57)" style="fill: none; stroke: #ffa500; stroke-width: 2.25; stroke-linecap: square"/>
   </g>
   <g id="patch_12">
    <path d="M 313.698281 357.838125 
L 313.698281 213.838125 
" style="fill: none; stroke: #000000; stroke-width: 0.8; stroke-linejoin: miter; stroke-linecap: square"/>
   </g>
   <g id="patch_13">
    <path d="M 313.698281 357.838125 
L 510.818281 357.838125 
" style="fill: none; stroke: #000000; stroke-width: 0.8; stroke-linejoin: miter; stroke-linecap: square"/>
   </g>
   <g id="text_46">
    <!-- r=0.17 -->
    <g transform="translate(447.739881 232.956563) scale(0.1 -0.1)">
     <use xlink:href="#DejaVuSans-72"/>
     <use xlink:href="#DejaVuSans-3d" transform="translate(41.113281 0)"/>
     <use xlink:href="#DejaVuSans-30" transform="translate(124.902344 0)"/>
     <use xlink:href="#DejaVuSans-2e" transform="translate(188.525391 0)"/>
     <use xlink:href="#DejaVuSans-31" transform="translate(220.3125 0)"/>
     <use xlink:href="#DejaVuSans-37" transform="translate(283.935547 0)"/>
    </g>
    <!-- p=0.492 -->
    <g transform="translate(447.739881 244.154375) scale(0.1 -0.1)">
     <use xlink:href="#DejaVuSans-70"/>
     <use xlink:href="#DejaVuSans-3d" transform="translate(63.476562 0)"/>
     <use xlink:href="#DejaVuSans-30" transform="translate(147.265625 0)"/>
     <use xlink:href="#DejaVuSans-2e" transform="translate(210.888672 0)"/>
     <use xlink:href="#DejaVuSans-34" transform="translate(242.675781 0)"/>
     <use xlink:href="#DejaVuSans-39" transform="translate(306.298828 0)"/>
     <use xlink:href="#DejaVuSans-32" transform="translate(369.921875 0)"/>
    </g>
   </g>
  </g>
 </g>
 <defs>
  <clipPath id="p53c1f4d21f">
   <rect x="67.298281" y="29.518125" width="197.12" height="144"/>
  </clipPath>
  <clipPath id="p804161404d">
   <rect x="313.698281" y="29.518125" width="197.12" height="144"/>
  </clipPath>
  <clipPath id="p9f5e469fab">
   <rect x="67.298281" y="213.838125" width="197.12" height="144"/>
  </clipPath>
  <clipPath id="pde59b82a57">
   <rect x="313.698281" y="213.838125" width="197.12" height="144"/>
  </clipPath>
 </defs>
</svg>
