<?xml version="1.0" encoding="utf-8" standalone="no"?>
<!DOCTYPE svg PUBLIC "-//W3C//DTD SVG 1.1//EN"
  "http://www.w3.org/Graphics/SVG/1.1/DTD/svg11.dtd">
<svg xmlns:xlink="http://www.w3.org/1999/xlink" width="525.218281pt" height="406.567188pt" viewBox="0 0 525.218281 406.567188" xmlns="http://www.w3.org/2000/svg" version="1.1">
 <metadata>
  <rdf:RDF xmlns:dc="http://purl.org/dc/elements/1.1/" xmlns:cc="http://creativecommons.org/ns#" xmlns:rdf="http://www.w3.org/1999/02/22-rdf-syntax-ns#">
   <cc:Work>
    <dc:type rdf:resource="http://purl.org/dc/dcmitype/StillImage"/>
    <dc:date>2026-01-12T16:05:51.447417</dc:date>
    <dc:format>image/svg+xml</dc:format>
    <dc:creator>
     <cc:Agent>
      <dc:title>Matplotlib v3.10.7, https://matplotlib.org/</dc:title>
     </cc:Agent>
    </dc:creator>
   </cc:Work>
  </rdf:RDF>
 </metadata>
 <defs>
  <style type="text/css">*{stroke-linejoin: round; stroke-linecap: butt}</style>
 </defs>
 <g id="figure_1">
  <g id="patch_1">
   <path d="M 0 406.567188 
L 525.218281 406.567188 
L 525.218281 0 
L 0 0 
z
" style="fill: #ffffff"/>
  </g>
  <g id="axes_1">
   <g id="patch_2">
    <path d="M 67.298281 173.518125 
L 264.418281 173.518125 
L 264.418281 29.518125 
L 67.298281 29.518125 
z
" style="fill: #ffffff"/>
   </g>
   <g id="FillBetweenPolyCollection_1">
    <path d="M 91.938281 110.827844 
L 91.938281 162.535737 
L 93.431615 162.002584 
L 94.924948 161.469431 
L 96.418281 160.962441 
L 97.911615 160.607776 
L 99.404948 160.12341 
L 100.898281 159.637526 
L 102.391615 159.14966 
L 103.884948 158.661793 
L 105.378281 158.173927 
L 106.871615 157.686061 
L 108.364948 157.198195 
L 109.858281 156.764827 
L 111.351615 156.408689 
L 112.844948 156.052551 
L 114.338281 155.583977 
L 115.831615 155.109631 
L 117.324948 154.733486 
L 118.818281 154.320523 
L 120.311615 153.764494 
L 121.804948 153.208083 
L 123.298281 152.718157 
L 124.791615 152.29854 
L 126.284948 151.992156 
L 127.778281 151.530534 
L 129.271615 151.195025 
L 130.764948 150.859661 
L 132.258281 150.49208 
L 133.751615 150.147323 
L 135.244948 149.802566 
L 136.738281 149.427764 
L 138.231615 148.859657 
L 139.724948 148.538324 
L 141.218281 147.855228 
L 142.711615 147.482712 
L 144.204948 147.039891 
L 145.698281 146.701092 
L 147.191615 146.529492 
L 148.684948 146.237985 
L 150.178281 145.748706 
L 151.671615 145.272695 
L 153.164948 144.822887 
L 154.658281 144.334704 
L 156.151615 144.065387 
L 157.644948 143.821764 
L 159.138281 143.568826 
L 160.631615 143.320167 
L 162.124948 142.870761 
L 163.618281 142.578216 
L 165.111615 142.300904 
L 166.604948 141.870158 
L 168.098281 141.671495 
L 169.591615 141.466529 
L 171.084948 141.271601 
L 172.578281 141.073712 
L 174.071615 140.874013 
L 175.564948 140.645564 
L 177.058281 140.410191 
L 178.551615 140.211627 
L 180.044948 140.005431 
L 181.538281 139.830899 
L 183.031615 139.657915 
L 184.524948 139.4873 
L 186.018281 139.308393 
L 187.511615 139.028702 
L 189.004948 138.871236 
L 190.498281 138.737996 
L 191.991615 138.622371 
L 193.484948 138.448033 
L 194.978281 138.265977 
L 196.471615 138.071639 
L 197.964948 137.8773 
L 199.458281 137.719655 
L 200.951615 137.582739 
L 202.444948 137.415853 
L 203.938281 137.244716 
L 205.431615 137.077366 
L 206.924948 137.078092 
L 208.418281 137.072501 
L 209.911615 136.962627 
L 211.404948 136.850945 
L 212.898281 136.812635 
L 214.391615 136.776777 
L 215.884948 136.65636 
L 217.378281 136.53709 
L 218.871615 136.444478 
L 220.364948 136.315475 
L 221.858281 136.197726 
L 223.351615 136.47155 
L 224.844948 136.516892 
L 226.338281 136.388862 
L 227.831615 136.260762 
L 229.324948 136.295245 
L 230.818281 136.461915 
L 232.311615 136.471705 
L 233.804948 136.418494 
L 235.298281 136.359214 
L 236.791615 136.300545 
L 238.284948 136.231225 
L 239.778281 136.186872 
L 239.778281 97.149803 
L 239.778281 97.149803 
L 238.284948 97.756881 
L 236.791615 98.098336 
L 235.298281 98.439791 
L 233.804948 98.781246 
L 232.311615 99.236727 
L 230.818281 99.754192 
L 229.324948 100.271656 
L 227.831615 100.505139 
L 226.338281 100.931448 
L 224.844948 101.326806 
L 223.351615 101.806748 
L 221.858281 102.321575 
L 220.364948 102.642087 
L 218.871615 102.968878 
L 217.378281 103.290467 
L 215.884948 103.65028 
L 214.391615 104.021092 
L 212.898281 104.294832 
L 211.404948 104.577615 
L 209.911615 104.882705 
L 208.418281 105.213792 
L 206.924948 105.652126 
L 205.431615 106.111559 
L 203.938281 106.458701 
L 202.444948 106.59811 
L 200.951615 106.731926 
L 199.458281 106.934308 
L 197.964948 107.471131 
L 196.471615 107.53456 
L 194.978281 107.682307 
L 193.484948 107.960167 
L 191.991615 108.094286 
L 190.498281 108.403589 
L 189.004948 108.380458 
L 187.511615 108.681312 
L 186.018281 109.141804 
L 184.524948 109.41356 
L 183.031615 109.725425 
L 181.538281 109.805123 
L 180.044948 110.061784 
L 178.551615 110.149176 
L 177.058281 110.071565 
L 175.564948 110.092894 
L 174.071615 110.037944 
L 172.578281 110.23508 
L 171.084948 110.447944 
L 169.591615 110.438802 
L 168.098281 110.454937 
L 166.604948 110.527137 
L 165.111615 110.601214 
L 163.618281 110.656374 
L 162.124948 110.555613 
L 160.631615 110.371018 
L 159.138281 110.501495 
L 157.644948 110.612767 
L 156.151615 110.769283 
L 154.658281 110.672762 
L 153.164948 110.764097 
L 151.671615 110.953335 
L 150.178281 111.052655 
L 148.684948 111.292326 
L 147.191615 111.471829 
L 145.698281 111.540852 
L 144.204948 111.607958 
L 142.711615 111.675065 
L 141.218281 111.745074 
L 139.724948 111.693915 
L 138.231615 111.621429 
L 136.738281 111.548942 
L 135.244948 111.476455 
L 133.751615 111.403969 
L 132.258281 111.3329 
L 130.764948 111.263638 
L 129.271615 111.315136 
L 127.778281 111.435549 
L 126.284948 111.41849 
L 124.791615 111.358822 
L 123.298281 111.249753 
L 121.804948 111.140683 
L 120.311615 111.031614 
L 118.818281 110.977349 
L 117.324948 110.971089 
L 115.831615 110.966089 
L 114.338281 110.963355 
L 112.844948 110.934173 
L 111.351615 110.881748 
L 109.858281 110.82555 
L 108.364948 110.771396 
L 106.871615 110.870681 
L 105.378281 110.94039 
L 103.884948 110.93985 
L 102.391615 110.939309 
L 100.898281 110.934946 
L 99.404948 110.928912 
L 97.911615 110.922877 
L 96.418281 110.916843 
L 94.924948 110.910809 
L 93.431615 110.904775 
L 91.938281 110.827844 
z
" clip-path="url(#pc7f60414a9)" style="fill: #ffa500; fill-opacity: 0.15"/>
   </g>
   <g id="PathCollection_1">
    <defs>
     <path id="m612bd4969d" d="M -2.645751 2.645751 
L 2.645751 2.645751 
L 2.645751 -2.645751 
L -2.645751 -2.645751 
z
" style="stroke: #808080; stroke-opacity: 0.85"/>
    </defs>
    <g clip-path="url(#pc7f60414a9)">
     <use xlink:href="#m612bd4969d" x="190.498281" y="131.597497" style="fill: #808080; fill-opacity: 0.85; stroke: #808080; stroke-opacity: 0.85"/>
     <use xlink:href="#m612bd4969d" x="239.778281" y="149.018901" style="fill: #808080; fill-opacity: 0.85; stroke: #808080; stroke-opacity: 0.85"/>
     <use xlink:href="#m612bd4969d" x="239.778281" y="126.338258" style="fill: #808080; fill-opacity: 0.85; stroke: #808080; stroke-opacity: 0.85"/>
     <use xlink:href="#m612bd4969d" x="239.778281" y="111.717581" style="fill: #808080; fill-opacity: 0.85; stroke: #808080; stroke-opacity: 0.85"/>
     <use xlink:href="#m612bd4969d" x="91.938281" y="139.413373" style="fill: #808080; fill-opacity: 0.85; stroke: #808080; stroke-opacity: 0.85"/>
     <use xlink:href="#m612bd4969d" x="141.218281" y="118.595145" style="fill: #808080; fill-opacity: 0.85; stroke: #808080; stroke-opacity: 0.85"/>
     <use xlink:href="#m612bd4969d" x="141.218281" y="126.118764" style="fill: #808080; fill-opacity: 0.85; stroke: #808080; stroke-opacity: 0.85"/>
     <use xlink:href="#m612bd4969d" x="239.778281" y="140.664082" style="fill: #808080; fill-opacity: 0.85; stroke: #808080; stroke-opacity: 0.85"/>
    </g>
   </g>
   <g id="PathCollection_2">
    <defs>
     <path id="mcd7feb2cba" d="M 0 -2.645751 
L -2.645751 2.645751 
L 2.645751 2.645751 
z
" style="stroke: #808080; stroke-opacity: 0.85"/>
    </defs>
    <g clip-path="url(#pc7f60414a9)">
     <use xlink:href="#mcd7feb2cba" x="91.938281" y="147.563116" style="fill: #808080; fill-opacity: 0.85; stroke: #808080; stroke-opacity: 0.85"/>
     <use xlink:href="#mcd7feb2cba" x="190.498281" y="149.99222" style="fill: #808080; fill-opacity: 0.85; stroke: #808080; stroke-opacity: 0.85"/>
     <use xlink:href="#mcd7feb2cba" x="190.498281" y="138.625191" style="fill: #808080; fill-opacity: 0.85; stroke: #808080; stroke-opacity: 0.85"/>
     <use xlink:href="#mcd7feb2cba" x="141.218281" y="148.767742" style="fill: #808080; fill-opacity: 0.85; stroke: #808080; stroke-opacity: 0.85"/>
     <use xlink:href="#mcd7feb2cba" x="141.218281" y="166.97267" style="fill: #808080; fill-opacity: 0.85; stroke: #808080; stroke-opacity: 0.85"/>
     <use xlink:href="#mcd7feb2cba" x="239.778281" y="69.394527" style="fill: #808080; fill-opacity: 0.85; stroke: #808080; stroke-opacity: 0.85"/>
     <use xlink:href="#mcd7feb2cba" x="91.938281" y="148.414521" style="fill: #808080; fill-opacity: 0.85; stroke: #808080; stroke-opacity: 0.85"/>
     <use xlink:href="#mcd7feb2cba" x="141.218281" y="36.06358" style="fill: #808080; fill-opacity: 0.85; stroke: #808080; stroke-opacity: 0.85"/>
     <use xlink:href="#mcd7feb2cba" x="141.218281" y="151.016844" style="fill: #808080; fill-opacity: 0.85; stroke: #808080; stroke-opacity: 0.85"/>
     <use xlink:href="#mcd7feb2cba" x="239.778281" y="92.101517" style="fill: #808080; fill-opacity: 0.85; stroke: #808080; stroke-opacity: 0.85"/>
    </g>
   </g>
   <g id="matplotlib.axis_1">
    <g id="xtick_1">
     <g id="line2d_1">
      <defs>
       <path id="ma63d4ba1d5" d="M 0 0 
L 0 3.5 
" style="stroke: #000000; stroke-width: 0.8"/>
      </defs>
      <g>
       <use xlink:href="#ma63d4ba1d5" x="91.938281" y="173.518125" style="stroke: #000000; stroke-width: 0.8"/>
      </g>
     </g>
     <g id="text_1">
      <!-- 1 -->
      <g transform="translate(88.438906 188.876406) scale(0.11 -0.11)">
       <defs>
        <path id="DejaVuSans-31" d="M 794 531 
L 1825 531 
L 1825 4091 
L 703 3866 
L 703 4441 
L 1819 4666 
L 2450 4666 
L 2450 531 
L 3481 531 
L 3481 0 
L 794 0 
L 794 531 
z
" transform="scale(0.015625)"/>
       </defs>
       <use xlink:href="#DejaVuSans-31"/>
      </g>
     </g>
    </g>
    <g id="xtick_2">
     <g id="line2d_2">
      <g>
       <use xlink:href="#ma63d4ba1d5" x="141.218281" y="173.518125" style="stroke: #000000; stroke-width: 0.8"/>
      </g>
     </g>
     <g id="text_2">
      <!-- 2 -->
      <g transform="translate(137.718906 188.876406) scale(0.11 -0.11)">
       <defs>
        <path id="DejaVuSans-32" d="M 1228 531 
L 3431 531 
L 3431 0 
L 469 0 
L 469 531 
Q 828 903 1448 1529 
Q 2069 2156 2228 2338 
Q 2531 2678 2651 2914 
Q 2772 3150 2772 3378 
Q 2772 3750 2511 3984 
Q 2250 4219 1831 4219 
Q 1534 4219 1204 4116 
Q 875 4013 500 3803 
L 500 4441 
Q 881 4594 1212 4672 
Q 1544 4750 1819 4750 
Q 2544 4750 2975 4387 
Q 3406 4025 3406 3419 
Q 3406 3131 3298 2873 
Q 3191 2616 2906 2266 
Q 2828 2175 2409 1742 
Q 1991 1309 1228 531 
z
" transform="scale(0.015625)"/>
       </defs>
       <use xlink:href="#DejaVuSans-32"/>
      </g>
     </g>
    </g>
    <g id="xtick_3">
     <g id="line2d_3">
      <g>
       <use xlink:href="#ma63d4ba1d5" x="190.498281" y="173.518125" style="stroke: #000000; stroke-width: 0.8"/>
      </g>
     </g>
     <g id="text_3">
      <!-- 3 -->
      <g transform="translate(186.998906 188.876406) scale(0.11 -0.11)">
       <defs>
        <path id="DejaVuSans-33" d="M 2597 2516 
Q 3050 2419 3304 2112 
Q 3559 1806 3559 1356 
Q 3559 666 3084 287 
Q 2609 -91 1734 -91 
Q 1441 -91 1130 -33 
Q 819 25 488 141 
L 488 750 
Q 750 597 1062 519 
Q 1375 441 1716 441 
Q 2309 441 2620 675 
Q 2931 909 2931 1356 
Q 2931 1769 2642 2001 
Q 2353 2234 1838 2234 
L 1294 2234 
L 1294 2753 
L 1863 2753 
Q 2328 2753 2575 2939 
Q 2822 3125 2822 3475 
Q 2822 3834 2567 4026 
Q 2313 4219 1838 4219 
Q 1578 4219 1281 4162 
Q 984 4106 628 3988 
L 628 4550 
Q 988 4650 1302 4700 
Q 1616 4750 1894 4750 
Q 2613 4750 3031 4423 
Q 3450 4097 3450 3541 
Q 3450 3153 3228 2886 
Q 3006 2619 2597 2516 
z
" transform="scale(0.015625)"/>
       </defs>
       <use xlink:href="#DejaVuSans-33"/>
      </g>
     </g>
    </g>
    <g id="xtick_4">
     <g id="line2d_4">
      <g>
       <use xlink:href="#ma63d4ba1d5" x="239.778281" y="173.518125" style="stroke: #000000; stroke-width: 0.8"/>
      </g>
     </g>
     <g id="text_4">
      <!-- 4 -->
      <g transform="translate(236.278906 188.876406) scale(0.11 -0.11)">
       <defs>
        <path id="DejaVuSans-34" d="M 2419 4116 
L 825 1625 
L 2419 1625 
L 2419 4116 
z
M 2253 4666 
L 3047 4666 
L 3047 1625 
L 3713 1625 
L 3713 1100 
L 3047 1100 
L 3047 0 
L 2419 0 
L 2419 1100 
L 313 1100 
L 313 1709 
L 2253 4666 
z
" transform="scale(0.015625)"/>
       </defs>
       <use xlink:href="#DejaVuSans-34"/>
      </g>
     </g>
    </g>
   </g>
   <g id="matplotlib.axis_2">
    <g id="ytick_1">
     <g id="line2d_5">
      <defs>
       <path id="ma632bc1147" d="M 0 0 
L -3.5 0 
" style="stroke: #000000; stroke-width: 0.8"/>
      </defs>
      <g>
       <use xlink:href="#ma632bc1147" x="67.298281" y="155.735953" style="stroke: #000000; stroke-width: 0.8"/>
      </g>
     </g>
     <g id="text_5">
      <!-- 0 -->
      <g transform="translate(53.299531 159.915094) scale(0.11 -0.11)">
       <defs>
        <path id="DejaVuSans-30" d="M 2034 4250 
Q 1547 4250 1301 3770 
Q 1056 3291 1056 2328 
Q 1056 1369 1301 889 
Q 1547 409 2034 409 
Q 2525 409 2770 889 
Q 3016 1369 3016 2328 
Q 3016 3291 2770 3770 
Q 2525 4250 2034 4250 
z
M 2034 4750 
Q 2819 4750 3233 4129 
Q 3647 3509 3647 2328 
Q 3647 1150 3233 529 
Q 2819 -91 2034 -91 
Q 1250 -91 836 529 
Q 422 1150 422 2328 
Q 422 3509 836 4129 
Q 1250 4750 2034 4750 
z
" transform="scale(0.015625)"/>
       </defs>
       <use xlink:href="#DejaVuSans-30"/>
      </g>
     </g>
    </g>
    <g id="ytick_2">
     <g id="line2d_6">
      <g>
       <use xlink:href="#ma632bc1147" x="67.298281" y="126.516826" style="stroke: #000000; stroke-width: 0.8"/>
      </g>
     </g>
     <g id="text_6">
      <!-- 20 -->
      <g transform="translate(46.300781 130.695967) scale(0.11 -0.11)">
       <use xlink:href="#DejaVuSans-32"/>
       <use xlink:href="#DejaVuSans-30" transform="translate(63.623047 0)"/>
      </g>
     </g>
    </g>
    <g id="ytick_3">
     <g id="line2d_7">
      <g>
       <use xlink:href="#ma632bc1147" x="67.298281" y="97.297699" style="stroke: #000000; stroke-width: 0.8"/>
      </g>
     </g>
     <g id="text_7">
      <!-- 40 -->
      <g transform="translate(46.300781 101.47684) scale(0.11 -0.11)">
       <use xlink:href="#DejaVuSans-34"/>
       <use xlink:href="#DejaVuSans-30" transform="translate(63.623047 0)"/>
      </g>
     </g>
    </g>
    <g id="ytick_4">
     <g id="line2d_8">
      <g>
       <use xlink:href="#ma632bc1147" x="67.298281" y="68.078572" style="stroke: #000000; stroke-width: 0.8"/>
      </g>
     </g>
     <g id="text_8">
      <!-- 60 -->
      <g transform="translate(46.300781 72.257713) scale(0.11 -0.11)">
       <defs>
        <path id="DejaVuSans-36" d="M 2113 2584 
Q 1688 2584 1439 2293 
Q 1191 2003 1191 1497 
Q 1191 994 1439 701 
Q 1688 409 2113 409 
Q 2538 409 2786 701 
Q 3034 994 3034 1497 
Q 3034 2003 2786 2293 
Q 2538 2584 2113 2584 
z
M 3366 4563 
L 3366 3988 
Q 3128 4100 2886 4159 
Q 2644 4219 2406 4219 
Q 1781 4219 1451 3797 
Q 1122 3375 1075 2522 
Q 1259 2794 1537 2939 
Q 1816 3084 2150 3084 
Q 2853 3084 3261 2657 
Q 3669 2231 3669 1497 
Q 3669 778 3244 343 
Q 2819 -91 2113 -91 
Q 1303 -91 875 529 
Q 447 1150 447 2328 
Q 447 3434 972 4092 
Q 1497 4750 2381 4750 
Q 2619 4750 2861 4703 
Q 3103 4656 3366 4563 
z
" transform="scale(0.015625)"/>
       </defs>
       <use xlink:href="#DejaVuSans-36"/>
       <use xlink:href="#DejaVuSans-30" transform="translate(63.623047 0)"/>
      </g>
     </g>
    </g>
    <g id="ytick_5">
     <g id="line2d_9">
      <g>
       <use xlink:href="#ma632bc1147" x="67.298281" y="38.859445" style="stroke: #000000; stroke-width: 0.8"/>
      </g>
     </g>
     <g id="text_9">
      <!-- 80 -->
      <g transform="translate(46.300781 43.038586) scale(0.11 -0.11)">
       <defs>
        <path id="DejaVuSans-38" d="M 2034 2216 
Q 1584 2216 1326 1975 
Q 1069 1734 1069 1313 
Q 1069 891 1326 650 
Q 1584 409 2034 409 
Q 2484 409 2743 651 
Q 3003 894 3003 1313 
Q 3003 1734 2745 1975 
Q 2488 2216 2034 2216 
z
M 1403 2484 
Q 997 2584 770 2862 
Q 544 3141 544 3541 
Q 544 4100 942 4425 
Q 1341 4750 2034 4750 
Q 2731 4750 3128 4425 
Q 3525 4100 3525 3541 
Q 3525 3141 3298 2862 
Q 3072 2584 2669 2484 
Q 3125 2378 3379 2068 
Q 3634 1759 3634 1313 
Q 3634 634 3220 271 
Q 2806 -91 2034 -91 
Q 1263 -91 848 271 
Q 434 634 434 1313 
Q 434 1759 690 2068 
Q 947 2378 1403 2484 
z
M 1172 3481 
Q 1172 3119 1398 2916 
Q 1625 2713 2034 2713 
Q 2441 2713 2670 2916 
Q 2900 3119 2900 3481 
Q 2900 3844 2670 4047 
Q 2441 4250 2034 4250 
Q 1625 4250 1398 4047 
Q 1172 3844 1172 3481 
z
" transform="scale(0.015625)"/>
       </defs>
       <use xlink:href="#DejaVuSans-38"/>
       <use xlink:href="#DejaVuSans-30" transform="translate(63.623047 0)"/>
      </g>
     </g>
    </g>
    <g id="text_10">
     <!-- % change of Speed -->
     <g transform="translate(33.495625 171.472344) rotate(-90) scale(0.13 -0.13)">
      <defs>
       <path id="DejaVuSans-Bold-25" d="M 4959 1925 
Q 4738 1925 4616 1733 
Q 4494 1541 4494 1184 
Q 4494 825 4614 633 
Q 4734 441 4959 441 
Q 5184 441 5303 633 
Q 5422 825 5422 1184 
Q 5422 1541 5301 1733 
Q 5181 1925 4959 1925 
z
M 4959 2450 
Q 5541 2450 5875 2112 
Q 6209 1775 6209 1184 
Q 6209 594 5875 251 
Q 5541 -91 4959 -91 
Q 4378 -91 4042 251 
Q 3706 594 3706 1184 
Q 3706 1772 4042 2111 
Q 4378 2450 4959 2450 
z
M 2094 -91 
L 1403 -91 
L 4319 4750 
L 5013 4750 
L 2094 -91 
z
M 1453 4750 
Q 2034 4750 2367 4411 
Q 2700 4072 2700 3481 
Q 2700 2891 2367 2550 
Q 2034 2209 1453 2209 
Q 872 2209 539 2550 
Q 206 2891 206 3481 
Q 206 4072 539 4411 
Q 872 4750 1453 4750 
z
M 1453 4225 
Q 1228 4225 1106 4031 
Q 984 3838 984 3481 
Q 984 3122 1106 2926 
Q 1228 2731 1453 2731 
Q 1678 2731 1798 2926 
Q 1919 3122 1919 3481 
Q 1919 3838 1797 4031 
Q 1675 4225 1453 4225 
z
" transform="scale(0.015625)"/>
       <path id="DejaVuSans-Bold-20" transform="scale(0.015625)"/>
       <path id="DejaVuSans-Bold-63" d="M 3366 3391 
L 3366 2478 
Q 3138 2634 2908 2709 
Q 2678 2784 2431 2784 
Q 1963 2784 1702 2511 
Q 1441 2238 1441 1747 
Q 1441 1256 1702 982 
Q 1963 709 2431 709 
Q 2694 709 2930 787 
Q 3166 866 3366 1019 
L 3366 103 
Q 3103 6 2833 -42 
Q 2563 -91 2291 -91 
Q 1344 -91 809 395 
Q 275 881 275 1747 
Q 275 2613 809 3098 
Q 1344 3584 2291 3584 
Q 2566 3584 2833 3536 
Q 3100 3488 3366 3391 
z
" transform="scale(0.015625)"/>
       <path id="DejaVuSans-Bold-68" d="M 4056 2131 
L 4056 0 
L 2931 0 
L 2931 347 
L 2931 1625 
Q 2931 2084 2911 2256 
Q 2891 2428 2841 2509 
Q 2775 2619 2662 2680 
Q 2550 2741 2406 2741 
Q 2056 2741 1856 2470 
Q 1656 2200 1656 1722 
L 1656 0 
L 538 0 
L 538 4863 
L 1656 4863 
L 1656 2988 
Q 1909 3294 2193 3439 
Q 2478 3584 2822 3584 
Q 3428 3584 3742 3212 
Q 4056 2841 4056 2131 
z
" transform="scale(0.015625)"/>
       <path id="DejaVuSans-Bold-61" d="M 2106 1575 
Q 1756 1575 1579 1456 
Q 1403 1338 1403 1106 
Q 1403 894 1545 773 
Q 1688 653 1941 653 
Q 2256 653 2472 879 
Q 2688 1106 2688 1447 
L 2688 1575 
L 2106 1575 
z
M 3816 1997 
L 3816 0 
L 2688 0 
L 2688 519 
Q 2463 200 2181 54 
Q 1900 -91 1497 -91 
Q 953 -91 614 226 
Q 275 544 275 1050 
Q 275 1666 698 1953 
Q 1122 2241 2028 2241 
L 2688 2241 
L 2688 2328 
Q 2688 2594 2478 2717 
Q 2269 2841 1825 2841 
Q 1466 2841 1156 2769 
Q 847 2697 581 2553 
L 581 3406 
Q 941 3494 1303 3539 
Q 1666 3584 2028 3584 
Q 2975 3584 3395 3211 
Q 3816 2838 3816 1997 
z
" transform="scale(0.015625)"/>
       <path id="DejaVuSans-Bold-6e" d="M 4056 2131 
L 4056 0 
L 2931 0 
L 2931 347 
L 2931 1631 
Q 2931 2084 2911 2256 
Q 2891 2428 2841 2509 
Q 2775 2619 2662 2680 
Q 2550 2741 2406 2741 
Q 2056 2741 1856 2470 
Q 1656 2200 1656 1722 
L 1656 0 
L 538 0 
L 538 3500 
L 1656 3500 
L 1656 2988 
Q 1909 3294 2193 3439 
Q 2478 3584 2822 3584 
Q 3428 3584 3742 3212 
Q 4056 2841 4056 2131 
z
" transform="scale(0.015625)"/>
       <path id="DejaVuSans-Bold-67" d="M 2919 594 
Q 2688 288 2409 144 
Q 2131 0 1766 0 
Q 1125 0 706 504 
Q 288 1009 288 1791 
Q 288 2575 706 3076 
Q 1125 3578 1766 3578 
Q 2131 3578 2409 3434 
Q 2688 3291 2919 2981 
L 2919 3500 
L 4044 3500 
L 4044 353 
Q 4044 -491 3511 -936 
Q 2978 -1381 1966 -1381 
Q 1638 -1381 1331 -1331 
Q 1025 -1281 716 -1178 
L 716 -306 
Q 1009 -475 1290 -558 
Q 1572 -641 1856 -641 
Q 2406 -641 2662 -400 
Q 2919 -159 2919 353 
L 2919 594 
z
M 2181 2772 
Q 1834 2772 1640 2515 
Q 1447 2259 1447 1791 
Q 1447 1309 1634 1061 
Q 1822 813 2181 813 
Q 2531 813 2725 1069 
Q 2919 1325 2919 1791 
Q 2919 2259 2725 2515 
Q 2531 2772 2181 2772 
z
" transform="scale(0.015625)"/>
       <path id="DejaVuSans-Bold-65" d="M 4031 1759 
L 4031 1441 
L 1416 1441 
Q 1456 1047 1700 850 
Q 1944 653 2381 653 
Q 2734 653 3104 758 
Q 3475 863 3866 1075 
L 3866 213 
Q 3469 63 3072 -14 
Q 2675 -91 2278 -91 
Q 1328 -91 801 392 
Q 275 875 275 1747 
Q 275 2603 792 3093 
Q 1309 3584 2216 3584 
Q 3041 3584 3536 3087 
Q 4031 2591 4031 1759 
z
M 2881 2131 
Q 2881 2450 2695 2645 
Q 2509 2841 2209 2841 
Q 1884 2841 1681 2658 
Q 1478 2475 1428 2131 
L 2881 2131 
z
" transform="scale(0.015625)"/>
       <path id="DejaVuSans-Bold-6f" d="M 2203 2784 
Q 1831 2784 1636 2517 
Q 1441 2250 1441 1747 
Q 1441 1244 1636 976 
Q 1831 709 2203 709 
Q 2569 709 2762 976 
Q 2956 1244 2956 1747 
Q 2956 2250 2762 2517 
Q 2569 2784 2203 2784 
z
M 2203 3584 
Q 3106 3584 3614 3096 
Q 4122 2609 4122 1747 
Q 4122 884 3614 396 
Q 3106 -91 2203 -91 
Q 1297 -91 786 396 
Q 275 884 275 1747 
Q 275 2609 786 3096 
Q 1297 3584 2203 3584 
z
" transform="scale(0.015625)"/>
       <path id="DejaVuSans-Bold-66" d="M 2841 4863 
L 2841 4128 
L 2222 4128 
Q 1984 4128 1890 4042 
Q 1797 3956 1797 3744 
L 1797 3500 
L 2753 3500 
L 2753 2700 
L 1797 2700 
L 1797 0 
L 678 0 
L 678 2700 
L 122 2700 
L 122 3500 
L 678 3500 
L 678 3744 
Q 678 4316 997 4589 
Q 1316 4863 1984 4863 
L 2841 4863 
z
" transform="scale(0.015625)"/>
       <path id="DejaVuSans-Bold-53" d="M 3834 4519 
L 3834 3531 
Q 3450 3703 3084 3790 
Q 2719 3878 2394 3878 
Q 1963 3878 1756 3759 
Q 1550 3641 1550 3391 
Q 1550 3203 1689 3098 
Q 1828 2994 2194 2919 
L 2706 2816 
Q 3484 2659 3812 2340 
Q 4141 2022 4141 1434 
Q 4141 663 3683 286 
Q 3225 -91 2284 -91 
Q 1841 -91 1394 -6 
Q 947 78 500 244 
L 500 1259 
Q 947 1022 1364 901 
Q 1781 781 2169 781 
Q 2563 781 2772 912 
Q 2981 1044 2981 1288 
Q 2981 1506 2839 1625 
Q 2697 1744 2272 1838 
L 1806 1941 
Q 1106 2091 782 2419 
Q 459 2747 459 3303 
Q 459 4000 909 4375 
Q 1359 4750 2203 4750 
Q 2588 4750 2994 4692 
Q 3400 4634 3834 4519 
z
" transform="scale(0.015625)"/>
       <path id="DejaVuSans-Bold-70" d="M 1656 506 
L 1656 -1331 
L 538 -1331 
L 538 3500 
L 1656 3500 
L 1656 2988 
Q 1888 3294 2169 3439 
Q 2450 3584 2816 3584 
Q 3463 3584 3878 3070 
Q 4294 2556 4294 1747 
Q 4294 938 3878 423 
Q 3463 -91 2816 -91 
Q 2450 -91 2169 54 
Q 1888 200 1656 506 
z
M 2400 2772 
Q 2041 2772 1848 2508 
Q 1656 2244 1656 1747 
Q 1656 1250 1848 986 
Q 2041 722 2400 722 
Q 2759 722 2948 984 
Q 3138 1247 3138 1747 
Q 3138 2247 2948 2509 
Q 2759 2772 2400 2772 
z
" transform="scale(0.015625)"/>
       <path id="DejaVuSans-Bold-64" d="M 2919 2988 
L 2919 4863 
L 4044 4863 
L 4044 0 
L 2919 0 
L 2919 506 
Q 2688 197 2409 53 
Q 2131 -91 1766 -91 
Q 1119 -91 703 423 
Q 288 938 288 1747 
Q 288 2556 703 3070 
Q 1119 3584 1766 3584 
Q 2128 3584 2408 3439 
Q 2688 3294 2919 2988 
z
M 2181 722 
Q 2541 722 2730 984 
Q 2919 1247 2919 1747 
Q 2919 2247 2730 2509 
Q 2541 2772 2181 2772 
Q 1825 2772 1636 2509 
Q 1447 2247 1447 1747 
Q 1447 1247 1636 984 
Q 1825 722 2181 722 
z
" transform="scale(0.015625)"/>
      </defs>
      <use xlink:href="#DejaVuSans-Bold-25"/>
      <use xlink:href="#DejaVuSans-Bold-20" transform="translate(100.195312 0)"/>
      <use xlink:href="#DejaVuSans-Bold-63" transform="translate(135.009766 0)"/>
      <use xlink:href="#DejaVuSans-Bold-68" transform="translate(194.287109 0)"/>
      <use xlink:href="#DejaVuSans-Bold-61" transform="translate(265.478516 0)"/>
      <use xlink:href="#DejaVuSans-Bold-6e" transform="translate(332.958984 0)"/>
      <use xlink:href="#DejaVuSans-Bold-67" transform="translate(404.150391 0)"/>
      <use xlink:href="#DejaVuSans-Bold-65" transform="translate(475.732422 0)"/>
      <use xlink:href="#DejaVuSans-Bold-20" transform="translate(543.554688 0)"/>
      <use xlink:href="#DejaVuSans-Bold-6f" transform="translate(578.369141 0)"/>
      <use xlink:href="#DejaVuSans-Bold-66" transform="translate(647.070312 0)"/>
      <use xlink:href="#DejaVuSans-Bold-20" transform="translate(690.576172 0)"/>
      <use xlink:href="#DejaVuSans-Bold-53" transform="translate(725.390625 0)"/>
      <use xlink:href="#DejaVuSans-Bold-70" transform="translate(797.412109 0)"/>
      <use xlink:href="#DejaVuSans-Bold-65" transform="translate(868.994141 0)"/>
      <use xlink:href="#DejaVuSans-Bold-65" transform="translate(936.816406 0)"/>
      <use xlink:href="#DejaVuSans-Bold-64" transform="translate(1004.638672 0)"/>
     </g>
    </g>
   </g>
   <g id="line2d_10">
    <path d="M 91.938281 139.850918 
L 93.431615 139.623704 
L 94.924948 139.396491 
L 96.418281 139.169278 
L 97.911615 138.942065 
L 99.404948 138.714852 
L 100.898281 138.487639 
L 102.391615 138.260426 
L 103.884948 138.033213 
L 105.378281 137.805999 
L 106.871615 137.578786 
L 108.364948 137.351573 
L 109.858281 137.12436 
L 111.351615 136.897147 
L 112.844948 136.669934 
L 114.338281 136.442721 
L 115.831615 136.215508 
L 117.324948 135.988294 
L 118.818281 135.761081 
L 120.311615 135.533868 
L 121.804948 135.306655 
L 123.298281 135.079442 
L 124.791615 134.852229 
L 126.284948 134.625016 
L 127.778281 134.397803 
L 129.271615 134.17059 
L 130.764948 133.943376 
L 132.258281 133.716163 
L 133.751615 133.48895 
L 135.244948 133.261737 
L 136.738281 133.034524 
L 138.231615 132.807311 
L 139.724948 132.580098 
L 141.218281 132.352885 
L 142.711615 132.125671 
L 144.204948 131.898458 
L 145.698281 131.671245 
L 147.191615 131.444032 
L 148.684948 131.216819 
L 150.178281 130.989606 
L 151.671615 130.762393 
L 153.164948 130.53518 
L 154.658281 130.307966 
L 156.151615 130.080753 
L 157.644948 129.85354 
L 159.138281 129.626327 
L 160.631615 129.399114 
L 162.124948 129.171901 
L 163.618281 128.944688 
L 165.111615 128.717475 
L 166.604948 128.490262 
L 168.098281 128.263048 
L 169.591615 128.035835 
L 171.084948 127.808622 
L 172.578281 127.581409 
L 174.071615 127.354196 
L 175.564948 127.126983 
L 177.058281 126.89977 
L 178.551615 126.672557 
L 180.044948 126.445343 
L 181.538281 126.21813 
L 183.031615 125.990917 
L 184.524948 125.763704 
L 186.018281 125.536491 
L 187.511615 125.309278 
L 189.004948 125.082065 
L 190.498281 124.854852 
L 191.991615 124.627638 
L 193.484948 124.400425 
L 194.978281 124.173212 
L 196.471615 123.945999 
L 197.964948 123.718786 
L 199.458281 123.491573 
L 200.951615 123.26436 
L 202.444948 123.037147 
L 203.938281 122.809934 
L 205.431615 122.58272 
L 206.924948 122.355507 
L 208.418281 122.128294 
L 209.911615 121.901081 
L 211.404948 121.673868 
L 212.898281 121.446655 
L 214.391615 121.219442 
L 215.884948 120.992229 
L 217.378281 120.765015 
L 218.871615 120.537802 
L 220.364948 120.310589 
L 221.858281 120.083376 
L 223.351615 119.856163 
L 224.844948 119.62895 
L 226.338281 119.401737 
L 227.831615 119.174524 
L 229.324948 118.94731 
L 230.818281 118.720097 
L 232.311615 118.492884 
L 233.804948 118.265671 
L 235.298281 118.038458 
L 236.791615 117.811245 
L 238.284948 117.584032 
L 239.778281 117.356819 
" clip-path="url(#pc7f60414a9)" style="fill: none; stroke: #ffa500; stroke-width: 2.25; stroke-linecap: square"/>
   </g>
   <g id="patch_3">
    <path d="M 67.298281 173.518125 
L 67.298281 29.518125 
" style="fill: none; stroke: #000000; stroke-width: 0.8; stroke-linejoin: miter; stroke-linecap: square"/>
   </g>
   <g id="patch_4">
    <path d="M 67.298281 173.518125 
L 264.418281 173.518125 
" style="fill: none; stroke: #000000; stroke-width: 0.8; stroke-linejoin: miter; stroke-linecap: square"/>
   </g>
   <g id="text_11">
    <!-- r=0.31 -->
    <g transform="translate(201.339881 48.636563) scale(0.1 -0.1)">
     <defs>
      <path id="DejaVuSans-72" d="M 2631 2963 
Q 2534 3019 2420 3045 
Q 2306 3072 2169 3072 
Q 1681 3072 1420 2755 
Q 1159 2438 1159 1844 
L 1159 0 
L 581 0 
L 581 3500 
L 1159 3500 
L 1159 2956 
Q 1341 3275 1631 3429 
Q 1922 3584 2338 3584 
Q 2397 3584 2469 3576 
Q 2541 3569 2628 3553 
L 2631 2963 
z
" transform="scale(0.015625)"/>
      <path id="DejaVuSans-3d" d="M 678 2906 
L 4684 2906 
L 4684 2381 
L 678 2381 
L 678 2906 
z
M 678 1631 
L 4684 1631 
L 4684 1100 
L 678 1100 
L 678 1631 
z
" transform="scale(0.015625)"/>
      <path id="DejaVuSans-2e" d="M 684 794 
L 1344 794 
L 1344 0 
L 684 0 
L 684 794 
z
" transform="scale(0.015625)"/>
     </defs>
     <use xlink:href="#DejaVuSans-72"/>
     <use xlink:href="#DejaVuSans-3d" transform="translate(41.113281 0)"/>
     <use xlink:href="#DejaVuSans-30" transform="translate(124.902344 0)"/>
     <use xlink:href="#DejaVuSans-2e" transform="translate(188.525391 0)"/>
     <use xlink:href="#DejaVuSans-33" transform="translate(220.3125 0)"/>
     <use xlink:href="#DejaVuSans-31" transform="translate(283.935547 0)"/>
    </g>
    <!-- p=0.211 -->
    <g transform="translate(201.339881 59.834375) scale(0.1 -0.1)">
     <defs>
      <path id="DejaVuSans-70" d="M 1159 525 
L 1159 -1331 
L 581 -1331 
L 581 3500 
L 1159 3500 
L 1159 2969 
Q 1341 3281 1617 3432 
Q 1894 3584 2278 3584 
Q 2916 3584 3314 3078 
Q 3713 2572 3713 1747 
Q 3713 922 3314 415 
Q 2916 -91 2278 -91 
Q 1894 -91 1617 61 
Q 1341 213 1159 525 
z
M 3116 1747 
Q 3116 2381 2855 2742 
Q 2594 3103 2138 3103 
Q 1681 3103 1420 2742 
Q 1159 2381 1159 1747 
Q 1159 1113 1420 752 
Q 1681 391 2138 391 
Q 2594 391 2855 752 
Q 3116 1113 3116 1747 
z
" transform="scale(0.015625)"/>
     </defs>
     <use xlink:href="#DejaVuSans-70"/>
     <use xlink:href="#DejaVuSans-3d" transform="translate(63.476562 0)"/>
     <use xlink:href="#DejaVuSans-30" transform="translate(147.265625 0)"/>
     <use xlink:href="#DejaVuSans-2e" transform="translate(210.888672 0)"/>
     <use xlink:href="#DejaVuSans-32" transform="translate(242.675781 0)"/>
     <use xlink:href="#DejaVuSans-31" transform="translate(306.298828 0)"/>
     <use xlink:href="#DejaVuSans-31" transform="translate(369.921875 0)"/>
    </g>
   </g>
   <g id="text_12">
    <!-- More affected hand -->
    <g transform="translate(99.545156 23.518125) scale(0.12 -0.12)">
     <defs>
      <path id="DejaVuSans-Bold-4d" d="M 588 4666 
L 2119 4666 
L 3181 2169 
L 4250 4666 
L 5778 4666 
L 5778 0 
L 4641 0 
L 4641 3413 
L 3566 897 
L 2803 897 
L 1728 3413 
L 1728 0 
L 588 0 
L 588 4666 
z
" transform="scale(0.015625)"/>
      <path id="DejaVuSans-Bold-72" d="M 3138 2547 
Q 2991 2616 2845 2648 
Q 2700 2681 2553 2681 
Q 2122 2681 1889 2404 
Q 1656 2128 1656 1613 
L 1656 0 
L 538 0 
L 538 3500 
L 1656 3500 
L 1656 2925 
Q 1872 3269 2151 3426 
Q 2431 3584 2822 3584 
Q 2878 3584 2943 3579 
Q 3009 3575 3134 3559 
L 3138 2547 
z
" transform="scale(0.015625)"/>
      <path id="DejaVuSans-Bold-74" d="M 1759 4494 
L 1759 3500 
L 2913 3500 
L 2913 2700 
L 1759 2700 
L 1759 1216 
Q 1759 972 1856 886 
Q 1953 800 2241 800 
L 2816 800 
L 2816 0 
L 1856 0 
Q 1194 0 917 276 
Q 641 553 641 1216 
L 641 2700 
L 84 2700 
L 84 3500 
L 641 3500 
L 641 4494 
L 1759 4494 
z
" transform="scale(0.015625)"/>
     </defs>
     <use xlink:href="#DejaVuSans-Bold-4d"/>
     <use xlink:href="#DejaVuSans-Bold-6f" transform="translate(99.511719 0)"/>
     <use xlink:href="#DejaVuSans-Bold-72" transform="translate(168.212891 0)"/>
     <use xlink:href="#DejaVuSans-Bold-65" transform="translate(217.529297 0)"/>
     <use xlink:href="#DejaVuSans-Bold-20" transform="translate(285.351562 0)"/>
     <use xlink:href="#DejaVuSans-Bold-61" transform="translate(320.166016 0)"/>
     <use xlink:href="#DejaVuSans-Bold-66" transform="translate(387.646484 0)"/>
     <use xlink:href="#DejaVuSans-Bold-66" transform="translate(431.152344 0)"/>
     <use xlink:href="#DejaVuSans-Bold-65" transform="translate(474.658203 0)"/>
     <use xlink:href="#DejaVuSans-Bold-63" transform="translate(542.480469 0)"/>
     <use xlink:href="#DejaVuSans-Bold-74" transform="translate(601.757812 0)"/>
     <use xlink:href="#DejaVuSans-Bold-65" transform="translate(649.560547 0)"/>
     <use xlink:href="#DejaVuSans-Bold-64" transform="translate(717.382812 0)"/>
     <use xlink:href="#DejaVuSans-Bold-20" transform="translate(788.964844 0)"/>
     <use xlink:href="#DejaVuSans-Bold-68" transform="translate(823.779297 0)"/>
     <use xlink:href="#DejaVuSans-Bold-61" transform="translate(894.970703 0)"/>
     <use xlink:href="#DejaVuSans-Bold-6e" transform="translate(962.451172 0)"/>
     <use xlink:href="#DejaVuSans-Bold-64" transform="translate(1033.642578 0)"/>
    </g>
   </g>
  </g>
  <g id="axes_2">
   <g id="patch_5">
    <path d="M 313.698281 173.518125 
L 510.818281 173.518125 
L 510.818281 29.518125 
L 313.698281 29.518125 
z
" style="fill: #ffffff"/>
   </g>
   <g id="FillBetweenPolyCollection_2">
    <path d="M 338.338281 128.883962 
L 338.338281 162.184714 
L 339.831615 161.749587 
L 341.324948 161.314188 
L 342.818281 160.878535 
L 344.311615 160.44917 
L 345.804948 160.031139 
L 347.298281 159.610152 
L 348.791615 159.187605 
L 350.284948 158.765058 
L 351.778281 158.34979 
L 353.271615 157.935052 
L 354.764948 157.680929 
L 356.258281 157.439011 
L 357.751615 156.98234 
L 359.244948 156.464176 
L 360.738281 155.895259 
L 362.231615 155.430104 
L 363.724948 155.009039 
L 365.218281 154.595404 
L 366.711615 154.17583 
L 368.204948 153.752622 
L 369.698281 153.257832 
L 371.191615 152.873302 
L 372.684948 152.488772 
L 374.178281 152.016563 
L 375.671615 151.683151 
L 377.164948 151.246806 
L 378.658281 150.82835 
L 380.151615 150.398683 
L 381.644948 149.99158 
L 383.138281 149.578672 
L 384.631615 149.236616 
L 386.124948 148.882167 
L 387.618281 148.553924 
L 389.111615 148.149608 
L 390.604948 147.800658 
L 392.098281 147.502616 
L 393.591615 147.120386 
L 395.084948 146.734984 
L 396.578281 146.37036 
L 398.071615 146.165757 
L 399.564948 145.91777 
L 401.058281 145.585642 
L 402.551615 145.234017 
L 404.044948 145.01505 
L 405.538281 144.737841 
L 407.031615 144.474907 
L 408.524948 144.171578 
L 410.018281 143.899766 
L 411.511615 143.679886 
L 413.004948 143.44858 
L 414.498281 143.210665 
L 415.991615 142.942349 
L 417.484948 142.696503 
L 418.978281 142.450657 
L 420.471615 142.226977 
L 421.964948 141.983637 
L 423.458281 141.795297 
L 424.951615 141.581517 
L 426.444948 141.345652 
L 427.938281 141.194021 
L 429.431615 140.966606 
L 430.924948 140.869209 
L 432.418281 140.73371 
L 433.911615 140.664741 
L 435.404948 140.478542 
L 436.898281 140.357127 
L 438.391615 140.235712 
L 439.884948 140.111848 
L 441.378281 140.006824 
L 442.871615 139.862579 
L 444.364948 139.731385 
L 445.858281 139.606524 
L 447.351615 139.443046 
L 448.844948 139.259978 
L 450.338281 139.084513 
L 451.831615 139.040679 
L 453.324948 139.00331 
L 454.818281 138.882416 
L 456.311615 138.898322 
L 457.804948 138.920411 
L 459.298281 138.841995 
L 460.791615 138.744194 
L 462.284948 138.598981 
L 463.778281 138.448843 
L 465.271615 138.365285 
L 466.764948 138.235941 
L 468.258281 138.15549 
L 469.751615 137.989526 
L 471.244948 137.848395 
L 472.738281 137.759231 
L 474.231615 137.703991 
L 475.724948 137.648517 
L 477.218281 137.591902 
L 478.711615 137.461571 
L 480.204948 137.483031 
L 481.698281 137.386501 
L 483.191615 137.283919 
L 484.684948 137.193754 
L 486.178281 137.131743 
L 486.178281 106.362659 
L 486.178281 106.362659 
L 484.684948 106.896025 
L 483.191615 107.249541 
L 481.698281 107.603058 
L 480.204948 108.083522 
L 478.711615 108.584999 
L 477.218281 109.086477 
L 475.724948 109.590358 
L 474.231615 110.097298 
L 472.738281 110.606845 
L 471.244948 111.067174 
L 469.751615 111.478015 
L 468.258281 111.888106 
L 466.764948 112.303097 
L 465.271615 112.810874 
L 463.778281 113.254646 
L 462.284948 113.853985 
L 460.791615 114.41111 
L 459.298281 114.812681 
L 457.804948 115.1514 
L 456.311615 115.503182 
L 454.818281 115.830208 
L 453.324948 116.307136 
L 451.831615 116.799893 
L 450.338281 117.256368 
L 448.844948 117.742031 
L 447.351615 118.103966 
L 445.858281 118.448573 
L 444.364948 118.740605 
L 442.871615 119.114408 
L 441.378281 119.493491 
L 439.884948 119.831286 
L 438.391615 120.17494 
L 436.898281 120.604868 
L 435.404948 120.990804 
L 433.911615 121.343045 
L 432.418281 121.648136 
L 430.924948 121.935519 
L 429.431615 122.305017 
L 427.938281 122.730347 
L 426.444948 123.077875 
L 424.951615 123.388148 
L 423.458281 123.550101 
L 421.964948 123.708002 
L 420.471615 123.966682 
L 418.978281 124.29699 
L 417.484948 124.435845 
L 415.991615 124.508682 
L 414.498281 124.716951 
L 413.004948 124.859484 
L 411.511615 125.248742 
L 410.018281 125.546459 
L 408.524948 125.63481 
L 407.031615 125.664644 
L 405.538281 125.934682 
L 404.044948 126.132033 
L 402.551615 126.299988 
L 401.058281 126.480231 
L 399.564948 126.590873 
L 398.071615 126.691864 
L 396.578281 126.857721 
L 395.084948 127.053877 
L 393.591615 127.07716 
L 392.098281 127.100444 
L 390.604948 127.262434 
L 389.111615 127.414374 
L 387.618281 127.566314 
L 386.124948 127.569987 
L 384.631615 127.640975 
L 383.138281 127.738329 
L 381.644948 127.799697 
L 380.151615 127.898548 
L 378.658281 128.049629 
L 377.164948 128.14427 
L 375.671615 128.200453 
L 374.178281 128.298349 
L 372.684948 128.400835 
L 371.191615 128.529031 
L 369.698281 128.72811 
L 368.204948 128.712838 
L 366.711615 128.801088 
L 365.218281 128.786952 
L 363.724948 128.716639 
L 362.231615 128.646326 
L 360.738281 128.576013 
L 359.244948 128.5057 
L 357.751615 128.436941 
L 356.258281 128.533988 
L 354.764948 128.616701 
L 353.271615 128.595973 
L 351.778281 128.680987 
L 350.284948 128.581701 
L 348.791615 128.521769 
L 347.298281 128.496927 
L 345.804948 128.506436 
L 344.311615 128.56441 
L 342.818281 128.623152 
L 341.324948 128.708119 
L 339.831615 128.79604 
L 338.338281 128.883962 
z
" clip-path="url(#pfbadeb66e4)" style="fill: #ffa500; fill-opacity: 0.15"/>
   </g>
   <g id="PathCollection_3">
    <g clip-path="url(#pfbadeb66e4)">
     <use xlink:href="#m612bd4969d" x="436.898281" y="121.4056" style="fill: #808080; fill-opacity: 0.85; stroke: #808080; stroke-opacity: 0.85"/>
     <use xlink:href="#m612bd4969d" x="486.178281" y="137.621123" style="fill: #808080; fill-opacity: 0.85; stroke: #808080; stroke-opacity: 0.85"/>
     <use xlink:href="#m612bd4969d" x="486.178281" y="146.732023" style="fill: #808080; fill-opacity: 0.85; stroke: #808080; stroke-opacity: 0.85"/>
     <use xlink:href="#m612bd4969d" x="486.178281" y="90.197862" style="fill: #808080; fill-opacity: 0.85; stroke: #808080; stroke-opacity: 0.85"/>
     <use xlink:href="#m612bd4969d" x="338.338281" y="163.224547" style="fill: #808080; fill-opacity: 0.85; stroke: #808080; stroke-opacity: 0.85"/>
     <use xlink:href="#m612bd4969d" x="387.618281" y="139.512364" style="fill: #808080; fill-opacity: 0.85; stroke: #808080; stroke-opacity: 0.85"/>
     <use xlink:href="#m612bd4969d" x="387.618281" y="126.583395" style="fill: #808080; fill-opacity: 0.85; stroke: #808080; stroke-opacity: 0.85"/>
     <use xlink:href="#m612bd4969d" x="486.178281" y="142.820981" style="fill: #808080; fill-opacity: 0.85; stroke: #808080; stroke-opacity: 0.85"/>
    </g>
   </g>
   <g id="PathCollection_4">
    <g clip-path="url(#pfbadeb66e4)">
     <use xlink:href="#mcd7feb2cba" x="338.338281" y="144.786913" style="fill: #808080; fill-opacity: 0.85; stroke: #808080; stroke-opacity: 0.85"/>
     <use xlink:href="#mcd7feb2cba" x="436.898281" y="143.197866" style="fill: #808080; fill-opacity: 0.85; stroke: #808080; stroke-opacity: 0.85"/>
     <use xlink:href="#mcd7feb2cba" x="436.898281" y="135.924229" style="fill: #808080; fill-opacity: 0.85; stroke: #808080; stroke-opacity: 0.85"/>
     <use xlink:href="#mcd7feb2cba" x="387.618281" y="166.457545" style="fill: #808080; fill-opacity: 0.85; stroke: #808080; stroke-opacity: 0.85"/>
     <use xlink:href="#mcd7feb2cba" x="387.618281" y="161.592733" style="fill: #808080; fill-opacity: 0.85; stroke: #808080; stroke-opacity: 0.85"/>
     <use xlink:href="#mcd7feb2cba" x="486.178281" y="119.222145" style="fill: #808080; fill-opacity: 0.85; stroke: #808080; stroke-opacity: 0.85"/>
     <use xlink:href="#mcd7feb2cba" x="338.338281" y="146.50968" style="fill: #808080; fill-opacity: 0.85; stroke: #808080; stroke-opacity: 0.85"/>
     <use xlink:href="#mcd7feb2cba" x="387.618281" y="97.788951" style="fill: #808080; fill-opacity: 0.85; stroke: #808080; stroke-opacity: 0.85"/>
     <use xlink:href="#mcd7feb2cba" x="387.618281" y="124.044313" style="fill: #808080; fill-opacity: 0.85; stroke: #808080; stroke-opacity: 0.85"/>
     <use xlink:href="#mcd7feb2cba" x="486.178281" y="96.46282" style="fill: #808080; fill-opacity: 0.85; stroke: #808080; stroke-opacity: 0.85"/>
    </g>
   </g>
   <g id="matplotlib.axis_3">
    <g id="xtick_5">
     <g id="line2d_11">
      <g>
       <use xlink:href="#ma63d4ba1d5" x="338.338281" y="173.518125" style="stroke: #000000; stroke-width: 0.8"/>
      </g>
     </g>
     <g id="text_13">
      <!-- 1 -->
      <g transform="translate(334.838906 188.876406) scale(0.11 -0.11)">
       <use xlink:href="#DejaVuSans-31"/>
      </g>
     </g>
    </g>
    <g id="xtick_6">
     <g id="line2d_12">
      <g>
       <use xlink:href="#ma63d4ba1d5" x="387.618281" y="173.518125" style="stroke: #000000; stroke-width: 0.8"/>
      </g>
     </g>
     <g id="text_14">
      <!-- 2 -->
      <g transform="translate(384.118906 188.876406) scale(0.11 -0.11)">
       <use xlink:href="#DejaVuSans-32"/>
      </g>
     </g>
    </g>
    <g id="xtick_7">
     <g id="line2d_13">
      <g>
       <use xlink:href="#ma63d4ba1d5" x="436.898281" y="173.518125" style="stroke: #000000; stroke-width: 0.8"/>
      </g>
     </g>
     <g id="text_15">
      <!-- 3 -->
      <g transform="translate(433.398906 188.876406) scale(0.11 -0.11)">
       <use xlink:href="#DejaVuSans-33"/>
      </g>
     </g>
    </g>
    <g id="xtick_8">
     <g id="line2d_14">
      <g>
       <use xlink:href="#ma63d4ba1d5" x="486.178281" y="173.518125" style="stroke: #000000; stroke-width: 0.8"/>
      </g>
     </g>
     <g id="text_16">
      <!-- 4 -->
      <g transform="translate(482.678906 188.876406) scale(0.11 -0.11)">
       <use xlink:href="#DejaVuSans-34"/>
      </g>
     </g>
    </g>
   </g>
   <g id="matplotlib.axis_4">
    <g id="ytick_6">
     <g id="line2d_15">
      <g>
       <use xlink:href="#ma632bc1147" x="313.698281" y="155.735953" style="stroke: #000000; stroke-width: 0.8"/>
      </g>
     </g>
    </g>
    <g id="ytick_7">
     <g id="line2d_16">
      <g>
       <use xlink:href="#ma632bc1147" x="313.698281" y="126.516826" style="stroke: #000000; stroke-width: 0.8"/>
      </g>
     </g>
    </g>
    <g id="ytick_8">
     <g id="line2d_17">
      <g>
       <use xlink:href="#ma632bc1147" x="313.698281" y="97.297699" style="stroke: #000000; stroke-width: 0.8"/>
      </g>
     </g>
    </g>
    <g id="ytick_9">
     <g id="line2d_18">
      <g>
       <use xlink:href="#ma632bc1147" x="313.698281" y="68.078572" style="stroke: #000000; stroke-width: 0.8"/>
      </g>
     </g>
    </g>
    <g id="ytick_10">
     <g id="line2d_19">
      <g>
       <use xlink:href="#ma632bc1147" x="313.698281" y="38.859445" style="stroke: #000000; stroke-width: 0.8"/>
      </g>
     </g>
    </g>
   </g>
   <g id="line2d_20">
    <path d="M 338.338281 147.999899 
L 339.831615 147.73736 
L 341.324948 147.474822 
L 342.818281 147.212283 
L 344.311615 146.949745 
L 345.804948 146.687206 
L 347.298281 146.424668 
L 348.791615 146.162129 
L 350.284948 145.899591 
L 351.778281 145.637052 
L 353.271615 145.374514 
L 354.764948 145.111976 
L 356.258281 144.849437 
L 357.751615 144.586899 
L 359.244948 144.32436 
L 360.738281 144.061822 
L 362.231615 143.799283 
L 363.724948 143.536745 
L 365.218281 143.274206 
L 366.711615 143.011668 
L 368.204948 142.749129 
L 369.698281 142.486591 
L 371.191615 142.224052 
L 372.684948 141.961514 
L 374.178281 141.698975 
L 375.671615 141.436437 
L 377.164948 141.173898 
L 378.658281 140.91136 
L 380.151615 140.648821 
L 381.644948 140.386283 
L 383.138281 140.123745 
L 384.631615 139.861206 
L 386.124948 139.598668 
L 387.618281 139.336129 
L 389.111615 139.073591 
L 390.604948 138.811052 
L 392.098281 138.548514 
L 393.591615 138.285975 
L 395.084948 138.023437 
L 396.578281 137.760898 
L 398.071615 137.49836 
L 399.564948 137.235821 
L 401.058281 136.973283 
L 402.551615 136.710744 
L 404.044948 136.448206 
L 405.538281 136.185667 
L 407.031615 135.923129 
L 408.524948 135.660591 
L 410.018281 135.398052 
L 411.511615 135.135514 
L 413.004948 134.872975 
L 414.498281 134.610437 
L 415.991615 134.347898 
L 417.484948 134.08536 
L 418.978281 133.822821 
L 420.471615 133.560283 
L 421.964948 133.297744 
L 423.458281 133.035206 
L 424.951615 132.772667 
L 426.444948 132.510129 
L 427.938281 132.24759 
L 429.431615 131.985052 
L 430.924948 131.722513 
L 432.418281 131.459975 
L 433.911615 131.197436 
L 435.404948 130.934898 
L 436.898281 130.67236 
L 438.391615 130.409821 
L 439.884948 130.147283 
L 441.378281 129.884744 
L 442.871615 129.622206 
L 444.364948 129.359667 
L 445.858281 129.097129 
L 447.351615 128.83459 
L 448.844948 128.572052 
L 450.338281 128.309513 
L 451.831615 128.046975 
L 453.324948 127.784436 
L 454.818281 127.521898 
L 456.311615 127.259359 
L 457.804948 126.996821 
L 459.298281 126.734282 
L 460.791615 126.471744 
L 462.284948 126.209206 
L 463.778281 125.946667 
L 465.271615 125.684129 
L 466.764948 125.42159 
L 468.258281 125.159052 
L 469.751615 124.896513 
L 471.244948 124.633975 
L 472.738281 124.371436 
L 474.231615 124.108898 
L 475.724948 123.846359 
L 477.218281 123.583821 
L 478.711615 123.321282 
L 480.204948 123.058744 
L 481.698281 122.796205 
L 483.191615 122.533667 
L 484.684948 122.271128 
L 486.178281 122.00859 
" clip-path="url(#pfbadeb66e4)" style="fill: none; stroke: #ffa500; stroke-width: 2.25; stroke-linecap: square"/>
   </g>
   <g id="patch_6">
    <path d="M 313.698281 173.518125 
L 313.698281 29.518125 
" style="fill: none; stroke: #000000; stroke-width: 0.8; stroke-linejoin: miter; stroke-linecap: square"/>
   </g>
   <g id="patch_7">
    <path d="M 313.698281 173.518125 
L 510.818281 173.518125 
" style="fill: none; stroke: #000000; stroke-width: 0.8; stroke-linejoin: miter; stroke-linecap: square"/>
   </g>
   <g id="text_17">
    <!-- r=0.47 -->
    <g transform="translate(447.739881 48.636563) scale(0.1 -0.1)">
     <defs>
      <path id="DejaVuSans-37" d="M 525 4666 
L 3525 4666 
L 3525 4397 
L 1831 0 
L 1172 0 
L 2766 4134 
L 525 4134 
L 525 4666 
z
" transform="scale(0.015625)"/>
     </defs>
     <use xlink:href="#DejaVuSans-72"/>
     <use xlink:href="#DejaVuSans-3d" transform="translate(41.113281 0)"/>
     <use xlink:href="#DejaVuSans-30" transform="translate(124.902344 0)"/>
     <use xlink:href="#DejaVuSans-2e" transform="translate(188.525391 0)"/>
     <use xlink:href="#DejaVuSans-34" transform="translate(220.3125 0)"/>
     <use xlink:href="#DejaVuSans-37" transform="translate(283.935547 0)"/>
    </g>
    <!-- p=0.047 -->
    <g transform="translate(447.739881 59.834375) scale(0.1 -0.1)">
     <use xlink:href="#DejaVuSans-70"/>
     <use xlink:href="#DejaVuSans-3d" transform="translate(63.476562 0)"/>
     <use xlink:href="#DejaVuSans-30" transform="translate(147.265625 0)"/>
     <use xlink:href="#DejaVuSans-2e" transform="translate(210.888672 0)"/>
     <use xlink:href="#DejaVuSans-30" transform="translate(242.675781 0)"/>
     <use xlink:href="#DejaVuSans-34" transform="translate(306.298828 0)"/>
     <use xlink:href="#DejaVuSans-37" transform="translate(369.921875 0)"/>
    </g>
   </g>
   <g id="text_18">
    <!-- Less affected hand -->
    <g transform="translate(348.032031 23.518125) scale(0.12 -0.12)">
     <defs>
      <path id="DejaVuSans-Bold-4c" d="M 588 4666 
L 1791 4666 
L 1791 909 
L 3903 909 
L 3903 0 
L 588 0 
L 588 4666 
z
" transform="scale(0.015625)"/>
      <path id="DejaVuSans-Bold-73" d="M 3272 3391 
L 3272 2541 
Q 2913 2691 2578 2766 
Q 2244 2841 1947 2841 
Q 1628 2841 1473 2761 
Q 1319 2681 1319 2516 
Q 1319 2381 1436 2309 
Q 1553 2238 1856 2203 
L 2053 2175 
Q 2913 2066 3209 1816 
Q 3506 1566 3506 1031 
Q 3506 472 3093 190 
Q 2681 -91 1863 -91 
Q 1516 -91 1145 -36 
Q 775 19 384 128 
L 384 978 
Q 719 816 1070 734 
Q 1422 653 1784 653 
Q 2113 653 2278 743 
Q 2444 834 2444 1013 
Q 2444 1163 2330 1236 
Q 2216 1309 1875 1350 
L 1678 1375 
Q 931 1469 631 1722 
Q 331 1975 331 2491 
Q 331 3047 712 3315 
Q 1094 3584 1881 3584 
Q 2191 3584 2531 3537 
Q 2872 3491 3272 3391 
z
" transform="scale(0.015625)"/>
     </defs>
     <use xlink:href="#DejaVuSans-Bold-4c"/>
     <use xlink:href="#DejaVuSans-Bold-65" transform="translate(63.720703 0)"/>
     <use xlink:href="#DejaVuSans-Bold-73" transform="translate(131.542969 0)"/>
     <use xlink:href="#DejaVuSans-Bold-73" transform="translate(191.064453 0)"/>
     <use xlink:href="#DejaVuSans-Bold-20" transform="translate(250.585938 0)"/>
     <use xlink:href="#DejaVuSans-Bold-61" transform="translate(285.400391 0)"/>
     <use xlink:href="#DejaVuSans-Bold-66" transform="translate(352.880859 0)"/>
     <use xlink:href="#DejaVuSans-Bold-66" transform="translate(396.386719 0)"/>
     <use xlink:href="#DejaVuSans-Bold-65" transform="translate(439.892578 0)"/>
     <use xlink:href="#DejaVuSans-Bold-63" transform="translate(507.714844 0)"/>
     <use xlink:href="#DejaVuSans-Bold-74" transform="translate(566.992188 0)"/>
     <use xlink:href="#DejaVuSans-Bold-65" transform="translate(614.794922 0)"/>
     <use xlink:href="#DejaVuSans-Bold-64" transform="translate(682.617188 0)"/>
     <use xlink:href="#DejaVuSans-Bold-20" transform="translate(754.199219 0)"/>
     <use xlink:href="#DejaVuSans-Bold-68" transform="translate(789.013672 0)"/>
     <use xlink:href="#DejaVuSans-Bold-61" transform="translate(860.205078 0)"/>
     <use xlink:href="#DejaVuSans-Bold-6e" transform="translate(927.685547 0)"/>
     <use xlink:href="#DejaVuSans-Bold-64" transform="translate(998.876953 0)"/>
    </g>
   </g>
  </g>
  <g id="axes_3">
   <g id="patch_8">
    <path d="M 67.298281 357.838125 
L 264.418281 357.838125 
L 264.418281 213.838125 
L 67.298281 213.838125 
z
" style="fill: #ffffff"/>
   </g>
   <g id="FillBetweenPolyCollection_3">
    <path d="M 91.938281 265.153811 
L 91.938281 312.541355 
L 93.431615 312.291774 
L 94.924948 312.012074 
L 96.418281 311.613417 
L 97.911615 311.274039 
L 99.404948 311.239371 
L 100.898281 311.045175 
L 102.391615 310.795811 
L 103.884948 310.546448 
L 105.378281 310.297084 
L 106.871615 310.047721 
L 108.364948 309.797002 
L 109.858281 309.459339 
L 111.351615 309.209023 
L 112.844948 308.879659 
L 114.338281 308.766802 
L 115.831615 308.55154 
L 117.324948 308.302177 
L 118.818281 308.10931 
L 120.311615 307.80345 
L 121.804948 307.554804 
L 123.298281 307.426409 
L 124.791615 307.403275 
L 126.284948 307.116546 
L 127.778281 306.892927 
L 129.271615 306.715191 
L 130.764948 306.566749 
L 132.258281 306.40301 
L 133.751615 306.17495 
L 135.244948 305.948108 
L 136.738281 305.668495 
L 138.231615 305.484569 
L 139.724948 305.586383 
L 141.218281 305.409508 
L 142.711615 305.266641 
L 144.204948 305.122001 
L 145.698281 304.987273 
L 147.191615 304.77977 
L 148.684948 304.679638 
L 150.178281 304.753267 
L 151.671615 304.777813 
L 153.164948 304.578999 
L 154.658281 304.504601 
L 156.151615 304.511407 
L 157.644948 304.586748 
L 159.138281 304.660059 
L 160.631615 304.512106 
L 162.124948 304.614799 
L 163.618281 304.695119 
L 165.111615 304.714502 
L 166.604948 304.791792 
L 168.098281 304.935463 
L 169.591615 305.141474 
L 171.084948 305.100387 
L 172.578281 305.069529 
L 174.071615 305.15075 
L 175.564948 305.23038 
L 177.058281 305.284073 
L 178.551615 305.631872 
L 180.044948 305.84562 
L 181.538281 305.87639 
L 183.031615 305.913938 
L 184.524948 306.092313 
L 186.018281 306.278728 
L 187.511615 306.462581 
L 189.004948 306.683499 
L 190.498281 306.682189 
L 191.991615 306.83083 
L 193.484948 306.909478 
L 194.978281 306.988126 
L 196.471615 307.287777 
L 197.964948 307.61017 
L 199.458281 307.803178 
L 200.951615 308.210288 
L 202.444948 308.551481 
L 203.938281 308.819689 
L 205.431615 309.117475 
L 206.924948 309.227994 
L 208.418281 309.430179 
L 209.911615 309.582967 
L 211.404948 309.914335 
L 212.898281 310.226182 
L 214.391615 310.628127 
L 215.884948 310.956847 
L 217.378281 311.210324 
L 218.871615 311.513767 
L 220.364948 311.883624 
L 221.858281 312.272264 
L 223.351615 312.605374 
L 224.844948 313.070753 
L 226.338281 313.614354 
L 227.831615 313.964314 
L 229.324948 314.300199 
L 230.818281 314.595765 
L 232.311615 314.864015 
L 233.804948 315.116238 
L 235.298281 315.368461 
L 236.791615 315.62015 
L 238.284948 315.871472 
L 239.778281 316.122794 
L 239.778281 270.763955 
L 239.778281 270.763955 
L 238.284948 270.992244 
L 236.791615 271.220534 
L 235.298281 271.448823 
L 233.804948 271.686343 
L 232.311615 272.009336 
L 230.818281 272.284476 
L 229.324948 272.546719 
L 227.831615 272.834272 
L 226.338281 272.97646 
L 224.844948 273.0891 
L 223.351615 273.337487 
L 221.858281 273.569662 
L 220.364948 273.809501 
L 218.871615 273.99967 
L 217.378281 274.171375 
L 215.884948 274.397108 
L 214.391615 274.654072 
L 212.898281 274.791952 
L 211.404948 275.074 
L 209.911615 275.220504 
L 208.418281 275.278465 
L 206.924948 275.40834 
L 205.431615 275.763014 
L 203.938281 276.005339 
L 202.444948 276.247664 
L 200.951615 276.489989 
L 199.458281 276.644308 
L 197.964948 276.73039 
L 196.471615 276.949706 
L 194.978281 277.436333 
L 193.484948 277.570192 
L 191.991615 277.66757 
L 190.498281 277.919466 
L 189.004948 278.048124 
L 187.511615 278.314018 
L 186.018281 278.398345 
L 184.524948 278.231033 
L 183.031615 278.267983 
L 181.538281 278.247836 
L 180.044948 278.236753 
L 178.551615 278.097109 
L 177.058281 278.173174 
L 175.564948 278.370801 
L 174.071615 278.031733 
L 172.578281 278.113942 
L 171.084948 278.18837 
L 169.591615 278.272794 
L 168.098281 278.006907 
L 166.604948 278.001395 
L 165.111615 278.122872 
L 163.618281 278.232639 
L 162.124948 278.145357 
L 160.631615 277.985599 
L 159.138281 277.986468 
L 157.644948 277.932758 
L 156.151615 277.831536 
L 154.658281 277.874595 
L 153.164948 277.622742 
L 151.671615 277.511832 
L 150.178281 277.400923 
L 148.684948 277.222337 
L 147.191615 277.01864 
L 145.698281 276.850508 
L 144.204948 276.677174 
L 142.711615 276.414012 
L 141.218281 276.188986 
L 139.724948 275.98536 
L 138.231615 275.833176 
L 136.738281 275.563776 
L 135.244948 275.305719 
L 133.751615 274.985321 
L 132.258281 274.816525 
L 130.764948 274.641704 
L 129.271615 274.466882 
L 127.778281 274.301276 
L 126.284948 274.100345 
L 124.791615 273.896989 
L 123.298281 273.446459 
L 121.804948 273.288114 
L 120.311615 272.883726 
L 118.818281 272.472111 
L 117.324948 272.059014 
L 115.831615 271.638794 
L 114.338281 271.383913 
L 112.844948 271.15296 
L 111.351615 270.59765 
L 109.858281 270.042339 
L 108.364948 269.590182 
L 106.871615 269.174984 
L 105.378281 268.759786 
L 103.884948 268.344588 
L 102.391615 267.92939 
L 100.898281 267.514939 
L 99.404948 267.107977 
L 97.911615 266.70369 
L 96.418281 266.299402 
L 94.924948 265.886078 
L 93.431615 265.475244 
L 91.938281 265.153811 
z
" clip-path="url(#p80dda671be)" style="fill: #ffa500; fill-opacity: 0.15"/>
   </g>
   <g id="PathCollection_5">
    <g clip-path="url(#p80dda671be)">
     <use xlink:href="#m612bd4969d" x="190.498281" y="311.52741" style="fill: #808080; fill-opacity: 0.85; stroke: #808080; stroke-opacity: 0.85"/>
     <use xlink:href="#m612bd4969d" x="239.778281" y="243.682686" style="fill: #808080; fill-opacity: 0.85; stroke: #808080; stroke-opacity: 0.85"/>
     <use xlink:href="#m612bd4969d" x="239.778281" y="286.188414" style="fill: #808080; fill-opacity: 0.85; stroke: #808080; stroke-opacity: 0.85"/>
     <use xlink:href="#m612bd4969d" x="239.778281" y="257.583934" style="fill: #808080; fill-opacity: 0.85; stroke: #808080; stroke-opacity: 0.85"/>
     <use xlink:href="#m612bd4969d" x="91.938281" y="297.884084" style="fill: #808080; fill-opacity: 0.85; stroke: #808080; stroke-opacity: 0.85"/>
     <use xlink:href="#m612bd4969d" x="141.218281" y="311.437966" style="fill: #808080; fill-opacity: 0.85; stroke: #808080; stroke-opacity: 0.85"/>
     <use xlink:href="#m612bd4969d" x="141.218281" y="291.030446" style="fill: #808080; fill-opacity: 0.85; stroke: #808080; stroke-opacity: 0.85"/>
     <use xlink:href="#m612bd4969d" x="239.778281" y="293.411255" style="fill: #808080; fill-opacity: 0.85; stroke: #808080; stroke-opacity: 0.85"/>
    </g>
   </g>
   <g id="PathCollection_6">
    <g clip-path="url(#p80dda671be)">
     <use xlink:href="#mcd7feb2cba" x="91.938281" y="278.255382" style="fill: #808080; fill-opacity: 0.85; stroke: #808080; stroke-opacity: 0.85"/>
     <use xlink:href="#mcd7feb2cba" x="190.498281" y="292.24312" style="fill: #808080; fill-opacity: 0.85; stroke: #808080; stroke-opacity: 0.85"/>
     <use xlink:href="#mcd7feb2cba" x="190.498281" y="315.878668" style="fill: #808080; fill-opacity: 0.85; stroke: #808080; stroke-opacity: 0.85"/>
     <use xlink:href="#mcd7feb2cba" x="141.218281" y="266.499538" style="fill: #808080; fill-opacity: 0.85; stroke: #808080; stroke-opacity: 0.85"/>
     <use xlink:href="#mcd7feb2cba" x="141.218281" y="299.109527" style="fill: #808080; fill-opacity: 0.85; stroke: #808080; stroke-opacity: 0.85"/>
     <use xlink:href="#mcd7feb2cba" x="239.778281" y="334.648152" style="fill: #808080; fill-opacity: 0.85; stroke: #808080; stroke-opacity: 0.85"/>
     <use xlink:href="#mcd7feb2cba" x="91.938281" y="318.608391" style="fill: #808080; fill-opacity: 0.85; stroke: #808080; stroke-opacity: 0.85"/>
     <use xlink:href="#mcd7feb2cba" x="141.218281" y="220.38358" style="fill: #808080; fill-opacity: 0.85; stroke: #808080; stroke-opacity: 0.85"/>
     <use xlink:href="#mcd7feb2cba" x="141.218281" y="315.178322" style="fill: #808080; fill-opacity: 0.85; stroke: #808080; stroke-opacity: 0.85"/>
     <use xlink:href="#mcd7feb2cba" x="239.778281" y="328.307159" style="fill: #808080; fill-opacity: 0.85; stroke: #808080; stroke-opacity: 0.85"/>
    </g>
   </g>
   <g id="matplotlib.axis_5">
    <g id="xtick_9">
     <g id="line2d_21">
      <g>
       <use xlink:href="#ma63d4ba1d5" x="91.938281" y="357.838125" style="stroke: #000000; stroke-width: 0.8"/>
      </g>
     </g>
     <g id="text_19">
      <!-- 1 -->
      <g transform="translate(88.438906 373.196406) scale(0.11 -0.11)">
       <use xlink:href="#DejaVuSans-31"/>
      </g>
     </g>
    </g>
    <g id="xtick_10">
     <g id="line2d_22">
      <g>
       <use xlink:href="#ma63d4ba1d5" x="141.218281" y="357.838125" style="stroke: #000000; stroke-width: 0.8"/>
      </g>
     </g>
     <g id="text_20">
      <!-- 2 -->
      <g transform="translate(137.718906 373.196406) scale(0.11 -0.11)">
       <use xlink:href="#DejaVuSans-32"/>
      </g>
     </g>
    </g>
    <g id="xtick_11">
     <g id="line2d_23">
      <g>
       <use xlink:href="#ma63d4ba1d5" x="190.498281" y="357.838125" style="stroke: #000000; stroke-width: 0.8"/>
      </g>
     </g>
     <g id="text_21">
      <!-- 3 -->
      <g transform="translate(186.998906 373.196406) scale(0.11 -0.11)">
       <use xlink:href="#DejaVuSans-33"/>
      </g>
     </g>
    </g>
    <g id="xtick_12">
     <g id="line2d_24">
      <g>
       <use xlink:href="#ma63d4ba1d5" x="239.778281" y="357.838125" style="stroke: #000000; stroke-width: 0.8"/>
      </g>
     </g>
     <g id="text_22">
      <!-- 4 -->
      <g transform="translate(236.278906 373.196406) scale(0.11 -0.11)">
       <use xlink:href="#DejaVuSans-34"/>
      </g>
     </g>
    </g>
    <g id="text_23">
     <!-- Exercise frequency -->
     <g transform="translate(96.141719 389.362031) scale(0.13 -0.13)">
      <defs>
       <path id="DejaVuSans-Bold-45" d="M 588 4666 
L 3834 4666 
L 3834 3756 
L 1791 3756 
L 1791 2888 
L 3713 2888 
L 3713 1978 
L 1791 1978 
L 1791 909 
L 3903 909 
L 3903 0 
L 588 0 
L 588 4666 
z
" transform="scale(0.015625)"/>
       <path id="DejaVuSans-Bold-78" d="M 1422 1791 
L 159 3500 
L 1344 3500 
L 2059 2463 
L 2784 3500 
L 3969 3500 
L 2706 1797 
L 4031 0 
L 2847 0 
L 2059 1106 
L 1281 0 
L 97 0 
L 1422 1791 
z
" transform="scale(0.015625)"/>
       <path id="DejaVuSans-Bold-69" d="M 538 3500 
L 1656 3500 
L 1656 0 
L 538 0 
L 538 3500 
z
M 538 4863 
L 1656 4863 
L 1656 3950 
L 538 3950 
L 538 4863 
z
" transform="scale(0.015625)"/>
       <path id="DejaVuSans-Bold-71" d="M 2181 2772 
Q 1825 2772 1636 2509 
Q 1447 2247 1447 1747 
Q 1447 1247 1636 984 
Q 1825 722 2181 722 
Q 2541 722 2730 984 
Q 2919 1247 2919 1747 
Q 2919 2247 2730 2509 
Q 2541 2772 2181 2772 
z
M 2919 506 
Q 2688 197 2409 53 
Q 2131 -91 1766 -91 
Q 1119 -91 703 423 
Q 288 938 288 1747 
Q 288 2556 703 3067 
Q 1119 3578 1766 3578 
Q 2131 3578 2409 3434 
Q 2688 3291 2919 2981 
L 2919 3500 
L 4044 3500 
L 4044 -1331 
L 2919 -1331 
L 2919 506 
z
" transform="scale(0.015625)"/>
       <path id="DejaVuSans-Bold-75" d="M 500 1363 
L 500 3500 
L 1625 3500 
L 1625 3150 
Q 1625 2866 1622 2436 
Q 1619 2006 1619 1863 
Q 1619 1441 1641 1255 
Q 1663 1069 1716 984 
Q 1784 875 1895 815 
Q 2006 756 2150 756 
Q 2500 756 2700 1025 
Q 2900 1294 2900 1772 
L 2900 3500 
L 4019 3500 
L 4019 0 
L 2900 0 
L 2900 506 
Q 2647 200 2364 54 
Q 2081 -91 1741 -91 
Q 1134 -91 817 281 
Q 500 653 500 1363 
z
" transform="scale(0.015625)"/>
       <path id="DejaVuSans-Bold-79" d="M 78 3500 
L 1197 3500 
L 2138 1125 
L 2938 3500 
L 4056 3500 
L 2584 -331 
Q 2363 -916 2067 -1148 
Q 1772 -1381 1288 -1381 
L 641 -1381 
L 641 -647 
L 991 -647 
Q 1275 -647 1404 -556 
Q 1534 -466 1606 -231 
L 1638 -134 
L 78 3500 
z
" transform="scale(0.015625)"/>
      </defs>
      <use xlink:href="#DejaVuSans-Bold-45"/>
      <use xlink:href="#DejaVuSans-Bold-78" transform="translate(68.310547 0)"/>
      <use xlink:href="#DejaVuSans-Bold-65" transform="translate(132.8125 0)"/>
      <use xlink:href="#DejaVuSans-Bold-72" transform="translate(200.634766 0)"/>
      <use xlink:href="#DejaVuSans-Bold-63" transform="translate(249.951172 0)"/>
      <use xlink:href="#DejaVuSans-Bold-69" transform="translate(309.228516 0)"/>
      <use xlink:href="#DejaVuSans-Bold-73" transform="translate(343.505859 0)"/>
      <use xlink:href="#DejaVuSans-Bold-65" transform="translate(403.027344 0)"/>
      <use xlink:href="#DejaVuSans-Bold-20" transform="translate(470.849609 0)"/>
      <use xlink:href="#DejaVuSans-Bold-66" transform="translate(505.664062 0)"/>
      <use xlink:href="#DejaVuSans-Bold-72" transform="translate(549.169922 0)"/>
      <use xlink:href="#DejaVuSans-Bold-65" transform="translate(598.486328 0)"/>
      <use xlink:href="#DejaVuSans-Bold-71" transform="translate(666.308594 0)"/>
      <use xlink:href="#DejaVuSans-Bold-75" transform="translate(737.890625 0)"/>
      <use xlink:href="#DejaVuSans-Bold-65" transform="translate(809.082031 0)"/>
      <use xlink:href="#DejaVuSans-Bold-6e" transform="translate(876.904297 0)"/>
      <use xlink:href="#DejaVuSans-Bold-63" transform="translate(948.095703 0)"/>
      <use xlink:href="#DejaVuSans-Bold-79" transform="translate(1007.373047 0)"/>
     </g>
    </g>
   </g>
   <g id="matplotlib.axis_6">
    <g id="ytick_11">
     <g id="line2d_25">
      <g>
       <use xlink:href="#ma632bc1147" x="67.298281" y="353.431854" style="stroke: #000000; stroke-width: 0.8"/>
      </g>
     </g>
     <g id="text_24">
      <!-- 30 -->
      <g transform="translate(37.083125 357.610994) scale(0.11 -0.11)">
       <defs>
        <path id="DejaVuSans-2212" d="M 678 2272 
L 4684 2272 
L 4684 1741 
L 678 1741 
L 678 2272 
z
" transform="scale(0.015625)"/>
       </defs>
       <use xlink:href="#DejaVuSans-2212"/>
       <use xlink:href="#DejaVuSans-33" transform="translate(83.789062 0)"/>
       <use xlink:href="#DejaVuSans-30" transform="translate(147.412109 0)"/>
      </g>
     </g>
    </g>
    <g id="ytick_12">
     <g id="line2d_26">
      <g>
       <use xlink:href="#ma632bc1147" x="67.298281" y="327.366807" style="stroke: #000000; stroke-width: 0.8"/>
      </g>
     </g>
     <g id="text_25">
      <!-- 20 -->
      <g transform="translate(37.083125 331.545948) scale(0.11 -0.11)">
       <use xlink:href="#DejaVuSans-2212"/>
       <use xlink:href="#DejaVuSans-32" transform="translate(83.789062 0)"/>
       <use xlink:href="#DejaVuSans-30" transform="translate(147.412109 0)"/>
      </g>
     </g>
    </g>
    <g id="ytick_13">
     <g id="line2d_27">
      <g>
       <use xlink:href="#ma632bc1147" x="67.298281" y="301.30176" style="stroke: #000000; stroke-width: 0.8"/>
      </g>
     </g>
     <g id="text_26">
      <!-- 10 -->
      <g transform="translate(37.083125 305.480901) scale(0.11 -0.11)">
       <use xlink:href="#DejaVuSans-2212"/>
       <use xlink:href="#DejaVuSans-31" transform="translate(83.789062 0)"/>
       <use xlink:href="#DejaVuSans-30" transform="translate(147.412109 0)"/>
      </g>
     </g>
    </g>
    <g id="ytick_14">
     <g id="line2d_28">
      <g>
       <use xlink:href="#ma632bc1147" x="67.298281" y="275.236713" style="stroke: #000000; stroke-width: 0.8"/>
      </g>
     </g>
     <g id="text_27">
      <!-- 0 -->
      <g transform="translate(53.299531 279.415854) scale(0.11 -0.11)">
       <use xlink:href="#DejaVuSans-30"/>
      </g>
     </g>
    </g>
    <g id="ytick_15">
     <g id="line2d_29">
      <g>
       <use xlink:href="#ma632bc1147" x="67.298281" y="249.171667" style="stroke: #000000; stroke-width: 0.8"/>
      </g>
     </g>
     <g id="text_28">
      <!-- 10 -->
      <g transform="translate(46.300781 253.350807) scale(0.11 -0.11)">
       <use xlink:href="#DejaVuSans-31"/>
       <use xlink:href="#DejaVuSans-30" transform="translate(63.623047 0)"/>
      </g>
     </g>
    </g>
    <g id="ytick_16">
     <g id="line2d_30">
      <g>
       <use xlink:href="#ma632bc1147" x="67.298281" y="223.10662" style="stroke: #000000; stroke-width: 0.8"/>
      </g>
     </g>
     <g id="text_29">
      <!-- 20 -->
      <g transform="translate(46.300781 227.285761) scale(0.11 -0.11)">
       <use xlink:href="#DejaVuSans-32"/>
       <use xlink:href="#DejaVuSans-30" transform="translate(63.623047 0)"/>
      </g>
     </g>
    </g>
    <g id="text_30">
     <!-- % change of dwell time -->
     <g transform="translate(24.277969 371.291797) rotate(-90) scale(0.13 -0.13)">
      <defs>
       <path id="DejaVuSans-Bold-77" d="M 225 3500 
L 1313 3500 
L 1900 1088 
L 2491 3500 
L 3425 3500 
L 4013 1113 
L 4603 3500 
L 5691 3500 
L 4769 0 
L 3547 0 
L 2956 2406 
L 2369 0 
L 1147 0 
L 225 3500 
z
" transform="scale(0.015625)"/>
       <path id="DejaVuSans-Bold-6c" d="M 538 4863 
L 1656 4863 
L 1656 0 
L 538 0 
L 538 4863 
z
" transform="scale(0.015625)"/>
       <path id="DejaVuSans-Bold-6d" d="M 3781 2919 
Q 3994 3244 4286 3414 
Q 4578 3584 4928 3584 
Q 5531 3584 5847 3212 
Q 6163 2841 6163 2131 
L 6163 0 
L 5038 0 
L 5038 1825 
Q 5041 1866 5042 1909 
Q 5044 1953 5044 2034 
Q 5044 2406 4934 2573 
Q 4825 2741 4581 2741 
Q 4263 2741 4089 2478 
Q 3916 2216 3909 1719 
L 3909 0 
L 2784 0 
L 2784 1825 
Q 2784 2406 2684 2573 
Q 2584 2741 2328 2741 
Q 2006 2741 1831 2477 
Q 1656 2213 1656 1722 
L 1656 0 
L 531 0 
L 531 3500 
L 1656 3500 
L 1656 2988 
Q 1863 3284 2130 3434 
Q 2397 3584 2719 3584 
Q 3081 3584 3359 3409 
Q 3638 3234 3781 2919 
z
" transform="scale(0.015625)"/>
      </defs>
      <use xlink:href="#DejaVuSans-Bold-25"/>
      <use xlink:href="#DejaVuSans-Bold-20" transform="translate(100.195312 0)"/>
      <use xlink:href="#DejaVuSans-Bold-63" transform="translate(135.009766 0)"/>
      <use xlink:href="#DejaVuSans-Bold-68" transform="translate(194.287109 0)"/>
      <use xlink:href="#DejaVuSans-Bold-61" transform="translate(265.478516 0)"/>
      <use xlink:href="#DejaVuSans-Bold-6e" transform="translate(332.958984 0)"/>
      <use xlink:href="#DejaVuSans-Bold-67" transform="translate(404.150391 0)"/>
      <use xlink:href="#DejaVuSans-Bold-65" transform="translate(475.732422 0)"/>
      <use xlink:href="#DejaVuSans-Bold-20" transform="translate(543.554688 0)"/>
      <use xlink:href="#DejaVuSans-Bold-6f" transform="translate(578.369141 0)"/>
      <use xlink:href="#DejaVuSans-Bold-66" transform="translate(647.070312 0)"/>
      <use xlink:href="#DejaVuSans-Bold-20" transform="translate(690.576172 0)"/>
      <use xlink:href="#DejaVuSans-Bold-64" transform="translate(725.390625 0)"/>
      <use xlink:href="#DejaVuSans-Bold-77" transform="translate(796.972656 0)"/>
      <use xlink:href="#DejaVuSans-Bold-65" transform="translate(889.355469 0)"/>
      <use xlink:href="#DejaVuSans-Bold-6c" transform="translate(957.177734 0)"/>
      <use xlink:href="#DejaVuSans-Bold-6c" transform="translate(991.455078 0)"/>
      <use xlink:href="#DejaVuSans-Bold-20" transform="translate(1025.732422 0)"/>
      <use xlink:href="#DejaVuSans-Bold-74" transform="translate(1060.546875 0)"/>
      <use xlink:href="#DejaVuSans-Bold-69" transform="translate(1108.349609 0)"/>
      <use xlink:href="#DejaVuSans-Bold-6d" transform="translate(1142.626953 0)"/>
      <use xlink:href="#DejaVuSans-Bold-65" transform="translate(1246.826172 0)"/>
     </g>
    </g>
   </g>
   <g id="line2d_31">
    <path d="M 91.938281 291.973993 
L 93.431615 291.980383 
L 94.924948 291.986773 
L 96.418281 291.993163 
L 97.911615 291.999553 
L 99.404948 292.005943 
L 100.898281 292.012333 
L 102.391615 292.018723 
L 103.884948 292.025113 
L 105.378281 292.031503 
L 106.871615 292.037894 
L 108.364948 292.044284 
L 109.858281 292.050674 
L 111.351615 292.057064 
L 112.844948 292.063454 
L 114.338281 292.069844 
L 115.831615 292.076234 
L 117.324948 292.082624 
L 118.818281 292.089014 
L 120.311615 292.095404 
L 121.804948 292.101794 
L 123.298281 292.108184 
L 124.791615 292.114574 
L 126.284948 292.120964 
L 127.778281 292.127354 
L 129.271615 292.133744 
L 130.764948 292.140135 
L 132.258281 292.146525 
L 133.751615 292.152915 
L 135.244948 292.159305 
L 136.738281 292.165695 
L 138.231615 292.172085 
L 139.724948 292.178475 
L 141.218281 292.184865 
L 142.711615 292.191255 
L 144.204948 292.197645 
L 145.698281 292.204035 
L 147.191615 292.210425 
L 148.684948 292.216815 
L 150.178281 292.223205 
L 151.671615 292.229595 
L 153.164948 292.235985 
L 154.658281 292.242375 
L 156.151615 292.248766 
L 157.644948 292.255156 
L 159.138281 292.261546 
L 160.631615 292.267936 
L 162.124948 292.274326 
L 163.618281 292.280716 
L 165.111615 292.287106 
L 166.604948 292.293496 
L 168.098281 292.299886 
L 169.591615 292.306276 
L 171.084948 292.312666 
L 172.578281 292.319056 
L 174.071615 292.325446 
L 175.564948 292.331836 
L 177.058281 292.338226 
L 178.551615 292.344616 
L 180.044948 292.351007 
L 181.538281 292.357397 
L 183.031615 292.363787 
L 184.524948 292.370177 
L 186.018281 292.376567 
L 187.511615 292.382957 
L 189.004948 292.389347 
L 190.498281 292.395737 
L 191.991615 292.402127 
L 193.484948 292.408517 
L 194.978281 292.414907 
L 196.471615 292.421297 
L 197.964948 292.427687 
L 199.458281 292.434077 
L 200.951615 292.440467 
L 202.444948 292.446857 
L 203.938281 292.453247 
L 205.431615 292.459638 
L 206.924948 292.466028 
L 208.418281 292.472418 
L 209.911615 292.478808 
L 211.404948 292.485198 
L 212.898281 292.491588 
L 214.391615 292.497978 
L 215.884948 292.504368 
L 217.378281 292.510758 
L 218.871615 292.517148 
L 220.364948 292.523538 
L 221.858281 292.529928 
L 223.351615 292.536318 
L 224.844948 292.542708 
L 226.338281 292.549098 
L 227.831615 292.555488 
L 229.324948 292.561879 
L 230.818281 292.568269 
L 232.311615 292.574659 
L 233.804948 292.581049 
L 235.298281 292.587439 
L 236.791615 292.593829 
L 238.284948 292.600219 
L 239.778281 292.606609 
" clip-path="url(#p80dda671be)" style="fill: none; stroke: #ffa500; stroke-width: 2.25; stroke-linecap: square"/>
   </g>
   <g id="patch_9">
    <path d="M 67.298281 357.838125 
L 67.298281 213.838125 
" style="fill: none; stroke: #000000; stroke-width: 0.8; stroke-linejoin: miter; stroke-linecap: square"/>
   </g>
   <g id="patch_10">
    <path d="M 67.298281 357.838125 
L 264.418281 357.838125 
" style="fill: none; stroke: #000000; stroke-width: 0.8; stroke-linejoin: miter; stroke-linecap: square"/>
   </g>
   <g id="text_31">
    <!-- r=-0.01 -->
    <g transform="translate(201.339881 232.956563) scale(0.1 -0.1)">
     <defs>
      <path id="DejaVuSans-2d" d="M 313 2009 
L 1997 2009 
L 1997 1497 
L 313 1497 
L 313 2009 
z
" transform="scale(0.015625)"/>
     </defs>
     <use xlink:href="#DejaVuSans-72"/>
     <use xlink:href="#DejaVuSans-3d" transform="translate(41.113281 0)"/>
     <use xlink:href="#DejaVuSans-2d" transform="translate(124.902344 0)"/>
     <use xlink:href="#DejaVuSans-30" transform="translate(160.986328 0)"/>
     <use xlink:href="#DejaVuSans-2e" transform="translate(224.609375 0)"/>
     <use xlink:href="#DejaVuSans-30" transform="translate(256.396484 0)"/>
     <use xlink:href="#DejaVuSans-31" transform="translate(320.019531 0)"/>
    </g>
    <!-- p=0.970 -->
    <g transform="translate(201.339881 244.154375) scale(0.1 -0.1)">
     <defs>
      <path id="DejaVuSans-39" d="M 703 97 
L 703 672 
Q 941 559 1184 500 
Q 1428 441 1663 441 
Q 2288 441 2617 861 
Q 2947 1281 2994 2138 
Q 2813 1869 2534 1725 
Q 2256 1581 1919 1581 
Q 1219 1581 811 2004 
Q 403 2428 403 3163 
Q 403 3881 828 4315 
Q 1253 4750 1959 4750 
Q 2769 4750 3195 4129 
Q 3622 3509 3622 2328 
Q 3622 1225 3098 567 
Q 2575 -91 1691 -91 
Q 1453 -91 1209 -44 
Q 966 3 703 97 
z
M 1959 2075 
Q 2384 2075 2632 2365 
Q 2881 2656 2881 3163 
Q 2881 3666 2632 3958 
Q 2384 4250 1959 4250 
Q 1534 4250 1286 3958 
Q 1038 3666 1038 3163 
Q 1038 2656 1286 2365 
Q 1534 2075 1959 2075 
z
" transform="scale(0.015625)"/>
     </defs>
     <use xlink:href="#DejaVuSans-70"/>
     <use xlink:href="#DejaVuSans-3d" transform="translate(63.476562 0)"/>
     <use xlink:href="#DejaVuSans-30" transform="translate(147.265625 0)"/>
     <use xlink:href="#DejaVuSans-2e" transform="translate(210.888672 0)"/>
     <use xlink:href="#DejaVuSans-39" transform="translate(242.675781 0)"/>
     <use xlink:href="#DejaVuSans-37" transform="translate(306.298828 0)"/>
     <use xlink:href="#DejaVuSans-30" transform="translate(369.921875 0)"/>
    </g>
   </g>
  </g>
  <g id="axes_4">
   <g id="patch_11">
    <path d="M 313.698281 357.838125 
L 510.818281 357.838125 
L 510.818281 213.838125 
L 313.698281 213.838125 
z
" style="fill: #ffffff"/>
   </g>
   <g id="FillBetweenPolyCollection_4">
    <path d="M 338.338281 276.341352 
L 338.338281 336.698609 
L 339.831615 336.116929 
L 341.324948 335.516496 
L 342.818281 334.915035 
L 344.311615 334.372781 
L 345.804948 333.792971 
L 347.298281 333.122624 
L 348.791615 332.478395 
L 350.284948 331.91534 
L 351.778281 331.323665 
L 353.271615 330.700864 
L 354.764948 330.07739 
L 356.258281 329.452686 
L 357.751615 328.852183 
L 359.244948 328.367246 
L 360.738281 327.890757 
L 362.231615 327.28734 
L 363.724948 326.786123 
L 365.218281 326.240452 
L 366.711615 325.624101 
L 368.204948 324.977703 
L 369.698281 324.496984 
L 371.191615 323.92044 
L 372.684948 323.343896 
L 374.178281 322.76914 
L 375.671615 322.251984 
L 377.164948 321.734828 
L 378.658281 321.217672 
L 380.151615 320.700516 
L 381.644948 320.169236 
L 383.138281 319.567154 
L 384.631615 319.126351 
L 386.124948 318.643623 
L 387.618281 318.129812 
L 389.111615 317.564243 
L 390.604948 316.912275 
L 392.098281 316.496312 
L 393.591615 315.937076 
L 395.084948 315.526755 
L 396.578281 315.042629 
L 398.071615 314.527735 
L 399.564948 314.125756 
L 401.058281 313.767447 
L 402.551615 313.261325 
L 404.044948 312.726298 
L 405.538281 312.292136 
L 407.031615 311.807392 
L 408.524948 311.288901 
L 410.018281 311.182012 
L 411.511615 310.975356 
L 413.004948 310.595079 
L 414.498281 310.142799 
L 415.991615 309.665008 
L 417.484948 309.360479 
L 418.978281 308.855887 
L 420.471615 308.563764 
L 421.964948 308.281681 
L 423.458281 308.037935 
L 424.951615 307.793062 
L 426.444948 307.544733 
L 427.938281 307.248776 
L 429.431615 307.022973 
L 430.924948 306.670744 
L 432.418281 306.317479 
L 433.911615 306.052797 
L 435.404948 305.800623 
L 436.898281 305.584693 
L 438.391615 305.284672 
L 439.884948 305.033245 
L 441.378281 305.018458 
L 442.871615 304.786044 
L 444.364948 304.596948 
L 445.858281 304.534466 
L 447.351615 304.309898 
L 448.844948 304.169352 
L 450.338281 303.843087 
L 451.831615 303.5244 
L 453.324948 303.306297 
L 454.818281 303.201732 
L 456.311615 302.952884 
L 457.804948 302.708428 
L 459.298281 302.463973 
L 460.791615 302.286959 
L 462.284948 302.568079 
L 463.778281 302.354792 
L 465.271615 302.141506 
L 466.764948 301.928219 
L 468.258281 301.714908 
L 469.751615 301.594548 
L 471.244948 301.326734 
L 472.738281 301.192226 
L 474.231615 301.056404 
L 475.724948 300.955415 
L 477.218281 300.787238 
L 478.711615 300.684633 
L 480.204948 300.636064 
L 481.698281 300.5353 
L 483.191615 300.502143 
L 484.684948 300.497638 
L 486.178281 300.449149 
L 486.178281 263.717565 
L 486.178281 263.717565 
L 484.684948 264.320347 
L 483.191615 264.927505 
L 481.698281 265.534663 
L 480.204948 266.073873 
L 478.711615 266.49269 
L 477.218281 266.927572 
L 475.724948 267.520248 
L 474.231615 268.118571 
L 472.738281 268.578916 
L 471.244948 269.021756 
L 469.751615 269.502267 
L 468.258281 269.864941 
L 466.764948 270.289929 
L 465.271615 270.714916 
L 463.778281 271.082936 
L 462.284948 271.52084 
L 460.791615 272.143493 
L 459.298281 272.752793 
L 457.804948 273.167089 
L 456.311615 273.439135 
L 454.818281 273.723574 
L 453.324948 273.981808 
L 451.831615 274.411882 
L 450.338281 274.860293 
L 448.844948 274.841664 
L 447.351615 275.293174 
L 445.858281 275.790069 
L 444.364948 276.160052 
L 442.871615 276.475098 
L 441.378281 276.76594 
L 439.884948 276.842398 
L 438.391615 276.931116 
L 436.898281 277.390212 
L 435.404948 277.921134 
L 433.911615 278.456942 
L 432.418281 278.787634 
L 430.924948 278.945172 
L 429.431615 278.978317 
L 427.938281 279.226242 
L 426.444948 279.446971 
L 424.951615 279.219238 
L 423.458281 279.436105 
L 421.964948 279.705508 
L 420.471615 279.637941 
L 418.978281 279.921631 
L 417.484948 279.645987 
L 415.991615 279.483048 
L 414.498281 279.540145 
L 413.004948 279.725186 
L 411.511615 279.910213 
L 410.018281 280.146934 
L 408.524948 280.280495 
L 407.031615 280.320258 
L 405.538281 280.14668 
L 404.044948 280.018643 
L 402.551615 279.920567 
L 401.058281 279.871803 
L 399.564948 279.830641 
L 398.071615 279.83074 
L 396.578281 279.93363 
L 395.084948 280.017289 
L 393.591615 279.778334 
L 392.098281 279.608011 
L 390.604948 279.562463 
L 389.111615 279.517892 
L 387.618281 279.603365 
L 386.124948 279.849657 
L 384.631615 279.673085 
L 383.138281 279.491153 
L 381.644948 279.307387 
L 380.151615 279.24566 
L 378.658281 279.19722 
L 377.164948 279.149129 
L 375.671615 278.989141 
L 374.178281 278.783179 
L 372.684948 278.69681 
L 371.191615 278.66867 
L 369.698281 278.646557 
L 368.204948 278.625817 
L 366.711615 278.605076 
L 365.218281 278.580909 
L 363.724948 278.554621 
L 362.231615 278.528333 
L 360.738281 278.401634 
L 359.244948 278.296541 
L 357.751615 278.45388 
L 356.258281 278.42598 
L 354.764948 278.398081 
L 353.271615 278.274699 
L 351.778281 278.036273 
L 350.284948 277.797846 
L 348.791615 277.55942 
L 347.298281 277.320993 
L 345.804948 277.082567 
L 344.311615 276.846692 
L 342.818281 276.74625 
L 341.324948 276.785257 
L 339.831615 276.60866 
L 338.338281 276.341352 
z
" clip-path="url(#pa8e9c964b3)" style="fill: #ffa500; fill-opacity: 0.15"/>
   </g>
   <g id="PathCollection_7">
    <g clip-path="url(#pa8e9c964b3)">
     <use xlink:href="#m612bd4969d" x="436.898281" y="292.235658" style="fill: #808080; fill-opacity: 0.85; stroke: #808080; stroke-opacity: 0.85"/>
     <use xlink:href="#m612bd4969d" x="486.178281" y="295.144375" style="fill: #808080; fill-opacity: 0.85; stroke: #808080; stroke-opacity: 0.85"/>
     <use xlink:href="#m612bd4969d" x="486.178281" y="284.137391" style="fill: #808080; fill-opacity: 0.85; stroke: #808080; stroke-opacity: 0.85"/>
     <use xlink:href="#m612bd4969d" x="486.178281" y="273.646473" style="fill: #808080; fill-opacity: 0.85; stroke: #808080; stroke-opacity: 0.85"/>
     <use xlink:href="#m612bd4969d" x="338.338281" y="349.38782" style="fill: #808080; fill-opacity: 0.85; stroke: #808080; stroke-opacity: 0.85"/>
     <use xlink:href="#m612bd4969d" x="387.618281" y="351.29267" style="fill: #808080; fill-opacity: 0.85; stroke: #808080; stroke-opacity: 0.85"/>
     <use xlink:href="#m612bd4969d" x="387.618281" y="315.709484" style="fill: #808080; fill-opacity: 0.85; stroke: #808080; stroke-opacity: 0.85"/>
     <use xlink:href="#m612bd4969d" x="486.178281" y="252.32158" style="fill: #808080; fill-opacity: 0.85; stroke: #808080; stroke-opacity: 0.85"/>
    </g>
   </g>
   <g id="PathCollection_8">
    <g clip-path="url(#pa8e9c964b3)">
     <use xlink:href="#mcd7feb2cba" x="338.338281" y="335.954219" style="fill: #808080; fill-opacity: 0.85; stroke: #808080; stroke-opacity: 0.85"/>
     <use xlink:href="#mcd7feb2cba" x="436.898281" y="288.276654" style="fill: #808080; fill-opacity: 0.85; stroke: #808080; stroke-opacity: 0.85"/>
     <use xlink:href="#mcd7feb2cba" x="436.898281" y="275.895561" style="fill: #808080; fill-opacity: 0.85; stroke: #808080; stroke-opacity: 0.85"/>
     <use xlink:href="#mcd7feb2cba" x="387.618281" y="238.387607" style="fill: #808080; fill-opacity: 0.85; stroke: #808080; stroke-opacity: 0.85"/>
     <use xlink:href="#mcd7feb2cba" x="387.618281" y="301.414139" style="fill: #808080; fill-opacity: 0.85; stroke: #808080; stroke-opacity: 0.85"/>
     <use xlink:href="#mcd7feb2cba" x="486.178281" y="337.354442" style="fill: #808080; fill-opacity: 0.85; stroke: #808080; stroke-opacity: 0.85"/>
     <use xlink:href="#mcd7feb2cba" x="338.338281" y="300.300371" style="fill: #808080; fill-opacity: 0.85; stroke: #808080; stroke-opacity: 0.85"/>
     <use xlink:href="#mcd7feb2cba" x="387.618281" y="239.755435" style="fill: #808080; fill-opacity: 0.85; stroke: #808080; stroke-opacity: 0.85"/>
     <use xlink:href="#mcd7feb2cba" x="387.618281" y="297.039781" style="fill: #808080; fill-opacity: 0.85; stroke: #808080; stroke-opacity: 0.85"/>
     <use xlink:href="#mcd7feb2cba" x="486.178281" y="278.227723" style="fill: #808080; fill-opacity: 0.85; stroke: #808080; stroke-opacity: 0.85"/>
    </g>
   </g>
   <g id="matplotlib.axis_7">
    <g id="xtick_13">
     <g id="line2d_32">
      <g>
       <use xlink:href="#ma63d4ba1d5" x="338.338281" y="357.838125" style="stroke: #000000; stroke-width: 0.8"/>
      </g>
     </g>
     <g id="text_32">
      <!-- 1 -->
      <g transform="translate(334.838906 373.196406) scale(0.11 -0.11)">
       <use xlink:href="#DejaVuSans-31"/>
      </g>
     </g>
    </g>
    <g id="xtick_14">
     <g id="line2d_33">
      <g>
       <use xlink:href="#ma63d4ba1d5" x="387.618281" y="357.838125" style="stroke: #000000; stroke-width: 0.8"/>
      </g>
     </g>
     <g id="text_33">
      <!-- 2 -->
      <g transform="translate(384.118906 373.196406) scale(0.11 -0.11)">
       <use xlink:href="#DejaVuSans-32"/>
      </g>
     </g>
    </g>
    <g id="xtick_15">
     <g id="line2d_34">
      <g>
       <use xlink:href="#ma63d4ba1d5" x="436.898281" y="357.838125" style="stroke: #000000; stroke-width: 0.8"/>
      </g>
     </g>
     <g id="text_34">
      <!-- 3 -->
      <g transform="translate(433.398906 373.196406) scale(0.11 -0.11)">
       <use xlink:href="#DejaVuSans-33"/>
      </g>
     </g>
    </g>
    <g id="xtick_16">
     <g id="line2d_35">
      <g>
       <use xlink:href="#ma63d4ba1d5" x="486.178281" y="357.838125" style="stroke: #000000; stroke-width: 0.8"/>
      </g>
     </g>
     <g id="text_35">
      <!-- 4 -->
      <g transform="translate(482.678906 373.196406) scale(0.11 -0.11)">
       <use xlink:href="#DejaVuSans-34"/>
      </g>
     </g>
    </g>
    <g id="text_36">
     <!-- Exercise frequency -->
     <g transform="translate(342.541719 389.362031) scale(0.13 -0.13)">
      <use xlink:href="#DejaVuSans-Bold-45"/>
      <use xlink:href="#DejaVuSans-Bold-78" transform="translate(68.310547 0)"/>
      <use xlink:href="#DejaVuSans-Bold-65" transform="translate(132.8125 0)"/>
      <use xlink:href="#DejaVuSans-Bold-72" transform="translate(200.634766 0)"/>
      <use xlink:href="#DejaVuSans-Bold-63" transform="translate(249.951172 0)"/>
      <use xlink:href="#DejaVuSans-Bold-69" transform="translate(309.228516 0)"/>
      <use xlink:href="#DejaVuSans-Bold-73" transform="translate(343.505859 0)"/>
      <use xlink:href="#DejaVuSans-Bold-65" transform="translate(403.027344 0)"/>
      <use xlink:href="#DejaVuSans-Bold-20" transform="translate(470.849609 0)"/>
      <use xlink:href="#DejaVuSans-Bold-66" transform="translate(505.664062 0)"/>
      <use xlink:href="#DejaVuSans-Bold-72" transform="translate(549.169922 0)"/>
      <use xlink:href="#DejaVuSans-Bold-65" transform="translate(598.486328 0)"/>
      <use xlink:href="#DejaVuSans-Bold-71" transform="translate(666.308594 0)"/>
      <use xlink:href="#DejaVuSans-Bold-75" transform="translate(737.890625 0)"/>
      <use xlink:href="#DejaVuSans-Bold-65" transform="translate(809.082031 0)"/>
      <use xlink:href="#DejaVuSans-Bold-6e" transform="translate(876.904297 0)"/>
      <use xlink:href="#DejaVuSans-Bold-63" transform="translate(948.095703 0)"/>
      <use xlink:href="#DejaVuSans-Bold-79" transform="translate(1007.373047 0)"/>
     </g>
    </g>
   </g>
   <g id="matplotlib.axis_8">
    <g id="ytick_17">
     <g id="line2d_36">
      <g>
       <use xlink:href="#ma632bc1147" x="313.698281" y="353.431854" style="stroke: #000000; stroke-width: 0.8"/>
      </g>
     </g>
    </g>
    <g id="ytick_18">
     <g id="line2d_37">
      <g>
       <use xlink:href="#ma632bc1147" x="313.698281" y="327.366807" style="stroke: #000000; stroke-width: 0.8"/>
      </g>
     </g>
    </g>
    <g id="ytick_19">
     <g id="line2d_38">
      <g>
       <use xlink:href="#ma632bc1147" x="313.698281" y="301.30176" style="stroke: #000000; stroke-width: 0.8"/>
      </g>
     </g>
    </g>
    <g id="ytick_20">
     <g id="line2d_39">
      <g>
       <use xlink:href="#ma632bc1147" x="313.698281" y="275.236713" style="stroke: #000000; stroke-width: 0.8"/>
      </g>
     </g>
    </g>
    <g id="ytick_21">
     <g id="line2d_40">
      <g>
       <use xlink:href="#ma632bc1147" x="313.698281" y="249.171667" style="stroke: #000000; stroke-width: 0.8"/>
      </g>
     </g>
    </g>
    <g id="ytick_22">
     <g id="line2d_41">
      <g>
       <use xlink:href="#ma632bc1147" x="313.698281" y="223.10662" style="stroke: #000000; stroke-width: 0.8"/>
      </g>
     </g>
    </g>
   </g>
   <g id="line2d_42">
    <path d="M 338.338281 311.867008 
L 339.831615 311.556781 
L 341.324948 311.246554 
L 342.818281 310.936327 
L 344.311615 310.6261 
L 345.804948 310.315873 
L 347.298281 310.005646 
L 348.791615 309.695419 
L 350.284948 309.385192 
L 351.778281 309.074965 
L 353.271615 308.764738 
L 354.764948 308.454511 
L 356.258281 308.144284 
L 357.751615 307.834057 
L 359.244948 307.52383 
L 360.738281 307.213603 
L 362.231615 306.903376 
L 363.724948 306.593149 
L 365.218281 306.282921 
L 366.711615 305.972694 
L 368.204948 305.662467 
L 369.698281 305.35224 
L 371.191615 305.042013 
L 372.684948 304.731786 
L 374.178281 304.421559 
L 375.671615 304.111332 
L 377.164948 303.801105 
L 378.658281 303.490878 
L 380.151615 303.180651 
L 381.644948 302.870424 
L 383.138281 302.560197 
L 384.631615 302.24997 
L 386.124948 301.939743 
L 387.618281 301.629516 
L 389.111615 301.319289 
L 390.604948 301.009062 
L 392.098281 300.698835 
L 393.591615 300.388608 
L 395.084948 300.078381 
L 396.578281 299.768154 
L 398.071615 299.457927 
L 399.564948 299.1477 
L 401.058281 298.837473 
L 402.551615 298.527246 
L 404.044948 298.217019 
L 405.538281 297.906792 
L 407.031615 297.596565 
L 408.524948 297.286338 
L 410.018281 296.976111 
L 411.511615 296.665884 
L 413.004948 296.355656 
L 414.498281 296.045429 
L 415.991615 295.735202 
L 417.484948 295.424975 
L 418.978281 295.114748 
L 420.471615 294.804521 
L 421.964948 294.494294 
L 423.458281 294.184067 
L 424.951615 293.87384 
L 426.444948 293.563613 
L 427.938281 293.253386 
L 429.431615 292.943159 
L 430.924948 292.632932 
L 432.418281 292.322705 
L 433.911615 292.012478 
L 435.404948 291.702251 
L 436.898281 291.392024 
L 438.391615 291.081797 
L 439.884948 290.77157 
L 441.378281 290.461343 
L 442.871615 290.151116 
L 444.364948 289.840889 
L 445.858281 289.530662 
L 447.351615 289.220435 
L 448.844948 288.910208 
L 450.338281 288.599981 
L 451.831615 288.289754 
L 453.324948 287.979527 
L 454.818281 287.6693 
L 456.311615 287.359073 
L 457.804948 287.048846 
L 459.298281 286.738619 
L 460.791615 286.428391 
L 462.284948 286.118164 
L 463.778281 285.807937 
L 465.271615 285.49771 
L 466.764948 285.187483 
L 468.258281 284.877256 
L 469.751615 284.567029 
L 471.244948 284.256802 
L 472.738281 283.946575 
L 474.231615 283.636348 
L 475.724948 283.326121 
L 477.218281 283.015894 
L 478.711615 282.705667 
L 480.204948 282.39544 
L 481.698281 282.085213 
L 483.191615 281.774986 
L 484.684948 281.464759 
L 486.178281 281.154532 
" clip-path="url(#pa8e9c964b3)" style="fill: none; stroke: #ffa500; stroke-width: 2.25; stroke-linecap: square"/>
   </g>
   <g id="patch_12">
    <path d="M 313.698281 357.838125 
L 313.698281 213.838125 
" style="fill: none; stroke: #000000; stroke-width: 0.8; stroke-linejoin: miter; stroke-linecap: square"/>
   </g>
   <g id="patch_13">
    <path d="M 313.698281 357.838125 
L 510.818281 357.838125 
" style="fill: none; stroke: #000000; stroke-width: 0.8; stroke-linejoin: miter; stroke-linecap: square"/>
   </g>
   <g id="text_37">
    <!-- r=0.43 -->
    <g transform="translate(447.739881 232.956563) scale(0.1 -0.1)">
     <use xlink:href="#DejaVuSans-72"/>
     <use xlink:href="#DejaVuSans-3d" transform="translate(41.113281 0)"/>
     <use xlink:href="#DejaVuSans-30" transform="translate(124.902344 0)"/>
     <use xlink:href="#DejaVuSans-2e" transform="translate(188.525391 0)"/>
     <use xlink:href="#DejaVuSans-34" transform="translate(220.3125 0)"/>
     <use xlink:href="#DejaVuSans-33" transform="translate(283.935547 0)"/>
    </g>
    <!-- p=0.078 -->
    <g transform="translate(447.739881 244.154375) scale(0.1 -0.1)">
     <use xlink:href="#DejaVuSans-70"/>
     <use xlink:href="#DejaVuSans-3d" transform="translate(63.476562 0)"/>
     <use xlink:href="#DejaVuSans-30" transform="translate(147.265625 0)"/>
     <use xlink:href="#DejaVuSans-2e" transform="translate(210.888672 0)"/>
     <use xlink:href="#DejaVuSans-30" transform="translate(242.675781 0)"/>
     <use xlink:href="#DejaVuSans-37" transform="translate(306.298828 0)"/>
     <use xlink:href="#DejaVuSans-38" transform="translate(369.921875 0)"/>
    </g>
   </g>
  </g>
 </g>
 <defs>
  <clipPath id="pc7f60414a9">
   <rect x="67.298281" y="29.518125" width="197.12" height="144"/>
  </clipPath>
  <clipPath id="pfbadeb66e4">
   <rect x="313.698281" y="29.518125" width="197.12" height="144"/>
  </clipPath>
  <clipPath id="p80dda671be">
   <rect x="67.298281" y="213.838125" width="197.12" height="144"/>
  </clipPath>
  <clipPath id="pa8e9c964b3">
   <rect x="313.698281" y="213.838125" width="197.12" height="144"/>
  </clipPath>
 </defs>
</svg>
